<?xml version="1.0" encoding="UTF-8"?>
<svg id="_レイヤー_2" data-name="レイヤー 2" xmlns="http://www.w3.org/2000/svg" viewBox="0 0 446.3720703 171.5458984">
  <defs>
    <style>
      .cls-1 {
        fill: #4d516a;
        stroke-width: 0px;
      }
    </style>
  </defs>
  <g id="top">
    <g>
      <path class="cls-1" d="m113.0703125,17.1469727L108.7011719.8876953h2.2900391c1.2607422,5.3261719,3.0136719,12.0541992,3.3173828,13.8999023h.0224609c.4208984-2.0791016,2.6640625-9.7416992,3.7148438-13.8999023h2.1025391c.9814453,3.644043,3.2001953,11.890625,3.5507812,13.8295898h.0234375c.5371094-2.8032227,2.8037109-10.4892578,3.6914062-13.8295898h2.1259766l-4.7431641,16.2592773h-2.3125c-.9814453-3.737793-3.0605469-11.4936523-3.4570312-13.4326172h-.0234375c-.4912109,2.4296875-2.59375,9.6948242-3.6210938,13.4326172h-2.3125Z"/>
      <path class="cls-1" d="m134.1894531,11.5869141c.0234375,2.40625,1.2382812,4.1352539,3.2470703,4.1352539,1.8691406,0,2.4765625-.9814453,2.8505859-1.8457031h2.0791016c-.4677734,1.5185547-1.7519531,3.5507812-5,3.5507812-3.7138672,0-5.2324219-3.0371094-5.2324219-6.0737305,0-3.527832,1.7753906-6.3310547,5.3730469-6.3310547,3.8310547,0,5.0693359,3.0605469,5.0693359,5.5834961,0,.3735352,0,.6772461-.0234375.980957h-8.3632812Zm6.3076172-1.4248047c-.0234375-1.9624023-1.0048828-3.527832-3.0136719-3.527832-2.1025391,0-3.0136719,1.4487305-3.2236328,3.527832h6.2373047Z"/>
      <path class="cls-1" d="m146.3613281,17.1469727V0h2.0556641v17.1469727h-2.0556641Z"/>
      <path class="cls-1" d="m162.4121094,13.5258789c-.4902344,2.0327148-1.8691406,3.9013672-4.8828125,3.9013672-3.2705078,0-5.2792969-2.3359375-5.2792969-6.144043,0-3.340332,1.8925781-6.2607422,5.4199219-6.2607422,3.4101562,0,4.6015625,2.4296875,4.7421875,3.9482422h-2.0322266c-.2802734-1.1914062-1.0283203-2.2426758-2.7568359-2.2426758-2.0791016,0-3.2705078,1.7988281-3.2705078,4.4853516,0,2.7099609,1.1445312,4.5087891,3.2001953,4.5087891,1.4716797,0,2.3359375-.7944336,2.8271484-2.1962891h2.0322266Z"/>
      <path class="cls-1" d="m176.2421875,11.1899414c0,3.434082-1.9619141,6.2373047-5.5830078,6.2373047-3.3876953,0-5.4433594-2.6162109-5.4433594-6.1904297,0-3.5043945,2.0087891-6.2143555,5.5830078-6.2143555,3.2939453,0,5.4433594,2.453125,5.4433594,6.1674805Zm-8.9238281.0234375c0,2.6162109,1.3085938,4.5087891,3.4335938,4.5087891,2.1494141,0,3.3876953-1.7988281,3.3876953-4.4853516,0-2.6635742-1.2148438-4.5087891-3.4335938-4.5087891-2.2197266,0-3.3876953,1.7988281-3.3876953,4.4853516Z"/>
      <path class="cls-1" d="m180.0742188,8.3632812c0-1.027832,0-2.1025391-.0234375-3.0605469h1.9628906c.046875.3505859.0927734,1.2148438.0927734,1.8222656.5380859-1.0512695,1.5654297-2.1025391,3.4345703-2.1025391,1.6816406,0,2.8261719.8408203,3.2939453,2.1259766.6308594-1.121582,1.7519531-2.1259766,3.7607422-2.1259766,1.9394531,0,3.7382812,1.1445312,3.7382812,4.3452148v7.7792969h-2.0097656v-7.5458984c0-1.3544922-.4902344-2.8032227-2.3359375-2.8032227-1.9384766,0-2.7792969,1.4487305-2.7792969,3.5507812v6.7983398h-2.0097656v-7.4755859c0-1.5185547-.4199219-2.8735352-2.2890625-2.8735352-1.8925781,0-2.8037109,1.5419922-2.8037109,3.784668v6.5644531h-2.0322266v-8.7836914Z"/>
      <path class="cls-1" d="m202.2216797,11.5869141c.0234375,2.40625,1.2382812,4.1352539,3.2470703,4.1352539,1.8691406,0,2.4765625-.9814453,2.8505859-1.8457031h2.0791016c-.4677734,1.5185547-1.7519531,3.5507812-5,3.5507812-3.7138672,0-5.2324219-3.0371094-5.2324219-6.0737305,0-3.527832,1.7753906-6.3310547,5.3730469-6.3310547,3.8310547,0,5.0693359,3.0605469,5.0693359,5.5834961,0,.3735352,0,.6772461-.0234375.980957h-8.3632812Zm6.3076172-1.4248047c-.0234375-1.9624023-1.0048828-3.527832-3.0136719-3.527832-2.1025391,0-3.0136719,1.4487305-3.2236328,3.527832h6.2373047Z"/>
      <path class="cls-1" d="m227.0322266,5.3027344h2.0556641V1.7988281h2.0332031v3.5039062h2.6162109v1.6586914h-2.6162109v6.9384766c0,1.1679688.2802734,1.7519531,1.3544922,1.7519531.2802734,0,.7011719-.0234375,1.0283203-.0932617v1.5415039c-.4912109.1870117-1.1914062.2104492-1.7753906.2104492-1.8457031,0-2.640625-.9580078-2.640625-2.9204102v-7.4287109h-2.0556641v-1.6586914Z"/>
      <path class="cls-1" d="m247.3564453,11.1899414c0,3.434082-1.9619141,6.2373047-5.5830078,6.2373047-3.3876953,0-5.4433594-2.6162109-5.4433594-6.1904297,0-3.5043945,2.0087891-6.2143555,5.5830078-6.2143555,3.2939453,0,5.4433594,2.453125,5.4433594,6.1674805Zm-8.9238281.0234375c0,2.6162109,1.3085938,4.5087891,3.4335938,4.5087891,2.1494141,0,3.3876953-1.7988281,3.3876953-4.4853516,0-2.6635742-1.2148438-4.5087891-3.4335938-4.5087891-2.2197266,0-3.3876953,1.7988281-3.3876953,4.4853516Z"/>
      <path class="cls-1" d="m265.7421875,17.1469727V.8876953h2.8496094c2.3359375,3.8076172,7.40625,11.890625,8.3164062,13.6425781h.0234375c-.1630859-2.0791016-.1396484-4.6484375-.1396484-7.2885742V.8876953h2.0322266v16.2592773h-2.6865234c-2.1494141-3.5273438-7.4287109-12.2177734-8.4335938-14.0400391h-.046875c.1171875,1.8457031.1171875,4.6020508.1171875,7.5454102v6.4946289h-2.0322266Z"/>
      <path class="cls-1" d="m294.0810547,11.1899414c0,3.434082-1.9619141,6.2373047-5.5830078,6.2373047-3.3876953,0-5.4433594-2.6162109-5.4433594-6.1904297,0-3.5043945,2.0087891-6.2143555,5.5830078-6.2143555,3.2939453,0,5.4433594,2.453125,5.4433594,6.1674805Zm-8.9238281.0234375c0,2.6162109,1.3085938,4.5087891,3.4335938,4.5087891,2.1494141,0,3.3876953-1.7988281,3.3876953-4.4853516,0-2.6635742-1.2148438-4.5087891-3.4335938-4.5087891-2.2197266,0-3.3876953,1.7988281-3.3876953,4.4853516Z"/>
      <path class="cls-1" d="m297.9130859,8.5268555c0-1.6586914-.0234375-2.5932617-.0234375-3.2241211h2.0087891c.0234375.3271484.0703125,1.2617188.0703125,2.40625.6074219-1.5883789,2.0097656-2.6396484,3.9716797-2.6865234v2.0322266c-2.4296875.0703125-3.9716797,1.3549805-3.9716797,4.3452148v5.7470703h-2.0556641v-8.6201172Z"/>
      <path class="cls-1" d="m317.1630859,0v13.8061523c0,1.0981445,0,2.1962891.0234375,3.3408203h-1.9619141c-.0703125-.3037109-.1171875-1.2148438-.1171875-1.6821289-.5839844,1.2382812-1.7753906,1.9624023-3.7148438,1.9624023-3.0595703,0-4.9287109-2.4760742-4.9287109-6.0737305,0-3.6445312,2.0322266-6.3310547,5.3027344-6.3310547,2.1025391,0,3.0371094.8408203,3.3408203,1.5185547V0h2.0556641Zm-5.3496094,15.6987305c2.7568359,0,3.3876953-2.0561523,3.3876953-4.6489258,0-2.6401367-.5605469-4.2983398-3.2236328-4.2983398-2.1025391,0-3.3876953,1.6582031-3.3876953,4.5317383,0,2.8500977,1.3544922,4.4155273,3.2236328,4.4155273Z"/>
      <path class="cls-1" d="m321.8125,2.5463867V0h2.0556641v2.5463867h-2.0556641Zm0,2.7563477h2.0556641v11.8442383h-2.0556641V5.3027344Z"/>
      <path class="cls-1" d="m337.8623047,13.5258789c-.4902344,2.0327148-1.8691406,3.9013672-4.8828125,3.9013672-3.2705078,0-5.2792969-2.3359375-5.2792969-6.144043,0-3.340332,1.8925781-6.2607422,5.4199219-6.2607422,3.4101562,0,4.6015625,2.4296875,4.7421875,3.9482422h-2.0322266c-.2802734-1.1914062-1.0283203-2.2426758-2.7568359-2.2426758-2.0791016,0-3.2705078,1.7988281-3.2705078,4.4853516,0,2.7099609,1.1445312,4.5087891,3.2001953,4.5087891,1.4716797,0,2.3359375-.7944336,2.8271484-2.1962891h2.0322266Z"/>
    </g>
    <g>
      <path class="cls-1" d="m30.0322266,103.8671875c-1.3818359-.3359375-4.5566406-.4482422-8.3671875-.4482422-1.0830078,0-2.2041016.0371094-3.3613281.0371094,0,.8222656-.0380859,1.71875-.0380859,2.5776367,0,1.2329102.0380859,2.465332.0751953,3.5483398.859375,1.0834961,1.3447266,2.8388672,1.3447266,4.8935547,0,4.3701172-2.3164062,10.0478516-8.5537109,13.2607422-.6357422-.859375-1.71875-1.8305664-2.9140625-2.4658203,5.2294922-1.53125,7.9560547-5.6777344,8.3671875-8.9648438-.7470703,1.2705078-2.3525391,2.0546875-4.1083984,2.0546875-4.109375,0-4.96875-3.4365234-4.96875-5.5654297,0-4.6694336,3.1386719-6.0141602,5.4912109-6.0141602.9345703,0,1.9052734.2241211,2.7275391.6723633,0-.7841797-.0380859-2.2783203-.0751953-3.921875-5.3417969.1494141-11.4677734.5224609-13.2978516.8588867-1.1210938.2241211-1.53125.4858398-1.71875.4858398-.0742188,0-.0742188-.0375977-.1113281-.1494141-.1494141-.859375-.3740234-2.4282227-.5234375-3.3623047v-.1118164c0-.074707.0371094-.1118164.1123047-.1118164.1865234,0,.7099609.2236328,1.7558594.2612305h.7841797c2.5400391,0,7.7695312-.2241211,12.8867188-.3364258-.0742188-1.605957-.1494141-3.0625-.2617188-3.847168-.0371094-.2988281-.2988281-.5229492-.2988281-.6723633,0-.074707.0751953-.1123047.2988281-.1123047h.1123047c1.9052734.0751953,3.6240234.2988281,3.6240234.6352539,0,.1118164-.0751953.2612305-.1875.4482422-.3730469.5976562-.4101562,1.1206055-.4101562,3.4741211,4.8554688-.1123047,8.5908203-.1494141,11.6542969-.2617188l-.0380859,3.1376953Zm-14.4560547,8.1054688c0-2.3154297-1.7548828-2.7636719-2.5771484-2.7636719-1.8300781,0-2.8759766,1.7929688-2.8759766,3.5483398,0,1.5317383.7470703,2.9882812,2.6152344,2.9882812,2.5390625,0,2.8378906-3.0629883,2.8378906-3.7729492Zm8.3671875-11.5419922c-.9707031-1.1206055-2.2402344-2.3535156-3.3613281-3.2871094l1.4941406-1.3447266c1.1210938.859375,2.4648438,2.0170898,3.5117188,3.0629883l-1.6445312,1.5688477Zm3.5488281-1.3818359c-1.0078125-1.0834961-2.2412109-2.2412109-3.4365234-3.175293l1.4941406-1.3447266c1.1210938.8217773,2.5400391,1.9423828,3.5488281,2.9882812l-1.6064453,1.5317383Z"/>
      <path class="cls-1" d="m43.3671875,120.3774414c.3730469,0,.7460938.0375977,1.1201172.0375977,8.2177734,0,14.8662109-3.2128906,14.8662109-7.956543,0-2.6147461-1.4560547-5.1176758-7.2089844-5.1176758-5.5283203,0-12.7001953,2.390625-13.8574219,3.324707-.2988281.2241211-.5234375.4106445-.7099609.4106445-.4482422,0-1.3818359-2.6894531-1.5322266-3.1376953-.0371094-.0742188-.0371094-.1118164-.0371094-.1865234,0-.2988281.5605469-.074707,1.4570312-.2988281,3.9970703-.9335938,9.8242188-2.5771484,14.8291016-2.5771484,8.7412109,0,9.7871094,5.3789062,9.7871094,7.7695312,0,5.6025391-6.4248047,10.0107422-17.3701172,10.6455078-.2236328-.8217773-.8212891-2.1289062-1.34375-2.9135742Z"/>
      <path class="cls-1" d="m91.5146484,108.4619141c-3.3623047,0-16.8095703,3.5107422-16.8095703,10.0107422,0,.2988281.0371094.5976562.1123047.8964844.4853516,2.0166016,3.4736328,3.1748047,7.7695312,3.1748047,3.0253906,0,6.7236328-.5976562,10.6826172-1.8676758-.1484375,1.3447266-.1484375,2.7270508-.1484375,3.8100586-3.7734375.5605469-7.0976562.859375-9.8994141.859375-5.453125,0-11.4296875-1.1210938-11.4296875-6.9106445,0-3.5112305,2.6894531-6.6860352,7.4326172-9.1518555-1.53125-.4853516-2.2402344-2.3154297-2.4277344-5.0424805-.1113281-1.9799805-.0742188-5.3789062-.2617188-7.3212891-.0371094-.4106445-.2236328-.7470703-.2236328-.934082,0-.0742188.0751953-.1494141.2236328-.1494141h.0751953c2.0546875.0751953,3.6611328.2246094,3.6611328.5605469,0,.074707-.0380859.2241211-.1123047.3735352-.2246094.5976562-.4853516,1.4194336-.4853516,5.7524414,0,4.0712891,1.1201172,5.2294922,1.9414062,5.640625,2.4658203-1.0458984,5.2304688-1.9799805,7.6582031-2.6523438.859375-.2617188,1.1582031-.6723633,1.3818359-.6723633.1494141,0,.3740234.074707,1.1953125,3.0258789.0751953.1865234.1123047.3359375.1123047.4106445,0,.1494141-.0751953.1870117-.2988281.1870117h-.1494141Z"/>
      <path class="cls-1" d="m133.1806641,105.1738281c-2.1640625-.081543-4.3691406-.1225586-6.6552734-.1635742.3261719,3.0219727.9384766,5.7167969,1.8369141,8.1259766,2.8173828-1.796875,4.8183594-3.9609375,5.7578125-5.2675781.1630859-.2041016.1630859-.4492188.4082031-.4492188.0410156,0,.1630859.0410156.2861328.081543,2.4902344,1.1845703,2.8574219,1.5517578,2.8574219,1.9194336,0,.2041016-.1630859.4082031-.4492188.4492188-.6123047.081543-1.0615234.1630859-1.3066406.4492188-1.5507812,1.7148438-3.7558594,3.5932617-6.4511719,5.2265625,2.1640625,4.1240234,5.4716797,7.1865234,10.1669922,9.3505859-1.3066406,1.265625-2.2041016,2.7358398-2.2041016,2.7358398-8.2080078-4.4916992-12.2089844-11.6782227-13.6386719-22.6621094h-1.7148438c-.7353516.6123047-1.7558594,1.347168-2.6542969,1.8374023,4.2060547,4.2055664,5.1855469,10.453125,5.1855469,14.9448242,0,4.8178711-.4492188,7.2680664-5.9199219,7.2680664-1.0214844,0-2.2050781-.081543-3.5527344-.2451172,0,0-.1630859-1.7963867-.9804688-3.2666016,1.9199219.3266602,3.3896484.4492188,4.4511719.4492188,2.8583984,0,3.0214844-.7758789,3.0214844-4.6958008,0-1.1430664-.0410156-2.2456055-.1630859-3.2666016-4.6962891,3.8789062-10.6572266,7.2275391-16.8642578,9.1464844,0,0-.4892578-1.6333008-1.5917969-2.8989258,6.4511719-1.796875,12.5351562-4.8183594,17.8847656-9.269043-.2451172-.8984375-.4902344-1.7558594-.8173828-2.5317383-4.2050781,2.7768555-9.4316406,5.3081055-14.5771484,6.8598633,0,0-.3671875-1.5107422-1.3876953-2.7763672,5.1035156-1.3066406,10.2490234-3.5527344,14.6582031-6.4926758-.4892578-.6938477-1.0615234-1.3066406-1.6738281-1.7963867-3.59375,2.0004883-6.9824219,3.144043-11.1474609,4.328125,0,0-.4492188-1.5922852-1.3886719-2.8583984,4.9414062-1.0205078,9.9638672-2.7358398,13.3935547-4.7363281-2.6542969.0405273-5.6757812.081543-8.4521484.2041016v-2.9399414c4.2050781.2041016,8.2890625.2856445,12.2089844.2856445,3.9609375,0,7.7988281-.081543,11.4736328-.2856445v2.9399414Zm1.6738281-1.7558594c.1640625-1.4697266.1640625-2.980957.1640625-3.7158203v-.4492188h-27.2353516v.4902344c0,.7348633,0,2.2866211.1630859,3.8789062h-3.4296875c.1630859-1.5107422.1630859-3.7563477.1630859-5.2675781v-1.7553711h14.8222656c0-.7353516-.0410156-1.4291992-.1630859-2.0419922-.1230469-.5307617-.2451172-.8979492-.2451172-1.1020508,0-.1225586.0810547-.2045898.3261719-.2045898h.1230469c3.5927734.2861328,3.796875.4902344,3.796875.7758789,0,.2041016-.1630859.4902344-.3261719.7758789-.2041016.3676758-.2451172.612793-.2861328.9799805-.0410156.3676758-.0410156.8168945-.0410156.8168945h15.4345703v.8979492c0,1.3886719,0,4.0834961.1640625,5.9208984h-3.4306641Z"/>
      <path class="cls-1" d="m168.4277344,125.1586914c-8.7402344,0-14.2314453-4.6694336-14.2314453-11.1313477,0-5.3041992,3.7724609-10.2724609,7.5078125-12.1025391-11.953125,1.9052734-12.5507812,2.0917969-14.5673828,2.8388672-.3359375.1123047-.5234375.2241211-.6347656.2241211-.1875,0-.2246094-.1494141-.3369141-.4858398-.2236328-.8212891-.8212891-3.2871094-.8212891-3.5107422,0-.0751953.0371094-.1123047.1113281-.1123047.1875,0,.5976562.1123047,1.2705078.1123047h.1494141c2.0917969,0,16.2861328-1.4199219,22.4863281-2.8388672,1.2705078-.2617188,1.8681641-.5976562,2.2041016-.5976562.3369141,0,.3740234.1494141,1.3818359,2.9130859v.1123047c0,.2988281-.5595703.074707-1.9414062.2988281-8.0683594,1.3447266-13.8583984,6.8730469-13.8583984,12.7749023,0,6.7983398,6.8730469,8.1801758,10.7949219,8.1801758.5605469,0,1.1201172-.0371094,1.6806641-.0742188-.3359375,1.0458984-.671875,2.5400391-.7470703,3.3989258h-.4482422Zm3.6230469-16.659668c-.7460938-1.2700195-1.7929688-2.7265625-2.7265625-3.8476562l1.71875-1.0458984c.9707031,1.0458984,2.0546875,2.4282227,2.9130859,3.6611328l-1.9052734,1.2324219Zm2.9882812-1.6806641c-.7841797-1.2329102-1.7929688-2.6152344-2.7636719-3.7353516l1.6806641-1.0458984c.9716797,1.0083008,2.1669922,2.3530273,2.9511719,3.5859375l-1.8681641,1.1953125Z"/>
      <path class="cls-1" d="m187.0283203,111.0126953h-.5722656c-.9384766,0-2.8173828,0-4.6132812.1635742v-3.2260742c1.5107422.1635742,4.2050781.1635742,6.1240234.1635742h2.2050781v13.1889648c2.328125,3.3071289,5.390625,3.4296875,13.5976562,3.4296875,4.859375,0,9.9628906-.2041016,14.1689453-.5307617-.8574219,1.7558594-1.2255859,3.5117188-1.2255859,3.5117188,0,0-3.1435547.0405273-7.1044922.0405273-4.0009766,0-8.8193359-.0405273-12.25-.1220703-3.6748047-.0820312-6.5332031-1.4702148-8.4931641-3.9609375-1.3876953,1.3476562-3.1435547,2.8583984-4.1240234,3.5932617-.4492188.3676758-.6533203.5307617-.9384766.9799805-.2451172.4492188-.4492188.7348633-.6943359.7348633-.1630859,0-.2861328-.081543-.4902344-.3671875-.4492188-.8168945-1.4287109-2.8583984-1.4287109-2.9399414,0-.1635742.2041016-.2041016.6533203-.3676758,1.5107422-.5717773,3.4296875-1.9599609,5.1855469-3.5932617v-10.6982422Zm2.3681641-8.4931641c-2.0419922-2.6132812-3.9609375-4.6137695-6.3701172-6.6147461l2.0009766-1.9189453c2.3271484,1.8374023,4.328125,3.6337891,6.6962891,6.2880859l-2.3271484,2.2456055Zm23.6015625,5.1450195h-17.0273438v3.1030273c0,3.2260742.0410156,8.3300781.2041016,12.0048828h-3.3076172c.2041016-4.0424805.2451172-10.4936523.2451172-14.3730469v-3.2255859h3.1035156v-10.2080078h16.6591797v10.2080078h3.0214844v13.1074219c0,3.2666016-.6123047,4.6137695-5.3486328,4.6137695-.4902344,0-.9804688,0-1.5517578-.0405273,0,0-.1630859-1.2250977-.8984375-2.7358398.7753906.0405273,1.3886719.081543,1.9599609.081543,2.6953125,0,2.9404297-.5717773,2.9404297-1.9599609v-10.5756836Zm-5.7988281,11.3105469c0-.4082031.0410156-.8574219.0410156-1.265625h-5.5527344c0,.7348633.0400391,1.4697266.0400391,2.2045898h-2.7763672c.0820312-2.0415039.1230469-4.5322266.1230469-6.5332031,0-2.0004883-.0410156-3.5112305-.0410156-3.5112305h10.8613281v2.1230469c0,1.9194336,0,4.7368164.0810547,6.9824219h-2.7763672Zm2.8994141-21.6000977h-11.1064453v7.7988281h3.5927734v-5.3491211h7.5136719v-2.449707Zm-2.8173828,14.862793h-5.6347656v3.1030273h5.6347656v-3.1030273Zm2.8173828-10.1264648h-4.9814453v3.0625h4.9814453v-3.0625Z"/>
      <path class="cls-1" d="m250.8701172,122.8427734c-4.7070312.7470703-9.1513672,1.0458984-12.6630859,1.0458984-1.8300781,0-3.4365234-.074707-4.7070312-.2241211-4.6308594-.4482422-7.2089844-2.9135742-7.2089844-6.0141602,0-1.7553711.8222656-3.6977539,2.5400391-5.6025391l2.1669922,1.4189453c-1.1953125,1.4570312-1.8300781,2.8388672-1.8300781,3.9599609,0,3.2495117,4.4443359,3.5859375,9.375,3.5859375,3.3994141,0,7.5078125-.3740234,12.2148438-1.6811523l.1123047,3.5112305Zm-14.8291016-17.3320312c1.4941406-1.0087891,2.8378906-1.8300781,4.1455078-2.8388672-3.0253906.1865234-5.3037109.2617188-7.4326172.2617188-1.0839844,0-2.1298828-.0375977-3.1757812-.0375977l-.2988281-3.2871094c.5976562.3735352,3.3623047.5600586,6.4248047.5600586,2.9140625,0,6.0888672-.1865234,7.9941406-.5600586.5976562-.1118164.8212891-.2988281.9707031-.2988281.2246094,0,1.8310547,2.6894531,1.8310547,2.8764648,0,.2612305-.5234375.1494141-1.1953125.4482422-1.4199219.6347656-5.2304688,2.8012695-7.1347656,4.4448242l-2.1289062-1.5688477Zm10.9814453,4.1464844c-.7470703-1.2705078-1.7929688-2.7270508-2.7265625-3.8476562l1.7177734-1.0458984c.9716797,1.0458984,2.0546875,2.4277344,2.9140625,3.6606445l-1.9052734,1.2329102Zm2.9882812-1.6811523c-.7841797-1.2329102-1.7929688-2.6147461-2.7646484-3.7353516l1.6816406-1.0458984c.9707031,1.0083008,2.1660156,2.3530273,2.9511719,3.5859375l-1.8681641,1.1953125Z"/>
      <path class="cls-1" d="m264.0917969,119.6303711c.0751953-4.0717773.2617188-11.3554688.2617188-16.8461914,0-1.9423828,0-3.6611328-.0742188-4.9306641-.0380859-.2988281-.1875-.5605469-.1875-.7099609,0-.1123047.0751953-.1494141.2246094-.1494141h.0742188c.6347656.0371094,2.8769531.1123047,3.3994141.1494141.2988281.0371094.4482422.1123047.4482422.2988281,0,.1123047-.0742188.2988281-.1865234.5229492-.2246094.4482422-.2617188.7094727-.2988281,1.3447266-.5976562,7.246582-.7099609,14.4555664-.7099609,20.1333008,0,2.6523438,1.6064453,4.109375,4.2578125,4.109375,5.0429688,0,10.6835938-4.4453125,12.7011719-8.2553711.3730469,1.3823242,1.0830078,2.9882812,1.6806641,3.5859375-5.7900391,6.4248047-11.6923828,7.6201172-14.7177734,7.6201172-4.0341797,0-6.8730469-2.1665039-6.8730469-6.6118164v-.2612305Z"/>
      <path class="cls-1" d="m294.4589844,124.5234375c1.9804688-3.4736328,4.8564453-12.0649414,6.5371094-19.2744141-1.6806641.0751953-3.3984375.1123047-5.3417969.1123047l-.2607422-2.9882812c1.2324219.1494141,2.7636719.2617188,4.4824219.2617188.5595703,0,1.1201172-.0375977,1.7177734-.0375977.4863281-2.315918.7851562-4.2211914.859375-5.8271484v-.0375977c0-.2612305-.1123047-.5224609-.1123047-.7094727,0-.1118164.0380859-.1870117.2246094-.1870117h.1123047c.7460938.0751953,2.203125.3364258,3.1367188.5605469.2988281.074707.4492188.1865234.4492188.3359375,0,.1123047-.0751953.2246094-.2246094.3740234-.2988281.2988281-.3730469.5224609-1.4941406,5.2666016,2.5029297-.2617188,5.0058594-.7841797,7.0224609-1.5688477l-.1494141,3.0629883c-2.6152344.5976562-5.0429688.9711914-7.5449219,1.1953125-1.8681641,7.2841797-3.9970703,14.4560547-6.1269531,20.8432617l-3.2871094-1.3823242Zm28.3886719-.1118164c-3.0253906.4482422-5.7148438.7094727-8.0302734.7094727-5.7900391,0-8.6289062-1.605957-8.6289062-5.0424805,0-.7094727.1123047-1.4941406.3740234-2.3530273l2.5390625.3730469c-.1484375.4858398-.2236328.934082-.2236328,1.3447266,0,2.3535156,2.4658203,2.8388672,5.0048828,2.8388672,2.4287109,0,5.8652344-.3730469,8.6660156-1.3818359l.2988281,3.5112305Zm-2.4648438-13.5966797c-1.1210938-.1494141-2.5029297-.2241211-3.9589844-.2241211-2.5029297,0-5.2675781.2241211-7.4335938.6723633l-.1875-2.9135742c3.6240234-.3735352,7.9199219-.5976562,11.5058594-.5976562l.0742188,3.0629883Z"/>
      <path class="cls-1" d="m348.6582031,127.5869141c-3.6972656-5.2294922-8.2919922-9.6748047-12.5507812-12.6630859-1.53125-1.0830078-2.3535156-2.465332-2.3535156-3.8476562,0-1.3447266.7480469-2.7265625,2.2792969-3.921875,4.4072266-3.4365234,8.9648438-7.8818359,10.234375-10.4589844.2617188-.5229492.2988281-.9711914.5234375-.9711914.0371094,0,.1113281.0375977.2236328.1118164.7099609.5605469,3.1005859,2.6894531,3.1005859,3.25,0,.074707-.0371094.1494141-.0742188.1865234-.0380859.0751953-.1503906.1123047-.3369141.1494141-.5224609.1123047-.7099609.1870117-1.2695312.7099609-4.1835938,3.921875-7.1347656,6.0888672-10.6455078,9.2636719-.7480469.6723633-1.046875,1.2324219-1.046875,1.7182617,0,.5976562.3740234,1.0834961,1.0839844,1.5688477,4.1083984,3.0629883,9.7119141,7.6572266,13.7089844,12.1396484l-2.8769531,2.7646484Z"/>
      <path class="cls-1" d="m362.7773438,119.40625c2.4277344-2.7641602,5.640625-9.5253906,7.6201172-15.4643555-1.4570312.1118164-2.8759766.1870117-4.2958984.1870117-.671875,0-1.3447266,0-1.9794922-.0375977l-.2246094-3.0258789c1.0830078.1870117,2.3535156.2988281,3.8105469.2988281,1.0830078,0,2.2783203-.0742188,3.5107422-.1865234.4482422-1.6806641.7470703-3.1748047.859375-4.4453125v-.6347656c0-.2241211.0371094-.3359375.1865234-.3359375h.0751953c3.2871094.6347656,3.5859375.7470703,3.5859375,1.0458984,0,.1118164-.1123047.2988281-.2988281.4853516-.4111328.4111328-.5976562.7841797-1.3828125,3.5112305,1.6816406-.2988281,3.3623047-.6723633,4.8935547-1.1577148l-.2988281,3.0253906c-1.8671875.4111328-3.7353516.7099609-5.5283203.9711914-2.0166016,5.9765625-4.7060547,12.4760742-7.4335938,17.5932617l-3.0996094-1.8300781Zm26.7822266,5.0429688c-1.6806641-1.4941406-3.3994141-2.5776367-5.0048828-3.3623047v.2617188c0,3.3242188-3.2871094,4.8935547-6.7246094,4.8935547-3.5859375,0-7.2832031-1.7558594-7.2832031-4.9682617,0-.784668.2617188-4.8188477,6.3496094-4.8188477,1.2324219,0,2.6523438.1870117,4.1835938.5605469-.3359375-1.8300781-.7841797-3.7724609-.7841797-5.6030273,0-4.3330078,2.5400391-6.0141602,5.0429688-6.0141602.1123047,0,.2607422.0375977.3730469.0375977-1.1953125-.5600586-3.921875-1.5688477-5.4160156-1.9799805l1.7177734-2.0917969c2.9511719.934082,6.5742188,2.4282227,9.9365234,4.1835938l-1.6806641,2.6894531c-1.2705078-.7841797-2.390625-1.1201172-3.3994141-1.1201172-.5605469,0-3.8476562.1865234-3.8476562,4.2954102,0,1.9423828.6357422,4.2954102,1.1210938,6.6118164,2.1660156.8588867,4.9306641,2.2412109,7.2841797,3.6601562l-1.8681641,2.7646484Zm-8.1054688-4.6318359c-1.8681641-.5976562-3.4365234-.8964844-4.7070312-.8964844-2.0166016,0-3.2119141.7094727-3.3613281,1.8300781,0,.1123047-.0380859.1865234-.0380859.2988281,0,1.4941406,2.2041016,2.465332,4.3339844,2.465332,1.8671875,0,3.6972656-.784668,3.7724609-2.6518555v-1.0458984Z"/>
      <path class="cls-1" d="m427.8085938,116.2314453c0,6.3496094-6.3125,9.1513672-12.0654297,9.1513672-4.8183594,0-9.2636719-1.9423828-9.2636719-5.4536133,0-2.390625,1.8681641-4.2583008,4.4082031-4.2583008,3.0253906,0,6.5361328,2.4277344,6.6113281,6.9101562,3.5859375-.4853516,7.0595703-2.4277344,7.0595703-6.4990234,0-3.1005859-3.1376953-5.2670898-7.3955078-5.2670898-4.1835938,0-9.4501953,2.0541992-13.8955078,7.3588867l-2.5029297-2.5776367c4.7060547-3.6977539,11.6171875-10.2348633,15.2402344-14.9790039-8.2177734,1.2705078-9.5253906,1.7558594-10.3466797,2.1669922-.2617188.1494141-.4111328.2612305-.5234375.2612305-.3730469,0-1.0458984-3.2124023-1.1201172-3.6235352-.0380859-.0742188-.0380859-.1118164-.0380859-.1494141,0-.0742188.0380859-.1118164.1123047-.1118164.1494141,0,.5234375.1494141,1.0087891.1494141,2.0917969,0,9.8242188-.6352539,12.6630859-1.4941406.6347656-.1494141.8212891-.3364258.9707031-.3364258.3369141,0,2.6152344,2.8388672,2.6152344,2.9140625,0,.2612305-.5605469.2236328-1.2705078.8588867-2.5771484,2.1293945-6.0136719,5.6030273-9.2265625,8.4790039,2.7275391-.9707031,5.1552734-1.3818359,7.2841797-1.3818359,6.0888672,0,9.5625,3.4736328,9.6748047,7.6572266v.2246094Zm-16.7714844,1.9047852c-.7851562,0-1.4570312.4482422-1.6435547,1.3447266-.0380859.1118164-.0380859.2241211-.0380859.3364258,0,1.605957,2.3535156,2.6894531,5.2304688,2.9130859-.0380859-2.9882812-2.0546875-4.5942383-3.5488281-4.5942383Z"/>
      <path class="cls-1" d="m435.8007812,121.3115234c0-2.9140625,2.390625-5.2670898,5.3046875-5.2670898,2.8759766,0,5.2666016,2.3530273,5.2666016,5.2670898,0,2.9130859-2.390625,5.3037109-5.2666016,5.3037109-2.9140625,0-5.3046875-2.390625-5.3046875-5.3037109Zm8.9277344,0c0-2.0175781-1.6435547-3.6611328-3.6601562-3.6611328-2.0546875,0-3.6982422,1.6435547-3.6982422,3.6611328,0,2.0541992,1.6435547,3.6977539,3.6982422,3.6977539,2.0166016,0,3.6601562-1.6435547,3.6601562-3.6977539Z"/>
    </g>
    <g>
      <path class="cls-1" d="m34.9433594,164.71875c-.9013672,0-1.9707031.3505859-2.9785156.8544922-.015625,1.1767578-.015625,2.3222656-.0302734,3.5136719-.015625.7939453-.5957031,1.328125-1.4970703,1.328125-.8701172,0-2.71875-.65625-2.71875-1.9091797,0-1.4960938,2.4130859-3.0546875,3.1621094-3.5126953.0146484-.8857422.0302734-1.7871094.0302734-2.6572266-.7480469.1064453-1.6953125.1679688-2.5810547.1982422l-.1533203-1.2070312c.2753906.03125.6259766.0458984,1.0234375.0458984.5195312,0,1.1152344-.0302734,1.7109375-.0761719v-.6259766c0-.5498047-.015625-1.0234375-.0302734-1.4355469-.015625-.1679688-.0615234-.3056641-.0615234-.3818359,0-.0458984.0302734-.0771484.0917969-.0771484h.0302734c.3056641.015625,1.0078125.0917969,1.3447266.1376953.1367188.015625.1826172.0615234.1826172.1376953,0,.0605469-.0302734.1523438-.0917969.2441406-.1523438.2294922-.2441406.8857422-.3046875,1.8486328.8544922-.1220703,1.6494141-.3056641,2.1689453-.5195312l-.03125,1.1914062c-.65625.1523438-1.4052734.2744141-2.1835938.3818359-.015625.7792969-.03125,1.5117188-.0458984,2.2294922.8554688-.3818359,1.8935547-.7021484,3.0087891-.7021484h.2744141c2.3525391.1064453,3.5595703,1.7412109,3.5595703,3.4365234,0,1.6191406-1.1308594,3.3144531-3.2841797,3.3144531-1.2978516,0-2.4892578-.7480469-2.4892578-2.3212891,0-.1835938.0146484-.3974609.0605469-.6113281.3671875-.0615234.7636719-.1376953,1.1757812-.2597656-.0761719.2753906-.1064453.5039062-.1064453.7177734,0,.9316406.6259766,1.3291016,1.3291016,1.3291016,1.0234375,0,2.1376953-.7939453,2.1376953-2.2753906,0-1.1767578-.8701172-2.2304688-2.4892578-2.3369141h-.2138672Zm-6.0332031,3.5429688c0,.0458984-.015625.0761719-.015625.1074219,0,.7021484,1.390625.8398438,1.4052734.8398438.2597656,0,.4736328-.1074219.4892578-.4736328.0146484-.7177734.0458984-1.5732422.0605469-2.4892578-.9160156.6259766-1.8632812,1.6337891-1.9394531,2.015625Zm9.5458984-4.6123047c-.8242188-.9775391-1.7099609-1.7412109-2.8710938-2.4287109l.7939453-.7792969c.9775391.5654297,2.0771484,1.375,2.9326172,2.2763672l-.8554688.9316406Z"/>
      <path class="cls-1" d="m44.9492188,168.2617188c.0302734-1.6650391.1074219-4.6435547.1074219-6.8886719,0-.7939453,0-1.4970703-.03125-2.015625-.0146484-.1220703-.0761719-.2294922-.0761719-.2900391,0-.0458984.0302734-.0615234.0917969-.0615234h.0302734c.2597656.015625,1.1757812.0458984,1.3896484.0615234.1230469.0146484.1835938.0449219.1835938.1220703,0,.0458984-.0302734.1220703-.0761719.2138672-.0917969.1826172-.1074219.2900391-.1220703.5498047-.2441406,2.9628906-.2900391,5.9111328-.2900391,8.2324219,0,1.0839844.65625,1.6796875,1.7412109,1.6796875,2.0615234,0,4.3681641-1.8173828,5.1923828-3.375.1533203.5654297.4433594,1.2216797.6875,1.4658203-2.3671875,2.6279297-4.7802734,3.1162109-6.0175781,3.1162109-1.6494141,0-2.8105469-.8857422-2.8105469-2.703125v-.1074219Z"/>
      <path class="cls-1" d="m63.203125,171.3476562c-.4892578-1.9101562-1.359375-4.4150391-2.2148438-6.4306641-.2294922.1064453-1.2070312.5654297-1.6650391,1.0234375-.1523438.1523438-.2441406.2285156-.3203125.2285156-.1074219,0-.5957031-.5800781-.9013672-1.0537109-.0302734-.0302734-.0302734-.0605469-.0302734-.0917969,0-.0908203.2285156-.0605469.6103516-.2285156.5195312-.2138672,1.1767578-.5039062,1.8945312-.8095703-.3515625-.7792969-.6875-1.4355469-.9931641-1.8789062-.1064453-.1523438-.2441406-.2597656-.2441406-.3203125,0-.1074219,1.2060547-.3818359,1.3134766-.3818359.1064453,0,.1220703.0449219.1220703.1367188v.2138672c.0302734.2294922.0761719.3671875.1982422.6113281.1835938.3818359.3818359.7792969.5654297,1.2216797.671875-.2744141,1.375-.5341797,2.0625-.7480469-.3515625-.5039062-.7490234-.9628906-1.1455078-1.3447266l.9003906-.4580078c.4589844.4580078.9013672.9472656,1.3447266,1.4970703.5800781-.1376953,1.1142578-.1679688,1.3896484-.1679688,1.9248047,0,2.9023438,1.1757812,2.9023438,2.3974609,0,1.390625-1.2226562,2.8417969-3.6962891,2.8417969-.1992188,0-.4277344-.015625-.6572266-.03125-.0605469-.3203125-.1982422-.8242188-.3515625-1.1757812.4130859.0761719.7792969.1220703,1.1152344.1220703,1.6953125,0,2.5361328-.9013672,2.5361328-1.7568359,0-.7480469-.6572266-1.4658203-1.9404297-1.4658203-.0917969,0-.1835938.015625-.2744141.015625-.1220703.0146484-.2597656.0302734-.3974609.0458984.2753906.3964844.5498047.8242188.8095703,1.2822266l-1.0849609.5498047c-.2744141-.5341797-.5800781-1.0537109-.8857422-1.5419922-.7021484.2138672-1.4960938.5039062-2.2294922.8242188.8242188,1.8945312,1.6953125,4.1396484,2.4589844,6.4150391l-1.1914062.4589844Z"/>
      <path class="cls-1" d="m75.7900391,171.1181641c.015625-1.4355469.0615234-2.9482422.1074219-4.4902344-.6269531.7177734-1.2373047,1.5117188-1.7568359,2.3515625-.2294922.3359375-.2597656.5498047-.3203125.5498047-.1230469,0-.9013672-1.1142578-.9013672-1.2822266,0-.1074219.1826172-.1074219.4277344-.3828125.7177734-.7783203,1.7099609-2.1376953,2.6572266-4.0166016.015625-.4433594.0458984-.9013672.0615234-1.359375-.6113281.1679688-1.8486328.5800781-2.2001953.8095703-.1220703.0761719-.1523438.1064453-.1826172.1064453-.0761719,0-.3974609-1.3740234-.3974609-1.5117188,0-.0302734.015625-.0458984.0458984-.0458984.0615234,0,.1835938.0458984.3974609.0458984.3203125,0,1.3896484-.1835938,2.3974609-.4433594.03125-.8544922.0615234-1.6181641.0615234-2.1230469v-.2900391c0-.2285156-.0761719-.3818359-.0761719-.4580078,0-.0458984.0302734-.0615234.1220703-.0615234h.0302734c1.4511719.0771484,1.5732422.0917969,1.5732422.2138672,0,.0615234-.0458984.1376953-.1064453.1992188-.1533203.2138672-.2597656.4736328-.4277344,2.1074219.1523438-.0761719.2138672-.1220703.2744141-.1220703.1220703,0,.9316406.7480469.9316406.8251953,0,.0761719-.1523438.1220703-.3359375.3203125-.3515625.3818359-.7177734.8857422-1.0996094,1.4814453-.015625.2138672-.0302734.4121094-.0458984.6259766,2.5810547-2.8710938,3.8496094-3.2070312,4.5361328-3.2070312,1.0087891,0,1.7568359.7480469,1.7568359,2.2294922v.2138672c-.2294922,4.7509766-.2294922,4.78125-.2294922,4.8730469,0,.5498047.1835938.8398438.5498047.8398438.4589844,0,1.1611328-.4277344,2.1386719-1.4052734.0761719.4580078.2597656.9931641.4433594,1.375-1.1767578,1.0078125-2.1083984,1.4052734-2.8105469,1.4052734-1.0390625,0-1.5576172-.8710938-1.5576172-1.9550781v-.0917969c.0449219-1.2988281.1982422-3.1308594.2744141-5.1171875v-.1064453c0-.6269531-.1376953-1.1611328-.65625-1.1611328-.9472656,0-3.2236328,2.0771484-4.4912109,3.3759766-.0146484.4882812-.0302734.9775391-.0302734,1.4814453,0,1.4052734.0761719,2.8251953.2441406,4.1386719l-1.4052734.0615234Z"/>
      <path class="cls-1" d="m88.3623047,168.1699219c.9921875-1.1298828,2.3066406-3.8945312,3.1152344-6.3232422-.5947266.0458984-1.1757812.0761719-1.7558594.0761719-.2753906,0-.5498047,0-.8095703-.0146484l-.0917969-1.2373047c.4433594.0761719.9619141.1220703,1.5576172.1220703.4433594,0,.9316406-.0302734,1.4365234-.0761719.1826172-.6875.3046875-1.2988281.3505859-1.8183594v-.2587891c0-.0917969.015625-.1376953.0771484-.1376953h.0302734c1.34375.2597656,1.4658203.3056641,1.4658203.4277344,0,.0458984-.0458984.1220703-.1220703.1982422-.1679688.1679688-.2441406.3212891-.5654297,1.4355469.6875-.1220703,1.375-.2744141,2.0009766-.4736328l-.1220703,1.2373047c-.7636719.1679688-1.5273438.2900391-2.2607422.3974609-.8242188,2.4433594-1.9238281,5.1015625-3.0390625,7.1943359l-1.2675781-.7490234Zm10.9511719,2.0625c-.6875-.6113281-1.3896484-1.0537109-2.046875-1.375v.1074219c0,1.359375-1.34375,2.0009766-2.7490234,2.0009766-1.4667969,0-2.9785156-.71875-2.9785156-2.0322266,0-.3203125.1074219-1.9697266,2.5966797-1.9697266.5039062,0,1.0839844.0761719,1.7109375.2285156-.1376953-.7480469-.3212891-1.5419922-.3212891-2.2910156,0-1.7714844,1.0390625-2.4589844,2.0625-2.4589844.0458984,0,.1064453.015625.1523438.015625-.4882812-.2294922-1.6035156-.6416016-2.2148438-.8095703l.703125-.8554688c1.2060547.3818359,2.6875.9931641,4.0625,1.7109375l-.6875,1.0996094c-.5185547-.3212891-.9775391-.4580078-1.3896484-.4580078-.2294922,0-1.5732422.0761719-1.5732422,1.7558594,0,.7949219.2597656,1.7568359.4580078,2.7041016.8857422.3505859,2.0166016.9160156,2.9785156,1.4960938l-.7636719,1.1308594Zm-3.3144531-1.8945312c-.7636719-.2441406-1.4052734-.3662109-1.9248047-.3662109-.8242188,0-1.3134766.2900391-1.3740234.7480469,0,.0458984-.015625.0771484-.015625.1230469,0,.6103516.9013672,1.0078125,1.7714844,1.0078125.7636719,0,1.5126953-.3212891,1.5429688-1.0849609v-.4277344Z"/>
      <path class="cls-1" d="m105.5771484,166.6582031v2.4433594c0,.4892578.2441406.6875.8857422.7333984,1.1308594.0615234,2.4140625.1074219,3.6962891.1074219,1.2832031,0,2.5664062-.0458984,3.6357422-.1074219.8095703-.0605469,1.1152344-.5341797,1.3134766-2.8105469.5039062.3515625,1.1611328.5810547,1.1611328.5810547-.3515625,2.6572266-.8095703,3.2373047-2.1386719,3.3144531-1.2070312.0761719-2.6123047.1064453-3.9863281.1064453-1.4511719,0-2.8867188-.0302734-4.0322266-.1064453-1.2685547-.0771484-1.6962891-.703125-1.6962891-1.6806641v-6.3994141c-.4267578.3505859-.9003906.7021484-1.4199219,1.0380859,0,0-.1376953-.7021484-.4736328-1.2060547,2.2451172-1.2675781,3.8339844-3.3144531,4.2158203-4.2773438.0761719-.1982422.0605469-.3203125.1679688-.3203125.015625,0,.0458984,0,.0761719.0146484.1074219.03125,1.2529297.2910156,1.2529297.5351562,0,.0605469-.0458984.1220703-.1533203.1835938-.2285156.1220703-.3515625.2441406-.4882812.4726562h3.7265625c.1679688,0,.3056641-.0449219.4277344-.1367188.0458984-.03125.0761719-.0458984.1220703-.0458984.0761719,0,1.0537109.6416016,1.0537109.7939453,0,.1835938-.4277344.3359375-.5341797.4892578-.4277344.5644531-.8857422,1.1455078-1.375,1.6796875h3.5742188v4.5976562h-9.0117188Zm1.359375-6.4150391c-.4121094.6103516-1.0234375,1.3134766-1.6650391,1.8173828h4.3378906c.6113281-.5957031,1.1455078-1.2070312,1.5585938-1.8173828h-4.2314453Zm1.8789062,2.7949219h-3.2382812v2.6269531h3.2382812v-2.6269531Zm4.6123047,0h-3.5126953v2.6269531h3.5126953v-2.6269531Z"/>
      <path class="cls-1" d="m119.4628906,171.4541016c.0605469-2.4433594.1064453-4.5820312.1064453-6.2011719,0-.5957031,0-1.1152344-.0146484-1.5576172-.3818359.7021484-.8095703,1.3740234-1.2373047,1.9550781,0,0-.1376953-.703125-.5195312-1.2529297,1.3291016-1.8027344,2.2451172-3.8027344,2.7949219-5.8037109.0761719-.2597656,0-.5048828.1376953-.5048828h.0302734c1.2529297.2753906,1.2675781.3974609,1.2675781.4589844,0,.0761719-.0761719.1679688-.1523438.2441406-.1523438.1376953-.2744141.3359375-.3359375.5195312-.2597656.7021484-.6259766,1.6191406-1.0693359,2.5810547,0,0,.1679688.0302734.3212891.0615234.1064453.0146484.1367188.0605469.1367188.1220703,0,.0761719-.0605469.1826172-.1367188.3056641-.1074219.1679688-.1533203.7177734-.1533203,3.0087891,0,1.4355469.0302734,3.4667969.1074219,6.0634766h-1.2832031Zm7.3466797-5.3154297c-.1376953,1.1308594-.4892578,2.03125-1.0078125,2.7490234,1.4814453.9628906,3.2382812,1.1455078,5.7431641,1.2373047-.4130859.6113281-.5498047,1.1611328-.5498047,1.1611328-2.3066406-.1982422-4.1699219-.4277344-5.8652344-1.6191406-.8710938.7939453-2.0166016,1.34375-3.3759766,1.7714844,0,0-.1523438-.640625-.671875-1.1455078,1.4052734-.2900391,2.4287109-.7636719,3.1464844-1.34375-.5039062-.4892578-1.1152344-1.2373047-1.6044922-1.9707031l.8095703-.5644531c.4736328.7636719.9775391,1.2822266,1.4824219,1.7558594.4121094-.5644531.640625-1.2519531.7636719-2.03125h-3.2539062v-4.3984375h3.421875c0-.4277344-.015625-.9316406-.015625-1.2988281-1.375,0-2.7646484.0302734-4.09375.0615234v-1.1455078c.671875.0146484,1.3447266.0458984,2.0166016.0605469.671875.015625,1.359375.015625,2.03125.03125-.0302734-.4433594-.0458984-.703125-.1064453-.9013672-.0458984-.1679688-.0917969-.2900391-.0917969-.3515625,0-.0761719.0458984-.1074219.1523438-.1074219h.0615234c.3818359.03125.8554688.0771484,1.2832031.1533203.0908203.015625.1367188.0605469.1367188.1376953,0,.0761719-.0458984.1826172-.1064453.3046875-.1376953.2910156-.1376953.4892578-.1376953.7646484,1.4355469,0,2.8867188-.03125,4.3681641-.0917969v1.1455078c-1.4814453-.0458984-2.9326172-.0615234-4.3681641-.0615234v1.2988281h3.40625v4.3984375h-3.5742188Zm-1.0390625-1.0078125c.0458984-.703125.0615234-1.5273438.0771484-2.3828125h-2.3369141v2.3828125h2.2597656Zm3.5283203-2.3828125h-2.3369141c-.0146484.8554688-.0458984,1.6953125-.0605469,2.3828125h2.3974609v-2.3828125Z"/>
      <path class="cls-1" d="m136.8769531,170.0791016c-1.6650391,0-2.2304688-2.703125-2.2304688-5.4375,0-1.1914062.1074219-2.5810547.3056641-4.1699219,0-.0449219.0146484-.0908203.0146484-.1220703,0-.1367188-.0302734-.2285156-.0302734-.2900391,0-.0458984.015625-.0761719.0761719-.0761719.03125,0,.0615234,0,.1074219.015625.3203125.0605469,1.4355469.3359375,1.4355469.4882812,0,.0615234-.0458984.1376953-.1064453.2138672-.4892578.7177734-.6728516,2.9169922-.6728516,3.9716797,0,.7939453.2138672,4.1386719,1.1152344,4.1386719.1992188,0,.8095703-.1064453,2.3828125-2.3671875.2138672.3974609.4892578.8398438.7177734,1.0996094-1.4970703,1.9091797-2.2451172,2.5351562-3.1152344,2.5351562Zm7.8964844-2.1835938v-.1074219c0-1.9394531-.7792969-4.3066406-1.9248047-5.7890625l1.1455078-.3046875c1.1914062,1.6953125,1.9853516,3.7724609,2.0927734,5.8955078l-1.3134766.3056641Z"/>
      <path class="cls-1" d="m154.671875,171.4082031c-.5800781-2.3212891-1.6494141-5.3613281-2.703125-7.8203125-1.2373047.5957031-1.8173828.9775391-2.0625,1.2529297-.1982422.1982422-.2900391.2744141-.3662109.2744141-.0615234,0-.1220703-.0605469-.2138672-.1826172-.3056641-.3056641-.8857422-1.0546875-.8857422-1.1767578,0-.1064453.2597656-.0605469.7480469-.2597656.6572266-.2597656,1.4355469-.6103516,2.3066406-.9775391-.4433594-.9619141-.8710938-1.8017578-1.2216797-2.3369141-.1220703-.1982422-.2597656-.2900391-.2597656-.3662109,0-.0917969,1.4814453-.4433594,1.5273438-.4433594.0917969,0,.1220703.0458984.1220703.1220703,0,.0615234-.015625.1376953-.015625.2294922v.0761719c.0458984.2441406.1074219.4277344.2294922.6875.2441406.5039062.4892578,1.0234375.7333984,1.5732422.8554688-.3515625,1.7558594-.6875,2.5966797-.9472656-.4589844-.6103516-.9316406-1.1601562-1.4208984-1.6337891l1.0390625-.5351562c.5498047.5498047,1.0839844,1.1611328,1.6191406,1.8330078.7783203-.1679688,1.3896484-.2285156,1.7558594-.2285156,2.2910156,0,3.4677734,1.4052734,3.4677734,2.8867188,0,1.6650391-1.4667969,3.4208984-4.4912109,3.4208984-.2441406,0-.4882812,0-.7480469-.0302734-.0761719-.3818359-.2138672-.9169922-.3818359-1.3291016.4580078.0917969.8857422.1220703,1.2832031.1220703,2.1074219,0,3.1308594-1.1298828,3.1308594-2.1992188,0-.9316406-.7939453-1.8027344-2.3525391-1.8027344-.3662109,0-.6259766.0458984-.9619141.0917969.3515625.4892578.6875,1.0087891,1.0234375,1.5732422l-1.2529297.6269531c-.3359375-.6416016-.7021484-1.2685547-1.0839844-1.8642578-.9013672.2753906-1.8632812.6416016-2.7646484,1.0390625,1.0234375,2.3828125,2.0771484,5.1318359,2.9785156,7.8046875l-1.375.5195312Z"/>
      <path class="cls-1" d="m167.3046875,171.1640625c-.9921875-1.1914062-2.2138672-2.3984375-3.2988281-3.3603516l.7939453-.7333984c1.1611328.8857422,2.5048828,2.1083984,3.5439453,3.0546875l-1.0390625,1.0390625Z"/>
      <path class="cls-1" d="m189.3925781,171.4541016c.015625-.2900391.015625-.6259766.015625-.9931641h-7.3164062c.015625.3671875.015625.703125.0302734.9931641h-1.2978516c.0605469-1.8027344.0605469-5.5449219.0605469-8.2480469v-3.1464844h3.40625c.4277344-.6103516.7177734-1.2373047.8095703-1.6337891.0458984-.2753906.015625-.3515625.1220703-.3515625h.0615234c1.2675781.1982422,1.3134766.3203125,1.3134766.3974609,0,.0605469-.0458984.1367188-.1376953.2128906-.2441406.1992188-.3056641.3056641-.3662109.4277344-.1533203.2910156-.3515625.6269531-.5498047.9472656h5.0859375v3.1308594c0,2.7041016,0,6.4462891.0615234,8.2636719h-1.2988281Zm.0615234-7.484375h-7.4082031c.015625.6259766.015625,1.3291016.015625,2.03125h7.3925781v-2.03125Zm0-2.8251953h-7.3925781v1.7714844h7.3925781v-1.7714844Zm-7.3925781,5.9111328c0,.7939453,0,1.5878906.0146484,2.3212891h7.3466797c.015625-.7177734.015625-1.5126953.03125-2.3212891h-7.3925781Z"/>
      <path class="cls-1" d="m207.5859375,162.3964844c-.6875-.0146484-1.7724609-.0302734-2.8876953-.0458984.5048828,1.8486328,1.5273438,3.4365234,3.2236328,4.4755859-.5195312.5195312-.71875,1.1611328-.71875,1.1611328-1.4814453-1.2685547-2.7636719-2.8720703-3.4208984-5.3310547-.6416016,2.5664062-1.7568359,4.0019531-3.9257812,5.1933594,0,0-.1826172-.5498047-.6416016-1.0390625,2.0166016-.9013672,3.0859375-2.3056641,3.5439453-4.4746094h-2.0927734c-1.1455078,2.2910156-2.7333984,4.0625-5.8496094,5.5898438,0,0-.1523438-.5957031-.6416016-1.0839844,1.3134766-.4589844,2.3212891-1.1611328,3.0703125-1.8642578-.7792969-1.0537109-1.7412109-1.7871094-1.7412109-1.7871094l.7636719-.6103516s.9619141.7636719,1.7558594,1.6796875c.3056641-.2597656.6269531-.6259766.8408203-1.0234375-.7792969-.8701172-1.8486328-1.5576172-1.8486328-1.5576172l.7177734-.671875s.8554688.5498047,1.7109375,1.3291016c.4277344-.6113281.6416016-1.1914062.8251953-1.8183594h-2.9326172c-.6269531.9628906-1.4970703,1.9404297-2.4902344,2.6728516,0,0-.1982422-.6259766-.5957031-1.0683594,1.5732422-.9013672,2.75-2.8720703,2.9326172-3.6962891.0458984-.2597656-.0146484-.3515625.1376953-.3515625.0458984,0,.0761719,0,.1376953.0146484,1.1298828.1533203,1.1455078.3056641,1.1455078.3515625s-.0458984.1220703-.1533203.1992188c-.1367188.1064453-.2285156.2285156-.2587891.3046875-.0771484.1992188-.1835938.3974609-.2910156.5957031h2.3369141c.1679688,0,.2910156-.0458984.4130859-.1367188.0302734-.03125.0761719-.0458984.1064453-.0458984.0458984,0,.0917969.0146484.1376953.0458984.8398438.4580078.9472656.5498047.9472656.671875,0,.1679688-.3212891.3359375-.3671875.4580078-.1064453.2597656-.2441406.5498047-.3505859.7939453h1.7861328c.0615234-.5957031.0771484-1.1914062.0771484-1.6953125,0-.5498047-.015625-.9775391-.0458984-1.1298828-.03125-.1220703-.0458984-.2294922-.0458984-.2900391,0-.0917969.0302734-.1230469.1220703-.1230469.2441406,0,1.0234375.1376953,1.2675781.1992188.0761719.0302734.1220703.0605469.1220703.1220703s-.0458984.1376953-.1064453.2294922c-.1376953.1982422-.1835938.3662109-.1835938.5644531-.015625.3974609-.0302734,1.2373047-.1220703,2.1230469,1.34375-.0146484,2.7490234-.0302734,3.5898438-.0761719v1.1455078Zm-11.0742188,5.1933594c.3203125.0615234.6875.1376953.9931641.2441406.1220703.0302734.1982422.0917969.1982422.1679688,0,.0458984-.0458984.1220703-.1220703.1992188-.2138672.2138672-.2441406.2441406-.3212891.4277344-.3964844,1.0078125-.9003906,1.8173828-1.7412109,2.8251953,0,0-.4726562-.4277344-1.0380859-.7021484.9921875-.8710938,1.6650391-2.078125,1.8330078-2.7958984.0761719-.2744141.0302734-.3662109.1367188-.3662109h.0615234Zm2.4892578,3.7421875c.015625-.3818359.03125-.7636719.03125-1.1152344,0-.7333984-.0458984-1.4355469-.1220703-2.1835938l1.0683594-.0458984c.1376953.9619141.2138672,1.9091797.2138672,2.9931641v.3056641l-1.1914062.0458984Zm3.5439453-.015625c-.1376953-1.1601562-.3818359-2.1835938-.7939453-3.2226562l1.0839844-.1523438c.4130859.9775391.703125,2.0009766.8857422,3.2070312l-1.1757812.1679688Zm4.0322266.1376953c-.5957031-1.3291016-1.1298828-2.3066406-1.9091797-3.4521484l1.0234375-.3818359c.8095703,1.0693359,1.4208984,2.1386719,1.9853516,3.3144531l-1.0996094.5195312Zm-.2744141-10.4931641s-.6269531-1.0537109-1.6191406-1.9091797l.7480469-.5351562c.8857422.7490234,1.6806641,1.7724609,1.6806641,1.7724609l-.8095703.671875Z"/>
      <path class="cls-1" d="m216.5830078,169.1171875c3.1318359,0,4.6894531-2.1230469,4.6894531-4.2617188,0-1.9238281-1.2988281-3.8642578-3.8945312-4.1845703-.5957031,4.3066406-2.5507812,9.4697266-4.5673828,9.4697266-1.1152344,0-2.5351562-1.7568359-2.5351562-4.2001953,0-2.9941406,2.0771484-6.3388672,6.2929688-6.3388672,3.7871094,0,5.9257812,2.4746094,5.9257812,5.3310547,0,2.5498047-1.7871094,5.1464844-5.3154297,5.5283203-.1376953-.4121094-.3964844-.9003906-.7480469-1.34375h.1523438Zm-5.1474609-3.2382812c0,1.5888672.7177734,2.8720703,1.390625,2.8720703.2900391,0,.5800781-.1992188.8544922-.6113281,1.1308594-1.7412109,2.1845703-4.7958984,2.5205078-7.5302734-3.1152344.2138672-4.765625,2.8408203-4.765625,5.2695312Z"/>
      <path class="cls-1" d="m227.0927734,164.4736328c-.671875-.8242188-1.5576172-1.6650391-2.3671875-2.2607422l.7636719-.7177734c.8398438.5957031,1.7568359,1.3447266,2.4589844,2.1386719l-.8554688.8398438Zm1.4052734,1.7412109c-.7636719,1.6494141-1.7255859,3.4677734-2.2294922,4.3076172-.1074219.1679688-.1835938.2900391-.2597656.5195312-.0615234.1982422-.1074219.2900391-.1835938.2900391-.1835938,0-.9619141-.9316406-.9619141-1.0693359,0-.0605469.0917969-.0917969.1982422-.2138672.7333984-.7636719,1.9707031-3.0849609,2.6269531-4.8261719l.8095703.9921875Zm-.4736328-5.0556641c-.7021484-.8554688-1.5419922-1.6337891-2.3212891-2.2294922l.7636719-.703125c.7480469.5039062,1.6806641,1.2988281,2.4130859,2.0927734l-.8554688.8398438Zm10.4482422,9.8066406c-1.6806641-.0458984-3.4375-.0615234-5.1787109-.0615234-1.9091797,0-3.7871094.015625-5.4980469.0615234v-1.1464844c.4423828.015625.9619141.03125,1.4199219.0458984v-4.7802734h8.1875v4.765625c.3505859-.015625.7333984-.03125,1.0693359-.03125v1.1464844Zm-8.7519531-7.0117188v-5.2382812h6.8271484v5.2382812h-6.8271484Zm1.8320312,2.1240234h-1.2675781v3.8183594c.4130859,0,.8554688,0,1.2675781.0146484v-3.8330078Zm3.9257812-6.3847656h-4.6894531v1.1601562h4.6894531v-1.1601562Zm0,2.03125h-4.6894531v1.2529297h4.6894531v-1.2529297Zm-1.5732422,4.3535156h-1.359375v3.8330078h1.359375v-3.8330078Zm2.4287109,0h-1.4355469v3.8183594c.4736328,0,.9775391,0,1.4355469-.015625v-3.8027344Z"/>
      <path class="cls-1" d="m248.3408203,166.9179688c-.2900391.0302734-.6259766.0458984-.9775391.0458984-.5498047,0-1.1767578-.0458984-1.8330078-.1220703-.0917969.7021484-.1074219.9160156-.1074219,1.0078125,0,1.34375,1.0234375,2.2451172,2.1845703,2.2451172,1.6347656,0,2.6269531-1.1611328,2.6269531-2.5507812,0-.9619141-.4580078-2.0166016-1.5117188-2.8867188.3515625-.0917969.8398438-.2597656,1.1455078-.4121094,1.0693359,1.0693359,1.5429688,2.2910156,1.5429688,3.390625,0,1.9707031-1.4824219,3.6044922-3.7880859,3.6044922-1.8945312,0-3.3144531-1.3134766-3.3144531-3.3447266,0-.1835938,0-.3671875.0302734-.5654297.0302734-.2294922.0615234-.4736328.0917969-.7333984-1.7871094-.5039062-2.0625-1.4355469-2.0625-2.015625,0-.5810547.3056641-1.1767578.8408203-1.6347656l.7177734.5957031c-.3056641.2138672-.5498047.5810547-.5498047.9316406,0,.4433594.3359375.7792969,1.2216797.9931641.1376953-.9931641.3056641-2.0771484.4580078-3.1308594-.6416016-.2597656-1.1914062-.5654297-1.6796875-.9628906l.2744141-1.2373047c.3359375.3818359.8857422.7490234,1.5576172,1.0546875.1230469-.8710938.2138672-1.6650391.2597656-2.2763672v-.0917969c0-.1376953-.0302734-.2441406-.0302734-.3056641,0-.0449219.015625-.0605469.0615234-.0605469.0302734,0,.0458984,0,.0761719.015625.2441406.0605469,1.0234375.2900391,1.3291016.3818359.1523438.0302734.2138672.0908203.2138672.1367188,0,.0615234-.0615234.1220703-.1230469.1992188-.2285156.2744141-.3203125.7480469-.671875,2.4277344.5498047.1689453,1.1152344.2753906,1.6494141.2753906.0917969,0,.1835938-.015625.2753906-.015625l-.1835938,1.2070312c-.6875-.0917969-1.328125-.2138672-1.9238281-.3818359-.1679688.9775391-.3369141,2.0166016-.4589844,2.9785156.4589844.0605469.9472656.1064453,1.4208984.1064453.5039062,0,.9931641-.0458984,1.4199219-.1367188l-.1826172,1.2675781Z"/>
      <path class="cls-1" d="m258.7587891,167.3300781c-.3974609-.9316406-.5039062-2.2294922-.5039062-3.5439453,0-1.6796875.1835938-3.390625.2744141-4.3525391v-.0761719c0-.0917969-.0146484-.1679688-.0146484-.2138672s.0146484-.0615234.0605469-.0615234c.015625,0,.0458984,0,.0771484.015625,1.4658203.3515625,1.4960938.4277344,1.4960938.5195312,0,.0449219-.0302734.0908203-.0908203.1367188-.1689453.1376953-.2597656.2900391-.3212891.5810547-.1982422.8857422-.3818359,2.1074219-.3818359,3.2226562,0,.4580078.0302734.9013672.1074219,1.2832031l1.1298828-2.0322266.6259766.4433594c-.9160156,1.8027344-1.0996094,2.7949219-1.1601562,3.8486328l-1.2988281.2294922Zm5.8652344-2.03125c.015625-.2441406.0302734-.5654297.0302734-.9316406,0-1.5732422-.1679688-3.9404297-.3359375-4.78125-.0458984-.1982422-.1523438-.3505859-.1523438-.4423828,0-.03125.0302734-.0615234.1064453-.0615234,1.6953125,0,1.7265625.1533203,1.7265625.2294922,0,.0458984-.03125.1064453-.0615234.1826172-.1220703.3056641-.1220703.4433594-.1220703,1.2226562,0,1.0234375.0917969,2.3212891.0917969,3.5585938,0,1.3896484,0,5.7128906-4.9951172,7.2705078-.2441406-.4433594-.640625-.8857422-1.0380859-1.2373047,2.7792969-.4277344,4.5205078-2.3525391,4.75-5.0097656Z"/>
      <path class="cls-1" d="m276.4326172,169.9111328c-.1220703-.2597656-.2294922-.5185547-.3212891-.7939453-1.1601562.8398438-2.2607422,1.359375-3.0546875,1.359375s-1.2216797-.5800781-1.2216797-1.5576172c0-1.5273438,1.1152344-3.8037109,3.6201172-4.9492188.0302734-.7792969.0761719-1.5732422.1367188-2.3066406-.5341797.03125-1.0537109.0458984-1.5419922.0458984-.5498047,0-1.0537109-.0146484-1.4814453-.0605469l-.0917969-1.2070312c.6259766.1533203,1.4355469.2138672,2.3212891.2138672.2900391,0,.5800781,0,.8857422-.015625.0615234-.640625.1074219-1.1904297.1074219-1.5576172v-.1523438c-.015625-.1992188-.0615234-.3515625-.0615234-.4277344,0-.0458984.0302734-.0761719.0917969-.0761719.015625,0,.0458984,0,.0917969.0146484.7939453.1376953,1.5273438.2753906,1.5273438.3974609,0,.0605469-.0458984.1220703-.1074219.2138672-.1826172.1982422-.3046875.5195312-.4882812,1.5117188,1.4208984-.1220703,2.8105469-.3818359,3.7119141-.7480469l-.0458984,1.2519531c-.9013672.2138672-2.2001953.3974609-3.8183594.5195312-.0771484.6113281-.1533203,1.2988281-.1679688,1.9853516.671875-.1982422,1.34375-.2900391,2.1230469-.3203125h.2587891c3.0703125,0,4.5517578,1.8173828,4.5517578,3.7119141,0,2.0009766-1.6494141,4.078125-4.8261719,4.2158203-.1220703-.3212891-.4277344-.8554688-.7177734-1.2070312.1679688.015625.3203125.015625.4736328.015625,2.5810547,0,3.8330078-1.5585938,3.8330078-3.0556641,0-1.0537109-.640625-2.0771484-1.8779297-2.4736328-.9931641,1.4658203-2.1845703,2.9013672-3.2382812,3.8486328.1376953.3974609.3203125.7480469.5341797,1.0537109l-1.2060547.5498047Zm-.9775391-4.7958984c-1.7412109,1.0078125-2.5048828,2.8867188-2.5048828,3.7275391,0,.3359375.1367188.4726562.3964844.4726562.5039062,0,1.4052734-.4726562,2.4443359-1.3134766-.1679688-.7636719-.3056641-1.8173828-.3359375-2.8867188Zm3.5742188-.9013672c-.7792969,0-1.8945312.1679688-2.5205078.4589844.0302734.8544922.1064453,1.6953125.2597656,2.4736328.8398438-.7939453,1.7255859-1.8320312,2.3671875-2.9326172h-.1064453Z"/>
      <path class="cls-1" d="m290.9287109,165.9091797c-1.2832031,1.2070312-1.8935547,1.6806641-3.0390625,2.8261719-.1533203.1376953-.2138672.2138672-.2910156.4580078-.0302734.1074219-.0761719.1533203-.1064453.1533203-.0458984,0-.1074219-.0615234-.1982422-.1533203-.2597656-.3203125-.5957031-.7333984-.8408203-1.0996094-.0302734-.0458984-.0458984-.0761719-.0458984-.0917969,0-.0761719.1835938-.0761719.4277344-.2441406.9316406-.5498047,2.2607422-1.6494141,3.4980469-2.8105469l.5957031.9619141Zm3.7880859-4.2919922c-.3212891-.1367188-.6572266-.2128906-.9775391-.2128906-.8554688,0-1.6806641.4580078-1.6806641,1.4355469,0,.5957031.3359375,1.328125,1.2070312,2.0771484,1.2675781,1.0996094,2.0166016,2.1992188,2.0166016,3.2529297,0,.9013672-.5654297,2.3066406-2.8261719,2.3066406-.7021484,0-1.4208984-.1376953-1.9091797-.2900391-.0302734-.5039062-.0917969-1.0693359-.2138672-1.6035156.5800781.3964844,1.4052734.5957031,2.1074219.5957031.9628906,0,1.4824219-.3212891,1.4824219-1.0234375,0-.7792969-.71875-1.7412109-1.4667969-2.4140625-1.0839844-.9775391-1.4658203-1.9697266-1.4658203-2.7949219,0-1.6650391,1.2060547-2.015625,1.6035156-2.0615234-.7177734-.1992188-1.9707031-.4892578-3.0400391-.6572266l.3974609-.9921875c1.4355469.2138672,3.6660156.7177734,5.1474609,1.1914062l-.3818359,1.1904297Zm3.375,6.6601562c-.5957031-1.3291016-1.7412109-2.8564453-2.703125-3.8037109l.9316406-.5644531c1.0390625,1.0380859,2.1845703,2.4433594,2.9628906,3.7109375l-1.1914062.6572266Z"/>
      <path class="cls-1" d="m304.9208984,171.1181641c.015625-1.4355469.0615234-2.9482422.1074219-4.4902344-.6269531.7177734-1.2373047,1.5117188-1.7568359,2.3515625-.2294922.3359375-.2597656.5498047-.3203125.5498047-.1230469,0-.9013672-1.1142578-.9013672-1.2822266,0-.1074219.1826172-.1074219.4277344-.3828125.7177734-.7783203,1.7099609-2.1376953,2.6572266-4.0166016.015625-.4433594.0458984-.9013672.0615234-1.359375-.6113281.1679688-1.8486328.5800781-2.2001953.8095703-.1220703.0761719-.1523438.1064453-.1826172.1064453-.0761719,0-.3974609-1.3740234-.3974609-1.5117188,0-.0302734.015625-.0458984.0458984-.0458984.0615234,0,.1835938.0458984.3974609.0458984.3203125,0,1.3896484-.1835938,2.3974609-.4433594.03125-.8544922.0615234-1.6181641.0615234-2.1230469v-.2900391c0-.2285156-.0761719-.3818359-.0761719-.4580078,0-.0458984.0302734-.0615234.1220703-.0615234h.0302734c1.4511719.0771484,1.5732422.0917969,1.5732422.2138672,0,.0615234-.0458984.1376953-.1064453.1992188-.1533203.2138672-.2597656.4736328-.4277344,2.1074219.1523438-.0761719.2138672-.1220703.2744141-.1220703.1220703,0,.9316406.7480469.9316406.8251953,0,.0761719-.1523438.1220703-.3359375.3203125-.3515625.3818359-.7177734.8857422-1.0996094,1.4814453-.015625.2138672-.0302734.4121094-.0458984.6259766,2.5810547-2.8710938,3.8496094-3.2070312,4.5361328-3.2070312,1.0087891,0,1.7568359.7480469,1.7568359,2.2294922v.2138672c-.2294922,4.7509766-.2294922,4.78125-.2294922,4.8730469,0,.5498047.1835938.8398438.5498047.8398438.4589844,0,1.1611328-.4277344,2.1386719-1.4052734.0761719.4580078.2597656.9931641.4433594,1.375-1.1767578,1.0078125-2.1083984,1.4052734-2.8105469,1.4052734-1.0390625,0-1.5576172-.8710938-1.5576172-1.9550781v-.0917969c.0449219-1.2988281.1982422-3.1308594.2744141-5.1171875v-.1064453c0-.6269531-.1376953-1.1611328-.65625-1.1611328-.9472656,0-3.2236328,2.0771484-4.4912109,3.3759766-.0146484.4882812-.0302734.9775391-.0302734,1.4814453,0,1.4052734.0761719,2.8251953.2441406,4.1386719l-1.4052734.0615234Z"/>
      <path class="cls-1" d="m328.8105469,166.8720703c0,2.5966797-2.5810547,3.7421875-4.9326172,3.7421875-1.9707031,0-3.7880859-.7949219-3.7880859-2.2304688,0-.9775391.7636719-1.7412109,1.8017578-1.7412109,1.2373047,0,2.6728516.9931641,2.7041016,2.8261719,1.4658203-.1992188,2.8867188-.9931641,2.8867188-2.6582031,0-1.2675781-1.2832031-2.1533203-3.0244141-2.1533203-1.7109375,0-3.8642578.8398438-5.6816406,3.0087891l-1.0234375-1.0537109c1.9238281-1.5117188,4.75-4.1855469,6.2314453-6.125-3.3603516.5195312-3.8945312.7177734-4.2304688.8857422-.1074219.0615234-.1679688.1074219-.2138672.1074219-.1533203,0-.4277344-1.3134766-.4589844-1.4814453-.0146484-.03125-.0146484-.0458984-.0146484-.0615234,0-.0302734.0146484-.0458984.0458984-.0458984.0605469,0,.2138672.0615234.4121094.0615234.8554688,0,4.0166016-.2597656,5.1777344-.6113281.2597656-.0615234.3359375-.1376953.3974609-.1376953.1376953,0,1.0693359,1.1611328,1.0693359,1.1914062,0,.1074219-.2294922.0917969-.5195312.3515625-1.0537109.8701172-2.4589844,2.2910156-3.7724609,3.4667969,1.1142578-.3964844,2.1074219-.5644531,2.9785156-.5644531,2.4892578,0,3.9101562,1.4199219,3.9550781,3.1308594v.0917969Zm-6.8574219.7792969c-.3212891,0-.5957031.1826172-.671875.5498047-.015625.0458984-.015625.0908203-.015625.1367188,0,.6572266.9619141,1.0996094,2.1386719,1.1914062-.015625-1.2216797-.8408203-1.8779297-1.4511719-1.8779297Z"/>
      <path class="cls-1" d="m336.1435547,171.4541016c.03125-.9931641.0458984-2.1074219.0771484-3.2382812-1.0390625.4892578-2.2607422.9628906-3.2080078,1.2988281-.1982422.0761719-.3818359.1826172-.5039062.3359375-.0917969.1220703-.1982422.2138672-.2900391.2138672-.0615234,0-.1220703-.0458984-.1533203-.1679688-.0917969-.3359375-.2597656-.8710938-.3662109-1.2070312-.015625-.0458984-.0302734-.0917969-.0302734-.1064453,0-.0771484.0761719-.0917969.2744141-.1074219.6875-.0917969,2.7646484-.7333984,4.2919922-1.4970703.015625-.9775391.015625-2.015625.015625-2.9628906v-1.1455078c-.8554688,0-2.71875,0-3.9257812.0458984v-1.1757812c1.1767578.0458984,3.0703125.0458984,3.9257812.0458984-.015625-1.7109375-.0458984-2.9785156-.1220703-3.2382812-.0458984-.1835938-.1074219-.3056641-.1074219-.3818359,0-.0615234.0458984-.0917969.1376953-.0917969h.0302734c1.359375.1064453,1.4667969.1523438,1.4667969.2744141,0,.0771484-.0615234.1835938-.1376953.3056641-.1064453.1679688-.1523438.4580078-.1523438,4.6279297,0,2.4443359.0302734,5.5751953.1064453,8.171875h-1.3291016Zm3.40625-13.3798828c1.2988281.1064453,1.359375.1376953,1.359375.2597656,0,.0917969-.0458984.1982422-.1220703.3203125-.1064453.1992188-.1376953.3359375-.1376953.5654297-.0146484.7333984-.0146484,2.2910156-.0146484,3.9101562,1.4355469-.671875,2.7792969-1.8027344,3.1767578-2.4443359.0458984-.0761719.0615234-.1679688.1376953-.1679688.0146484,0,.0302734.015625.0605469.03125.2753906.1826172,1.0390625.7177734,1.0390625.9462891,0,.0615234-.0458984.1074219-.1679688.1376953-.1074219.015625-.2138672.0458984-.2900391.0917969-.0771484.0302734-.1220703.0615234-.1679688.1064453-.9472656.8554688-2.1230469,1.7109375-3.7880859,2.5361328,0,1.6650391.0146484,3.4521484.0146484,4.6884766,0,.4892578.0458984.71875,1.4365234.71875.3505859,0,.7324219-.015625,1.0683594-.0458984.5957031-.0615234.8710938-.6875,1.0693359-3.40625.5039062.3662109,1.1767578.5341797,1.1767578.5341797-.2753906,3.2080078-.7949219,3.8037109-1.7109375,3.9560547-.4580078.0761719-1.0537109.1220703-1.6191406.1220703-2.0927734,0-2.5810547-.3662109-2.5810547-1.6337891.0146484-1.7724609.0146484-4.3535156.0146484-6.5527344,0-2.1845703,0-4.0019531-.0458984-4.2158203-.0302734-.1835938-.0761719-.3056641-.0761719-.3662109,0-.0615234.0302734-.0917969.1074219-.0917969h.0605469Z"/>
      <path class="cls-1" d="m353.5732422,170.2470703c-1.5585938-.0449219-3.8496094-.0449219-4.9492188-.0449219.015625.3505859.015625.7021484.0302734,1.0537109h-1.2519531c.0761719-3.1777344.0917969-7.6679688.0917969-10.3105469v-2.1835938s.9013672.0146484,2.1230469.0146484c1.4199219,0,3.2988281-.0146484,4.7197266-.0761719v1.1757812c-1.8789062-.0605469-4.0175781-.0605469-5.0869141-.0605469h-.6865234v1.4355469c0,1.7871094,0,4.9492188.0458984,7.8964844.4267578,0,1.0683594.015625,1.7714844.015625,1.1455078,0,2.5048828-.015625,3.4824219-.0761719v.9462891c.7939453-.7177734,1.359375-1.6181641,1.7568359-2.5195312.4121094-.9472656.7021484-2.8720703.7021484-4.109375,0-.2744141-.015625-.5185547-.0458984-.7021484s-.0605469-.3056641-.0605469-.3818359c0-.0615234.0302734-.0917969.1064453-.0917969h.0302734c1.2832031.0917969,1.3134766.2597656,1.3134766.3359375,0,.0917969-.0605469.1992188-.1220703.3056641-.1064453.1982422-.1220703.3056641-.1220703.4580078v.1679688c.1376953,2.734375,1.2529297,5.5146484,3.2539062,6.8427734-.4736328.4589844-.6875,1.1152344-.6875,1.1152344-1.6191406-1.4511719-2.5205078-3.1621094-2.9941406-5.1015625-.2441406,1.1455078-.8095703,3.3759766-2.9472656,5.1015625,0,0-.2294922-.6875-.6572266-1.0693359l.1835938-.1376953Zm-.3056641-1.6035156c-.4277344-1.0234375-.9775391-2.1230469-1.4355469-2.8710938-.5654297,1.0380859-1.3447266,2.1689453-2.2001953,3.1767578,0,0-.2900391-.5498047-.7177734-.8857422,1.0546875-.9931641,1.8632812-2.1992188,2.3828125-3.2382812-.7177734-1.2675781-1.5117188-2.4589844-2.3828125-3.5585938l.8095703-.4892578c.7333984,1.0234375,1.4355469,2.046875,2.0625,3.0244141.4121094-1.0537109.6259766-2.3671875.6259766-2.9931641,0-.0917969,0-.1689453-.015625-.2294922-.0146484-.0917969-.0302734-.1679688-.0302734-.2294922,0-.1064453.0302734-.1523438.1220703-.1523438h.0458984c1.0234375.1835938,1.2373047.2294922,1.2373047.3662109,0,.0615234-.0458984.1220703-.1220703.2138672-.1533203.1679688-.2138672.2753906-.2441406.4130859-.2753906,1.3740234-.6113281,2.4892578-1.0546875,3.5283203.6416016,1.0839844,1.2988281,2.1689453,1.8789062,3.2988281l-.9619141.6259766Zm2.8408203-7.2548828c-.3359375,1.0839844-.8095703,2.2294922-1.375,3.1162109,0,0-.3203125-.5195312-.7939453-.9169922,1.0234375-1.359375,1.6650391-3.7880859,1.6650391-4.9941406v-.3056641c0-.1376953.015625-.1992188.1064453-.1992188h.0458984c1.1611328.1533203,1.2070312.2597656,1.2070312.3515625,0,.0615234-.0615234.1533203-.1376953.2441406-.0917969.0917969-.1523438.2294922-.1679688.3515625-.015625.03125-.015625.0458984-.015625.0761719-.0605469.3818359-.1367188.8095703-.2587891,1.2685547h2.7333984c.1679688,0,.2753906-.0458984.3974609-.1376953.0458984-.0302734.0761719-.0458984.1220703-.0458984.1523438,0,.8251953.5498047.8554688.5654297.0458984.0458984.0761719.0761719.0761719.1220703,0,.1523438-.3515625.2900391-.4277344.4423828-.3515625.9013672-.7636719,1.8027344-1.2060547,2.6269531,0,0-.5048828-.3203125-.9013672-.4882812.3515625-.5654297.7939453-1.4667969,1.0078125-2.0771484h-2.9326172Z"/>
      <path class="cls-1" d="m373.8730469,170.3388672c-1.0996094-1.2978516-2.8554688-2.8867188-4.4443359-4.1386719-1.3896484,1.5878906-3.1162109,3.1005859-5.2851562,4.4746094-.3046875-.2900391-.8544922-.7636719-1.1914062-1.0078125,3.9560547-1.8935547,6.9804688-5.4677734,8.0957031-8.2626953-1.8486328.0146484-4.9492188.1220703-6.2167969.3203125l-.0458984-1.4814453c.5351562.0605469,1.4511719.0917969,2.4746094.0917969,1.34375,0,2.8867188-.0458984,4.0322266-.1376953.2900391-.015625.3056641-.1679688.4130859-.1679688.1064453,0,1.328125.8095703,1.328125.9472656,0,.1367188-.3203125.2441406-.5341797.65625-.6113281,1.2216797-1.3896484,2.4589844-2.3222656,3.6503906,1.6347656,1.1767578,3.5439453,2.71875,4.8271484,4.0175781l-1.1308594,1.0380859Z"/>
      <path class="cls-1" d="m383.5888672,163.7255859c.9316406.5195312,1.8183594,1.0693359,2.71875,1.7109375.9472656-1.1767578,1.6347656-2.4287109,1.9863281-3.5283203-1.1767578.0302734-3.1162109.0458984-4.9951172.1220703-.9160156,1.0996094-2.015625,2.2294922-3.3447266,3.3144531-.3359375-.3056641-.7792969-.6416016-1.1611328-.8710938,2.0625-1.2373047,3.9716797-3.390625,4.8417969-5.3300781.1533203-.3212891.0302734-.5654297.1679688-.5654297.03125,0,.0458984,0,.0761719.015625.2451172.0761719,1.5732422.4736328,1.5732422.6416016,0,.0605469-.0605469.1367188-.1982422.2285156-.1835938.1376953-.2285156.1982422-.4580078.5351562-.1835938.2744141-.3662109.5498047-.5800781.8398438,1.4042969-.015625,2.71875-.0458984,4.2304688-.1220703.3203125-.015625.3359375-.1679688.4433594-.1679688.1367188,0,1.34375.9316406,1.34375,1.0683594,0,.1689453-.3818359.2597656-.671875.8867188-1.6650391,3.6191406-4.4912109,6.9033203-9.2871094,8.6904297-.2900391-.3662109-.7177734-.8242188-1.0537109-1.1152344,2.4892578-.6103516,4.5976562-2.0009766,6.1865234-3.6503906-.7792969-.7021484-1.7265625-1.3896484-2.75-1.9853516l.9316406-.7177734Z"/>
      <path class="cls-1" d="m399.4296875,170.9042969c.1220703-.8857422.1835938-3.2988281.1835938-5.4677734,0-.6875,0-1.359375-.015625-1.9404297-1.5429688,1.1152344-3.2382812,2.1845703-5.1933594,3.2080078-.2138672-.3056641-.65625-.7792969-.9472656-1.0693359,3.2382812-1.359375,7.6074219-4.4599609,9.3173828-6.7207031.1835938-.2597656.1835938-.4882812.2900391-.4882812.1230469,0,1.4667969,1.0683594,1.4667969,1.2060547,0,.0917969-.1074219.1679688-.2753906.2138672-.3818359.1074219-.5185547.2138672-.8242188.4892578-.7939453.7324219-1.6494141,1.4658203-2.5507812,2.1835938-.0458984.5654297-.0615234,1.6044922-.0615234,2.7802734,0,2.1074219.0615234,4.6435547.1376953,5.5595703l-1.5273438.0458984Z"/>
      <path class="cls-1" d="m411.0849609,160.3193359c1.5576172.1679688,1.5732422.1679688,1.5732422.2900391,0,.0615234-.0302734.1533203-.0917969.2597656-.1064453.1982422-.1220703.3056641-.1367188.5498047-.1074219,2.8105469.0302734,6.2626953-2.6279297,9.0576172-.4580078-.2900391-.9775391-.5341797-1.4658203-.7177734,2.3515625-1.6494141,2.7792969-4.765625,2.7792969-7.1025391,0-.7177734-.0449219-1.375-.0761719-1.8789062-.0146484-.1826172-.0761719-.3203125-.0761719-.3964844,0-.0458984.015625-.0615234.0761719-.0615234h.0458984Zm3.2080078-.4882812c1.5273438.0605469,1.6494141.0761719,1.6494141.1982422,0,.0605469-.0302734.1376953-.0917969.2285156-.1679688.2753906-.2744141.4589844-.2744141,5.3613281,0,1.0693359.0146484,2.0625.0146484,2.6728516,1.5429688-.8857422,3.9404297-2.9169922,5.4072266-4.6738281.2441406.3212891.5341797.6572266.8095703.9316406-1.5888672,1.7421875-3.6660156,3.6513672-5.8046875,5.1171875-.4423828.3212891-.5185547.5957031-.671875.5957031-.2285156,0-1.1914062-1.1298828-1.1914062-1.1298828,0-.0917969.1533203-.1376953.1679688-.4433594.015625-1.3896484.0458984-3.0087891.0458984-4.4902344,0-1.6044922-.0302734-3.0703125-.1220703-4.0019531-.015625-.1074219-.0761719-.2294922-.0761719-.2900391,0-.0458984.0302734-.0761719.1064453-.0761719h.03125Z"/>
    </g>
  </g>
</svg>