<?xml version="1.0" encoding="UTF-8"?>
<svg id="_レイヤー_2" data-name="レイヤー 2" xmlns="http://www.w3.org/2000/svg" viewBox="0 0 392.9148096 68.3007002">
  <defs>
    <style>
      .cls-1 {
        fill: #231815;
      }

      .cls-1, .cls-2, .cls-3 {
        stroke-width: 0px;
      }

      .cls-2 {
        fill: #e50012;
      }

      .cls-3 {
        fill: #004da0;
      }
    </style>
  </defs>
  <g id="_レイヤー_1-2" data-name="レイヤー 1">
    <g>
      <g>
        <g>
          <polygon class="cls-1" points="77.7220582 0 65.2106229 0 48.814304 23.7714869 48.814304 41.9746262 54.7564315 33.2964618 54.7564315 68.3007002 65.4542408 68.3007002 65.4542408 17.8477316 77.7220582 0"/>
          <polygon class="cls-1" points="105.0939391 42.962947 130.358913 42.962947 133.1679224 32.7450239 105.0939391 32.7450239 105.0939391 20.9526076 130.3789774 20.9526076 133.1004936 10.9430663 105.0939391 10.9430663 105.0939391 .002315 94.2883163 .002315 94.2883163 10.9430663 73.9379528 10.9430663 71.1289434 20.9526076 94.2080589 20.9526076 94.2080589 32.7450239 71.2894583 32.7450239 68.4804489 42.962947 94.2883163 42.962947 94.2883163 57.3037917 71.0454026 57.3037917 68.0431408 68.2819099 130.3990418 68.2819099 133.368566 57.3037917 105.0939391 57.3037917 105.0939391 42.962947"/>
        </g>
        <polygon class="cls-1" points="169.0690832 19.068371 160.6382109 19.068371 160.6382109 .0568356 149.7722691 .0568356 149.7722691 19.068371 144.3548939 19.068371 141.4656271 30.0011283 149.7722691 30.0011283 149.7722691 68.2597499 160.6382109 68.2597499 160.6382109 30.0011283 166.1447811 30.0011283 169.0690832 19.068371"/>
        <path class="cls-1" d="m200.8561115,31.1848748l.0161147,3.9284188h-2.484253l-1.9954767,8.3200839h4.4498557v13.8970086h-3.2237123l-2.9326736,10.9181783h4.7044903c6.6939301-.3480483,10.0446614-3.8077527,10.3964273-8.4949308v-16.3202561h6.307537l-.0149988,13.9097214-3.4314458.0055927-2.9566339,10.9135229h5.3413711c6.6702198-.3480483,9.2666726-3.7531524,9.6197205-8.4403304v-24.7185897l-14.6827891.0099992v-3.9309827l-9.1135334.0025639Z"/>
        <path class="cls-1" d="m171.6328225,31.1848748l.0161147,3.9284188h-2.8855401l-1.9954767,8.3200839h4.8511428v13.8970086h-3.8657716l-2.9326736,10.9181783h5.3465496c6.6939301-.3480483,10.0446614-3.8077527,10.3964273-8.4949308v-16.3202561h6.307537l-.0149988,13.9097214-3.4314458.0055927-2.9566339,10.9135229h5.3413711c6.6702198-.3480483,9.2666726-3.7531524,9.6197205-8.4403304v-24.7185897l-14.6827891.0099992v-3.9309827l-9.1135334.0025639Z"/>
        <path class="cls-1" d="m200.8821089,19.0590952h11.6142461v-4.0509593h-13.8490035v2.8564502c0,7.8863183-7.2625925,11.5024897-13.0553747,11.5024897h-14.0775126l.0075635-10.3541266h16.4126406v-4.0048132h-18.9085064l2.4674891-9.5806975h16.4410173V.0117741h10.6957584v5.4156643l23.0123544.037561v15.9474996c-.3404786,5.0250989-2.7041362,7.9346029-9.1464261,7.9621647h-11.6342444l.0199984-10.3155685Z"/>
      </g>
      <g>
        <polygon class="cls-2" points="13.8658765 15.6261508 13.8658765 31.8197936 27.7497362 31.8197936 27.7497362 48.0313275 37 38.7676247 37 15.6261508 13.8658765 15.6261508"/>
        <polygon class="cls-3" points="23.1341235 52.6745494 23.1341235 36.4809066 9.2502638 36.4809065 9.2502638 20.2693727 0 29.5330754 0 52.6745494 23.1341235 52.6745494"/>
      </g>
      <g>
        <g>
          <path class="cls-1" d="m253.2331689,28.516561h-3.9697266v2.0898438h5.1191406v1.9848633h-5.1191406v4.2836914h-2.0898438v-4.2836914h-5.6416016v-1.9848633h5.6416016v-2.0898438h-4.0751953v-9.2983398h4.0751953v-1.7763672h-5.0146484v-1.9848633h5.0146484v-2.6123047h1.9853516c.5566406.0703125.5908203.2792969.1044922.6269531v1.9853516h4.7011719v1.9848633h-4.7011719v1.7763672h3.9697266v9.2983398Zm-1.7763672-5.5371094v-2.0898438h-6.5820312v2.0898438h6.5820312Zm0,3.8657227v-2.1943359h-6.5820312v2.1943359h6.5820312Zm5.9560547,1.5668945c0,3.9018555-1.2539062,6.7553711-3.7617188,8.5673828l-1.4628906-1.4624023c2.2988281-1.6015625,3.4482422-4.0043945,3.4482422-7.2094727v-14.1044922h8.3583984v21.1049805c0,.9042969-.4541016,1.3583984-1.3583984,1.3583984h-2.1943359l-.3134766-1.9853516h1.671875c.2773438,0,.4179688-.1386719.4179688-.4179688v-5.8510742h-4.8056641Zm4.8056641-8.1494141v-4.074707h-4.8056641v4.074707h4.8056641Zm0,6.1645508v-4.1791992h-4.8056641v4.1791992h4.8056641Z"/>
          <path class="cls-1" d="m278.1833643,17.8598227h-8.5673828v2.6118164h-1.7763672v-3.8657227h10.34375v-1.4624023h-8.4628906v-1.671875h18.7021484v1.671875h-8.4628906v1.4624023h10.4472656v3.8657227h-1.7753906v-2.6118164h-8.671875v5.1196289h-1.7763672v-5.1196289Zm-.5224609,13.7915039h-7.1044922v1.5668945h7.2089844v1.671875h-7.2089844v2.0893555h-1.7763672v-12.8510742h8.8808594v4.2836914h-7.1044922v1.5673828h7.1044922v1.671875Zm-7.1044922-6.269043v1.7763672h5.328125v-1.7763672h-5.328125Zm.2089844-6.2685547h6.1640625v1.253418h-6.1640625v-1.253418Zm6.1640625,2.402832v1.2539062h-6.1640625v-1.2539062h6.1640625Zm13.4775391,15.2539062c-2.7861328-.5581055-4.7714844-1.2192383-5.9550781-1.9848633-1.3242188.765625-3.3789062,1.53125-6.1640625,2.2983398l-.7314453-1.7758789c2.2988281-.5585938,4.0742188-1.1132812,5.328125-1.671875-.7666016-.6953125-1.3232422-1.4970703-1.671875-2.402832h-1.7753906v-1.671875h8.5673828l.4179688-.4179688,1.3574219,1.0449219c.2089844.2089844.1044922.3496094-.3134766.4179688-.9052734,1.1147461-2.0205078,2.159668-3.3427734,3.1342773,1.1132812.5585938,2.7851562.9404297,5.0146484,1.1494141l-.7314453,1.8803711Zm-10.9697266-8.3583984v-1.253418h8.2539062v-1.7763672h-8.2539062v-1.2539062h10.0292969v4.2836914h-10.0292969Zm7.9404297-9.2983398v1.253418h-6.1650391v-1.253418h6.1650391Zm0,2.402832v1.2539062h-6.1650391v-1.2539062h6.1650391Zm-.7314453,9.7167969h-3.7617188c.3476562.6269531.9042969,1.1850586,1.671875,1.6713867,1.0449219-.6264648,1.7402344-1.1835938,2.0898438-1.6713867Z"/>
          <path class="cls-1" d="m314.7927393,24.6508384l-1.671875-1.6713867-18.1796875.7314453c-.0693359.5581055-.2441406.6967773-.5224609.4174805l-.5214844-2.7163086h4.4921875c1.671875-2.7851562,3.2392578-5.5717773,4.7011719-8.3583984l2.1943359.8359375c.4179688.3491211.2773438.5927734-.4179688.7314453-1.3935547,2.2983398-2.8564453,4.5625-4.3876953,6.7910156l11.1787109-.1044922c-1.5322266-1.4628906-2.9248047-2.6459961-4.1787109-3.5522461l1.5673828-1.3583984c2.7158203,1.9511719,5.2236328,4.1108398,7.5224609,6.4780273l-1.7763672,1.7758789Zm-4.0742188,11.7021484v-1.1494141h-11.1796875v1.3583984h-2.0898438v-10.4482422h15.3583984v10.2392578h-2.0888672Zm-11.1796875-3.1347656h11.1796875v-5.1191406h-11.1796875v5.1191406Z"/>
          <path class="cls-1" d="m342.898208,34.1586509l-.8359375,2.6118164c-4.5976562-1.0444336-8.0810547-2.5073242-10.4482422-4.3876953-3.0654297,1.9506836-6.7910156,3.4477539-11.1796875,4.4921875l-.9394531-2.402832c4.1083984-.765625,7.5566406-1.9492188,10.3427734-3.5522461-1.8115234-2.0195312-3.2041016-4.2480469-4.1787109-6.6870117h-3.2392578v-1.9848633h7.6269531v-3.7612305h-10.0292969v-1.9853516h10.0292969v-3.3432617h2.2988281c.6953125.140625.7314453.4179688.1044922.8359375v2.5073242h10.1347656v1.9853516h-10.1347656v3.7612305h4.8056641l.6269531-.6269531,1.7763672,1.5673828-.4179688.2089844c-1.7412109,3.2045898-3.65625,5.7119141-5.7460938,7.5224609,2.2988281,1.4628906,5.4326172,2.543457,9.4033203,3.2387695Zm-14.7314453-9.9257812c.9042969,2.0898438,2.0888672,3.831543,3.5517578,5.2241211,1.671875-1.3925781,3.0644531-3.1342773,4.1796875-5.2241211h-7.7314453Z"/>
          <path class="cls-1" d="m345.7400049,34.8900962c1.6015625-2.0898438,2.4033203-4.4926758,2.4033203-7.2089844v-11.9111328h8.5673828v-2.925293h2.2978516c.6962891.140625.7314453.4179688.1044922.8359375v2.0893555h9.2988281v1.9853516h-18.1787109v10.0302734c0,3.4135742-.90625,6.3388672-2.7167969,8.7763672l-1.7763672-1.671875Zm13.5820312-15.9853516c.5566406.0698242.5917969.2788086.1044922.6269531v2.1938477h8.3583984v1.9853516h-8.3583984v3.2387695h7.0009766v9.6123047h-2.0898438v-1.1494141h-9.7167969v1.3579102h-2.0898438v-9.8208008h4.8066406v-8.0449219h1.984375Zm5.015625,14.5224609v-4.4926758h-9.7167969v4.4926758h9.7167969Z"/>
        </g>
        <g>
          <path class="cls-1" d="m242.3689111,47.0502524v-2.6206055h.9394531c.2636719.0332031.2792969.1323242.0488281.296875v2.3237305h1.2363281v.9394531h-1.2363281v3.90625l1.4833984-.4453125v.9892578l-3.3613281,1.1865234c-.0341797.2641602-.1162109.3295898-.2480469.1977539l-.3955078-1.2363281,1.5332031-.3955078v-4.2026367h-1.3349609v-.9394531h1.3349609Zm8.6523438,2.8183594v4.746582c0,.4282227-.2148438.6425781-.6425781.6425781h-1.3847656l-.1972656-.9389648h1.0380859c.1318359,0,.1982422-.0668945.1982422-.1982422v-4.2519531h-5.4394531v-.9394531h7.4658203v.9394531h-1.0380859Zm-5.7851562-1.0878906l-.3457031-.9887695c1.5488281-.2299805,2.4726562-.7246094,2.7685547-1.4833984h-2.5214844v-.9394531h2.5712891v-1.2851562h.9394531c.2636719.0332031.2792969.1318359.0498047.2963867v.9887695h2.7685547v.9394531h-2.7197266c.4941406.6923828,1.4667969,1.1542969,2.9169922,1.3847656l-.2470703,1.0380859c-1.4501953-.2299805-2.5048828-.7416992-3.1640625-1.5327148-.6269531.8574219-1.6318359,1.3842773-3.0166016,1.5820312Zm1.0878906,4.7963867v.4448242h-.8398438v-3.3129883h3.4111328v2.8681641h-2.5712891Zm0-.7915039h1.7304688v-1.2851562h-1.7304688v1.2851562Z"/>
          <path class="cls-1" d="m259.2985986,46.0614829v2.769043h3.7578125v1.0874023h-3.7578125v3.4614258h4.8945312v1.0874023h-10.6308594v-1.0874023h4.5986328v-3.4614258h-3.4111328v-1.0874023h3.4111328v-2.769043h-4.0048828v-1.0878906h9.5917969v1.0878906h-4.4492188Zm1.6308594,4.1533203c.6259766.4287109,1.2197266,1.0551758,1.7802734,1.8789062l-1.0878906.7416992c-.4619141-.7578125-.9882812-1.4008789-1.5820312-1.9282227l.8896484-.6923828Z"/>
          <path class="cls-1" d="m266.7146143,55.1591391l-.7412109-.9394531c1.0546875-.6259766,1.8955078-1.3671875,2.5214844-2.2250977l.9394531.5439453c.1650391.1323242.1152344.230957-.1484375.296875-.5605469.7910156-1.4169922,1.5649414-2.5712891,2.3237305Zm.5439453-3.609375v.4946289h-.9882812v-7.1201172h.9394531c.2636719.0332031.2792969.1318359.0488281.296875v5.3891602h9.0976562v.9394531h-4.5976562v3.8071289h-1.1376953v-3.8071289h-3.3623047Zm1.1875-1.5820312v-5.6860352h6.2792969v5.6860352h-6.2792969Zm.9882812-4.1040039h4.3017578v-.7910156h-4.3017578v.7910156Zm0,1.5820312h4.3017578v-.7910156h-4.3017578v.7910156Zm0,1.7304688h4.3017578v-.9394531h-4.3017578v.9394531Zm4.1533203,2.769043c.6591797.659668,1.6318359,1.3188477,2.9169922,1.9775391l-.5927734,1.0385742c-1.1210938-.527832-2.1757812-1.2856445-3.1650391-2.2744141l.8408203-.7416992Z"/>
          <path class="cls-1" d="m283.3083643,51.3520102h-1.8789062v.9887695h2.4228516v.9394531h-2.4228516v2.0273438h-.9892578v-2.0273438h-2.6699219v-.9394531h2.6699219v-.9887695h-1.9277344v-4.4003906h1.9277344v-.8408203h-2.3730469v-.9394531h2.3730469v-1.2358398h.9394531c.2636719.0332031.2792969.1318359.0498047.2963867v.9394531h2.2246094v.9394531h-2.2246094v.8408203h1.8789062v4.4003906Zm-.8408203-2.6206055v-.9887695h-3.1152344v.9887695h3.1152344Zm0,1.8295898v-1.0385742h-3.1152344v1.0385742h3.1152344Zm2.8183594.7416992c0,1.8461914-.59375,3.1967773-1.7802734,4.0541992l-.6923828-.6923828c1.0878906-.7578125,1.6318359-1.8950195,1.6318359-3.4116211v-6.6748047h3.9560547v9.987793c0,.4277344-.2148438.6425781-.6435547.6425781h-1.0380859l-.1484375-.9394531h.7910156c.1318359,0,.1982422-.0654297.1982422-.1977539v-2.7685547h-2.2744141Zm2.2744141-3.8569336v-1.9282227h-2.2744141v1.9282227h2.2744141Zm0,2.9174805v-1.9780273h-2.2744141v1.9780273h2.2744141Z"/>
          <path class="cls-1" d="m295.1159814,46.3085532h-4.0546875v1.2363281h-.8408203v-1.8295898h4.8955078v-.6923828h-4.0048828v-.7910156h8.8496094v.7910156h-4.0048828v.6923828h4.9443359v1.8295898h-.8398438v-1.2363281h-4.1044922v2.4228516h-.8398438v-2.4228516Zm-.2480469,6.5268555h-3.3613281v.7416992h3.4111328v.7910156h-3.4111328v.9887695h-.8408203v-6.081543h4.2021484v2.0273438h-3.3613281v.7416992h3.3613281v.7910156Zm-3.3613281-2.9667969v.840332h2.5214844v-.840332h-2.5214844Zm.0986328-2.9667969h2.9169922v.59375h-2.9169922v-.59375Zm2.9169922,1.137207v.59375h-2.9169922v-.59375h2.9169922Zm6.3779297,7.21875c-1.3183594-.2641602-2.2578125-.5766602-2.8183594-.9389648-.6259766.3623047-1.5986328.7246094-2.9169922,1.0874023l-.3457031-.840332c1.0878906-.2641602,1.9277344-.5268555,2.5214844-.7910156-.3632812-.3291016-.6269531-.7084961-.7910156-1.137207h-.8408203v-.7915039h4.0546875l.1972656-.1977539.6435547.4946289c.0986328.0991211.0488281.1655273-.1484375.1977539-.4287109.527832-.9570312,1.0219727-1.5820312,1.4833984.5263672.2641602,1.3173828.4448242,2.3730469.5439453l-.3466797.8896484Zm-5.1914062-3.9550781v-.59375h3.90625v-.840332h-3.90625v-.5932617h4.7470703v2.0273438h-4.7470703Zm3.7578125-4.4008789v.59375h-2.9169922v-.59375h2.9169922Zm0,1.137207v.59375h-2.9169922v-.59375h2.9169922Zm-.3457031,4.5986328h-1.7802734c.1650391.2963867.4277344.5605469.7910156.7910156.4941406-.296875.8232422-.5600586.9892578-.7910156Z"/>
          <path class="cls-1" d="m311.0066064,52.8847251c.1308594,0,.1972656-.065918.1972656-.1977539v-3.5107422h-2.7685547v6.1313477h-1.1367188v-6.1313477h-2.5224609v4.7963867h-1.1367188v-5.7358398h3.6591797v-1.5327148h-4.9443359v-.9394531h4.9443359v-1.5820312h1.0869141c.2636719.0332031.2802734.1323242.0498047.296875v1.2851562h5.0927734v.9394531h-5.0927734v1.5327148h3.90625v4.9448242c0,.5273438-.2646484.7910156-.7910156.7910156h-1.2861328l-.0986328-1.0878906h.8408203Z"/>
          <path class="cls-1" d="m320.8064111,46.1107993v.8408203h3.3623047v4.6474609h-.9882812v-.2963867h-2.0273438c1.3837891,1.1538086,2.9824219,1.9614258,4.7958984,2.4223633l-.4941406,1.1870117c-1.5166016-.3955078-3.0664062-1.3349609-4.6484375-2.8183594v3.2631836h-.9882812v-3.0654297c-1.1542969,1.2529297-2.6376953,2.175293-4.4501953,2.7685547l-.4941406-1.0380859c1.9775391-.6259766,3.5429688-1.5327148,4.6962891-2.7192383h-2.1259766v.4448242h-.9882812v-4.7958984h3.3623047v-.8408203h-4.8955078v-.9394531h4.8955078v-1.137207h.9394531c.2626953.0332031.2792969.1323242.0488281.296875v.840332h4.7958984v.9394531h-4.7958984Zm-3.3623047,2.6206055h2.3740234v-.9887695h-2.3740234v.9887695Zm0,1.7797852h2.3740234v-.9887695h-2.3740234v.9887695Zm3.3623047-1.7797852h2.3740234v-.9887695h-2.3740234v.9887695Zm0,1.7797852h2.3740234v-.9887695h-2.3740234v.9887695Z"/>
          <path class="cls-1" d="m330.5759424,49.8686118v-1.7304688h.9394531c.2636719.0332031.2802734.1318359.0498047.2963867v1.434082h2.5214844v-1.9775391h.9394531c.2636719.0332031.2802734.1318359.0498047.2963867v1.6811523h3.1152344v.9394531h-3.1152344v4.4003906h-.9892578v-4.4003906h-2.5214844v.9394531c0,1.7797852-1.0878906,3.0161133-3.2636719,3.7084961l-.4443359-1.0385742c1.8125-.4277344,2.71875-1.3178711,2.71875-2.6699219v-.9394531h-3.3613281v-.9394531h3.3613281Zm.1982422-3.0161133l4.4501953-.1977539c-.4951172-.3291016-.9892578-.6425781-1.4833984-.9394531l.6923828-.6923828c1.2851562.6601562,2.4052734,1.4511719,3.3623047,2.3735352l-.890625.7910156c-.2304688-.2963867-.5117188-.5600586-.8408203-.7910156l-7.5644531.5932617c-.0332031.2641602-.1162109.3300781-.2470703.1977539l-.296875-1.3349609h1.7802734l2.0761719-2.8676758,1.0380859.4946289c.1650391.1650391.0996094.2470703-.1972656.2470703l-1.8789062,2.1259766Z"/>
          <path class="cls-1" d="m341.9782861,53.1317954c.1308594.1655273.0820312.2475586-.1484375.2475586-.4941406.8242188-1.0712891,1.4995117-1.7304688,2.0268555l-.8408203-.840332c.7246094-.5932617,1.3183594-1.2856445,1.7802734-2.0766602l.9394531.6425781Zm-1.8789062-8.7021484h4.2021484v7.7626953h-4.2021484v-7.7626953Zm3.2138672,2.3242188v-1.3847656h-2.2246094v1.3847656h2.2246094Zm0,2.2744141v-1.3349609h-2.2246094v1.3349609h2.2246094Zm0,2.2246094v-1.2851562h-2.2246094v1.2851562h2.2246094Zm.1484375,1.1870117c.6259766.4941406,1.0878906,1.1044922,1.3837891,1.8291016l-.9394531.6923828c-.3623047-.7578125-.7910156-1.3676758-1.2851562-1.8295898l.8408203-.6918945Zm4.5976562-2.5712891c-.6259766,1.3188477-1.6484375,2.5385742-3.0654297,3.6586914l-.6425781-1.0380859c1.5820312-1.2524414,2.8017578-2.7851562,3.6591797-4.5981445h-3.1152344v-1.0878906h3.1640625v-2.7192383h.9394531c.2636719.0332031.2802734.1318359.0498047.2963867v2.4228516h1.7304688v1.0878906h-1.7304688v6.6748047c0,.4277344-.2314453.6425781-.6923828.6425781h-1.1367188l-.1982422-1.0878906h.8408203c.1308594,0,.1972656-.0654297.1972656-.1977539v-4.0541992Z"/>
          <path class="cls-1" d="m356.7722314,53.1816001v.9389648h-5.0439453v-.7910156c.7578125-1.4165039,1.6972656-2.7685547,2.8183594-4.0541992.6259766-.7246094.9394531-1.4833984.9394531-2.2744141,0-.5600586-.1484375-.9887695-.4443359-1.2856445-.1982422-.1977539-.4628906-.2963867-.7919922-.2963867-.2636719,0-.5273438.1318359-.7910156.3955078-.2958984.2963867-.4443359.9067383-.4443359,1.8291016h-1.0878906c.0322266-1.1865234.3125-2.043457.8408203-2.5708008.3955078-.3955078.921875-.5932617,1.5820312-.5932617.6259766,0,1.1533203.2143555,1.5820312.6425781.4609375.4619141.6923828,1.1049805.6923828,1.9282227,0,.956543-.4453125,1.9453125-1.3349609,2.9667969-.9570312,1.0878906-1.7480469,2.1430664-2.3740234,3.1645508h3.8574219Z"/>
          <path class="cls-1" d="m363.1989893,49.2753501v.7910156h-5.6357422v-.7910156h5.6357422Z"/>
          <path class="cls-1" d="m365.9880518,54.1205649v-7.6635742h-1.4824219v-.5932617c1.1533203,0,1.8291016-.4614258,2.0263672-1.3842773h.59375v9.6411133h-1.1376953Z"/>
          <path class="cls-1" d="m374.6208643,53.1816001v.9389648h-5.0429688v-.7910156c.7578125-1.4165039,1.6972656-2.7685547,2.8183594-4.0541992.6259766-.7246094.9394531-1.4833984.9394531-2.2744141,0-.5600586-.1484375-.9887695-.4453125-1.2856445-.1972656-.1977539-.4619141-.2963867-.7910156-.2963867-.2646484,0-.5273438.1318359-.7910156.3955078-.296875.2963867-.4453125.9067383-.4453125,1.8291016h-1.0878906c.0332031-1.1865234.3134766-2.043457.8408203-2.5708008.3955078-.3955078.9228516-.5932617,1.5820312-.5932617.6259766,0,1.1533203.2143555,1.5820312.6425781.4619141.4619141.6923828,1.1049805.6923828,1.9282227,0,.956543-.4443359,1.9453125-1.3349609,2.9667969-.9560547,1.0878906-1.7470703,2.1430664-2.3730469,3.1645508h3.8564453Z"/>
          <path class="cls-1" d="m381.0485986,49.2753501v.7910156h-5.6357422v-.7910156h5.6357422Z"/>
          <path class="cls-1" d="m386.8835596,53.1816001v.9389648h-5.0439453v-.7910156c.7578125-1.4165039,1.6972656-2.7685547,2.8183594-4.0541992.6259766-.7246094.9394531-1.4833984.9394531-2.2744141,0-.5600586-.1484375-.9887695-.4443359-1.2856445-.1982422-.1977539-.4628906-.2963867-.7919922-.2963867-.2636719,0-.5273438.1318359-.7910156.3955078-.2958984.2963867-.4443359.9067383-.4443359,1.8291016h-1.0878906c.0322266-1.1865234.3125-2.043457.8408203-2.5708008.3955078-.3955078.921875-.5932617,1.5820312-.5932617.6259766,0,1.1533203.2143555,1.5820312.6425781.4609375.4619141.6923828,1.1049805.6923828,1.9282227,0,.956543-.4453125,1.9453125-1.3349609,2.9667969-.9570312,1.0878906-1.7480469,2.1430664-2.3740234,3.1645508h3.8574219Z"/>
          <path class="cls-1" d="m389.4538721,52.8354087c.2304688.230957.5439453.3461914.9394531.3461914.3291016,0,.6435547-.1484375.9394531-.4453125.296875-.2963867.4453125-.7910156.4453125-1.4833984,0-.5268555-.1816406-.9716797-.5439453-1.3349609-.2636719-.2631836-.6601562-.378418-1.1865234-.3461914v-.840332c.5263672-.0322266.9228516-.1806641,1.1865234-.4448242.2636719-.2636719.3955078-.6591797.3955078-1.1870117,0-.6586914-.1484375-1.137207-.4453125-1.4335938-.1972656-.1977539-.4443359-.296875-.7412109-.296875s-.5439453.0991211-.7412109.296875c-.3300781.3295898-.5117188.8242188-.5439453,1.4833984h-1.0878906c.0322266-.8569336.3125-1.5493164.8398438-2.0766602.3955078-.3955078.90625-.5932617,1.5332031-.5932617.6591797,0,1.1865234.1977539,1.5820312.5932617.4609375.4619141.6923828,1.0712891.6923828,1.8291016,0,.6923828-.1816406,1.2202148-.5439453,1.5825195-.3300781.3295898-.6425781.5439453-.9394531.6425781.4277344.1323242.7578125.3134766.9892578.5439453.4609375.4619141.6914062,1.0219727.6914062,1.6811523,0,.8574219-.2636719,1.5498047-.7910156,2.0766602-.4619141.4619141-1.0380859.6918945-1.7304688.6918945-.7587891,0-1.3515625-.2138672-1.7792969-.6425781-.4951172-.4946289-.7421875-1.2358398-.7421875-2.2250977h1.1376953c-.0332031.7255859.1152344,1.253418.4443359,1.5825195Z"/>
        </g>
      </g>
    </g>
  </g>
</svg>