<?xml version="1.0" encoding="UTF-8"?>
<svg id="_レイヤー_2" data-name="レイヤー 2" xmlns="http://www.w3.org/2000/svg" viewBox="0 0 397.2775818 42.8383789">
  <defs>
    <style>
      .cls-1 {
        fill: #d21619;
        stroke-width: 0px;
      }
    </style>
  </defs>
  <g id="_レイヤー_1-2" data-name="レイヤー 1">
    <g>
      <g>
        <path class="cls-1" d="m58.1281677,39.6982422c-2.0263672-2.0932617-3.0390625-5.0126953-3.0390625-8.7578125V11.8979492c0-3.7641602,1.0175781-6.6879883,3.0537109-8.7719727s5.0029297-3.1259766,8.9013672-3.1259766c3.9179688,0,6.890625,1.0371094,8.9169922,3.1113281s3.0390625,5.003418,3.0390625,8.7866211v19.0424805c0,3.7646484-1.0185547,6.6884766-3.0537109,8.7724609-2.0361328,2.0839844-5.0039062,3.1254883-8.9023438,3.1254883-3.9179688,0-6.8896484-1.0463867-8.9160156-3.1401367Zm13.5117188-4.0761719c.9882812-1.0849609,1.4833984-2.6455078,1.4833984-4.6816406V11.8979492c0-2.0356445-.4892578-3.5961914-1.4697266-4.6811523-.9785156-1.0849609-2.515625-1.6279297-4.609375-1.6279297s-3.6289062.5429688-4.609375,1.6279297c-.9785156,1.0849609-1.46875,2.6455078-1.46875,4.6811523v19.0424805c0,2.0361328.4941406,3.5966797,1.4833984,4.6816406s2.5205078,1.6274414,4.5947266,1.6274414,3.6054688-.5424805,4.5957031-1.6274414Z"/>
        <path class="cls-1" d="m97.7551209,42.40625h-5.8769531V6.9140625l-5.9638672,3.6586914v-6.0786133l5.9638672-3.9755859h5.8769531v41.8876953Z"/>
        <path class="cls-1" d="m106.6281677,37.3071289l14.6054688-19.4746094c.8447266-1.1137695,1.5019531-2.2709961,1.9726562-3.4711914s.7070312-2.3193359.7070312-3.3564453v-.0576172c0-1.6708984-.4902344-2.9672852-1.4697266-3.8891602s-2.3720703-1.3828125-4.1767578-1.3828125c-1.7099609,0-3.0927734.5043945-4.1484375,1.512207-1.0566406,1.0087891-1.7001953,2.4345703-1.9306641,4.2783203v.0288086h-6.0791016v-.0288086c.3457031-2.4003906,1.0527344-4.4511719,2.1171875-6.1503906,1.0664062-1.7001953,2.4443359-2.9960938,4.1347656-3.8896484,1.6894531-.8925781,3.6386719-1.3393555,5.8476562-1.3393555,2.4970703,0,4.6289062.4277344,6.3964844,1.2817383,1.765625.8549805,3.1113281,2.0986328,4.0332031,3.730957.921875,1.6328125,1.3828125,3.6010742,1.3828125,5.9057617v.0288086c0,1.4790039-.3085938,3.0249023-.921875,4.6381836-.6152344,1.6132812-1.4697266,3.1689453-2.5644531,4.6669922l-12.1289062,16.4785156h15.8457031v5.5888672h-23.6230469v-5.0991211Z"/>
        <path class="cls-1" d="m140.7805115,39.6982422c-2.0273438-2.0932617-3.0390625-5.0126953-3.0390625-8.7578125V11.8979492c0-3.7641602,1.0175781-6.6879883,3.0527344-8.7719727,2.0361328-2.0839844,5.0039062-3.1259766,8.9023438-3.1259766,3.9179688,0,6.8896484,1.0371094,8.9160156,3.1113281s3.0390625,5.003418,3.0390625,8.7866211v19.0424805c0,3.7646484-1.0175781,6.6884766-3.0527344,8.7724609-2.0371094,2.0839844-5.0039062,3.1254883-8.9023438,3.1254883-3.9179688,0-6.890625-1.0463867-8.9160156-3.1401367Zm13.5117188-4.0761719c.9882812-1.0849609,1.4824219-2.6455078,1.4824219-4.6816406V11.8979492c0-2.0356445-.4892578-3.5961914-1.46875-4.6811523s-2.515625-1.6279297-4.609375-1.6279297-3.6298828.5429688-4.609375,1.6279297-1.46875,2.6455078-1.46875,4.6811523v19.0424805c0,2.0361328.4941406,3.5966797,1.4824219,4.6816406.9902344,1.0849609,2.5214844,1.6274414,4.5957031,1.6274414s3.6054688-.5424805,4.5957031-1.6274414Z"/>
        <path class="cls-1" d="m189.9426209,24.6025391v5.5888672h-19.359375v-5.5888672h19.359375Z"/>
        <path class="cls-1" d="m203.0793396,41.3544922c-1.7480469-.9887695-3.078125-2.4291992-3.9902344-4.3212891-.9121094-1.8911133-1.3691406-4.171875-1.3691406-6.8417969v-.0288086c0-1.5556641.1826172-3.1879883.5478516-4.8974609.3642578-1.7089844.8935547-3.3896484,1.5849609-5.0415039.1152344-.2880859.2392578-.5712891.3740234-.8496094.1337891-.2783203.2685547-.5522461.4033203-.8212891L209.7336365.5185547h6.3378906l-10.6875,20.8862305.0283203-1.0371094c.4794922-.9023438,1.1806641-1.6035156,2.1025391-2.1030273.921875-.4990234,1.9980469-.7490234,3.2265625-.7490234,2.1699219,0,4.0332031.4897461,5.5898438,1.4692383,1.5546875.9794922,2.7363281,2.4057617,3.5429688,4.277832.8066406,1.8730469,1.2099609,4.125,1.2099609,6.7558594v.0288086c0,2.6889648-.4560547,4.9936523-1.3681641,6.9140625-.9121094,1.9208984-2.2480469,3.3803711-4.0039062,4.3789062-1.7578125.9990234-3.8662109,1.4980469-6.3242188,1.4980469-2.4589844,0-4.5615234-.4941406-6.3085938-1.4838867Zm10.6152344-5.8911133c1.0078125-1.1523438,1.5126953-2.7944336,1.5126953-4.9262695v-.0288086c0-2.3427734-.5283203-4.152832-1.5849609-5.4301758s-2.5634766-1.9160156-4.5224609-1.9160156c-1.7480469,0-3.1025391.6435547-4.0615234,1.9301758-.9609375,1.2871094-1.4414062,3.1020508-1.4414062,5.4448242v.0288086c0,2.1318359.5039062,3.7695312,1.5136719,4.9116211,1.0078125,1.1430664,2.4335938,1.7143555,4.2773438,1.7143555,1.8632812,0,3.2988281-.5761719,4.3066406-1.7285156Z"/>
        <path class="cls-1" d="m228.2863709,30.8828125L242.3449646.5473633h6.0498047l-13.7128906,29.9897461h20.5400391v5.4448242h-26.9355469v-5.0991211Zm18.0625-13.1079102h5.7333984v24.6601562h-5.7333984v-24.6601562Z"/>
        <path class="cls-1" d="m282.0715271,24.6025391v5.5888672h-19.359375v-5.5888672h19.359375Z"/>
        <path class="cls-1" d="m300.8264099,42.40625h-5.8769531V6.9140625l-5.9638672,3.6586914v-6.0786133l5.9638672-3.9755859h5.8769531v41.8876953Z"/>
        <path class="cls-1" d="m309.6994568,37.3071289l14.6064453-19.4746094c.84375-1.1137695,1.5019531-2.2709961,1.9726562-3.4711914s.7060547-2.3193359.7060547-3.3564453v-.0576172c0-1.6708984-.4892578-2.9672852-1.4697266-3.8891602-.9785156-.921875-2.3710938-1.3828125-4.1767578-1.3828125-1.7099609,0-3.0927734.5043945-4.1484375,1.512207-1.0566406,1.0087891-1.7001953,2.4345703-1.9306641,4.2783203v.0288086h-6.078125v-.0288086c.3457031-2.4003906,1.0517578-4.4511719,2.1171875-6.1503906,1.0664062-1.7001953,2.4433594-2.9960938,4.1347656-3.8896484,1.6894531-.8925781,3.6386719-1.3393555,5.8476562-1.3393555,2.4960938,0,4.6289062.4277344,6.3955078,1.2817383,1.7666016.8549805,3.1113281,2.0986328,4.0332031,3.730957.921875,1.6328125,1.3828125,3.6010742,1.3828125,5.9057617v.0288086c0,1.4790039-.3076172,3.0249023-.921875,4.6381836s-1.4697266,3.1689453-2.5634766,4.6669922l-12.1289062,16.4785156h15.8447266v5.5888672h-23.6230469v-5.0991211Z"/>
        <path class="cls-1" d="m343.8518005,39.6982422c-2.0263672-2.0932617-3.0390625-5.0126953-3.0390625-8.7578125V11.8979492c0-3.7641602,1.0175781-6.6879883,3.0537109-8.7719727,2.0351562-2.0839844,5.0029297-3.1259766,8.9023438-3.1259766,3.9179688,0,6.8886719,1.0371094,8.9160156,3.1113281,2.0253906,2.0742188,3.0390625,5.003418,3.0390625,8.7866211v19.0424805c0,3.7646484-1.0175781,6.6884766-3.0537109,8.7724609s-5.0029297,3.1254883-8.9013672,3.1254883c-3.9179688,0-6.890625-1.0463867-8.9169922-3.1401367Zm13.5117188-4.0761719c.9892578-1.0849609,1.4833984-2.6455078,1.4833984-4.6816406V11.8979492c0-2.0356445-.4902344-3.5961914-1.46875-4.6811523-.9804688-1.0849609-2.5166016-1.6279297-4.609375-1.6279297-2.09375,0-3.6308594.5429688-4.609375,1.6279297-.9804688,1.0849609-1.4697266,2.6455078-1.4697266,4.6811523v19.0424805c0,2.0361328.4941406,3.5966797,1.4833984,4.6816406s2.5214844,1.6274414,4.5957031,1.6274414,3.6054688-.5424805,4.5947266-1.6274414Z"/>
        <path class="cls-1" d="m376.4055115,39.6982422c-2.0263672-2.0932617-3.0390625-5.0126953-3.0390625-8.7578125V11.8979492c0-3.7641602,1.0175781-6.6879883,3.0537109-8.7719727s5.0029297-3.1259766,8.9013672-3.1259766c3.9179688,0,6.890625,1.0371094,8.9169922,3.1113281s3.0390625,5.003418,3.0390625,8.7866211v19.0424805c0,3.7646484-1.0185547,6.6884766-3.0537109,8.7724609-2.0361328,2.0839844-5.0039062,3.1254883-8.9023438,3.1254883-3.9179688,0-6.8896484-1.0463867-8.9160156-3.1401367Zm13.5117188-4.0761719c.9882812-1.0849609,1.4833984-2.6455078,1.4833984-4.6816406V11.8979492c0-2.0356445-.4892578-3.5961914-1.4697266-4.6811523-.9785156-1.0849609-2.515625-1.6279297-4.609375-1.6279297s-3.6289062.5429688-4.609375,1.6279297c-.9785156,1.0849609-1.46875,2.6455078-1.46875,4.6811523v19.0424805c0,2.0361328.4941406,3.5966797,1.4833984,4.6816406s2.5205078,1.6274414,4.5947266,1.6274414,3.6054688-.5424805,4.5957031-1.6274414Z"/>
      </g>
      <path class="cls-1" d="m31.5448375,17.2772525c3.1344916,1.5883098,5.1288526,3.7721311,5.1288526,6.0907063,0,3.9151153-3.7393493,5.0267648-5.1288526,5.0267648-1.3963623,0-5.1385252-1.1116495-5.1385252-5.0267648,0-2.3185752,1.9643929-4.5350388,5.1385252-6.0907063Zm-26.1665411,6.0907063c0-2.3185752,2.0024755-4.5023965,5.126249-6.0907063,3.1821762,1.5556676,5.1397338,3.7721311,5.1397338,6.0907063,0,3.9151153-3.7447665,5.0267648-5.1397338,5.0267648-1.3855047,0-5.126249-1.1116495-5.126249-5.0267648ZM0,34.1612395V14.8020224c2.7067945,0,5.4872433.5339935,7.909325,1.3990127-2.7122349,1.7477546-4.6739544,4.1671859-4.6739544,7.1669236,0,5.7079273,5.2774173,7.151858,7.2691747,7.151858,2.0052423,0,7.2758472-1.4439307,7.2758472-7.151858,0-2.9997377-1.991711-5.4191691-4.7066196-7.1669236,2.4561189-.9004514,5.2432636-1.3990127,7.948826-1.3990127,2.7176519,0,5.4954502.4985613,7.9515691,1.3990127-2.7081895,1.7477546-4.7066196,4.1671859-4.7066196,7.1669236,0,5.7079273,5.2760453,7.151858,7.277289,7.151858,1.9915711,0,7.2690114-1.4439307,7.2690114-7.151858,0-2.9997377-1.961603-5.4191691-4.6711875-7.1669236,2.4192918-.8650192,5.2079709-1.3990127,7.9202297-1.3990127v19.3592171H0ZM31.5748056,14.7829114c-3.1741086-1.3963623-6.9490061-2.1197923-10.5522067-2.1197923s-7.37675.7234301-10.5454182,2.1197923c-3.0964089-1.3963623-6.8780257-2.1197923-10.4771808-2.1197923v-3.9859796h42.0628912v3.9859796c-3.6059905,0-7.3835621.7234301-10.4880855,2.1197923Z"/>
    </g>
  </g>
</svg>