<?xml version="1.0" encoding="UTF-8"?>
<svg id="_レイヤー_2" data-name="レイヤー 2" xmlns="http://www.w3.org/2000/svg" viewBox="0 0 398.5032163 42.8388672">
  <defs>
    <style>
      .cls-1 {
        fill: #d21619;
        stroke-width: 0px;
      }
    </style>
  </defs>
  <g id="_レイヤー_1-2" data-name="レイヤー 1">
    <g>
      <g>
        <path class="cls-1" d="m54.1389585,39.6982422c-2.0263672-2.0927734-3.0390625-5.0126953-3.0390625-8.7578125V11.8984375c0-3.7646484,1.0175781-6.6884766,3.0537109-8.7724609s5.0029297-3.1259766,8.9023438-3.1259766c3.9179688,0,6.8896484,1.0371094,8.9160156,3.1113281s3.0390625,5.0039062,3.0390625,8.7871094v19.0419922c0,3.7646484-1.0175781,6.6884766-3.0537109,8.7724609s-5.0029297,3.1259766-8.9013672,3.1259766c-3.9179688,0-6.890625-1.046875-8.9169922-3.140625Zm13.5117188-4.0761719c.9892578-1.0849609,1.4833984-2.6455078,1.4833984-4.6816406V11.8984375c0-2.0361328-.4892578-3.5966797-1.46875-4.6816406s-2.5166016-1.6279297-4.609375-1.6279297c-2.09375,0-3.6298828.5429688-4.609375,1.6279297s-1.4697266,2.6455078-1.4697266,4.6816406v19.0419922c0,2.0361328.4941406,3.5966797,1.4833984,4.6816406s2.5214844,1.6279297,4.5957031,1.6279297,3.6054688-.5429688,4.5947266-1.6279297Z"/>
        <path class="cls-1" d="m93.7659116,42.40625h-5.8769531V6.9140625l-5.9638672,3.6591797v-6.0791016l5.9638672-3.9755859h5.8769531v41.8876953Z"/>
        <path class="cls-1" d="m102.6389585,37.3076172l14.6054688-19.4746094c.8447266-1.1142578,1.5029297-2.2714844,1.9736328-3.4716797s.7060547-2.3193359.7060547-3.3564453v-.0576172c0-1.6708984-.4902344-2.9667969-1.4697266-3.8886719s-2.3720703-1.3828125-4.1767578-1.3828125c-1.7099609,0-3.0927734.5039062-4.1484375,1.5117188-1.0566406,1.0087891-1.7001953,2.4345703-1.9306641,4.2783203v.0292969h-6.078125v-.0292969c.3457031-2.4003906,1.0517578-4.4511719,2.1171875-6.1503906,1.0664062-1.7001953,2.4433594-2.9960938,4.1337891-3.8896484,1.6904297-.8925781,3.6396484-1.3388672,5.8486328-1.3388672,2.4960938,0,4.6279297.4277344,6.3955078,1.28125,1.7666016.8554688,3.1113281,2.0986328,4.0332031,3.7314453s1.3828125,3.6005859,1.3828125,5.9052734v.0292969c0,1.4785156-.3076172,3.0244141-.921875,4.6376953-.6152344,1.6132812-1.4697266,3.1689453-2.5644531,4.6669922l-12.1279297,16.4785156h15.8447266v5.5888672h-23.6230469v-5.0986328Z"/>
        <path class="cls-1" d="m136.7913022,39.6982422c-2.0263672-2.0927734-3.0390625-5.0126953-3.0390625-8.7578125V11.8984375c0-3.7646484,1.0175781-6.6884766,3.0537109-8.7724609,2.0351562-2.0839844,5.0029297-3.1259766,8.9013672-3.1259766,3.9179688,0,6.8896484,1.0371094,8.9169922,3.1113281,2.0253906,2.0742188,3.0390625,5.0039062,3.0390625,8.7871094v19.0419922c0,3.7646484-1.0185547,6.6884766-3.0537109,8.7724609-2.0361328,2.0839844-5.0039062,3.1259766-8.9023438,3.1259766-3.9179688,0-6.8896484-1.046875-8.9160156-3.140625Zm13.5117188-4.0761719c.9882812-1.0849609,1.4833984-2.6455078,1.4833984-4.6816406V11.8984375c0-2.0361328-.4902344-3.5966797-1.4697266-4.6816406s-2.515625-1.6279297-4.609375-1.6279297-3.6298828.5429688-4.609375,1.6279297-1.46875,2.6455078-1.46875,4.6816406v19.0419922c0,2.0361328.4941406,3.5966797,1.4833984,4.6816406s2.5205078,1.6279297,4.5947266,1.6279297,3.6054688-.5429688,4.5957031-1.6279297Z"/>
        <path class="cls-1" d="m185.9534116,24.6025391v5.5888672h-19.359375v-5.5888672h19.359375Z"/>
        <path class="cls-1" d="m200.6604428,41.5996094c-1.6425781-.8251953-2.9775391-2.0253906-4.0048828-3.6005859s-1.7138672-3.4667969-2.0595703-5.6757812v-.0283203h5.8769531v.0283203c.2109375,1.5371094.8251953,2.7324219,1.84375,3.5869141,1.0175781.8544922,2.3427734,1.2822266,3.9755859,1.2822266,1.8818359,0,3.3369141-.6289062,4.3642578-1.8876953,1.0273438-1.2568359,1.5410156-3.0292969,1.5410156-5.3144531v-3.5146484c0-2.2666016-.5136719-4.0283203-1.5410156-5.2871094-1.0273438-1.2568359-2.4824219-1.8867188-4.3642578-1.8867188-1.0185547,0-1.9980469.2880859-2.9384766.8642578-.9414062.5761719-1.7675781,1.3828125-2.4775391,2.4199219h-5.3583984V.5185547h21.3466797v5.5888672h-15.4697266v9.4208984c.7294922-.5957031,1.5458984-1.0566406,2.4482422-1.3828125s1.8242188-.4902344,2.765625-.4902344c2.4199219,0,4.4892578.5,6.2089844,1.4980469,1.7177734.9990234,3.0244141,2.4589844,3.9179688,4.3789062.8925781,1.9208984,1.3388672,4.2353516,1.3388672,6.9433594v3.5146484c0,2.7080078-.4609375,5.0224609-1.3828125,6.9423828-.921875,1.9208984-2.2666016,3.3847656-4.0332031,4.3935547-1.7666016,1.0078125-3.8886719,1.5126953-6.3662109,1.5126953-2.1132812,0-3.9902344-.4130859-5.6318359-1.2392578Z"/>
        <path class="cls-1" d="m231.3557553,41.5566406c-1.7861328-.8544922-3.2226562-2.0927734-4.3076172-3.7167969-1.0849609-1.6220703-1.7714844-3.5761719-2.0595703-5.8623047h5.9921875c.1728516,1.1914062.5478516,2.1708984,1.1240234,2.9384766.5761719.7685547,1.3203125,1.3398438,2.2324219,1.7138672.9121094.375,1.9824219.5625,3.2119141.5625,1.9394531,0,3.4472656-.5185547,4.5234375-1.5556641,1.0751953-1.0371094,1.6132812-2.4970703,1.6132812-4.3789062v-1.2675781c0-2.09375-.5097656-3.7119141-1.5273438-4.8544922s-2.4580078-1.7138672-4.3212891-1.7138672h-2.9667969v-5.5888672h2.9667969c1.6328125,0,2.9003906-.4902344,3.8027344-1.4697266s1.3544922-2.3623047,1.3544922-4.1484375v-1.2958984c0-1.6513672-.4755859-2.9287109-1.4267578-3.8320312-.9501953-.9023438-2.2998047-1.3535156-4.046875-1.3535156-.9990234,0-1.8925781.1865234-2.6796875.5615234-.7871094.3740234-1.4550781.9501953-2.0019531,1.7285156-.5478516.7773438-.9462891,1.7529297-1.1953125,2.9238281h-5.9638672c.3837891-2.2851562,1.109375-4.2441406,2.1748047-5.8769531,1.0664062-1.6318359,2.4150391-2.8710938,4.0478516-3.7158203s3.5048828-1.2675781,5.6181641-1.2675781c3.6103516,0,6.4042969.9501953,8.3828125,2.8515625s2.9677734,4.5810547,2.9677734,8.0380859v.6914062c0,2.09375-.5673828,3.9179688-1.7001953,5.4736328s-2.7363281,2.6884766-4.8105469,3.3994141c2.2851562.4990234,4.0566406,1.6230469,5.3144531,3.3701172,1.2578125,1.7480469,1.8876953,3.9755859,1.8876953,6.6835938v.6914062c0,2.4394531-.4707031,4.5234375-1.4121094,6.2519531s-2.3095703,3.0439453-4.1054688,3.9462891c-1.7958984.9033203-3.9609375,1.3544922-6.4960938,1.3544922-2.3427734,0-4.4072266-.4277344-6.1933594-1.2822266Z"/>
        <path class="cls-1" d="m277.5647397,24.6025391v5.5888672h-19.359375v-5.5888672h19.359375Z"/>
        <path class="cls-1" d="m285.5735288,37.3076172l14.6054688-19.4746094c.8447266-1.1142578,1.5029297-2.2714844,1.9736328-3.4716797s.7060547-2.3193359.7060547-3.3564453v-.0576172c0-1.6708984-.4902344-2.9667969-1.4697266-3.8886719s-2.3720703-1.3828125-4.1767578-1.3828125c-1.7099609,0-3.0927734.5039062-4.1484375,1.5117188-1.0566406,1.0087891-1.7001953,2.4345703-1.9306641,4.2783203v.0292969h-6.078125v-.0292969c.3457031-2.4003906,1.0517578-4.4511719,2.1171875-6.1503906,1.0664062-1.7001953,2.4433594-2.9960938,4.1337891-3.8896484,1.6904297-.8925781,3.6396484-1.3388672,5.8486328-1.3388672,2.4960938,0,4.6279297.4277344,6.3955078,1.28125,1.7666016.8554688,3.1113281,2.0986328,4.0332031,3.7314453s1.3828125,3.6005859,1.3828125,5.9052734v.0292969c0,1.4785156-.3076172,3.0244141-.921875,4.6376953-.6152344,1.6132812-1.4697266,3.1689453-2.5644531,4.6669922l-12.1279297,16.4785156h15.8447266v5.5888672h-23.6230469v-5.0986328Z"/>
        <path class="cls-1" d="m316.053021,37.3076172l14.6054688-19.4746094c.8447266-1.1142578,1.5029297-2.2714844,1.9736328-3.4716797s.7060547-2.3193359.7060547-3.3564453v-.0576172c0-1.6708984-.4902344-2.9667969-1.4697266-3.8886719s-2.3720703-1.3828125-4.1767578-1.3828125c-1.7099609,0-3.0927734.5039062-4.1484375,1.5117188-1.0566406,1.0087891-1.7001953,2.4345703-1.9306641,4.2783203v.0292969h-6.078125v-.0292969c.3457031-2.4003906,1.0517578-4.4511719,2.1171875-6.1503906,1.0664062-1.7001953,2.4433594-2.9960938,4.1337891-3.8896484,1.6904297-.8925781,3.6396484-1.3388672,5.8486328-1.3388672,2.4960938,0,4.6279297.4277344,6.3955078,1.28125,1.7666016.8554688,3.1113281,2.0986328,4.0332031,3.7314453s1.3828125,3.6005859,1.3828125,5.9052734v.0292969c0,1.4785156-.3076172,3.0244141-.921875,4.6376953-.6152344,1.6132812-1.4697266,3.1689453-2.5644531,4.6669922l-12.1279297,16.4785156h15.8447266v5.5888672h-23.6230469v-5.0986328Z"/>
        <path class="cls-1" d="m368.8010678,5.7617188l-10.8320312,36.6445312h-6.2509766l10.8320312-36.2988281h-10.6591797v6.0214844h-5.8769531V.5185547h22.7871094v5.2431641Z"/>
        <path class="cls-1" d="m398.5032163,5.7617188l-10.8320312,36.6445312h-6.2519531l10.8320312-36.2988281h-10.6591797v6.0214844h-5.8769531V.5185547h22.7880859v5.2431641Z"/>
      </g>
      <path class="cls-1" d="m31.5448375,16.930775c3.1344916,1.5883098,5.1288526,3.7721311,5.1288526,6.0907063,0,3.9151153-3.7393493,5.0267648-5.1288526,5.0267648-1.3963623,0-5.1385252-1.1116495-5.1385252-5.0267648,0-2.3185752,1.9643929-4.5350388,5.1385252-6.0907063Zm-26.1665411,6.0907063c0-2.3185752,2.0024755-4.5023965,5.126249-6.0907063,3.1821762,1.5556676,5.1397338,3.7721311,5.1397338,6.0907063,0,3.9151153-3.7447665,5.0267648-5.1397338,5.0267648-1.3855047,0-5.126249-1.1116495-5.126249-5.0267648ZM0,33.814762V14.455545c2.7067945,0,5.4872433.5339935,7.909325,1.3990127-2.7122349,1.7477546-4.6739544,4.1671859-4.6739544,7.1669236,0,5.7079273,5.2774173,7.151858,7.2691747,7.151858,2.0052423,0,7.2758472-1.4439307,7.2758472-7.151858,0-2.9997377-1.991711-5.4191691-4.7066196-7.1669236,2.4561189-.9004514,5.2432636-1.3990127,7.948826-1.3990127,2.7176519,0,5.4954502.4985613,7.9515691,1.3990127-2.7081895,1.7477546-4.7066196,4.1671859-4.7066196,7.1669236,0,5.7079273,5.2760453,7.151858,7.277289,7.151858,1.9915711,0,7.2690114-1.4439307,7.2690114-7.151858,0-2.9997377-1.961603-5.4191691-4.6711875-7.1669236,2.4192918-.8650192,5.2079709-1.3990127,7.9202297-1.3990127v19.3592171H0ZM31.5748056,14.4364339c-3.1741086-1.3963623-6.9490061-2.1197923-10.5522067-2.1197923s-7.37675.7234301-10.5454182,2.1197923c-3.0964089-1.3963623-6.8780257-2.1197923-10.4771808-2.1197923v-3.9859796h42.0628912v3.9859796c-3.6059905,0-7.3835621.7234301-10.4880855,2.1197923Z"/>
    </g>
  </g>
</svg>