<?xml version="1.0" encoding="UTF-8"?>
<svg id="_レイヤー_2" data-name="レイヤー 2" xmlns="http://www.w3.org/2000/svg" viewBox="0 0 423.8064111 68.3007002">
  <defs>
    <style>
      .cls-1 {
        fill: #231815;
      }

      .cls-1, .cls-2, .cls-3 {
        stroke-width: 0px;
      }

      .cls-2 {
        fill: #e50012;
      }

      .cls-3 {
        fill: #004da0;
      }
    </style>
  </defs>
  <g id="_レイヤー_1-2" data-name="レイヤー 1">
    <g>
      <g>
        <g>
          <polygon class="cls-1" points="77.7220582 0 65.2106229 0 48.814304 23.7714869 48.814304 41.9746262 54.7564315 33.2964618 54.7564315 68.3007002 65.4542408 68.3007002 65.4542408 17.8477316 77.7220582 0"/>
          <polygon class="cls-1" points="105.0939391 42.962947 130.358913 42.962947 133.1679224 32.7450239 105.0939391 32.7450239 105.0939391 20.9526076 130.3789774 20.9526076 133.1004936 10.9430663 105.0939391 10.9430663 105.0939391 .002315 94.2883163 .002315 94.2883163 10.9430663 73.9379528 10.9430663 71.1289434 20.9526076 94.2080589 20.9526076 94.2080589 32.7450239 71.2894583 32.7450239 68.4804489 42.962947 94.2883163 42.962947 94.2883163 57.3037917 71.0454026 57.3037917 68.0431408 68.2819099 130.3990418 68.2819099 133.368566 57.3037917 105.0939391 57.3037917 105.0939391 42.962947"/>
        </g>
        <polygon class="cls-1" points="169.0690832 19.068371 160.6382109 19.068371 160.6382109 .0568356 149.7722691 .0568356 149.7722691 19.068371 144.3548939 19.068371 141.4656271 30.0011283 149.7722691 30.0011283 149.7722691 68.2597499 160.6382109 68.2597499 160.6382109 30.0011283 166.1447811 30.0011283 169.0690832 19.068371"/>
        <path class="cls-1" d="m200.8561115,31.1848748l.0161147,3.9284188h-2.484253l-1.9954767,8.3200839h4.4498557v13.8970086h-3.2237123l-2.9326736,10.9181783h4.7044903c6.6939301-.3480483,10.0446614-3.8077527,10.3964273-8.4949308v-16.3202561h6.307537l-.0149988,13.9097214-3.4314458.0055927-2.9566339,10.9135229h5.3413711c6.6702198-.3480483,9.2666726-3.7531524,9.6197205-8.4403304v-24.7185897l-14.6827891.0099992v-3.9309827l-9.1135334.0025639Z"/>
        <path class="cls-1" d="m171.6328225,31.1848748l.0161147,3.9284188h-2.8855401l-1.9954767,8.3200839h4.8511428v13.8970086h-3.8657716l-2.9326736,10.9181783h5.3465496c6.6939301-.3480483,10.0446614-3.8077527,10.3964273-8.4949308v-16.3202561h6.307537l-.0149988,13.9097214-3.4314458.0055927-2.9566339,10.9135229h5.3413711c6.6702198-.3480483,9.2666726-3.7531524,9.6197205-8.4403304v-24.7185897l-14.6827891.0099992v-3.9309827l-9.1135334.0025639Z"/>
        <path class="cls-1" d="m200.8821089,19.0590952h11.6142461v-4.0509593h-13.8490035v2.8564502c0,7.8863183-7.2625925,11.5024897-13.0553747,11.5024897h-14.0775126l.0075635-10.3541266h16.4126406v-4.0048132h-18.9085064l2.4674891-9.5806975h16.4410173V.0117741h10.6957584v5.4156643l23.0123544.037561v15.9474996c-.3404786,5.0250989-2.7041362,7.9346029-9.1464261,7.9621647h-11.6342444l.0199984-10.3155685Z"/>
      </g>
      <g>
        <polygon class="cls-2" points="13.8658765 15.6261508 13.8658765 31.8197936 27.7497362 31.8197936 27.7497362 48.0313275 37 38.7676247 37 15.6261508 13.8658765 15.6261508"/>
        <polygon class="cls-3" points="23.1341235 52.6745494 23.1341235 36.4809066 9.2502638 36.4809065 9.2502638 20.2693727 0 29.5330754 0 52.6745494 23.1341235 52.6745494"/>
      </g>
      <g>
        <g>
          <path class="cls-1" d="m249.4724268,28.8251548c-2.6484375,2.1601562-4.7021484,4.0063477-6.1650391,5.5375977l-1.7763672-1.7763672c1.8808594-1.8100586,3.8662109-3.5864258,5.9550781-5.328125l1.9863281,1.5668945Zm3.4472656,5.0151367c.8359375,0,1.4267578-.1728516,1.7763672-.5224609.4169922-.4179688.6259766-1.1489258.6259766-2.1938477,0-1.1132812-.3125-1.9853516-.9394531-2.6123047-.8359375-.8354492-1.7763672-1.496582-2.8212891-1.9848633-1.6708984-.765625-2.6826172-1.3222656-3.0302734-1.671875-.3486328-.3476562-.5214844-.8354492-.5214844-1.4624023s.3125-1.53125.9394531-2.7167969l2.6123047,1.0449219c-.5576172.7670898-.8359375,1.2895508-.8359375,1.5673828,0,.2089844.3818359.487793,1.1494141.8354492,2.1582031.9765625,3.6210938,1.8466797,4.3886719,2.6123047,1.1132812,1.1147461,1.671875,2.5776367,1.671875,4.3881836,0,1.8120117-.4550781,3.1704102-1.359375,4.074707-.8359375.8359375-2.0546875,1.2539062-3.65625,1.2539062-1.3945312,0-2.9960938-.4541016-4.8066406-1.3583984l.7324219-2.5078125c1.7402344.8359375,3.0976562,1.2539062,4.0742188,1.2539062Zm-4.2832031-17.34375l1.2539062-2.0893555c2.2275391,1.1850586,4.5605469,2.1254883,7,2.8208008l-1.1503906,2.2988281c-3.3427734-1.1835938-5.7109375-2.1943359-7.1035156-3.0302734Zm15.3574219,16.2988281c-1.9501953-2.9936523-3.6914062-5.2236328-5.2226562-6.6865234l1.8798828-1.3583984c2.2285156,2.0898438,4.0048828,4.2836914,5.3291016,6.5825195l-1.9863281,1.4624023Z"/>
          <path class="cls-1" d="m285.5173486,30.9149985c-2.9960938,3.2749023-6.234375,4.9106445-9.7167969,4.9106445-2.5078125,0-4.3535156-.5927734-5.5371094-1.7763672-.90625-.9042969-1.3583984-2.6459961-1.3583984-5.2241211v-14h2.1943359c.6269531.1401367.6953125.4179688.2089844.8354492v13.1645508c0,1.7421875.3134766,2.9257812.9404297,3.5527344.765625.7670898,1.9150391,1.1489258,3.4482422,1.1489258,2.7158203,0,5.4667969-1.53125,8.2539062-4.597168l1.5664062,1.9853516Zm-4.7011719-12.0151367l-1.0449219,1.3579102c-1.3945312-.9042969-2.7519531-1.7758789-4.0742188-2.6118164l1.0439453-1.3583984c1.3925781.8359375,2.7509766,1.7080078,4.0751953,2.6123047Zm2.0898438-2.2988281l-1.0449219,1.3583984c-1.4628906-.9746094-2.8212891-1.8447266-4.0751953-2.6118164l1.0449219-1.3583984c1.3925781.9057617,2.7509766,1.7758789,4.0751953,2.6118164Z"/>
          <path class="cls-1" d="m302.4851221,36.1391196l-2.1943359-1.2539062c2.1582031-2.0195312,3.5869141-4.5268555,4.2841797-7.5224609-2.4384766-.9042969-4.9111328-1.53125-7.4189453-1.8808594-1.8798828,4.0405273-3.1337891,6.3735352-3.7607422,7.0004883-.8359375.8354492-1.8115234,1.253418-2.9248047,1.253418-.8359375,0-1.5332031-.2773438-2.0898438-.8359375-.6269531-.6264648-.9404297-1.5668945-.9404297-2.8208008,0-1.4628906.6953125-2.8896484,2.0888672-4.2836914,1.53125-1.53125,3.5878906-2.2983398,6.1650391-2.2983398.8359375-2.1582031,1.6015625-4.1791992,2.2978516-6.0600586-1.9501953.4882812-3.9003906.9404297-5.8496094,1.3583984l-.9414062-2.0898438c2.2988281-.2773438,4.4931641-.6611328,6.5820312-1.1489258l1.2539062-.5224609,1.7773438,1.3579102c.6953125.4179688.6601562.7314453-.1054688.9404297-.90625,1.6030273-1.8808594,3.6928711-2.9257812,6.269043,2.2285156.2788086,4.5976562.8354492,7.1054688,1.6713867.1386719-1.6713867.1728516-3.7250977.1044922-6.1640625l1.9853516.4179688c.765625.1401367.8359375.4174805.2089844.8354492,0,2.2988281-.0703125,4.1791992-.2089844,5.6420898,1.3222656.4882812,2.8554688,1.1850586,4.5966797,2.0898438l-1.0449219,2.0893555c-1.4619141-.8359375-2.7861328-1.53125-3.9697266-2.0893555-.6972656,3.1342773-2.0556641,5.8164062-4.0751953,8.0449219Zm-11.3876953-9.1943359c-1.1152344,1.1147461-1.671875,2.159668-1.671875,3.1342773,0,.4179688.1386719.7670898.4179688,1.0449219.2089844.2089844.5214844.3134766.9394531.3134766.6269531,0,1.1835938-.3823242,1.671875-1.1494141.4179688-.6269531,1.2539062-2.2285156,2.5078125-4.8061523-1.6035156,0-2.890625.4882812-3.8652344,1.4628906Z"/>
          <path class="cls-1" d="m326.5993799,34.2582602l-11.7021484,1.7763672c-.0693359.4863281-.2451172.5908203-.5224609.3134766l-.6269531-2.6123047,5.5371094-.4179688v-3.2387695h-4.7011719v-1.9848633h4.7011719v-2.8212891h-4.5966797v-11.1791992h11.2841797v11.1791992h-4.5976562v2.8212891h4.7021484v1.9848633h-4.7021484v3.0297852l5.1201172-.6264648.1044922,1.7758789Zm-7.3144531-18.4931641h-2.5068359v3.1347656h2.5068359v-3.1347656Zm0,7.8364258v-3.0302734h-2.5068359v3.0302734h2.5068359Zm4.5976562-4.7016602v-3.1347656h-2.5078125v3.1347656h2.5078125Zm0,4.7016602v-3.0302734h-2.5078125v3.0302734h2.5078125Zm8.8808594,5.328125c1.1835938-1.6010742,2.0537109-2.925293,2.6123047-3.9702148h-2.9257812v10.34375c0,1.1835938-.5576172,1.7758789-1.6708984,1.7758789h-1.8808594l-.4179688-1.9848633h1.5664062c.2089844,0,.3144531-.1044922.3144531-.3134766v-9.8212891h-3.4482422v-1.9848633h9.0888672l.5234375-.5224609,1.671875,1.4628906c.2773438.2788086.171875.4536133-.3144531.5219727-.8359375,1.8808594-1.9501953,3.7617188-3.3427734,5.6420898l-1.7763672-1.1494141Zm-1.2539062-10.3432617l1.8808594-2.4033203h-6.3730469v-1.9848633h7.8359375l.3134766-.3134766,1.5673828,1.5673828c.2773438.2788086.1728516.4536133-.3144531.5219727l-3.65625,3.6572266,1.1494141,1.1489258-1.4628906,1.4628906c-1.3232422-1.4628906-2.6474609-2.6806641-3.9697266-3.6567383l1.2539062-1.2539062c.4863281.2792969,1.078125.6972656,1.7753906,1.2539062Z"/>
          <path class="cls-1" d="m363.5525049,34.2582602l-.8359375,2.6118164c-4.5976562-1.0444336-8.0800781-2.5073242-10.4472656-4.3876953-3.0664062,1.9506836-6.7919922,3.4477539-11.1796875,4.4921875l-.9404297-2.402832c4.1083984-.765625,7.5566406-1.9492188,10.3427734-3.5522461-1.8115234-2.0195312-3.2041016-4.2480469-4.1787109-6.6870117h-3.2392578v-1.9848633h7.6269531v-3.7612305h-10.0292969v-1.9853516h10.0292969v-3.3432617h2.2988281c.6953125.140625.7314453.4179688.1054688.8359375v2.5073242h10.1337891v1.9853516h-10.1337891v3.7612305h4.8046875l.6269531-.6269531,1.7773438,1.5673828-.4179688.2089844c-1.7421875,3.2045898-3.6572266,5.7119141-5.7470703,7.5224609,2.2988281,1.4628906,5.4326172,2.543457,9.4033203,3.2387695Zm-14.7314453-9.9257812c.9042969,2.0898438,2.0888672,3.831543,3.5517578,5.2241211,1.671875-1.3925781,3.0644531-3.1342773,4.1796875-5.2241211h-7.7314453Z"/>
          <path class="cls-1" d="m366.3943018,34.9897056c1.6015625-2.0898438,2.4033203-4.4926758,2.4033203-7.2089844v-11.9111328h8.5673828v-2.925293h2.2988281c.6953125.140625.7304688.4179688.1035156.8359375v2.0893555h9.2988281v1.9853516h-18.1787109v10.0302734c0,3.4135742-.90625,6.3388672-2.7167969,8.7763672l-1.7763672-1.671875Zm13.5820312-15.9853516c.5566406.0698242.5917969.2788086.1054688.6269531v2.1938477h8.3574219v1.9853516h-8.3574219v3.2387695h7v9.6123047h-2.0898438v-1.1494141h-9.7167969v1.3579102h-2.0898438v-9.8208008h4.8066406v-8.0449219h1.984375Zm5.015625,14.5224609v-4.4926758h-9.7167969v4.4926758h9.7167969Z"/>
        </g>
        <g>
          <path class="cls-1" d="m242.3689111,47.0497641v-2.6206055h.9394531c.2636719.0332031.2792969.1323242.0488281.296875v2.3237305h1.2363281v.9394531h-1.2363281v3.90625l1.4833984-.4453125v.9892578l-3.3623047,1.1865234c-.0332031.2641602-.1152344.3295898-.2470703.1977539l-.3955078-1.2363281,1.5332031-.3955078v-4.2026367h-1.3359375v-.9394531h1.3359375Zm8.6523438,2.8183594v4.746582c0,.4282227-.2148438.6425781-.6425781.6425781h-1.3847656l-.1972656-.9389648h1.0380859c.1318359,0,.1982422-.0668945.1982422-.1982422v-4.2519531h-5.4394531v-.9394531h7.4658203v.9394531h-1.0380859Zm-5.7851562-1.0878906l-.3457031-.9887695c1.5488281-.2299805,2.4726562-.7246094,2.7685547-1.4833984h-2.5214844v-.9394531h2.5712891v-1.2851562h.9394531c.2636719.0332031.2792969.1318359.0488281.2963867v.9887695h2.7695312v.9394531h-2.7197266c.4941406.6923828,1.4658203,1.1542969,2.9169922,1.3847656l-.2470703,1.0380859c-1.4501953-.2299805-2.5048828-.7416992-3.1650391-1.5327148-.6259766.8574219-1.6308594,1.3842773-3.015625,1.5820312Zm1.0878906,4.7963867v.4448242h-.8398438v-3.3129883h3.4111328v2.8681641h-2.5712891Zm0-.7915039h1.7304688v-1.2851562h-1.7304688v1.2851562Z"/>
          <path class="cls-1" d="m259.2985986,46.0609946v2.769043h3.7578125v1.0874023h-3.7578125v3.4614258h4.8945312v1.0874023h-10.6308594v-1.0874023h4.5986328v-3.4614258h-3.4111328v-1.0874023h3.4111328v-2.769043h-4.0048828v-1.0878906h9.5917969v1.0878906h-4.4492188Zm1.6308594,4.1533203c.6259766.4287109,1.21875,1.0551758,1.7802734,1.8789062l-1.0878906.7416992c-.4619141-.7578125-.9892578-1.4008789-1.5820312-1.9282227l.8896484-.6923828Z"/>
          <path class="cls-1" d="m266.7146143,55.1586509l-.7412109-.9394531c1.0537109-.6259766,1.8955078-1.3671875,2.5214844-2.2250977l.9394531.5439453c.1650391.1323242.1152344.230957-.1484375.296875-.5615234.7910156-1.4169922,1.5649414-2.5712891,2.3237305Zm.5439453-3.609375v.4946289h-.9892578v-7.1201172h.9394531c.2636719.0332031.2802734.1318359.0498047.296875v5.3891602h9.0976562v.9394531h-4.5986328v3.8071289h-1.1367188v-3.8071289h-3.3623047Zm1.1865234-1.5820312v-5.6860352h6.2792969v5.6860352h-6.2792969Zm.9892578-4.1040039h4.3017578v-.7910156h-4.3017578v.7910156Zm0,1.5820312h4.3017578v-.7910156h-4.3017578v.7910156Zm0,1.7304688h4.3017578v-.9394531h-4.3017578v.9394531Zm4.1533203,2.769043c.6582031.659668,1.6308594,1.3188477,2.9169922,1.9775391l-.5927734,1.0385742c-1.1210938-.527832-2.1757812-1.2856445-3.1650391-2.2744141l.8408203-.7416992Z"/>
          <path class="cls-1" d="m281.5271143,51.4501548c-1.2519531,1.0224609-2.2246094,1.8959961-2.9160156,2.6206055l-.8408203-.840332c.8896484-.8569336,1.8291016-1.6972656,2.8183594-2.5219727l.9384766.7416992Zm1.6328125,2.3735352c.3945312,0,.6748047-.0820312.8398438-.2470703.1982422-.1977539.296875-.5439453.296875-1.0385742,0-.5268555-.1484375-.9394531-.4453125-1.2358398-.3945312-.3955078-.8398438-.7084961-1.3339844-.9394531-.7910156-.3623047-1.2695312-.6259766-1.4345703-.7915039-.1650391-.1645508-.2470703-.3955078-.2470703-.6918945,0-.296875.1484375-.7246094.4453125-1.2856445l1.2363281.4946289c-.2646484.362793-.3964844.6103516-.3964844.7416992,0,.0986328.1816406.230957.5439453.3955078,1.0214844.4619141,1.7138672.8735352,2.0771484,1.2358398.5273438.527832.7910156,1.2197266.7910156,2.0766602,0,.8574219-.2148438,1.5004883-.6425781,1.9282227-.3964844.3955078-.9726562.5932617-1.7304688.5932617-.6601562,0-1.4179688-.2143555-2.2753906-.6425781l.3466797-1.1865234c.8232422.3955078,1.4658203.5932617,1.9287109.5932617Zm-2.0273438-8.2075195l.59375-.9892578c1.0537109.5610352,2.1582031,1.0058594,3.3125,1.3349609l-.5449219,1.0878906c-1.5820312-.5600586-2.703125-1.0380859-3.3613281-1.4335938Zm7.2675781,7.7128906c-.9228516-1.4165039-1.7470703-2.472168-2.4716797-3.1640625l.8896484-.6430664c1.0546875.9887695,1.8955078,2.0273438,2.5214844,3.1152344l-.9394531.6918945Z"/>
          <path class="cls-1" d="m300.1677393,52.4394126c-1.4169922,1.5498047-2.9492188,2.3237305-4.5976562,2.3237305-1.1875,0-2.0605469-.2802734-2.6210938-.8408203-.4277344-.4277344-.6425781-1.2519531-.6425781-2.472168v-6.6254883h1.0390625c.296875.0664062.328125.1977539.0976562.3959961v6.2294922c0,.824707.1484375,1.3847656.4453125,1.6811523.3632812.3632812.90625.5439453,1.6318359.5439453,1.2861328,0,2.5869141-.7246094,3.90625-2.175293l.7412109.9394531Zm-2.2246094-5.6860352l-.4941406.6425781c-.6601562-.4282227-1.3027344-.840332-1.9287109-1.2363281l.4951172-.6425781c.6582031.3955078,1.3007812.8081055,1.9277344,1.2363281Zm.9882812-1.0878906l-.4941406.6425781c-.6914062-.4609375-1.3339844-.8730469-1.9277344-1.2358398l.4941406-.6430664c.6591797.4287109,1.3017578.8408203,1.9277344,1.2363281Z"/>
          <path class="cls-1" d="m308.9890283,54.9115806l-1.0380859-.5932617c1.0214844-.9560547,1.6972656-2.1425781,2.0273438-3.5600586-1.1542969-.4282227-2.3242188-.7246094-3.5107422-.8901367-.8896484,1.9121094-1.4833984,3.0161133-1.7802734,3.3129883-.3955078.3955078-.8574219.5932617-1.3847656.5932617-.3945312,0-.7246094-.1313477-.9882812-.3955078-.296875-.296875-.4453125-.7416992-.4453125-1.3349609,0-.6923828.3291016-1.3676758.9892578-2.0273438.7246094-.7246094,1.6972656-1.0878906,2.9169922-1.0878906.3955078-1.0214844.7578125-1.9775391,1.0878906-2.8676758-.9238281.230957-1.8466797.4448242-2.7695312.6425781l-.4443359-.9887695c1.0878906-.1313477,2.1259766-.3129883,3.1142578-.5439453l.59375-.2470703.8408203.6425781c.3291016.1977539.3134766.3461914-.0498047.4453125-.4287109.7583008-.8896484,1.7475586-1.3847656,2.9663086,1.0546875.1323242,2.1757812.3955078,3.3632812.7915039.0644531-.7915039.0820312-1.7631836.0488281-2.9174805l.9394531.1977539c.3623047.0664062.3955078.1977539.0996094.3955078,0,1.0878906-.0332031,1.9780273-.0996094,2.6699219.6259766.230957,1.3515625.5610352,2.1757812.9892578l-.4941406.9887695c-.6933594-.3955078-1.3193359-.7246094-1.8789062-.9887695-.3300781,1.4829102-.9726562,2.7524414-1.9287109,3.8071289Zm-5.3896484-4.3510742c-.5273438.5273438-.7910156,1.0219727-.7910156,1.4833984,0,.1977539.0664062.362793.1972656.4941406.0996094.0991211.2480469.1484375.4453125.1484375.296875,0,.5605469-.1806641.7910156-.5439453.1982422-.296875.59375-1.0546875,1.1875-2.2744141-.7597656,0-1.3691406.230957-1.8300781.6923828Z"/>
          <path class="cls-1" d="m320.4011377,54.0214438l-5.5380859.840332c-.0332031.2304688-.1152344.2797852-.2470703.1484375l-.2958984-1.2358398,2.6191406-.1977539v-1.5327148h-2.2246094v-.9394531h2.2246094v-1.3349609h-2.1748047v-5.2905273h5.3398438v5.2905273h-2.1748047v1.3349609h2.2246094v.9394531h-2.2246094v1.4335938l2.421875-.2963867.0498047.840332Zm-3.4619141-8.7514648h-1.1855469v1.4833984h1.1855469v-1.4833984Zm0,3.7080078v-1.4335938h-1.1855469v1.4335938h1.1855469Zm2.1757812-2.2246094v-1.4833984h-1.1855469v1.4833984h1.1855469Zm0,2.2246094v-1.4335938h-1.1855469v1.4335938h1.1855469Zm4.203125,2.5219727c.5605469-.7578125.9726562-1.3847656,1.2363281-1.8789062h-1.3847656v4.8950195c0,.5600586-.2636719.840332-.7910156.840332h-.890625l-.1972656-.9394531h.7421875c.0986328,0,.1484375-.0493164.1484375-.1484375v-4.6474609h-1.6318359v-.9394531h4.3017578l.2470703-.2475586.7910156.6923828c.1318359.1323242.0810547.2148438-.1484375.2470703-.3955078.8901367-.9228516,1.7802734-1.5820312,2.6704102l-.8408203-.5439453Zm-.59375-4.8950195l.890625-1.137207h-3.015625v-.9394531h3.7070312l.1484375-.1484375.7421875.7416992c.1308594.1323242.0820312.2148438-.1484375.2470703l-1.7304688,1.7304688.5439453.5439453-.6923828.6923828c-.6269531-.6923828-1.2529297-1.2685547-1.8789062-1.7304688l.59375-.5932617c.2304688.1318359.5097656.3295898.8398438.5932617Z"/>
          <path class="cls-1" d="m335.4255518,52.8842368c.1318359,0,.1982422-.065918.1982422-.1977539v-3.5107422h-2.7685547v6.1313477h-1.1367188v-6.1313477h-2.5224609v4.7963867h-1.1376953v-5.7358398h3.6601562v-1.5327148h-4.9453125v-.9394531h4.9453125v-1.5820312h1.0869141c.2636719.0332031.2802734.1323242.0498047.296875v1.2851562h5.0927734v.9394531h-5.0927734v1.5327148h3.90625v4.9448242c0,.5273438-.2646484.7910156-.7910156.7910156h-1.2861328l-.0986328-1.0878906h.8398438Z"/>
          <path class="cls-1" d="m342.8923486,51.4501548c-1.2539062,1.0224609-2.2246094,1.8959961-2.9179688,2.6206055l-.8398438-.840332c.8896484-.8569336,1.8291016-1.6972656,2.8183594-2.5219727l.9394531.7416992Zm1.6308594,2.3735352c.3964844,0,.6757812-.0820312.8417969-.2470703.1972656-.1977539.2958984-.5439453.2958984-1.0385742,0-.5268555-.1484375-.9394531-.4443359-1.2358398-.3964844-.3955078-.8417969-.7084961-1.3359375-.9394531-.7910156-.3623047-1.2695312-.6259766-1.4335938-.7915039-.1650391-.1645508-.2470703-.3955078-.2470703-.6918945,0-.296875.1484375-.7246094.4443359-1.2856445l1.2363281.4946289c-.2636719.362793-.3945312.6103516-.3945312.7416992,0,.0986328.1796875.230957.5429688.3955078,1.0214844.4619141,1.7138672.8735352,2.0761719,1.2358398.5273438.527832.7919922,1.2197266.7919922,2.0766602,0,.8574219-.2148438,1.5004883-.6435547,1.9282227-.3945312.3955078-.9726562.5932617-1.7304688.5932617-.6591797,0-1.4169922-.2143555-2.2734375-.6425781l.3457031-1.1865234c.8242188.3955078,1.4667969.5932617,1.9277344.5932617Zm-2.0273438-8.2075195l.59375-.9892578c1.0546875.5610352,2.1582031,1.0058594,3.3125,1.3349609l-.5429688,1.0878906c-1.5820312-.5600586-2.703125-1.0380859-3.3632812-1.4335938Zm7.2695312,7.7128906c-.9238281-1.4165039-1.7480469-2.472168-2.4726562-3.1640625l.8896484-.6430664c1.0546875.9887695,1.8955078,2.0273438,2.5224609,3.1152344l-.9394531.6918945Z"/>
          <path class="cls-1" d="m361.5329736,52.4394126c-1.4179688,1.5498047-2.9511719,2.3237305-4.5986328,2.3237305-1.1865234,0-2.0605469-.2802734-2.6201172-.8408203-.4296875-.4277344-.6435547-1.2519531-.6435547-2.472168v-6.6254883h1.0380859c.296875.0664062.3300781.1977539.0996094.3959961v6.2294922c0,.824707.1484375,1.3847656.4453125,1.6811523.3613281.3632812.90625.5439453,1.6308594.5439453,1.2851562,0,2.5878906-.7246094,3.90625-2.175293l.7421875.9394531Zm-2.2255859-5.6860352l-.4941406.6425781c-.6601562-.4282227-1.3027344-.840332-1.9287109-1.2363281l.4941406-.6425781c.6601562.3955078,1.3027344.8081055,1.9287109,1.2363281Zm.9892578-1.0878906l-.4941406.6425781c-.6933594-.4609375-1.3359375-.8730469-1.9287109-1.2358398l.4941406-.6430664c.6591797.4287109,1.3017578.8408203,1.9287109,1.2363281Z"/>
          <path class="cls-1" d="m370.3532861,54.9115806l-1.0390625-.5932617c1.0214844-.9560547,1.6982422-2.1425781,2.0273438-3.5600586-1.1542969-.4282227-2.3232422-.7246094-3.5097656-.8901367-.890625,1.9121094-1.4833984,3.0161133-1.7802734,3.3129883-.3955078.3955078-.8574219.5932617-1.3837891.5932617-.3964844,0-.7265625-.1313477-.9892578-.3955078-.296875-.296875-.4453125-.7416992-.4453125-1.3349609,0-.6923828.3291016-1.3676758.9892578-2.0273438.7246094-.7246094,1.6972656-1.0878906,2.9169922-1.0878906.3955078-1.0214844.7578125-1.9775391,1.0878906-2.8676758-.9228516.230957-1.8466797.4448242-2.7685547.6425781l-.4453125-.9887695c1.0878906-.1313477,2.1259766-.3129883,3.1152344-.5439453l.5927734-.2470703.8408203.6425781c.3291016.1977539.3125.3461914-.0488281.4453125-.4296875.7583008-.890625,1.7475586-1.3847656,2.9663086,1.0546875.1323242,2.1757812.3955078,3.3613281.7915039.0664062-.7915039.0820312-1.7631836.0498047-2.9174805l.9394531.1977539c.3623047.0664062.3955078.1977539.0986328.3955078,0,1.0878906-.0332031,1.9780273-.0986328,2.6699219.6259766.230957,1.3505859.5610352,2.1757812.9892578l-.4951172.9887695c-.6914062-.3955078-1.3183594-.7246094-1.8789062-.9887695-.3291016,1.4829102-.9726562,2.7524414-1.9277344,3.8071289Zm-5.3886719-4.3510742c-.5283203.5273438-.7919922,1.0219727-.7919922,1.4833984,0,.1977539.0654297.362793.1982422.4941406.0986328.0991211.2470703.1484375.4453125.1484375.2958984,0,.5595703-.1806641.7910156-.5439453.1972656-.296875.5927734-1.0546875,1.1855469-2.2744141-.7578125,0-1.3671875.230957-1.828125.6923828Z"/>
          <path class="cls-1" d="m381.7653955,54.0214438l-5.5371094.840332c-.0341797.2304688-.1171875.2797852-.2480469.1484375l-.296875-1.2358398,2.6210938-.1977539v-1.5327148h-2.2246094v-.9394531h2.2246094v-1.3349609h-2.1757812v-5.2905273h5.3398438v5.2905273h-2.1757812v1.3349609h2.2246094v.9394531h-2.2246094v1.4335938l2.4228516-.2963867.0498047.840332Zm-3.4609375-8.7514648h-1.1875v1.4833984h1.1875v-1.4833984Zm0,3.7080078v-1.4335938h-1.1875v1.4335938h1.1875Zm2.1757812-2.2246094v-1.4833984h-1.1875v1.4833984h1.1875Zm0,2.2246094v-1.4335938h-1.1875v1.4335938h1.1875Zm4.2021484,2.5219727c.5595703-.7578125.9716797-1.3847656,1.2363281-1.8789062h-1.3847656v4.8950195c0,.5600586-.2646484.840332-.7910156.840332h-.8896484l-.1982422-.9394531h.7412109c.0996094,0,.1484375-.0493164.1484375-.1484375v-4.6474609h-1.6308594v-.9394531h4.3007812l.2480469-.2475586.7910156.6923828c.1308594.1323242.0820312.2148438-.1484375.2470703-.3955078.8901367-.9238281,1.7802734-1.5820312,2.6704102l-.8408203-.5439453Zm-.5927734-4.8950195l.8896484-1.137207h-3.0166016v-.9394531h3.7089844l.1484375-.1484375.7412109.7416992c.1318359.1323242.0820312.2148438-.1484375.2470703l-1.7304688,1.7304688.5439453.5439453-.6923828.6923828c-.6259766-.6923828-1.2529297-1.2685547-1.8789062-1.7304688l.59375-.5932617c.2294922.1318359.5107422.3295898.8408203.5932617Z"/>
          <path class="cls-1" d="m391.2136377,54.1200766v-2.2744141h-3.3134766v-.9389648l3.3134766-6.4277344h1.1376953v6.4277344h1.0371094v.9389648h-1.0371094v2.2744141h-1.1376953Zm0-3.2133789v-4.3510742l-2.2255859,4.3510742h2.2255859Z"/>
          <path class="cls-1" d="m399.6189111,49.2748618v.7910156h-5.6367188v-.7910156h5.6367188Z"/>
          <path class="cls-1" d="m404.7214502,49.6703696c.5263672.527832.7910156,1.0878906.7910156,1.6811523,0,.8901367-.2646484,1.5991211-.7910156,2.1259766-.4287109.4287109-1.0224609.6425781-1.7802734.6425781s-1.3515625-.2138672-1.7792969-.6425781c-.5283203-.5268555-.7910156-1.2358398-.7910156-2.1259766,0-.5932617.2626953-1.1533203.7910156-1.6811523.2304688-.2304688.4941406-.3955078.7910156-.4946289-.2646484-.0986328-.4785156-.2299805-.6425781-.3955078-.4628906-.4609375-.6933594-1.0048828-.6933594-1.6313477v-.0498047c0-.8232422.2480469-1.4829102.7421875-1.9775391.4277344-.4282227.9550781-.6425781,1.5820312-.6425781.6259766,0,1.1542969.2143555,1.5820312.6425781.4941406.4946289.7421875,1.1542969.7421875,1.9775391v.0498047c0,.6264648-.2304688,1.1704102-.6923828,1.6313477-.1650391.1655273-.3798828.296875-.6425781.3955078.2958984.0991211.5595703.2641602.7910156.4946289Zm-2.7197266.3461914c-.3300781.3295898-.4941406.7749023-.4941406,1.3349609,0,.659668.1640625,1.1542969.4941406,1.4833984.2636719.2641602.5761719.3955078.9394531.3955078.3623047,0,.6757812-.1313477.9394531-.3955078.3291016-.3291016.4941406-.8237305.4941406-1.4833984,0-.5600586-.1650391-1.0053711-.4941406-1.3349609-.2636719-.2636719-.5771484-.3955078-.9394531-.3955078-.3632812,0-.6757812.1318359-.9394531.3955078Zm.0996094-4.3017578c-.2646484.2641602-.3964844.7255859-.3964844,1.3842773v.0498047c0,.5932617.1318359,1.0219727.3964844,1.2851562.2304688.2314453.5097656.3461914.8398438.3461914.3291016,0,.609375-.1147461.8408203-.3461914.2626953-.2631836.3955078-.6918945.3955078-1.2851562v-.0498047c0-.6586914-.1328125-1.1201172-.3955078-1.3842773-.2314453-.2299805-.5117188-.3461914-.8408203-.3461914-.3300781,0-.609375.1162109-.8398438.3461914Z"/>
          <path class="cls-1" d="m411.9001611,49.2748618v.7910156h-5.6357422v-.7910156h5.6357422Z"/>
          <path class="cls-1" d="m414.2341455,52.8349204c.2304688.230957.5439453.3461914.9394531.3461914.3291016,0,.6425781-.1484375.9394531-.4453125.296875-.2963867.4453125-.7910156.4453125-1.4833984,0-.5268555-.1816406-.9716797-.5439453-1.3349609-.2646484-.2631836-.6601562-.378418-1.1865234-.3461914v-.840332c.5263672-.0322266.921875-.1806641,1.1865234-.4448242.2626953-.2636719.3955078-.6591797.3955078-1.1870117,0-.6586914-.1484375-1.137207-.4453125-1.4335938-.1972656-.1977539-.4453125-.296875-.7421875-.296875-.2958984,0-.5429688.0991211-.7402344.296875-.3300781.3295898-.5117188.8242188-.5449219,1.4833984h-1.0878906c.0332031-.8569336.3134766-1.5493164.8408203-2.0766602.3955078-.3955078.90625-.5932617,1.5322266-.5932617.6601562,0,1.1875.1977539,1.5830078.5932617.4609375.4619141.6923828,1.0712891.6923828,1.8291016,0,.6923828-.1816406,1.2202148-.5439453,1.5825195-.3300781.3295898-.6435547.5439453-.9394531.6425781.4277344.1323242.7578125.3134766.9892578.5439453.4609375.4619141.6914062,1.0219727.6914062,1.6811523,0,.8574219-.2636719,1.5498047-.7910156,2.0766602-.4619141.4619141-1.0380859.6918945-1.7304688.6918945-.7587891,0-1.3515625-.2138672-1.7792969-.6425781-.4951172-.4946289-.7421875-1.2358398-.7421875-2.2250977h1.1367188c-.0332031.7255859.1152344,1.253418.4453125,1.5825195Z"/>
          <path class="cls-1" d="m423.8064111,53.1811118v.9389648h-5.0429688v-.7910156c.7578125-1.4165039,1.6972656-2.7685547,2.8183594-4.0541992.6259766-.7246094.9394531-1.4833984.9394531-2.2744141,0-.5600586-.1484375-.9887695-.4453125-1.2856445-.1972656-.1977539-.4619141-.2963867-.7910156-.2963867-.2636719,0-.5273438.1318359-.7910156.3955078-.296875.2963867-.4453125.9067383-.4453125,1.8291016h-1.0878906c.0332031-1.1865234.3134766-2.043457.8417969-2.5708008.3945312-.3955078.921875-.5932617,1.5820312-.5932617.625,0,1.1523438.2143555,1.5820312.6425781.4609375.4619141.6914062,1.1049805.6914062,1.9282227,0,.956543-.4443359,1.9453125-1.3339844,2.9667969-.9570312,1.0878906-1.7480469,2.1430664-2.3740234,3.1645508h3.8564453Z"/>
        </g>
      </g>
    </g>
  </g>
</svg>