<?xml version="1.0" encoding="UTF-8"?>
<svg id="_レイヤー_2" data-name="レイヤー 2" xmlns="http://www.w3.org/2000/svg" viewBox="0 0 360.0349268 68.3007002">
  <defs>
    <style>
      .cls-1 {
        fill: #231815;
      }

      .cls-1, .cls-2, .cls-3 {
        stroke-width: 0px;
      }

      .cls-2 {
        fill: #e50012;
      }

      .cls-3 {
        fill: #004da0;
      }
    </style>
  </defs>
  <g id="_レイヤー_1-2" data-name="レイヤー 1">
    <g>
      <g>
        <g>
          <polygon class="cls-1" points="77.7220582 0 65.2106229 0 48.814304 23.7714869 48.814304 41.9746262 54.7564315 33.2964618 54.7564315 68.3007002 65.4542408 68.3007002 65.4542408 17.8477316 77.7220582 0"/>
          <polygon class="cls-1" points="105.0939391 42.962947 130.358913 42.962947 133.1679224 32.7450239 105.0939391 32.7450239 105.0939391 20.9526076 130.3789774 20.9526076 133.1004936 10.9430663 105.0939391 10.9430663 105.0939391 .002315 94.2883163 .002315 94.2883163 10.9430663 73.9379528 10.9430663 71.1289434 20.9526076 94.2080589 20.9526076 94.2080589 32.7450239 71.2894583 32.7450239 68.4804489 42.962947 94.2883163 42.962947 94.2883163 57.3037917 71.0454026 57.3037917 68.0431408 68.2819099 130.3990418 68.2819099 133.368566 57.3037917 105.0939391 57.3037917 105.0939391 42.962947"/>
        </g>
        <polygon class="cls-1" points="169.0690832 19.068371 160.6382109 19.068371 160.6382109 .0568356 149.7722691 .0568356 149.7722691 19.068371 144.3548939 19.068371 141.4656271 30.0011283 149.7722691 30.0011283 149.7722691 68.2597499 160.6382109 68.2597499 160.6382109 30.0011283 166.1447811 30.0011283 169.0690832 19.068371"/>
        <path class="cls-1" d="m200.8561115,31.1848748l.0161147,3.9284188h-2.484253l-1.9954767,8.3200839h4.4498557v13.8970086h-3.2237123l-2.9326736,10.9181783h4.7044903c6.6939301-.3480483,10.0446614-3.8077527,10.3964273-8.4949308v-16.3202561h6.307537l-.0149988,13.9097214-3.4314458.0055927-2.9566339,10.9135229h5.3413711c6.6702198-.3480483,9.2666726-3.7531524,9.6197205-8.4403304v-24.7185897l-14.6827891.0099992v-3.9309827l-9.1135334.0025639Z"/>
        <path class="cls-1" d="m171.6328225,31.1848748l.0161147,3.9284188h-2.8855401l-1.9954767,8.3200839h4.8511428v13.8970086h-3.8657716l-2.9326736,10.9181783h5.3465496c6.6939301-.3480483,10.0446614-3.8077527,10.3964273-8.4949308v-16.3202561h6.307537l-.0149988,13.9097214-3.4314458.0055927-2.9566339,10.9135229h5.3413711c6.6702198-.3480483,9.2666726-3.7531524,9.6197205-8.4403304v-24.7185897l-14.6827891.0099992v-3.9309827l-9.1135334.0025639Z"/>
        <path class="cls-1" d="m200.8821089,19.0590952h11.6142461v-4.0509593h-13.8490035v2.8564502c0,7.8863183-7.2625925,11.5024897-13.0553747,11.5024897h-14.0775126l.0075635-10.3541266h16.4126406v-4.0048132h-18.9085064l2.4674891-9.5806975h16.4410173V.0117741h10.6957584v5.4156643l23.0123544.037561v15.9474996c-.3404786,5.0250989-2.7041362,7.9346029-9.1464261,7.9621647h-11.6342444l.0199984-10.3155685Z"/>
      </g>
      <g>
        <polygon class="cls-2" points="13.8658765 15.6261508 13.8658765 31.8197936 27.7497362 31.8197936 27.7497362 48.0313275 37 38.7676247 37 15.6261508 13.8658765 15.6261508"/>
        <polygon class="cls-3" points="23.1341235 52.6745494 23.1341235 36.4809066 9.2502638 36.4809065 9.2502638 20.2693727 0 29.5330754 0 52.6745494 23.1341235 52.6745494"/>
      </g>
      <g>
        <g>
          <path class="cls-1" d="m261.2985986,30.8627524c.9042969,1.1147461,2.3671875,2.3344727,4.3886719,3.6567383l-1.2539062,1.8808594c-1.7421875-1.0449219-3.1347656-2.2626953-4.1796875-3.6572266-1.7412109,1.8808594-3.4472656,3.2734375-5.1191406,4.1791992l-1.1484375-1.9848633c2.1582031-1.3222656,3.7949219-2.6806641,4.9101562-4.074707-.9765625-1.8105469-1.7080078-4.5268555-2.1943359-8.1494141h-.8359375v2.8208008c0,5.2944336-1.5322266,9.0214844-4.5966797,11.1796875l-1.3583984-1.671875.8359375-.7314453-.7314453-1.1494141-6.4785156,2.9257812c-.0703125.4863281-.2441406.5908203-.5214844.3134766l-1.0449219-2.1943359,1.671875-.4179688v-13.0600586c-.3496094.3496094-.8017578.6972656-1.3583984,1.0449219l-1.2539062-1.671875c2.1582031-1.4624023,4.0380859-3.8657227,5.6416016-7.2089844l1.8808594,1.0449219c.2773438.2792969.1728516.4536133-.3134766.5224609,2.2988281,1.3237305,3.9345703,2.5073242,4.9111328,3.5522461l-1.4628906,1.671875c-1.4628906-1.4628906-2.8916016-2.7167969-4.2841797-3.7617188-1.3935547,2.1601562-2.5439453,3.6225586-3.4482422,4.3881836h2.8212891v-2.2983398h1.9853516c.5566406.0703125.5908203.2792969.1044922.6269531v1.6713867h2.9248047v9.0898438h-6.3730469v3.8657227l3.6572266-1.4624023c-.2792969-.277832-.5585938-.5566406-.8359375-.8359375l1.3583984-.9404297c.9042969.90625,1.7060547,1.9165039,2.4023438,3.0297852,1.1835938-1.6713867,1.7773438-3.934082,1.7773438-6.7910156v-11.9106445h11.0742188v1.9848633h-8.9853516v4.3881836h6.0595703l.4179688-.4179688,1.7763672.9404297c.2089844.2089844.1396484.4179688-.2089844.6269531-.4873047,3.6225586-1.3583984,6.6181641-2.6123047,8.9853516Zm-11.2832031-6.7910156v-2.0898438h-4.5976562v2.0898438h4.5976562Zm0,3.6567383v-1.9853516h-4.5976562v1.9853516h4.5976562Zm11.7011719-5.0151367h-3.1337891c.2773438,2.5073242.7998047,4.4926758,1.5673828,5.9550781.765625-1.7402344,1.2871094-3.7250977,1.5664062-5.9550781Z"/>
          <path class="cls-1" d="m277.4929346,15.2953696c1.3232422,1.4624023,2.5078125,3.0654297,3.5527344,4.8056641l-1.9853516,1.1494141-.8359375-1.2539062-9.2988281.9404297c-.0703125.4882812-.2441406.5927734-.5214844.3134766l-.6269531-2.5073242h2.8203125l2.0898438-5.6420898,2.6113281.6269531c.2773438.2792969.1738281.4536133-.3125.5224609l-2.5078125,4.3881836,4.9101562-.3134766-1.5664062-2.0898438,1.6708984-.9399414Zm1.4628906,6.6865234v13.1645508c0,1.1132812-.5576172,1.671875-1.671875,1.671875h-1.7763672l-.3125-1.9853516h1.3574219c.2089844,0,.3144531-.1044922.3144531-.3134766v-3.0297852h-4.9111328v5.4326172h-2.0898438v-14.9404297h9.0898438Zm-7,1.9853516v1.7758789h4.9111328v-1.7758789h-4.9111328Zm0,3.7612305v1.7758789h4.9111328v-1.7758789h-4.9111328Zm17.6572266-9.6123047l-5.9550781,1.671875v2.5073242c0,.4882812.2089844.7314453.6269531.7314453h4.1787109c.4179688,0,.6611328-.277832.7314453-.8359375l.2089844-1.8808594,2.1933594.4179688-.2089844,2.2988281c-.1396484,1.3237305-.8007812,1.9848633-1.984375,1.9848633h-5.9550781c-1.2539062,0-1.8808594-.5908203-1.8808594-1.7758789v-9.2988281h1.984375c.5566406.0703125.5917969.2792969.1054688.6269531v3.6567383l5.328125-2.2988281,1.2539062,1.8808594c.0683594.4882812-.140625.5927734-.6269531.3134766Zm-5.9550781,8.5673828v2.7163086l5.9550781-2.1938477,1.0449219,1.7758789c.0683594.4882812-.140625.5927734-.6269531.3134766l-6.3730469,1.671875v2.925293c0,.4882812.2089844.7314453.6269531.7314453h4.1787109c.4863281,0,.765625-.2431641.8359375-.7314453l.3134766-1.7758789,2.1933594.4179688-.4179688,2.402832c-.2089844,1.1132812-.8007812,1.671875-1.7753906,1.671875h-6.1640625c-1.2539062,0-1.8808594-.5927734-1.8808594-1.7763672v-8.7763672h1.984375c.5566406.0703125.5917969.2792969.1054688.6269531Z"/>
          <path class="cls-1" d="m317.5505518,34.3105063l-.8359375,2.6118164c-4.5966797-1.0444336-8.0800781-2.5073242-10.4472656-4.3876953-3.0664062,1.9506836-6.7910156,3.4477539-11.1796875,4.4921875l-.9394531-2.402832c4.1083984-.765625,7.5566406-1.9492188,10.3427734-3.5522461-1.8115234-2.0195312-3.2041016-4.2480469-4.1787109-6.6870117h-3.2392578v-1.9848633h7.6269531v-3.7612305h-10.0302734v-1.9853516h10.0302734v-3.3432617h2.2988281c.6953125.140625.7314453.4179688.1044922.8359375v2.5073242h10.1347656v1.9853516h-10.1347656v3.7612305h4.8056641l.6269531-.6269531,1.7763672,1.5673828-.4179688.2089844c-1.7421875,3.2045898-3.65625,5.7119141-5.7460938,7.5224609,2.2988281,1.4628906,5.4326172,2.543457,9.4023438,3.2387695Zm-14.7304688-9.9257812c.9042969,2.0898438,2.0888672,3.831543,3.5517578,5.2241211,1.6708984-1.3925781,3.0634766-3.1342773,4.1787109-5.2241211h-7.7304688Z"/>
          <path class="cls-1" d="m320.3933252,35.0419516c1.6005859-2.0898438,2.4033203-4.4926758,2.4033203-7.2089844v-11.9111328h8.5664062v-2.925293h2.2988281c.6953125.140625.7314453.4179688.1044922.8359375v2.0893555h9.2988281v1.9853516h-18.1787109v10.0302734c0,3.4135742-.90625,6.3388672-2.7167969,8.7763672l-1.7763672-1.671875Zm13.5820312-15.9853516c.5566406.0698242.5908203.2788086.1044922.6269531v2.1938477h8.3583984v1.9853516h-8.3583984v3.2387695h7v9.6123047h-2.0898438v-1.1494141h-9.7167969v1.3579102h-2.0888672v-9.8208008h4.8056641v-8.0449219h1.9853516Zm5.0146484,14.5224609v-4.4926758h-9.7167969v4.4926758h9.7167969Z"/>
        </g>
        <g>
          <path class="cls-1" d="m242.3689111,47.1020102v-2.6206055h.9394531c.2636719.0332031.2792969.1323242.0488281.296875v2.3237305h1.2363281v.9394531h-1.2363281v3.90625l1.4833984-.4453125v.9892578l-3.3623047,1.1865234c-.0332031.2641602-.1152344.3295898-.2470703.1977539l-.3955078-1.2363281,1.5332031-.3955078v-4.2026367h-1.3359375v-.9394531h1.3359375Zm8.6523438,2.8183594v4.746582c0,.4282227-.2148438.6425781-.6425781.6425781h-1.3847656l-.1972656-.9389648h1.0380859c.1318359,0,.1982422-.0668945.1982422-.1982422v-4.2519531h-5.4394531v-.9394531h7.4658203v.9394531h-1.0380859Zm-5.7851562-1.0878906l-.3457031-.9887695c1.5488281-.2299805,2.4726562-.7246094,2.7685547-1.4833984h-2.5214844v-.9394531h2.5712891v-1.2851562h.9394531c.2636719.0332031.2792969.1318359.0488281.2963867v.9887695h2.7695312v.9394531h-2.7197266c.4941406.6923828,1.4658203,1.1542969,2.9169922,1.3847656l-.2470703,1.0380859c-1.4501953-.2299805-2.5048828-.7416992-3.1650391-1.5327148-.6259766.8574219-1.6308594,1.3842773-3.015625,1.5820312Zm1.0878906,4.7963867v.4448242h-.8398438v-3.3129883h3.4111328v2.8681641h-2.5712891Zm0-.7915039h1.7304688v-1.2851562h-1.7304688v1.2851562Z"/>
          <path class="cls-1" d="m259.2985986,46.1132407v2.769043h3.7578125v1.0874023h-3.7578125v3.4614258h4.8945312v1.0874023h-10.6308594v-1.0874023h4.5986328v-3.4614258h-3.4111328v-1.0874023h3.4111328v-2.769043h-4.0048828v-1.0878906h9.5917969v1.0878906h-4.4492188Zm1.6308594,4.1533203c.6259766.4287109,1.21875,1.0551758,1.7802734,1.8789062l-1.0878906.7416992c-.4619141-.7578125-.9892578-1.4008789-1.5820312-1.9282227l.8896484-.6923828Z"/>
          <path class="cls-1" d="m266.7146143,55.210897l-.7412109-.9394531c1.0537109-.6259766,1.8955078-1.3671875,2.5214844-2.2250977l.9394531.5439453c.1650391.1323242.1152344.230957-.1484375.296875-.5615234.7910156-1.4169922,1.5649414-2.5712891,2.3237305Zm.5439453-3.609375v.4946289h-.9892578v-7.1201172h.9394531c.2636719.0332031.2802734.1318359.0498047.296875v5.3891602h9.0976562v.9394531h-4.5986328v3.8071289h-1.1367188v-3.8071289h-3.3623047Zm1.1865234-1.5820312v-5.6860352h6.2792969v5.6860352h-6.2792969Zm.9892578-4.1040039h4.3017578v-.7910156h-4.3017578v.7910156Zm0,1.5820312h4.3017578v-.7910156h-4.3017578v.7910156Zm0,1.7304688h4.3017578v-.9394531h-4.3017578v.9394531Zm4.1533203,2.769043c.6582031.659668,1.6308594,1.3188477,2.9169922,1.9775391l-.5927734,1.0385742c-1.1210938-.527832-2.1757812-1.2856445-3.1650391-2.2744141l.8408203-.7416992Z"/>
          <path class="cls-1" d="m287.1247705,52.441854c.4277344.527832,1.1210938,1.1049805,2.0771484,1.7304688l-.5927734.8901367c-.8251953-.4941406-1.484375-1.0708008-1.9785156-1.7304688-.8242188.8901367-1.6318359,1.5488281-2.4228516,1.9775391l-.5439453-.9389648c1.0214844-.6259766,1.796875-1.2685547,2.3242188-1.9287109-.4619141-.8564453-.8085938-2.1420898-1.0390625-3.8564453h-.3945312v1.3349609c0,2.5053711-.7265625,4.269043-2.1757812,5.2905273l-.6425781-.7910156.3945312-.3461914-.3457031-.5439453-3.0654297,1.3842773c-.0332031.2304688-.1162109.2797852-.2470703.1484375l-.4941406-1.0380859.7910156-.1977539v-6.1806641c-.1660156.1655273-.3789062.3300781-.6425781.4946289l-.59375-.7915039c1.0214844-.6918945,1.9111328-1.8291016,2.6699219-3.4116211l.890625.4946289c.1308594.1323242.0820312.2148438-.1484375.2470703,1.0878906.6269531,1.8613281,1.1870117,2.3232422,1.6811523l-.6923828.7910156c-.6914062-.6918945-1.3671875-1.2851562-2.0273438-1.7797852-.6591797,1.0219727-1.203125,1.7143555-1.6308594,2.0766602h1.3339844v-1.0878906h.9394531c.2636719.0332031.2802734.1323242.0507812.296875v.7910156h1.3837891v4.3017578h-3.0166016v1.8291016l1.7304688-.6918945c-.1308594-.1313477-.2636719-.2636719-.3945312-.3955078l.6425781-.4453125c.4277344.4287109.8066406.9072266,1.1367188,1.434082.5605469-.7910156.8408203-1.8618164.8408203-3.2138672v-5.6367188h5.2412109v.9394531h-4.2519531v2.0766602h2.8671875l.1972656-.1977539.8417969.4448242c.0976562.0991211.0644531.1977539-.0996094.296875-.2304688,1.7143555-.6425781,3.1318359-1.2363281,4.2519531Zm-5.3398438-3.2138672v-.9887695h-2.1757812v.9887695h2.1757812Zm0,1.730957v-.9394531h-2.1757812v.9394531h2.1757812Zm5.5380859-2.3735352h-1.4833984c.1308594,1.1865234.3789062,2.1259766.7421875,2.8183594.3613281-.8237305.609375-1.7631836.7412109-2.8183594Z"/>
          <path class="cls-1" d="m294.788833,45.0746665c.625.6923828,1.1865234,1.4511719,1.6816406,2.2744141l-.9394531.5439453-.3964844-.5932617-4.4003906.4453125c-.0332031.230957-.1152344.2802734-.2470703.1479492l-.296875-1.1865234h1.3349609l.9892578-2.6699219,1.2353516.296875c.1318359.1318359.0820312.2143555-.1484375.2470703l-1.1855469,2.0766602,2.3232422-.1484375-.7412109-.9887695.7910156-.4453125Zm.6914062,3.1645508v6.2299805c0,.5268555-.2636719.7910156-.7910156.7910156h-.8398438l-.1484375-.9394531h.6425781c.0996094,0,.1484375-.0493164.1484375-.1484375v-1.4335938h-2.3242188v2.5708008h-.9882812v-7.0703125h4.3007812Zm-3.3125.9394531v.8408203h2.3242188v-.8408203h-2.3242188Zm0,1.7802734v.840332h2.3242188v-.840332h-2.3242188Zm8.3564453-4.5488281l-2.8183594.7910156v1.1865234c0,.230957.0986328.3461914.296875.3461914h1.9775391c.1972656,0,.3125-.1313477.3457031-.3955078l.0996094-.8901367,1.0380859.1977539-.0986328,1.0878906c-.0664062.6264648-.3789062.9394531-.9394531.9394531h-2.8183594c-.59375,0-.890625-.2797852-.890625-.8408203v-4.4003906h.9394531c.2636719.0332031.2802734.1323242.0498047.296875v1.7304688l2.5214844-1.0878906.59375.8901367c.0322266.230957-.0673828.2802734-.296875.1484375Zm-2.8183594,4.0541992v1.2856445l2.8183594-1.0385742.4951172.8408203c.03125.230957-.0673828.2802734-.296875.1479492l-3.0166016.7915039v1.3842773c0,.230957.0986328.3461914.296875.3461914h1.9775391c.2304688,0,.3623047-.1152344.3955078-.3461914l.1484375-.8408203,1.0380859.1982422-.1972656,1.137207c-.0996094.5268555-.3789062.7910156-.8408203.7910156h-2.9169922c-.59375,0-.890625-.2807617-.890625-.8408203v-4.1533203h.9394531c.2636719.0332031.2802734.1323242.0498047.296875Z"/>
          <path class="cls-1" d="m311.2829736,52.9364829c.1308594,0,.1972656-.065918.1972656-.1977539v-3.5107422h-2.7675781v6.1313477h-1.1376953v-6.1313477h-2.5224609v4.7963867h-1.1367188v-5.7358398h3.6591797v-1.5327148h-4.9443359v-.9394531h4.9443359v-1.5820312h1.0869141c.2636719.0332031.2802734.1323242.0507812.296875v1.2851562h5.0917969v.9394531h-5.0917969v1.5327148h3.9052734v4.9448242c0,.5273438-.2646484.7910156-.7910156.7910156h-1.2861328l-.0976562-1.0878906h.8398438Z"/>
          <path class="cls-1" d="m317.5915674,55.3593345h-.9882812v-6.2299805c-.296875.4941406-.6269531.9233398-.9882812,1.2856445l-.7421875-.8408203c1.3183594-1.4169922,2.109375-3.2460938,2.3730469-5.4882812l1.1875.2475586c.2294922.0332031.2128906.1318359-.0507812.2963867-.2636719,1.1542969-.5429688,2.0273438-.8398438,2.6206055.3955078.1323242.4121094.2641602.0488281.3955078v7.7133789Zm1.0390625-3.3129883v-5.3891602h3.1152344v-2.3237305h.9394531c.2636719.0332031.2792969.1318359.0488281.2963867v2.0273438h3.015625v5.2905273h-.9882812v-.4946289h-2.0273438v3.90625h-.9882812v-3.90625h-2.1269531v.5932617h-.9882812Zm.9882812-4.449707v2.9169922h2.1269531v-2.9169922h-2.1269531Zm5.1425781,2.9169922v-2.9169922h-2.0273438v2.9169922h2.0273438Z"/>
          <path class="cls-1" d="m333.1081689,46.1132407h5.4384766v.9394531h-2.0761719v7.3671875c0,.4609375-.2314453.6918945-.6923828.6918945h-1.2861328l-.1484375-1.0874023h.9394531c.1318359,0,.1982422-.065918.1982422-.1977539v-6.7739258h-2.3730469v6.4277344h-.9892578v-.5932617h-3.5595703v.9887695h-.9892578v-9.1469727h5.5380859v1.3842773Zm-3.2138672,2.0766602v-2.5214844h-1.3349609v2.5214844h1.3349609Zm0,.9394531h-1.3349609v2.8183594h1.3349609v-2.8183594Zm2.2246094-3.4609375h-1.2363281v2.5214844h1.2363281v-2.5214844Zm0,3.4609375h-1.2363281v2.8183594h1.2363281v-2.8183594Z"/>
          <path class="cls-1" d="m341.5329736,54.1723227v-7.6635742h-1.4824219v-.5932617c1.1523438,0,1.828125-.4614258,2.0263672-1.3842773h.5927734v9.6411133h-1.1367188Z"/>
          <path class="cls-1" d="m350.5212549,49.3271079v.7910156h-5.6357422v-.7910156h5.6357422Z"/>
          <path class="cls-1" d="m353.3103174,54.1723227v-7.6635742h-1.4824219v-.5932617c1.1523438,0,1.828125-.4614258,2.0263672-1.3842773h.5927734v9.6411133h-1.1367188Z"/>
          <path class="cls-1" d="m358.898208,54.1723227v-7.6635742h-1.4833984v-.5932617c1.1533203,0,1.8291016-.4614258,2.0263672-1.3842773h.59375v9.6411133h-1.1367188Z"/>
        </g>
      </g>
    </g>
  </g>
</svg>