<?xml version="1.0" encoding="UTF-8"?>
<svg id="_レイヤー_2" data-name="レイヤー 2" xmlns="http://www.w3.org/2000/svg" viewBox="0 0 407.4017834 42.8378906">
  <defs>
    <style>
      .cls-1 {
        fill: #d21619;
        stroke-width: 0px;
      }
    </style>
  </defs>
  <g id="_レイヤー_1-2" data-name="レイヤー 1">
    <g>
      <g>
        <path class="cls-1" d="m54.6259045,39.6982422c-2.0263672-2.09375-3.0390625-5.0126953-3.0390625-8.7578125V11.8974609c0-3.7636719,1.0175781-6.6875,3.0537109-8.7714844,2.0356445-2.0839844,5.0029297-3.1259766,8.9018555-3.1259766,3.9179688,0,6.8896484,1.0371094,8.9165039,3.1113281,2.0258789,2.0742188,3.0390625,5.0029297,3.0390625,8.7861328v19.0429688c0,3.7646484-1.0180664,6.6884766-3.0537109,8.7724609-2.0361328,2.0839844-5.003418,3.125-8.9018555,3.125-3.9179688,0-6.8901367-1.0458984-8.9165039-3.1396484Zm13.5117188-4.0761719c.9887695-1.0849609,1.4833984-2.6455078,1.4833984-4.6816406V11.8974609c0-2.0351562-.4897461-3.5957031-1.4692383-4.6806641s-2.5161133-1.6279297-4.609375-1.6279297c-2.09375,0-3.6298828.5429688-4.609375,1.6279297s-1.4692383,2.6455078-1.4692383,4.6806641v19.0429688c0,2.0361328.4941406,3.5966797,1.4833984,4.6816406s2.5209961,1.6269531,4.5952148,1.6269531,3.6054688-.5419922,4.5952148-1.6269531Z"/>
        <path class="cls-1" d="m94.2523694,42.40625h-5.8769531V6.9140625l-5.9633789,3.6582031v-6.078125l5.9633789-3.9755859h5.8769531v41.8876953Z"/>
        <path class="cls-1" d="m103.1254162,37.3066406l14.605957-19.4746094c.8447266-1.1132812,1.5024414-2.2705078,1.9731445-3.4707031s.7060547-2.3193359.7060547-3.3564453v-.0576172c0-1.6708984-.4897461-2.9677734-1.4692383-3.8896484s-2.3720703-1.3828125-4.1772461-1.3828125c-1.7094727,0-3.0922852.5048828-4.1484375,1.5126953-1.0566406,1.0087891-1.699707,2.4345703-1.9301758,4.2783203v.0283203h-6.0786133v-.0283203c.3457031-2.4003906,1.0517578-4.4511719,2.1171875-6.1503906,1.0664062-1.7001953,2.4438477-2.9960938,4.1342773-3.8896484,1.6899414-.8925781,3.6391602-1.3398438,5.8481445-1.3398438,2.496582,0,4.628418.4277344,6.3955078,1.2822266,1.7666016.8544922,3.1113281,2.0986328,4.0332031,3.7304688.921875,1.6328125,1.3828125,3.6015625,1.3828125,5.90625v.0283203c0,1.4794922-.3076172,3.0253906-.921875,4.6386719-.6147461,1.6132812-1.4692383,3.1689453-2.5639648,4.6669922l-12.128418,16.4785156h15.8447266v5.5888672h-23.6230469v-5.0996094Z"/>
        <path class="cls-1" d="m137.27776,39.6982422c-2.0263672-2.09375-3.0390625-5.0126953-3.0390625-8.7578125V11.8974609c0-3.7636719,1.0175781-6.6875,3.0537109-8.7714844,2.0356445-2.0839844,5.0029297-3.1259766,8.9018555-3.1259766,3.9179688,0,6.8896484,1.0371094,8.9165039,3.1113281,2.0258789,2.0742188,3.0390625,5.0029297,3.0390625,8.7861328v19.0429688c0,3.7646484-1.0180664,6.6884766-3.0537109,8.7724609-2.0361328,2.0839844-5.003418,3.125-8.9018555,3.125-3.9179688,0-6.8901367-1.0458984-8.9165039-3.1396484Zm13.5117188-4.0761719c.9887695-1.0849609,1.4833984-2.6455078,1.4833984-4.6816406V11.8974609c0-2.0351562-.4897461-3.5957031-1.4692383-4.6806641s-2.5161133-1.6279297-4.609375-1.6279297c-2.09375,0-3.6298828.5429688-4.609375,1.6279297s-1.4692383,2.6455078-1.4692383,4.6806641v19.0429688c0,2.0361328.4941406,3.5966797,1.4833984,4.6816406s2.5209961,1.6269531,4.5952148,1.6269531,3.6054688-.5419922,4.5952148-1.6269531Z"/>
        <path class="cls-1" d="m186.4398694,24.6025391v5.5888672h-19.359375v-5.5888672h19.359375Z"/>
        <path class="cls-1" d="m201.1469006,41.5996094c-1.6425781-.8261719-2.9775391-2.0263672-4.0048828-3.6015625-1.0273438-1.5742188-1.7138672-3.4658203-2.0595703-5.6748047v-.0292969h5.8769531v.0292969c.2109375,1.5361328.8256836,2.7324219,1.84375,3.5869141,1.0175781.8544922,2.3427734,1.28125,3.9755859,1.28125,1.8818359,0,3.3369141-.6289062,4.3642578-1.8867188s1.5415039-3.0292969,1.5415039-5.3154297v-3.5146484c0-2.265625-.5141602-4.0283203-1.5415039-5.2861328s-2.4824219-1.8867188-4.3642578-1.8867188c-1.0180664,0-1.9975586.2880859-2.9384766.8642578-.9414062.5761719-1.7670898,1.3828125-2.4775391,2.4199219h-5.3583984V.5185547h21.347168v5.5888672h-15.4702148v9.4199219c.7294922-.5947266,1.5458984-1.0556641,2.4487305-1.3828125.9023438-.3261719,1.8242188-.4892578,2.765625-.4892578,2.4199219,0,4.4892578.4990234,6.2084961,1.4980469,1.7182617.9990234,3.0244141,2.4580078,3.9179688,4.3789062.8925781,1.9208984,1.3393555,4.234375,1.3393555,6.9423828v3.5146484c0,2.7080078-.4609375,5.0224609-1.3828125,6.9433594s-2.2666016,3.3847656-4.0332031,4.3935547c-1.7670898,1.0078125-3.8891602,1.5117188-6.3666992,1.5117188-2.112793,0-3.9902344-.4130859-5.6318359-1.2382812Z"/>
        <path class="cls-1" d="m231.6981701,41.3544922c-1.7480469-.9892578-3.078125-2.4296875-3.9902344-4.3212891s-1.3681641-4.171875-1.3681641-6.8417969v-.0292969c0-1.5556641.1821289-3.1875.5473633-4.8974609.3647461-1.7089844.8930664-3.3896484,1.5844727-5.0410156.1152344-.2880859.2397461-.5712891.3745117-.8496094.1342773-.2783203.2685547-.5527344.4033203-.8212891L238.3529553.5185547h6.3378906l-10.6879883,20.8857422.0288086-1.0371094c.4799805-.9023438,1.1811523-1.6035156,2.1030273-2.1025391s1.9970703-.7490234,3.2265625-.7490234c2.1699219,0,4.0332031.4892578,5.5888672,1.46875s2.7368164,2.40625,3.543457,4.2783203c.8066406,1.8730469,1.2099609,4.125,1.2099609,6.7558594v.0283203c0,2.6894531-.456543,4.9941406-1.3686523,6.9140625-.9121094,1.9208984-2.2470703,3.3808594-4.0039062,4.3789062-1.7578125.9990234-3.8657227,1.4980469-6.3237305,1.4980469-2.4584961,0-4.5615234-.4941406-6.309082-1.4833984Zm10.6162109-5.8916016c1.0078125-1.1523438,1.512207-2.7939453,1.512207-4.9257812v-.0292969c0-2.3427734-.5283203-4.1523438-1.5844727-5.4296875-1.0566406-1.2773438-2.5639648-1.9160156-4.5229492-1.9160156-1.7480469,0-3.1020508.6435547-4.0620117,1.9296875-.9604492,1.2871094-1.4404297,3.1025391-1.4404297,5.4453125v.0283203c0,2.1318359.5039062,3.7695312,1.5126953,4.9121094,1.0078125,1.1425781,2.434082,1.7138672,4.277832,1.7138672,1.862793,0,3.2983398-.5761719,4.3071289-1.7285156Z"/>
        <path class="cls-1" d="m272.3182873,21.6064453l-.0288086,1.0371094c-.4804688.8837891-1.2055664,1.53125-2.1748047,1.9443359-.9702148.4130859-2.1176758.6191406-3.4428711.6191406-1.9975586,0-3.7548828-.5087891-5.2719727-1.5263672-1.5175781-1.0175781-2.6933594-2.453125-3.5292969-4.3066406-.8349609-1.8535156-1.2529297-4-1.2529297-6.4394531v-.0283203c0-2.7080078.4560547-5.0224609,1.3681641-6.9433594.9121094-1.9199219,2.2470703-3.3798828,4.0048828-4.3789062,1.7568359-.9980469,3.8647461-1.4980469,6.3232422-1.4980469,2.4580078,0,4.5610352.5097656,6.309082,1.5273438,1.7475586,1.0175781,3.0776367,2.4970703,3.9897461,4.4365234s1.3686523,4.2734375,1.3686523,7v.0292969c0,1.4980469-.1923828,3.0966797-.5761719,4.796875-.3842773,1.6992188-.9316406,3.3847656-1.6420898,5.0556641-.1152344.25-.2304688.5039062-.3457031.7636719-.1152344.2587891-.2402344.5136719-.3745117.7626953l-8.9306641,17.9482422h-6.3378906l10.5439453-20.7998047Zm.2739258-3.6298828c1.0078125-1.2480469,1.512207-3.0058594,1.512207-5.2724609v-.0283203c0-2.2089844-.5043945-3.9179688-1.512207-5.1279297-1.0087891-1.2099609-2.4345703-1.8154297-4.2783203-1.8154297-1.8632812,0-3.2988281.6054688-4.3066406,1.8154297-1.0087891,1.2099609-1.5126953,2.9287109-1.5126953,5.15625v.0292969c0,2.2666016.5039062,4.0185547,1.5126953,5.2578125,1.0078125,1.2382812,2.4433594,1.8574219,4.3066406,1.8574219,1.84375,0,3.2695312-.6240234,4.2783203-1.8720703Z"/>
        <path class="cls-1" d="m307.4071545,24.6025391v5.5888672h-19.359375v-5.5888672h19.359375Z"/>
        <path class="cls-1" d="m321.6385998,41.3974609c-1.9208984-.9599609-3.4042969-2.3183594-4.4511719-4.0761719-1.046875-1.7568359-1.5698242-3.7978516-1.5698242-6.1220703v-.6914062c0-2.0927734.5229492-4.0615234,1.5698242-5.9052734s2.4438477-3.2363281,4.1918945-4.1777344c-1.4790039-.8066406-2.6645508-1.9726562-3.5581055-3.5-.8925781-1.5263672-1.3393555-3.1347656-1.3393555-4.8251953v-1.0087891c0-2.1894531.4897461-4.1142578,1.4692383-5.7753906s2.3623047-2.9482422,4.1484375-3.8603516,3.8603516-1.3691406,6.2226562-1.3691406,4.4365234.4570312,6.2226562,1.3691406,3.1689453,2.1992188,4.1484375,3.8603516,1.4692383,3.5859375,1.4692383,5.7753906v1.0087891c0,1.7285156-.456543,3.3515625-1.3686523,4.8681641-.9121094,1.5175781-2.1171875,2.6699219-3.6152344,3.4570312,1.7666016.9609375,3.1835938,2.3583984,4.2490234,4.1923828,1.0664062,1.8339844,1.5991211,3.7978516,1.5991211,5.890625v.6914062c0,2.3242188-.5234375,4.3652344-1.5698242,6.1220703-1.0473633,1.7578125-2.5307617,3.1162109-4.4511719,4.0761719-1.9208984.9609375-4.1484375,1.4404297-6.6835938,1.4404297s-4.7631836-.4794922-6.6835938-1.4404297Zm10.284668-5.0126953c1.0371094-.5371094,1.8388672-1.2910156,2.4057617-2.2607422.565918-.9697266.8496094-2.0888672.8496094-3.3564453v-.4033203c0-1.2871094-.2836914-2.4150391-.8496094-3.3847656-.5668945-.9697266-1.3686523-1.7236328-2.4057617-2.2617188s-2.237793-.8066406-3.6010742-.8066406c-1.3637695,0-2.5639648.2685547-3.6010742.8066406s-1.8393555,1.2958984-2.4057617,2.2753906-.8496094,2.1132812-.8496094,3.3994141v.4326172c0,1.2675781.2832031,2.3818359.8496094,3.3417969s1.3686523,1.7041016,2.4057617,2.2324219,2.2373047.7919922,3.6010742.7919922c1.3632812,0,2.5639648-.2685547,3.6010742-.8066406Zm-.4897461-18.8837891c.9023438-.5087891,1.6035156-1.2333984,2.1030273-2.1748047.4990234-.9414062.7490234-2.0263672.7490234-3.2558594v-.4033203c0-1.1708984-.25-2.2080078-.7490234-3.1113281-.4995117-.9023438-1.2006836-1.5986328-2.1030273-2.0878906-.902832-.4902344-1.9399414-.7353516-3.1113281-.7353516-1.171875,0-2.2089844.2451172-3.1113281.7353516-.902832.4892578-1.6040039,1.1855469-2.1030273,2.0878906-.4995117.9033203-.7490234,1.9501953-.7490234,3.140625v.4316406c0,1.2099609.2495117,2.28125.7490234,3.2128906.4990234.9316406,1.2001953,1.6513672,2.1030273,2.1601562.9023438.5087891,1.9394531.7636719,3.1113281.7636719,1.1713867,0,2.2084961-.2548828,3.1113281-.7636719Z"/>
        <path class="cls-1" d="m354.8260998,41.3974609c-1.9208984-.9599609-3.4042969-2.3183594-4.4511719-4.0761719-1.046875-1.7568359-1.5698242-3.7978516-1.5698242-6.1220703v-.6914062c0-2.0927734.5229492-4.0615234,1.5698242-5.9052734s2.4438477-3.2363281,4.1918945-4.1777344c-1.4790039-.8066406-2.6645508-1.9726562-3.5581055-3.5-.8925781-1.5263672-1.3393555-3.1347656-1.3393555-4.8251953v-1.0087891c0-2.1894531.4897461-4.1142578,1.4692383-5.7753906s2.3623047-2.9482422,4.1484375-3.8603516,3.8603516-1.3691406,6.2226562-1.3691406,4.4365234.4570312,6.2226562,1.3691406,3.1689453,2.1992188,4.1484375,3.8603516,1.4692383,3.5859375,1.4692383,5.7753906v1.0087891c0,1.7285156-.456543,3.3515625-1.3686523,4.8681641-.9121094,1.5175781-2.1171875,2.6699219-3.6152344,3.4570312,1.7666016.9609375,3.1835938,2.3583984,4.2490234,4.1923828,1.0664062,1.8339844,1.5991211,3.7978516,1.5991211,5.890625v.6914062c0,2.3242188-.5234375,4.3652344-1.5698242,6.1220703-1.0473633,1.7578125-2.5307617,3.1162109-4.4511719,4.0761719-1.9208984.9609375-4.1484375,1.4404297-6.6835938,1.4404297s-4.7631836-.4794922-6.6835938-1.4404297Zm10.284668-5.0126953c1.0371094-.5371094,1.8388672-1.2910156,2.4057617-2.2607422.565918-.9697266.8496094-2.0888672.8496094-3.3564453v-.4033203c0-1.2871094-.2836914-2.4150391-.8496094-3.3847656-.5668945-.9697266-1.3686523-1.7236328-2.4057617-2.2617188s-2.237793-.8066406-3.6010742-.8066406c-1.3637695,0-2.5639648.2685547-3.6010742.8066406s-1.8393555,1.2958984-2.4057617,2.2753906-.8496094,2.1132812-.8496094,3.3994141v.4326172c0,1.2675781.2832031,2.3818359.8496094,3.3417969s1.3686523,1.7041016,2.4057617,2.2324219,2.2373047.7919922,3.6010742.7919922c1.3632812,0,2.5639648-.2685547,3.6010742-.8066406Zm-.4897461-18.8837891c.9023438-.5087891,1.6035156-1.2333984,2.1030273-2.1748047.4990234-.9414062.7490234-2.0263672.7490234-3.2558594v-.4033203c0-1.1708984-.25-2.2080078-.7490234-3.1113281-.4995117-.9023438-1.2006836-1.5986328-2.1030273-2.0878906-.902832-.4902344-1.9399414-.7353516-3.1113281-.7353516-1.171875,0-2.2089844.2451172-3.1113281.7353516-.902832.4892578-1.6040039,1.1855469-2.1030273,2.0878906-.4995117.9033203-.7490234,1.9501953-.7490234,3.140625v.4316406c0,1.2099609.2495117,2.28125.7490234,3.2128906.4990234.9316406,1.2001953,1.6513672,2.1030273,2.1601562.9023438.5087891,1.9394531.7636719,3.1113281.7636719,1.1713867,0,2.2084961-.2548828,3.1113281-.7636719Z"/>
        <path class="cls-1" d="m388.0135998,41.3974609c-1.9208984-.9599609-3.4042969-2.3183594-4.4511719-4.0761719-1.046875-1.7568359-1.5698242-3.7978516-1.5698242-6.1220703v-.6914062c0-2.0927734.5229492-4.0615234,1.5698242-5.9052734s2.4438477-3.2363281,4.1918945-4.1777344c-1.4790039-.8066406-2.6645508-1.9726562-3.5581055-3.5-.8925781-1.5263672-1.3393555-3.1347656-1.3393555-4.8251953v-1.0087891c0-2.1894531.4897461-4.1142578,1.4692383-5.7753906s2.3623047-2.9482422,4.1484375-3.8603516,3.8603516-1.3691406,6.2226562-1.3691406,4.4365234.4570312,6.2226562,1.3691406,3.1689453,2.1992188,4.1484375,3.8603516,1.4692383,3.5859375,1.4692383,5.7753906v1.0087891c0,1.7285156-.456543,3.3515625-1.3686523,4.8681641-.9121094,1.5175781-2.1171875,2.6699219-3.6152344,3.4570312,1.7666016.9609375,3.1835938,2.3583984,4.2490234,4.1923828,1.0664062,1.8339844,1.5991211,3.7978516,1.5991211,5.890625v.6914062c0,2.3242188-.5234375,4.3652344-1.5698242,6.1220703-1.0473633,1.7578125-2.5307617,3.1162109-4.4511719,4.0761719-1.9208984.9609375-4.1484375,1.4404297-6.6835938,1.4404297s-4.7631836-.4794922-6.6835938-1.4404297Zm10.284668-5.0126953c1.0371094-.5371094,1.8388672-1.2910156,2.4057617-2.2607422.565918-.9697266.8496094-2.0888672.8496094-3.3564453v-.4033203c0-1.2871094-.2836914-2.4150391-.8496094-3.3847656-.5668945-.9697266-1.3686523-1.7236328-2.4057617-2.2617188s-2.237793-.8066406-3.6010742-.8066406c-1.3637695,0-2.5639648.2685547-3.6010742.8066406s-1.8393555,1.2958984-2.4057617,2.2753906-.8496094,2.1132812-.8496094,3.3994141v.4326172c0,1.2675781.2832031,2.3818359.8496094,3.3417969s1.3686523,1.7041016,2.4057617,2.2324219,2.2373047.7919922,3.6010742.7919922c1.3632812,0,2.5639648-.2685547,3.6010742-.8066406Zm-.4897461-18.8837891c.9023438-.5087891,1.6035156-1.2333984,2.1030273-2.1748047.4990234-.9414062.7490234-2.0263672.7490234-3.2558594v-.4033203c0-1.1708984-.25-2.2080078-.7490234-3.1113281-.4995117-.9023438-1.2006836-1.5986328-2.1030273-2.0878906-.902832-.4902344-1.9399414-.7353516-3.1113281-.7353516-1.171875,0-2.2089844.2451172-3.1113281.7353516-.902832.4892578-1.6040039,1.1855469-2.1030273,2.0878906-.4995117.9033203-.7490234,1.9501953-.7490234,3.140625v.4316406c0,1.2099609.2495117,2.28125.7490234,3.2128906.4990234.9316406,1.2001953,1.6513672,2.1030273,2.1601562.9023438.5087891,1.9394531.7636719,3.1113281.7636719,1.1713867,0,2.2084961-.2548828,3.1113281-.7636719Z"/>
      </g>
      <path class="cls-1" d="m31.5448375,16.930308c3.1344916,1.5883098,5.1288526,3.7721311,5.1288526,6.0907063,0,3.9151153-3.7393493,5.0267648-5.1288526,5.0267648-1.3963623,0-5.1385252-1.1116495-5.1385252-5.0267648,0-2.3185752,1.9643929-4.5350388,5.1385252-6.0907063Zm-26.1665411,6.0907063c0-2.3185752,2.0024755-4.5023965,5.126249-6.0907063,3.1821762,1.5556676,5.1397338,3.7721311,5.1397338,6.0907063,0,3.9151153-3.7447665,5.0267648-5.1397338,5.0267648-1.3855047,0-5.126249-1.1116495-5.126249-5.0267648ZM0,33.814295V14.4550779c2.7067945,0,5.4872433.5339935,7.909325,1.3990127-2.7122349,1.7477546-4.6739544,4.1671859-4.6739544,7.1669236,0,5.7079273,5.2774173,7.151858,7.2691747,7.151858,2.0052423,0,7.2758472-1.4439307,7.2758472-7.151858,0-2.9997377-1.991711-5.4191691-4.7066196-7.1669236,2.4561189-.9004514,5.2432636-1.3990127,7.948826-1.3990127,2.7176519,0,5.4954502.4985613,7.9515691,1.3990127-2.7081895,1.7477546-4.7066196,4.1671859-4.7066196,7.1669236,0,5.7079273,5.2760453,7.151858,7.277289,7.151858,1.9915711,0,7.2690114-1.4439307,7.2690114-7.151858,0-2.9997377-1.961603-5.4191691-4.6711875-7.1669236,2.4192918-.8650192,5.2079709-1.3990127,7.9202297-1.3990127v19.3592171H0ZM31.5748056,14.4359669c-3.1741086-1.3963623-6.9490061-2.1197923-10.5522067-2.1197923s-7.37675.7234301-10.5454182,2.1197923c-3.0964089-1.3963623-6.8780257-2.1197923-10.4771808-2.1197923v-3.9859796h42.0628912v3.9859796c-3.6059905,0-7.3835621.7234301-10.4880855,2.1197923Z"/>
    </g>
  </g>
</svg>