<?xml version="1.0" encoding="UTF-8"?>
<svg id="_レイヤー_2" data-name="レイヤー 2" xmlns="http://www.w3.org/2000/svg" viewBox="0 0 394.2527002 68.3007002">
  <defs>
    <style>
      .cls-1 {
        fill: #231815;
      }

      .cls-1, .cls-2, .cls-3 {
        stroke-width: 0px;
      }

      .cls-2 {
        fill: #e50012;
      }

      .cls-3 {
        fill: #004da0;
      }
    </style>
  </defs>
  <g id="_レイヤー_1-2" data-name="レイヤー 1">
    <g>
      <g>
        <g>
          <polygon class="cls-1" points="77.7220582 0 65.2106229 0 48.814304 23.7714869 48.814304 41.9746262 54.7564315 33.2964618 54.7564315 68.3007002 65.4542408 68.3007002 65.4542408 17.8477316 77.7220582 0"/>
          <polygon class="cls-1" points="105.0939391 42.962947 130.358913 42.962947 133.1679224 32.7450239 105.0939391 32.7450239 105.0939391 20.9526076 130.3789774 20.9526076 133.1004936 10.9430663 105.0939391 10.9430663 105.0939391 .002315 94.2883163 .002315 94.2883163 10.9430663 73.9379528 10.9430663 71.1289434 20.9526076 94.2080589 20.9526076 94.2080589 32.7450239 71.2894583 32.7450239 68.4804489 42.962947 94.2883163 42.962947 94.2883163 57.3037917 71.0454026 57.3037917 68.0431408 68.2819099 130.3990418 68.2819099 133.368566 57.3037917 105.0939391 57.3037917 105.0939391 42.962947"/>
        </g>
        <polygon class="cls-1" points="169.0690832 19.068371 160.6382109 19.068371 160.6382109 .0568356 149.7722691 .0568356 149.7722691 19.068371 144.3548939 19.068371 141.4656271 30.0011283 149.7722691 30.0011283 149.7722691 68.2597499 160.6382109 68.2597499 160.6382109 30.0011283 166.1447811 30.0011283 169.0690832 19.068371"/>
        <path class="cls-1" d="m200.8561115,31.1848748l.0161147,3.9284188h-2.484253l-1.9954767,8.3200839h4.4498557v13.8970086h-3.2237123l-2.9326736,10.9181783h4.7044903c6.6939301-.3480483,10.0446614-3.8077527,10.3964273-8.4949308v-16.3202561h6.307537l-.0149988,13.9097214-3.4314458.0055927-2.9566339,10.9135229h5.3413711c6.6702198-.3480483,9.2666726-3.7531524,9.6197205-8.4403304v-24.7185897l-14.6827891.0099992v-3.9309827l-9.1135334.0025639Z"/>
        <path class="cls-1" d="m171.6328225,31.1848748l.0161147,3.9284188h-2.8855401l-1.9954767,8.3200839h4.8511428v13.8970086h-3.8657716l-2.9326736,10.9181783h5.3465496c6.6939301-.3480483,10.0446614-3.8077527,10.3964273-8.4949308v-16.3202561h6.307537l-.0149988,13.9097214-3.4314458.0055927-2.9566339,10.9135229h5.3413711c6.6702198-.3480483,9.2666726-3.7531524,9.6197205-8.4403304v-24.7185897l-14.6827891.0099992v-3.9309827l-9.1135334.0025639Z"/>
        <path class="cls-1" d="m200.8821089,19.0590952h11.6142461v-4.0509593h-13.8490035v2.8564502c0,7.8863183-7.2625925,11.5024897-13.0553747,11.5024897h-14.0775126l.0075635-10.3541266h16.4126406v-4.0048132h-18.9085064l2.4674891-9.5806975h16.4410173V.0117741h10.6957584v5.4156643l23.0123544.037561v15.9474996c-.3404786,5.0250989-2.7041362,7.9346029-9.1464261,7.9621647h-11.6342444l.0199984-10.3155685Z"/>
      </g>
      <g>
        <polygon class="cls-2" points="13.8658765 15.6261508 13.8658765 31.8197936 27.7497362 31.8197936 27.7497362 48.0313275 37 38.7676247 37 15.6261508 13.8658765 15.6261508"/>
        <polygon class="cls-3" points="23.1341235 52.6745494 23.1341235 36.4809066 9.2502638 36.4809065 9.2502638 20.2693727 0 29.5330754 0 52.6745494 23.1341235 52.6745494"/>
      </g>
      <g>
        <g>
          <path class="cls-1" d="m254.1662744,9.0414634v1.7763672h7.1044922v9.8208008h-2.0898438v-.6269531h-4.2836914c2.9257812,2.4389648,6.3032227,4.1450195,10.1347656,5.1196289l-1.0449219,2.5078125c-3.2045898-.8359375-6.4775391-2.8212891-9.8208008-5.9555664v6.8955078h-2.0898438v-6.4775391c-2.4389648,2.6479492-5.5732422,4.597168-9.4033203,5.8510742l-1.0444336-2.1943359c4.1791992-1.3222656,7.4863281-3.2387695,9.925293-5.746582h-4.4926758v.9404297h-2.0893555v-10.1342773h7.1044922v-1.7763672h-10.3432617v-1.9848633h10.3432617v-2.4033203h1.9853516c.5566406.0703125.5908203.2792969.1044922.6269531v1.7763672h10.1342773v1.9848633h-10.1342773Zm-7.1049805,5.5375977h5.0151367v-2.0898438h-5.0151367v2.0898438Zm0,3.7612305h5.0151367v-2.0898438h-5.0151367v2.0898438Zm7.1049805-3.7612305h5.0146484v-2.0898438h-5.0146484v2.0898438Zm0,3.7612305h5.0146484v-2.0898438h-5.0146484v2.0898438Z"/>
          <path class="cls-1" d="m275.9187158,9.5639243c-1.3945312,3.9018555-3.2749023,6.9316406-5.6420898,9.0898438l-1.9853516-1.7763672c3.34375-3.2026367,5.4672852-7.3134766,6.3735352-12.3286133l2.6118164.8359375c.277832.2792969.1733398.4536133-.3134766.5224609l-.5224609,1.6713867h5.8510742l.3134766-.6264648,2.2983398,1.3579102-.4174805.5224609c-.6972656,2.6479492-1.4990234,4.980957-2.4033203,7,1.0449219,3.4135742,3.9702148,6.5136719,8.7763672,9.2988281l-1.8803711,2.4033203c-3.6225586-2.3671875-6.3735352-5.4672852-8.2543945-9.2988281-2.5776367,4.6674805-6.4433594,8.0087891-11.597168,10.0302734l-1.253418-2.5078125c7.1728516-2.6459961,11.7700195-8.0449219,13.7910156-16.1943359h-5.7460938Z"/>
          <path class="cls-1" d="m303.2712549,13.1161704l-7.9404297,3.5522461c-.0703125.4882812-.2446289.5927734-.5224609.3134766l-.9399414-2.2983398,1.4624023-.4179688V6.0116782l2.0898438.6269531c2.2983398-.3481445,4.4926758-.9047852,6.5820312-1.671875l.9404297,2.1938477c.2089844.5585938-.0703125.6269531-.8359375.2089844-2.3686523.4882812-4.597168.8720703-6.6865234,1.1494141v5.1196289c1.6713867-.6269531,3.2387695-1.2880859,4.7016602-1.9853516-.2792969-.4174805-.90625-1.1132812-1.8808594-2.0893555l1.671875-1.2539062c1.3920898,1.1855469,2.6118164,2.6479492,3.6567383,4.3881836l-1.7763672,1.2539062-.5224609-.8359375Zm10.6572266,4.1791992v10.7617188h-2.0898438v-.9404297h-13.1645508v1.4624023h-2.0893555v-11.2836914h17.34375Zm-9.7167969,1.671875h-5.5375977v2.402832h5.5375977v-2.402832Zm0,4.074707h-5.5375977v2.402832h5.5375977v-2.402832Zm6.1645508-14.940918c.1386719,5.0151367-2.1601562,7.9404297-6.8959961,8.7763672l-.7314453-2.1938477c3.6914062-.4868164,5.5019531-2.6806641,5.4331055-6.5825195h-2.2983398v-1.9848633h10.1342773l-.3134766,6.3730469c-.1401367,2.2988281-.871582,3.4477539-2.1938477,3.4477539h-2.5078125l-.3129883-1.9848633h1.7758789c.5566406,0,.8701172-.3134766.9404297-.9404297l.4179688-4.9106445h-3.4477539Zm1.4624023,13.269043v-2.402832h-5.5371094v2.402832h5.5371094Zm0,1.671875h-5.5371094v2.402832h5.5371094v-2.402832Z"/>
          <path class="cls-1" d="m330.0603174,28.3700766v-9.5073242c-2.0209961,3.1342773-5.0854492,5.7119141-9.1943359,7.7314453l-1.253418-2.5078125c4.456543-1.9487305,7.6953125-4.5610352,9.7163086-7.8359375h-9.5078125v-1.9848633h10.2392578V5.0712485h1.9853516c.5566406.0703125.5908203.2792969.1044922.6269531v8.5673828h10.1342773v1.9848633h-9.4033203c2.5078125,3.34375,5.8510742,5.9555664,10.0302734,7.8359375l-1.1494141,2.2988281c-3.6923828-1.6015625-6.8955078-4.1791992-9.6118164-7.7314453v9.7163086h-2.0898438Zm-6.0600586-21.6269531c1.5317383,1.4624023,2.6806641,3.0297852,3.4482422,4.7011719l-2.2988281,1.4628906c-.8359375-1.7402344-1.9165039-3.2729492-3.2387695-4.597168l2.0893555-1.5668945Zm10.34375,4.9101562c1.1132812-1.53125,1.9853516-3.2729492,2.6118164-5.2236328l2.5078125,1.0444336c.3476562.2792969.2431641.4541016-.3134766.5224609-.5585938,1.7421875-1.4628906,3.3793945-2.7163086,4.9106445l-2.0898438-1.2539062Z"/>
          <path class="cls-1" d="m368.7390283,25.7582602l-.8359375,2.6118164c-4.597168-1.0444336-8.0805664-2.5073242-10.4477539-4.3876953-3.065918,1.9506836-6.7915039,3.4477539-11.1796875,4.4921875l-.9399414-2.402832c4.1088867-.765625,7.5566406-1.9492188,10.3432617-3.5522461-1.8120117-2.0195312-3.2045898-4.2480469-4.1791992-6.6870117h-3.2387695v-1.9848633h7.6269531v-3.7612305h-10.0297852v-1.9853516h10.0297852v-3.3432617h2.2988281c.6953125.140625.730957.4179688.1044922.8359375v2.5073242h10.1342773v1.9853516h-10.1342773v3.7612305h4.8056641l.6269531-.6269531,1.7763672,1.5673828-.4179688.2089844c-1.7416992,3.2045898-3.6567383,5.7119141-5.746582,7.5224609,2.2988281,1.4628906,5.4331055,2.543457,9.4033203,3.2387695Zm-14.7314453-9.9257812c.9042969,2.0898438,2.0893555,3.831543,3.5522461,5.2241211,1.6713867-1.3925781,3.0639648-3.1342773,4.1791992-5.2241211h-7.7314453Z"/>
          <path class="cls-1" d="m371.5808252,26.4897056c1.6010742-2.0898438,2.402832-4.4926758,2.402832-7.2089844V7.3695884h8.5673828v-2.925293h2.2983398c.6958008.140625.7314453.4179688.1044922.8359375v2.0893555h9.2988281v1.9853516h-18.1791992v10.0302734c0,3.4135742-.90625,6.3388672-2.7167969,8.7763672l-1.7758789-1.671875Zm13.5820312-15.9853516c.5566406.0698242.5913086.2788086.1044922.6269531v2.1938477h8.3583984v1.9853516h-8.3583984v3.2387695h7.0004883v9.6123047h-2.0898438v-1.1494141h-9.7167969v1.3579102h-2.0893555v-9.8208008h4.8061523v-8.0449219h1.9848633Zm5.0151367,14.5224609v-4.4926758h-9.7167969v4.4926758h9.7167969Z"/>
        </g>
        <g>
          <path class="cls-1" d="m246.7688135,39.610311v.8408203h3.3623047v4.6474609h-.9887695v-.2963867h-2.0273438c1.3842773,1.1538086,2.9829102,1.9614258,4.7958984,2.4223633l-.4941406,1.1865234c-1.5166016-.3945312-3.065918-1.3339844-4.6479492-2.8178711v3.2631836h-.9887695v-3.0654297c-1.1542969,1.2529297-2.6376953,2.1748047-4.4501953,2.7685547l-.4941406-1.0380859c1.9775391-.6259766,3.5429688-1.5322266,4.6967773-2.7192383h-2.1259766v.4448242h-.9887695v-4.7958984h3.3623047v-.8408203h-4.8950195v-.9394531h4.8950195v-1.137207h.9394531c.2631836.0332031.2797852.1323242.0493164.296875v.840332h4.7958984v.9394531h-4.7958984Zm-3.3623047,2.6206055h2.3735352v-.9887695h-2.3735352v.9887695Zm0,1.7797852h2.3735352v-.9887695h-2.3735352v.9887695Zm3.3623047-1.7797852h2.3735352v-.9887695h-2.3735352v.9887695Zm0,1.7797852h2.3735352v-.9887695h-2.3735352v.9887695Z"/>
          <path class="cls-1" d="m253.6911768,48.4110923l-.5932617-1.1367188c1.2524414-.59375,2.2412109-1.3183594,2.9667969-2.1757812l.8901367.8408203c.0986328.1650391,0,.2314453-.296875.1982422-.7587891.8886719-1.7475586,1.6464844-2.9667969,2.2734375Zm5.4389648-10.4819336v.9892578h4.9443359v.9394531h-10.9272461v-.9394531h4.8457031v-1.3847656h1.0878906c.3291016.0664062.3461914.1977539.0493164.3955078Zm2.2250977,6.4277344h-2.1259766v3.659668c0,.5263672-.2646484.7910156-.7915039.7910156h-1.2851562l-.1977539-1.0878906h1.0874023c.1313477,0,.1977539-.0664062.1977539-.1982422v-3.1645508h-2.472168v.4453125h-.9887695v-4.0053711h7.5649414v3.8569336h-.9887695v-.296875Zm-5.5874023-2.6206055v1.6811523h5.5874023v-1.6811523h-5.5874023Zm7.5649414,6.5263672c-1.3520508-.4941406-2.4228516-1.3173828-3.2138672-2.4716797l.8901367-.6923828c.6923828.9238281,1.6811523,1.6152344,2.9667969,2.0761719l-.6430664,1.0878906Z"/>
          <path class="cls-1" d="m270.4426416,39.8080649c.296875-.4277344.6098633-1.0048828.9394531-1.7304688l.8901367.6430664c.2299805.1650391.1806641.2641602-.1484375.2963867-.4941406.8242188-1.0380859,1.5498047-1.6313477,2.1757812h1.6313477v.9394531h-2.3237305c-.3632812.362793-.7416992.6918945-1.137207.9887695h2.7685547v5.5380859h-.9887695v-.59375h-2.5214844v.7910156h-.9887695v-4.3017578c-.4619141.3300781-.9233398.5932617-1.3847656.7910156l-.4448242-1.0380859c1.1201172-.4282227,2.2412109-1.1533203,3.3623047-2.175293h-2.8183594v-.9394531h2.3237305v-1.2856445h-1.7797852v-.9394531h1.7797852v-1.5825195h.9394531c.2636719.0332031.2797852.1323242.0493164.296875v1.2856445h1.4833984v.840332Zm-2.5214844,4.1040039v1.2856445h2.5214844v-1.2856445h-2.5214844Zm2.5214844,2.0771484h-2.5214844v1.2851562h2.5214844v-1.2851562Zm-.0493164-6.0820312h-1.434082v1.2856445h.296875c.296875-.2636719.675293-.6923828,1.137207-1.2856445Zm3.8071289,2.472168l.8901367-3.0654297h-1.4833984v9.4936523h-.9887695v-10.4331055h2.7192383l.0991211-.2475586,1.0380859.6923828-.1977539.1484375-1.0878906,3.2138672c.7246094.7583008,1.1699219,1.4506836,1.3349609,2.0766602.4946289,2.0102539.0991211,3.0161133-1.1865234,3.0161133h-.840332l-.1977539-1.0878906h.7416992c.5268555,0,.6748047-.5107422.4448242-1.5327148-.1655273-.6923828-.5932617-1.4501953-1.2856445-2.2744141Z"/>
          <path class="cls-1" d="m283.8830713,39.610311v.8408203h3.3623047v4.6474609h-.9887695v-.2963867h-2.0273438c1.3842773,1.1538086,2.9829102,1.9614258,4.7958984,2.4223633l-.4941406,1.1865234c-1.5166016-.3945312-3.065918-1.3339844-4.6479492-2.8178711v3.2631836h-.9887695v-3.0654297c-1.1542969,1.2529297-2.6376953,2.1748047-4.4501953,2.7685547l-.4941406-1.0380859c1.9775391-.6259766,3.5429688-1.5322266,4.6967773-2.7192383h-2.1259766v.4448242h-.9887695v-4.7958984h3.3623047v-.8408203h-4.8950195v-.9394531h4.8950195v-1.137207h.9394531c.2631836.0332031.2797852.1323242.0493164.296875v.840332h4.7958984v.9394531h-4.7958984Zm-3.3623047,2.6206055h2.3735352v-.9887695h-2.3735352v.9887695Zm0,1.7797852h2.3735352v-.9887695h-2.3735352v.9887695Zm3.3623047-1.7797852h2.3735352v-.9887695h-2.3735352v.9887695Zm0,1.7797852h2.3735352v-.9887695h-2.3735352v.9887695Z"/>
          <path class="cls-1" d="m294.1775049,39.8578696c-.659668,1.8461914-1.5498047,3.2802734-2.6699219,4.3012695l-.9394531-.840332c1.5825195-1.5161133,2.5874023-3.4609375,3.0161133-5.8344727l1.2363281.3955078c.1313477.1323242.081543.2148438-.1484375.2470703l-.2470703.7915039h2.7685547l.1484375-.296875,1.0878906.6425781-.1977539.2475586c-.3300781,1.2529297-.7094727,2.3569336-1.137207,3.3125.4941406,1.6157227,1.8789062,3.0830078,4.1533203,4.4003906l-.8901367,1.1376953c-1.7143555-1.1210938-3.0161133-2.5878906-3.90625-4.4008789-1.2197266,2.2094727-3.0493164,3.7895508-5.4882812,4.746582l-.5932617-1.1865234c3.3945312-1.2529297,5.5703125-3.8071289,6.5268555-7.6635742h-2.7197266Z"/>
          <path class="cls-1" d="m307.1218408,41.5385337l-3.7578125,1.6811523c-.0332031.230957-.1157227.2807617-.2470703.1484375l-.4453125-1.0878906.6923828-.1977539v-3.9057617l.9887695.2963867c1.0878906-.1645508,2.1259766-.4277344,3.1152344-.7910156l.4448242,1.0385742c.0986328.2641602-.0332031.2963867-.3955078.0986328-1.1210938.230957-2.1757812.4125977-3.1645508.5439453v2.4228516c.7910156-.296875,1.5327148-.6098633,2.2250977-.9394531-.1323242-.1977539-.4287109-.5268555-.8901367-.9887695l.7910156-.59375c.6591797.5610352,1.2363281,1.253418,1.7304688,2.0766602l-.840332.5932617-.2470703-.3955078Zm5.0429688,1.9780273v5.0927734h-.9887695v-.4453125h-6.2299805v.6923828h-.9887695v-5.3398438h8.2075195Zm-4.5981445.7910156h-2.6206055v1.137207h2.6206055v-1.137207Zm0,1.9277344h-2.6206055v1.1376953h2.6206055v-1.1376953Zm2.9169922-7.0698242c.065918,2.3730469-1.0219727,3.7578125-3.2631836,4.1533203l-.3461914-1.0385742c1.7470703-.2299805,2.6035156-1.2685547,2.5712891-3.1147461h-1.0878906v-.9394531h4.7963867l-.1484375,3.0161133c-.0664062,1.0878906-.4125977,1.6313477-1.0385742,1.6313477h-1.1865234l-.1484375-.9394531h.8408203c.2631836,0,.4116211-.1479492.4448242-.4448242l.1977539-2.3237305h-1.6318359Zm.6923828,6.2792969v-1.137207h-2.6206055v1.137207h2.6206055Zm0,.7905273h-2.6206055v1.1376953h2.6206055v-1.1376953Z"/>
          <path class="cls-1" d="m319.7990869,48.7567954v-4.4985352c-.956543,1.4829102-2.4067383,2.7036133-4.3510742,3.6586914l-.5932617-1.1865234c2.1088867-.9228516,3.6416016-2.1586914,4.5981445-3.7084961h-4.4995117v-.9394531h4.8457031v-4.3510742h.9394531c.2636719.0332031.2797852.1323242.0493164.296875v4.0541992h4.7963867v.9394531h-4.4501953c1.1865234,1.5825195,2.769043,2.8188477,4.746582,3.7084961l-.5439453,1.0878906c-1.7475586-.7587891-3.2631836-1.9775391-4.5488281-3.6591797v4.5976562h-.9887695Zm-2.8676758-10.234375c.7246094.6923828,1.2685547,1.434082,1.6318359,2.2250977l-1.0878906.6923828c-.3955078-.8237305-.9072266-1.5488281-1.5327148-2.1757812l.9887695-.7416992Zm4.8950195,2.3242188c.5268555-.7246094.9394531-1.5493164,1.2358398-2.472168l1.1870117.4941406c.1645508.1323242.1147461.2148438-.1484375.2475586-.2641602.8242188-.6923828,1.5991211-1.2856445,2.3237305l-.9887695-.5932617Z"/>
          <path class="cls-1" d="m335.6408838,46.3837485c.1313477,0,.1977539-.0654297.1977539-.1972656v-3.5107422h-2.7685547v6.1318359h-1.137207v-6.1318359h-2.5219727v4.7958984h-1.137207v-5.7353516h3.6591797v-1.5327148h-4.9443359v-.9394531h4.9443359v-1.5820312h1.0874023c.2636719.0332031.2797852.1323242.0498047.296875v1.2851562h5.0927734v.9394531h-5.0927734v1.5327148h3.9057617v4.9443359c0,.5273438-.2641602.7910156-.7910156.7910156h-1.2856445l-.0986328-1.0878906h.840332Z"/>
          <path class="cls-1" d="m350.148208,46.8788657c-2.0112305-1.2524414-3.5771484-2.8510742-4.6972656-4.7963867v3.1152344h2.0268555v.9399414h-2.0268555v2.6699219h-.9887695v-2.6699219h-1.9287109v-.9399414h1.9287109v-3.1152344c-.956543,2.1098633-2.5058594,3.7915039-4.6479492,5.043457l-.5439453-1.0390625c2.2412109-1.2182617,3.8398438-2.9985352,4.7958984-5.3393555h-4.3012695v-.9394531h4.6972656v-2.2246094h.9389648c.2636719.0332031.2797852.1318359.0498047.2963867v1.9282227h4.746582v.9394531h-4.4003906c1.1201172,2.0112305,2.7514648,3.6757812,4.8945312,4.9936523l-.543457,1.1376953Z"/>
          <path class="cls-1" d="m357.5744775,39.5609946h5.4384766v.9394531h-2.0766602v7.3676758c0,.4609375-.230957.6914062-.6918945.6914062h-1.2856445l-.1484375-1.0878906h.9394531c.1313477,0,.1977539-.0654297.1977539-.1972656v-6.7739258h-2.3730469v6.4282227h-.9892578v-.59375h-3.5595703v.9882812h-.9892578v-9.1464844h5.5380859v1.3842773Zm-3.2138672,2.0766602v-2.5214844h-1.3349609v2.5214844h1.3349609Zm0,.9394531h-1.3349609v2.8183594h1.3349609v-2.8183594Zm2.2246094-3.4609375h-1.2358398v2.5214844h1.2358398v-2.5214844Zm0,3.4609375h-1.2358398v2.8183594h1.2358398v-2.8183594Z"/>
          <path class="cls-1" d="m365.9992822,47.6200766v-7.6635742h-1.4829102v-.5932617c1.1533203,0,1.8291016-.4614258,2.0268555-1.3842773h.5932617v9.6411133h-1.137207Z"/>
          <path class="cls-1" d="m374.9880518,42.7748618v.7910156h-5.6362305v-.7910156h5.6362305Z"/>
          <path class="cls-1" d="m377.3220361,46.3349204c.2304688.2304688.5439453.3457031.9394531.3457031.3291016,0,.6430664-.1484375.9394531-.4453125.296875-.2958984.4448242-.7905273.4448242-1.4829102,0-.5268555-.1811523-.9716797-.543457-1.3349609-.2641602-.2631836-.6601562-.378418-1.1870117-.3461914v-.840332c.5268555-.0322266.9228516-.1806641,1.1870117-.4448242.2631836-.2636719.3955078-.6591797.3955078-1.1870117,0-.6586914-.1484375-1.137207-.4453125-1.4335938-.1977539-.1977539-.4448242-.296875-.7416992-.296875-.2963867,0-.543457.0991211-.7412109.296875-.3300781.3295898-.5117188.8242188-.5439453,1.4833984h-1.0878906c.0322266-.8569336.3129883-1.5493164.840332-2.0766602.3955078-.3955078.90625-.5932617,1.5327148-.5932617.6591797,0,1.1870117.1977539,1.5825195.5932617.4609375.4619141.6918945,1.0712891.6918945,1.8291016,0,.6923828-.1811523,1.2202148-.543457,1.5825195-.3300781.3295898-.6430664.5439453-.9394531.6425781.4277344.1323242.7578125.3134766.9887695.5439453.4609375.4619141.6918945,1.0219727.6918945,1.6811523,0,.8574219-.2641602,1.5498047-.7910156,2.0771484-.4619141.4609375-1.0380859.6914062-1.7304688.6914062-.7587891,0-1.3520508-.2138672-1.7797852-.6425781-.4946289-.4941406-.7416992-1.2363281-.7416992-2.2250977h1.137207c-.0332031.7255859.1152344,1.253418.4448242,1.5825195Z"/>
          <path class="cls-1" d="m387.2502588,42.7748618v.7910156h-5.6362305v-.7910156h5.6362305Z"/>
          <path class="cls-1" d="m390.038833,47.6200766v-7.6635742h-1.4829102v-.5932617c1.1533203,0,1.8291016-.4614258,2.0268555-1.3842773h.5932617v9.6411133h-1.137207Z"/>
          <path class="cls-1" d="m246.7688135,54.610311v.8408203h3.3623047v4.6474609h-.9887695v-.296875h-2.0273438c1.3842773,1.1542969,2.9829102,1.9619141,4.7958984,2.4228516l-.4941406,1.1865234c-1.5166016-.3945312-3.065918-1.3339844-4.6479492-2.8183594v3.2636719h-.9887695v-3.0654297c-1.1542969,1.2529297-2.6376953,2.1748047-4.4501953,2.7685547l-.4941406-1.0380859c1.9775391-.6259766,3.5429688-1.5322266,4.6967773-2.7197266h-2.1259766v.4453125h-.9887695v-4.7958984h3.3623047v-.8408203h-4.8950195v-.9394531h4.8950195v-1.1367188h.9394531c.2631836.0332031.2797852.1318359.0493164.296875v.8398438h4.7958984v.9394531h-4.7958984Zm-3.3623047,2.6210938h2.3735352v-.9892578h-2.3735352v.9892578Zm0,1.7792969h2.3735352v-.9882812h-2.3735352v.9882812Zm3.3623047-1.7792969h2.3735352v-.9892578h-2.3735352v.9892578Zm0,1.7792969h2.3735352v-.9882812h-2.3735352v.9882812Z"/>
          <path class="cls-1" d="m257.0632471,54.8583579c-.659668,1.8457031-1.5498047,3.2792969-2.6699219,4.3007812l-.9394531-.8398438c1.5825195-1.5166016,2.5874023-3.4609375,3.0161133-5.8349609l1.2363281.3955078c.1313477.1328125.081543.2148438-.1484375.2470703l-.2470703.7919922h2.7685547l.1484375-.296875,1.0878906.6425781-.1977539.2470703c-.3300781,1.2529297-.7094727,2.3564453-1.137207,3.3125.4941406,1.6162109,1.8789062,3.0830078,4.1533203,4.4003906l-.8901367,1.1376953c-1.7143555-1.1210938-3.0161133-2.5878906-3.90625-4.4003906-1.2197266,2.2089844-3.0493164,3.7890625-5.4882812,4.7460938l-.5932617-1.1865234c3.3945312-1.2529297,5.5703125-3.8076172,6.5268555-7.6630859h-2.7197266Z"/>
          <path class="cls-1" d="m270.007583,56.5380454l-3.7578125,1.6816406c-.0332031.2304688-.1157227.28125-.2470703.1484375l-.4453125-1.0878906.6923828-.1972656v-3.90625l.9887695.296875c1.0878906-.1650391,2.1259766-.4277344,3.1152344-.7910156l.4448242,1.0380859c.0986328.2646484-.0332031.2958984-.3955078.0986328-1.1210938.2304688-2.1757812.4121094-3.1645508.5439453v2.4228516c.7910156-.296875,1.5327148-.609375,2.2250977-.9394531-.1323242-.1972656-.4287109-.5273438-.8901367-.9882812l.7910156-.59375c.6591797.5605469,1.2363281,1.2529297,1.7304688,2.0761719l-.840332.59375-.2470703-.3964844Zm5.0429688,1.9785156v5.0927734h-.9887695v-.4453125h-6.2299805v.6923828h-.9887695v-5.3398438h8.2075195Zm-4.5981445.7910156h-2.6206055v1.1367188h2.6206055v-1.1367188Zm0,1.9277344h-2.6206055v1.1376953h2.6206055v-1.1376953Zm2.9169922-7.0703125c.065918,2.3730469-1.0219727,3.7578125-3.2631836,4.1542969l-.3461914-1.0390625c1.7470703-.2304688,2.6035156-1.2685547,2.5712891-3.1152344h-1.0878906v-.9394531h4.7963867l-.1484375,3.0166016c-.0664062,1.0878906-.4125977,1.6318359-1.0385742,1.6318359h-1.1865234l-.1484375-.9394531h.8408203c.2631836,0,.4116211-.1484375.4448242-.4453125l.1977539-2.3242188h-1.6318359Zm.6923828,6.2792969v-1.1367188h-2.6206055v1.1367188h2.6206055Zm0,.7910156h-2.6206055v1.1376953h2.6206055v-1.1376953Z"/>
          <path class="cls-1" d="m282.6848291,63.7567954v-4.4980469c-.956543,1.4824219-2.4067383,2.703125-4.3510742,3.6582031l-.5932617-1.1865234c2.1088867-.9228516,3.6416016-2.1591797,4.5981445-3.7080078h-4.4995117v-.9394531h4.8457031v-4.3515625h.9394531c.2636719.0332031.2797852.1328125.0493164.296875v4.0546875h4.7963867v.9394531h-4.4501953c1.1865234,1.5820312,2.769043,2.8183594,4.746582,3.7080078l-.5439453,1.0878906c-1.7475586-.7587891-3.2631836-1.9775391-4.5488281-3.6591797v4.5976562h-.9887695Zm-2.8676758-10.234375c.7246094.6923828,1.2685547,1.4335938,1.6318359,2.2246094l-1.0878906.6933594c-.3955078-.8242188-.9072266-1.5488281-1.5327148-2.1757812l.9887695-.7421875Zm4.8950195,2.3242188c.5268555-.7246094.9394531-1.5488281,1.2358398-2.4726562l1.1870117.4941406c.1645508.1328125.1147461.2148438-.1484375.2480469-.2641602.8242188-.6923828,1.5996094-1.2856445,2.3242188l-.9887695-.59375Z"/>
          <path class="cls-1" d="m300.6731103,61.8788657c-2.0112305-1.2529297-3.5771484-2.8505859-4.6972656-4.7958984v3.1152344h2.0268555v.9394531h-2.0268555v2.6699219h-.9887695v-2.6699219h-1.9287109v-.9394531h1.9287109v-3.1152344c-.956543,2.109375-2.5058594,3.7910156-4.6479492,5.0429688l-.5439453-1.0390625c2.2412109-1.21875,3.8398438-2.9980469,4.7958984-5.3398438h-4.3012695v-.9394531h4.6972656v-2.2246094h.9389648c.2636719.0332031.2797852.1328125.0498047.296875v1.9277344h4.746582v.9394531h-4.4003906c1.1201172,2.0117188,2.7514648,3.6757812,4.8945312,4.9941406l-.543457,1.1376953Z"/>
          <path class="cls-1" d="m308.0993799,54.5614829h5.4384766v.9394531h-2.0766602v7.3671875c0,.4609375-.230957.6914062-.6918945.6914062h-1.2856445l-.1484375-1.0878906h.9394531c.1313477,0,.1977539-.0654297.1977539-.1972656v-6.7734375h-2.3730469v6.4277344h-.9892578v-.59375h-3.5595703v.9882812h-.9892578v-9.1464844h5.5380859v1.3847656Zm-3.2138672,2.0761719v-2.5214844h-1.3349609v2.5214844h1.3349609Zm0,.9394531h-1.3349609v2.8183594h1.3349609v-2.8183594Zm2.2246094-3.4609375h-1.2358398v2.5214844h1.2358398v-2.5214844Zm0,3.4609375h-1.2358398v2.8183594h1.2358398v-2.8183594Z"/>
          <path class="cls-1" d="m323.7629541,56.5888266c.1645508.2958984.0166016.3457031-.4448242.1474609-1.8466797.4951172-3.7910156.8740234-5.8344727,1.1376953v3.2128906c0,.4296875.2138672.6435547.6430664.6435547h5.6860352l-.0991211,1.0878906h-5.7851562c-1.0551758,0-1.5820312-.4287109-1.5820312-1.2861328v-7.7617188h.9887695c.3623047.0664062.4121094.1972656.1484375.3945312v2.5214844c2.2412109-.2626953,4.2026367-.6748047,5.8837891-1.2353516l.3955078,1.1376953Zm-.5932617-1.6328125c-.5273438-.6582031-1.0380859-1.2353516-1.5327148-1.7304688l.6923828-.5429688c.4609375.4277344.9716797,1.0058594,1.5327148,1.7304688l-.6923828.5429688Zm-.0986328-2.3730469l.5932617-.5429688c.4941406.4609375,1.0209961,1.0214844,1.5820312,1.6806641l-.6425781.5439453c-.5932617-.6923828-1.1049805-1.2519531-1.5327148-1.6816406Z"/>
          <path class="cls-1" d="m326.5910791,62.6200766c1.6479492-1.5820312,2.472168-3.5429688,2.472168-5.8837891v-2.2246094h1.0385742c.2963867.0664062.3291016.1982422.0986328.3955078v1.7792969c0,2.7695312-.8735352,4.9619141-2.6206055,6.5761719l-.9887695-.6425781Zm6.6254883-1.3349609c1.4501953-.5595703,2.7851562-1.6806641,4.0048828-3.3623047l.6923828.9394531c-1.2529297,1.7148438-2.8354492,2.9511719-4.746582,3.7089844l-.3955078.1972656-.7910156-.59375.0986328-.2460938v-7.9609375h1.0385742c.2963867.0664062.3291016.1972656.0986328.3955078v6.921875Z"/>
          <path class="cls-1" d="m343.866958,61.6806235v.9394531h-5.043457v-.7910156c.7578125-1.4160156,1.6972656-2.7685547,2.8183594-4.0546875.6259766-.7246094.9394531-1.4824219.9394531-2.2734375,0-.5605469-.1484375-.9892578-.4448242-1.2861328-.1977539-.1982422-.4624023-.2958984-.7915039-.2958984-.2641602,0-.5273438.1308594-.7910156.3945312-.2963867.296875-.4448242.9072266-.4448242,1.8300781h-1.0878906c.0327148-1.1875.3129883-2.0439453.8408203-2.5712891.3955078-.3955078.9223633-.5927734,1.5820312-.5927734.6259766,0,1.1533203.2138672,1.5820312.6425781.4614258.4609375.6923828,1.1044922.6923828,1.9277344,0,.9570312-.4448242,1.9453125-1.3349609,2.9667969-.956543,1.0878906-1.7475586,2.1425781-2.3735352,3.1640625h3.8569336Z"/>
          <path class="cls-1" d="m346.6853174,57.0829673l.9887695-3.3125h-1.4335938v10.0371094h-.9892578v-10.828125h2.6206055l.1484375-.2480469.8901367.5439453c.0986328.0664062.0654297.1484375-.0991211.2470703l-1.1865234,3.4121094c1.0214844,1.3183594,1.3510742,2.703125.9887695,4.1523438-.0986328.3964844-.4125977.59375-.9394531.59375h-.9394531l-.0986328-.9394531h.7416992c.1977539,0,.3125-.1152344.3461914-.3457031.1977539-1.1875-.1484375-2.2910156-1.0385742-3.3125Zm3.5107422-3.0664062h1.6806641v.9394531h-1.6806641v1.6328125c.5600586-.1318359,1.137207-.296875,1.7304688-.4951172l.1977539.8408203-3.2631836.9394531c-.0668945.1650391-.1323242.1972656-.1982422.0986328l-.3955078-.9892578.9394531-.1972656v-4.3515625h.9394531c.2636719.0332031.2797852.1328125.0498047.296875v1.2851562Zm1.4829102,3.3632812l.9892578.2460938c.2963867.0996094.2631836.1982422-.0991211.296875l-.2963867.6425781h3.015625v5.1425781h-.9887695v-.4941406h-3.8071289v.59375h-.9887695v-5.2421875h1.8789062l.2963867-1.1855469Zm-1.1865234,3.0644531h3.8071289v-1.0878906h-3.8071289v1.0878906Zm0,1.9785156h3.8071289v-1.1875h-3.8071289v1.1875Zm5.7353516-6.7246094c.0327148,1.1865234-.2963867,1.7792969-.9887695,1.7792969h-1.8789062c-.5932617,0-.8896484-.2792969-.8896484-.8398438v-4.203125h.9394531c.2631836.0332031.2792969.1328125.0493164.296875v1.5820312l1.9775391-.9882812.5439453.7910156c.1313477.1972656.065918.2802734-.1977539.2470703l-2.3237305.8408203v.9394531c0,.2636719.1152344.3945312.3461914.3945312h1.0874023c.1977539,0,.296875-.0976562.296875-.2958984l.0493164-.7910156.9887695.2470703Z"/>
        </g>
      </g>
    </g>
  </g>
</svg>