<?xml version="1.0" encoding="UTF-8"?>
<svg id="_レイヤー_2" data-name="レイヤー 2" xmlns="http://www.w3.org/2000/svg" viewBox="0 0 390.5489259 42.8388672">
  <defs>
    <style>
      .cls-1 {
        fill: #d21619;
        stroke-width: 0px;
      }
    </style>
  </defs>
  <g id="_レイヤー_1-2" data-name="レイヤー 1">
    <g>
      <g>
        <path class="cls-1" d="m54.6260744,39.6982422c-2.0263672-2.0927734-3.0390625-5.0126953-3.0390625-8.7578125V11.8984375c0-3.7646484,1.0175781-6.6884766,3.0537109-8.7724609,2.0356445-2.0839844,5.0029297-3.1259766,8.9018555-3.1259766,3.9179688,0,6.8896484,1.0371094,8.9165039,3.1113281,2.0258789,2.0742188,3.0390625,5.0039062,3.0390625,8.7871094v19.0419922c0,3.7646484-1.0180664,6.6884766-3.0537109,8.7724609-2.0361328,2.0839844-5.003418,3.1259766-8.9018555,3.1259766-3.9179688,0-6.8901367-1.046875-8.9165039-3.140625Zm13.5117188-4.0761719c.9887695-1.0849609,1.4833984-2.6455078,1.4833984-4.6816406V11.8984375c0-2.0361328-.4897461-3.5966797-1.4692383-4.6816406s-2.5161133-1.6279297-4.609375-1.6279297c-2.09375,0-3.6298828.5429688-4.609375,1.6279297s-1.4692383,2.6455078-1.4692383,4.6816406v19.0419922c0,2.0361328.4941406,3.5966797,1.4833984,4.6816406s2.5209961,1.6279297,4.5952148,1.6279297,3.6054688-.5429688,4.5952148-1.6279297Z"/>
        <path class="cls-1" d="m94.2525392,42.40625h-5.8769531V6.9140625l-5.9633789,3.6591797v-6.0791016l5.9633789-3.9755859h5.8769531v41.8876953Z"/>
        <path class="cls-1" d="m103.1255861,37.3076172l14.605957-19.4746094c.8447266-1.1142578,1.5024414-2.2714844,1.9731445-3.4716797s.7060547-2.3193359.7060547-3.3564453v-.0576172c0-1.6708984-.4897461-2.9667969-1.4692383-3.8886719s-2.3720703-1.3828125-4.1772461-1.3828125c-1.7094727,0-3.0922852.5039062-4.1484375,1.5117188-1.0566406,1.0087891-1.699707,2.4345703-1.9301758,4.2783203v.0292969h-6.0786133v-.0292969c.3457031-2.4003906,1.0517578-4.4511719,2.1171875-6.1503906,1.0664062-1.7001953,2.4438477-2.9960938,4.1342773-3.8896484,1.6899414-.8925781,3.6391602-1.3388672,5.8481445-1.3388672,2.496582,0,4.628418.4277344,6.3955078,1.28125,1.7666016.8554688,3.1113281,2.0986328,4.0332031,3.7314453s1.3828125,3.6005859,1.3828125,5.9052734v.0292969c0,1.4785156-.3076172,3.0244141-.921875,4.6376953-.6147461,1.6132812-1.4692383,3.1689453-2.5639648,4.6669922l-12.128418,16.4785156h15.8447266v5.5888672h-23.6230469v-5.0986328Z"/>
        <path class="cls-1" d="m137.2779298,39.6982422c-2.0263672-2.0927734-3.0390625-5.0126953-3.0390625-8.7578125V11.8984375c0-3.7646484,1.0175781-6.6884766,3.0537109-8.7724609,2.0356445-2.0839844,5.0029297-3.1259766,8.9018555-3.1259766,3.9179688,0,6.8896484,1.0371094,8.9165039,3.1113281,2.0258789,2.0742188,3.0390625,5.0039062,3.0390625,8.7871094v19.0419922c0,3.7646484-1.0180664,6.6884766-3.0537109,8.7724609-2.0361328,2.0839844-5.003418,3.1259766-8.9018555,3.1259766-3.9179688,0-6.8901367-1.046875-8.9165039-3.140625Zm13.5117188-4.0761719c.9887695-1.0849609,1.4833984-2.6455078,1.4833984-4.6816406V11.8984375c0-2.0361328-.4897461-3.5966797-1.4692383-4.6816406s-2.5161133-1.6279297-4.609375-1.6279297c-2.09375,0-3.6298828.5429688-4.609375,1.6279297s-1.4692383,2.6455078-1.4692383,4.6816406v19.0419922c0,2.0361328.4941406,3.5966797,1.4833984,4.6816406s2.5209961,1.6279297,4.5952148,1.6279297,3.6054688-.5429688,4.5952148-1.6279297Z"/>
        <path class="cls-1" d="m186.4400392,24.6025391v5.5888672h-19.359375v-5.5888672h19.359375Z"/>
        <path class="cls-1" d="m199.7208009,41.5566406c-1.7861328-.8544922-3.222168-2.0927734-4.3071289-3.7167969-1.0849609-1.6220703-1.7714844-3.5761719-2.0595703-5.8623047h5.9921875c.1728516,1.1914062.5473633,2.1708984,1.1235352,2.9384766.5761719.7685547,1.3203125,1.3398438,2.2329102,1.7138672.9116211.375,1.9824219.5625,3.2119141.5625,1.9394531,0,3.4472656-.5185547,4.5229492-1.5556641,1.0751953-1.0371094,1.6132812-2.4970703,1.6132812-4.3789062v-1.2675781c0-2.09375-.5092773-3.7119141-1.5268555-4.8544922-1.0180664-1.1425781-2.4584961-1.7138672-4.3212891-1.7138672h-2.9672852v-5.5888672h2.9672852c1.6323242,0,2.8999023-.4902344,3.8027344-1.4697266.9023438-.9794922,1.3540039-2.3623047,1.3540039-4.1484375v-1.2958984c0-1.6513672-.4750977-2.9287109-1.4262695-3.8320312-.9501953-.9023438-2.2998047-1.3535156-4.0473633-1.3535156-.9990234,0-1.8920898.1865234-2.6791992.5615234-.7875977.3740234-1.4550781.9501953-2.0019531,1.7285156-.5478516.7773438-.9462891,1.7529297-1.1958008,2.9238281h-5.9633789c.3837891-2.2851562,1.109375-4.2441406,2.1748047-5.8769531,1.0664062-1.6318359,2.4150391-2.8710938,4.0478516-3.7158203,1.6323242-.8447266,3.5048828-1.2675781,5.6176758-1.2675781,3.6103516,0,6.4047852.9501953,8.3833008,2.8515625,1.9780273,1.9013672,2.9672852,4.5810547,2.9672852,8.0380859v.6914062c0,2.09375-.5668945,3.9179688-1.699707,5.4736328-1.1333008,1.5556641-2.7368164,2.6884766-4.8110352,3.3994141,2.2851562.4990234,4.0571289,1.6230469,5.3149414,3.3701172,1.2578125,1.7480469,1.887207,3.9755859,1.887207,6.6835938v.6914062c0,2.4394531-.4707031,4.5234375-1.4116211,6.2519531-.9414062,1.7285156-2.3095703,3.0439453-4.1054688,3.9462891-1.7958984.9033203-3.9609375,1.3544922-6.4960938,1.3544922-2.3432617,0-4.4077148-.4277344-6.1938477-1.2822266Z"/>
        <path class="cls-1" d="m231.8711915,41.3984375c-1.9208984-.9599609-3.4042969-2.3193359-4.4511719-4.0771484-1.046875-1.7568359-1.5698242-3.796875-1.5698242-6.1210938v-.6914062c0-2.09375.5229492-4.0625,1.5698242-5.90625s2.4438477-3.2353516,4.1918945-4.1767578c-1.4790039-.8066406-2.6645508-1.9736328-3.5581055-3.5009766-.8925781-1.5263672-1.3393555-3.1347656-1.3393555-4.8251953v-1.0078125c0-2.1894531.4897461-4.1152344,1.4692383-5.7763672s2.3623047-2.9482422,4.1484375-3.8603516,3.8603516-1.3681641,6.2226562-1.3681641,4.4365234.4560547,6.2226562,1.3681641,3.1689453,2.1992188,4.1484375,3.8603516,1.4692383,3.5869141,1.4692383,5.7763672v1.0078125c0,1.7285156-.456543,3.3515625-1.3686523,4.8691406s-2.1171875,2.6699219-3.6152344,3.4570312c1.7666016.9599609,3.1835938,2.3574219,4.2490234,4.1914062,1.0664062,1.8339844,1.5991211,3.7978516,1.5991211,5.8916016v.6914062c0,2.3242188-.5234375,4.3642578-1.5698242,6.1210938-1.0473633,1.7578125-2.5307617,3.1171875-4.4511719,4.0771484-1.9208984.9599609-4.1484375,1.4404297-6.6835938,1.4404297s-4.7631836-.4804688-6.6835938-1.4404297Zm10.284668-5.0126953c1.0371094-.5380859,1.8388672-1.2919922,2.4057617-2.2617188.565918-.9697266.8496094-2.0888672.8496094-3.3564453v-.4033203c0-1.2861328-.2836914-2.4150391-.8496094-3.3847656-.5668945-.9697266-1.3686523-1.7236328-2.4057617-2.2617188-1.0371094-.5371094-2.237793-.8066406-3.6010742-.8066406-1.3637695,0-2.5639648.2695312-3.6010742.8066406-1.0371094.5380859-1.8393555,1.296875-2.4057617,2.2763672s-.8496094,2.1123047-.8496094,3.3994141v.4316406c0,1.2675781.2832031,2.3818359.8496094,3.3417969.5664062.9609375,1.3686523,1.7050781,2.4057617,2.2324219,1.0371094.5292969,2.2373047.7929688,3.6010742.7929688,1.3632812,0,2.5639648-.2685547,3.6010742-.8066406Zm-.4897461-18.8847656c.9023438-.5078125,1.6035156-1.2333984,2.1030273-2.1748047.4990234-.9404297.7490234-2.0253906.7490234-3.2548828v-.4033203c0-1.171875-.25-2.2089844-.7490234-3.1113281-.4995117-.9023438-1.2006836-1.5996094-2.1030273-2.0888672-.902832-.4902344-1.9399414-.734375-3.1113281-.734375-1.171875,0-2.2089844.2441406-3.1113281.734375-.902832.4892578-1.6040039,1.1865234-2.1030273,2.0888672-.4995117.9023438-.7490234,1.9492188-.7490234,3.1396484v.4326172c0,1.2099609.2495117,2.2802734.7490234,3.2119141.4990234.9316406,1.2001953,1.6523438,2.1030273,2.1601562.9023438.5097656,1.9394531.7636719,3.1113281.7636719,1.1713867,0,2.2084961-.2539062,3.1113281-.7636719Z"/>
        <path class="cls-1" d="m279.1172853,24.6025391v5.5888672h-19.359375v-5.5888672h19.359375Z"/>
        <path class="cls-1" d="m292.254004,41.3544922c-1.7480469-.9882812-3.078125-2.4287109-3.9902344-4.3212891-.9121094-1.890625-1.3681641-4.171875-1.3681641-6.8417969v-.0283203c0-1.5556641.1821289-3.1884766.5473633-4.8974609.3647461-1.7089844.8930664-3.3896484,1.5844727-5.0419922.1152344-.2880859.2397461-.5712891.3745117-.8496094.1342773-.2783203.2685547-.5517578.4033203-.8212891l9.1035156-18.0341797h6.3378906l-10.6879883,20.8867188.0288086-1.0371094c.4799805-.9023438,1.1811523-1.6035156,2.1030273-2.1035156.921875-.4990234,1.9970703-.7490234,3.2265625-.7490234,2.1699219,0,4.0332031.4902344,5.5888672,1.4697266s2.7368164,2.4052734,3.543457,4.2773438c.8066406,1.8730469,1.2099609,4.125,1.2099609,6.7558594v.0292969c0,2.6884766-.456543,4.9931641-1.3686523,6.9140625s-2.2470703,3.3798828-4.0039062,4.3789062c-1.7578125.9990234-3.8657227,1.4980469-6.3237305,1.4980469-2.4584961,0-4.5615234-.4941406-6.309082-1.484375Zm10.6162109-5.890625c1.0078125-1.1523438,1.512207-2.7949219,1.512207-4.9267578v-.0283203c0-2.3427734-.5283203-4.1533203-1.5844727-5.4306641-1.0566406-1.2773438-2.5639648-1.9160156-4.5229492-1.9160156-1.7480469,0-3.1020508.6435547-4.0620117,1.9306641-.9604492,1.2871094-1.4404297,3.1015625-1.4404297,5.4443359v.0292969c0,2.1318359.5039062,3.7695312,1.5126953,4.9111328,1.0078125,1.1435547,2.434082,1.7148438,4.277832,1.7148438,1.862793,0,3.2983398-.5761719,4.3071289-1.7285156Z"/>
        <path class="cls-1" d="m322.5318361,41.3544922c-1.7480469-.9882812-3.078125-2.4287109-3.9902344-4.3212891-.9121094-1.890625-1.3681641-4.171875-1.3681641-6.8417969v-.0283203c0-1.5556641.1821289-3.1884766.5473633-4.8974609.3647461-1.7089844.8930664-3.3896484,1.5844727-5.0419922.1152344-.2880859.2397461-.5712891.3745117-.8496094.1342773-.2783203.2685547-.5517578.4033203-.8212891l9.1035156-18.0341797h6.3378906l-10.6879883,20.8867188.0288086-1.0371094c.4799805-.9023438,1.1811523-1.6035156,2.1030273-2.1035156.921875-.4990234,1.9970703-.7490234,3.2265625-.7490234,2.1699219,0,4.0332031.4902344,5.5888672,1.4697266s2.7368164,2.4052734,3.543457,4.2773438c.8066406,1.8730469,1.2099609,4.125,1.2099609,6.7558594v.0292969c0,2.6884766-.456543,4.9931641-1.3686523,6.9140625s-2.2470703,3.3798828-4.0039062,4.3789062c-1.7578125.9990234-3.8657227,1.4980469-6.3237305,1.4980469-2.4584961,0-4.5615234-.4941406-6.309082-1.484375Zm10.6162109-5.890625c1.0078125-1.1523438,1.512207-2.7949219,1.512207-4.9267578v-.0283203c0-2.3427734-.5283203-4.1533203-1.5844727-5.4306641-1.0566406-1.2773438-2.5639648-1.9160156-4.5229492-1.9160156-1.7480469,0-3.1020508.6435547-4.0620117,1.9306641-.9604492,1.2871094-1.4404297,3.1015625-1.4404297,5.4443359v.0292969c0,2.1318359.5039062,3.7695312,1.5126953,4.9111328,1.0078125,1.1435547,2.434082,1.7148438,4.277832,1.7148438,1.862793,0,3.2983398-.5761719,4.3071289-1.7285156Z"/>
        <path class="cls-1" d="m354.3799806,41.5996094c-1.6425781-.8251953-2.9775391-2.0253906-4.0048828-3.6005859s-1.7138672-3.4667969-2.0595703-5.6757812v-.0283203h5.8769531v.0283203c.2109375,1.5371094.8256836,2.7324219,1.84375,3.5869141,1.0175781.8544922,2.3427734,1.2822266,3.9755859,1.2822266,1.8818359,0,3.3369141-.6289062,4.3642578-1.8876953,1.0273438-1.2568359,1.5415039-3.0292969,1.5415039-5.3144531v-3.5146484c0-2.2666016-.5141602-4.0283203-1.5415039-5.2871094-1.0273438-1.2568359-2.4824219-1.8867188-4.3642578-1.8867188-1.0180664,0-1.9975586.2880859-2.9384766.8642578-.9414062.5761719-1.7670898,1.3828125-2.4775391,2.4199219h-5.3583984V.5185547h21.347168v5.5888672h-15.4702148v9.4208984c.7294922-.5957031,1.5458984-1.0566406,2.4487305-1.3828125.9023438-.3261719,1.8242188-.4902344,2.765625-.4902344,2.4199219,0,4.4892578.5,6.2084961,1.4980469,1.7182617.9990234,3.0244141,2.4589844,3.9179688,4.3789062.8925781,1.9208984,1.3393555,4.2353516,1.3393555,6.9433594v3.5146484c0,2.7080078-.4609375,5.0224609-1.3828125,6.9423828-.921875,1.9208984-2.2666016,3.3847656-4.0332031,4.3935547-1.7670898,1.0078125-3.8891602,1.5126953-6.3666992,1.5126953-2.112793,0-3.9902344-.4130859-5.6318359-1.2392578Z"/>
        <path class="cls-1" d="m390.5489259,42.40625h-5.8769531V6.9140625l-5.9633789,3.6591797v-6.0791016l5.9633789-3.9755859h5.8769531v41.8876953Z"/>
      </g>
      <path class="cls-1" d="m31.5448375,16.9309024c3.1344916,1.5883098,5.1288526,3.7721311,5.1288526,6.0907063,0,3.9151153-3.7393493,5.0267648-5.1288526,5.0267648-1.3963623,0-5.1385252-1.1116495-5.1385252-5.0267648,0-2.3185752,1.9643929-4.5350388,5.1385252-6.0907063Zm-26.1665411,6.0907063c0-2.3185752,2.0024755-4.5023965,5.126249-6.0907063,3.1821762,1.5556676,5.1397338,3.7721311,5.1397338,6.0907063,0,3.9151153-3.7447665,5.0267648-5.1397338,5.0267648-1.3855047,0-5.126249-1.1116495-5.126249-5.0267648ZM0,33.8148894V14.4556724c2.7067945,0,5.4872433.5339935,7.909325,1.3990127-2.7122349,1.7477546-4.6739544,4.1671859-4.6739544,7.1669236,0,5.7079273,5.2774173,7.151858,7.2691747,7.151858,2.0052423,0,7.2758472-1.4439307,7.2758472-7.151858,0-2.9997377-1.991711-5.4191691-4.7066196-7.1669236,2.4561189-.9004514,5.2432636-1.3990127,7.948826-1.3990127,2.7176519,0,5.4954502.4985613,7.9515691,1.3990127-2.7081895,1.7477546-4.7066196,4.1671859-4.7066196,7.1669236,0,5.7079273,5.2760453,7.151858,7.277289,7.151858,1.9915711,0,7.2690114-1.4439307,7.2690114-7.151858,0-2.9997377-1.961603-5.4191691-4.6711875-7.1669236,2.4192918-.8650192,5.2079709-1.3990127,7.9202297-1.3990127v19.3592171H0ZM31.5748056,14.4365613c-3.1741086-1.3963623-6.9490061-2.1197923-10.5522067-2.1197923s-7.37675.7234301-10.5454182,2.1197923c-3.0964089-1.3963623-6.8780257-2.1197923-10.4771808-2.1197923v-3.9859796h42.0628912v3.9859796c-3.6059905,0-7.3835621.7234301-10.4880855,2.1197923Z"/>
    </g>
  </g>
</svg>