<?xml version="1.0" encoding="UTF-8"?>
<svg id="_レイヤー_2" data-name="レイヤー 2" xmlns="http://www.w3.org/2000/svg" viewBox="0 0 367.9558252 68.3007002">
  <defs>
    <style>
      .cls-1 {
        fill: #231815;
      }

      .cls-1, .cls-2, .cls-3 {
        stroke-width: 0px;
      }

      .cls-2 {
        fill: #e50012;
      }

      .cls-3 {
        fill: #004da0;
      }
    </style>
  </defs>
  <g id="_レイヤー_1-2" data-name="レイヤー 1">
    <g>
      <g>
        <g>
          <polygon class="cls-1" points="77.7220582 0 65.2106229 0 48.814304 23.7714869 48.814304 41.9746262 54.7564315 33.2964618 54.7564315 68.3007002 65.4542408 68.3007002 65.4542408 17.8477316 77.7220582 0"/>
          <polygon class="cls-1" points="105.0939391 42.962947 130.358913 42.962947 133.1679224 32.7450239 105.0939391 32.7450239 105.0939391 20.9526076 130.3789774 20.9526076 133.1004936 10.9430663 105.0939391 10.9430663 105.0939391 .002315 94.2883163 .002315 94.2883163 10.9430663 73.9379528 10.9430663 71.1289434 20.9526076 94.2080589 20.9526076 94.2080589 32.7450239 71.2894583 32.7450239 68.4804489 42.962947 94.2883163 42.962947 94.2883163 57.3037917 71.0454026 57.3037917 68.0431408 68.2819099 130.3990418 68.2819099 133.368566 57.3037917 105.0939391 57.3037917 105.0939391 42.962947"/>
        </g>
        <polygon class="cls-1" points="169.0690832 19.068371 160.6382109 19.068371 160.6382109 .0568356 149.7722691 .0568356 149.7722691 19.068371 144.3548939 19.068371 141.4656271 30.0011283 149.7722691 30.0011283 149.7722691 68.2597499 160.6382109 68.2597499 160.6382109 30.0011283 166.1447811 30.0011283 169.0690832 19.068371"/>
        <path class="cls-1" d="m200.8561115,31.1848748l.0161147,3.9284188h-2.484253l-1.9954767,8.3200839h4.4498557v13.8970086h-3.2237123l-2.9326736,10.9181783h4.7044903c6.6939301-.3480483,10.0446614-3.8077527,10.3964273-8.4949308v-16.3202561h6.307537l-.0149988,13.9097214-3.4314458.0055927-2.9566339,10.9135229h5.3413711c6.6702198-.3480483,9.2666726-3.7531524,9.6197205-8.4403304v-24.7185897l-14.6827891.0099992v-3.9309827l-9.1135334.0025639Z"/>
        <path class="cls-1" d="m171.6328225,31.1848748l.0161147,3.9284188h-2.8855401l-1.9954767,8.3200839h4.8511428v13.8970086h-3.8657716l-2.9326736,10.9181783h5.3465496c6.6939301-.3480483,10.0446614-3.8077527,10.3964273-8.4949308v-16.3202561h6.307537l-.0149988,13.9097214-3.4314458.0055927-2.9566339,10.9135229h5.3413711c6.6702198-.3480483,9.2666726-3.7531524,9.6197205-8.4403304v-24.7185897l-14.6827891.0099992v-3.9309827l-9.1135334.0025639Z"/>
        <path class="cls-1" d="m200.8821089,19.0590952h11.6142461v-4.0509593h-13.8490035v2.8564502c0,7.8863183-7.2625925,11.5024897-13.0553747,11.5024897h-14.0775126l.0075635-10.3541266h16.4126406v-4.0048132h-18.9085064l2.4674891-9.5806975h16.4410173V.0117741h10.6957584v5.4156643l23.0123544.037561v15.9474996c-.3404786,5.0250989-2.7041362,7.9346029-9.1464261,7.9621647h-11.6342444l.0199984-10.3155685Z"/>
      </g>
      <g>
        <polygon class="cls-2" points="13.8658765 15.6261508 13.8658765 31.8197936 27.7497362 31.8197936 27.7497362 48.0313275 37 38.7676247 37 15.6261508 13.8658765 15.6261508"/>
        <polygon class="cls-3" points="23.1341235 52.6745494 23.1341235 36.4809066 9.2502638 36.4809065 9.2502638 20.2693727 0 29.5330754 0 52.6745494 23.1341235 52.6745494"/>
      </g>
      <g>
        <g>
          <path class="cls-1" d="m263.6384424,36.0346274c-5.3642578-2.7851562-8.7412109-7.1733398-10.1337891-13.1645508-1.4628906,6.7568359-4.9814453,11.3540039-10.5527344,13.7915039l-1.2539062-2.4033203c6.0595703-2.5073242,9.3330078-7.3476562,9.8212891-14.5224609l1.3583984.1044922v-3.34375h-5.4335938v-1.9848633h7.8359375v3.7612305c0,6.6865234,3.2734375,11.737793,9.8212891,15.1494141l-1.4628906,2.6123047Z"/>
          <path class="cls-1" d="m277.7859033,22.3476157h-7.4179688v14.5224609h-2.0898438V13.9892173h9.5078125v8.3583984Zm-2.0898438-5.0151367v-1.671875h-5.328125v1.671875h5.328125Zm0,1.671875h-5.328125v1.6713867h5.328125v-1.6713867Zm8.4628906,5.1191406v10.2392578h-2.0898438v-.8359375h-5.5371094v1.671875h-2.0898438v-11.0751953h9.7167969Zm-2.0898438,1.671875h-5.5371094v2.2988281h5.5371094v-2.2988281Zm0,3.9702148h-5.5371094v2.0898438h5.5371094v-2.0898438Zm5.9560547,4.597168v-12.0151367h-7.5224609v-8.3583984h9.6113281v21.1049805c0,1.1132812-.5576172,1.671875-1.6708984,1.671875h-2.0898438l-.2089844-1.9853516h1.4628906c.2773438,0,.4179688-.1386719.4179688-.4179688Zm0-17.0302734v-1.671875h-5.4335938v1.671875h5.4335938Zm0,1.671875h-5.4335938v1.6713867h5.4335938v-1.6713867Z"/>
          <path class="cls-1" d="m316.8610986,34.2582602l-.8359375,2.6118164c-4.5966797-1.0444336-8.0800781-2.5073242-10.4472656-4.3876953-3.0664062,1.9506836-6.7919922,3.4477539-11.1796875,4.4921875l-.9404297-2.402832c4.109375-.765625,7.5566406-1.9492188,10.34375-3.5522461-1.8125-2.0195312-3.2050781-4.2480469-4.1796875-6.6870117h-3.2382812v-1.9848633h7.6269531v-3.7612305h-10.0302734v-1.9853516h10.0302734v-3.3432617h2.2988281c.6953125.140625.7304688.4179688.1044922.8359375v2.5073242h10.1337891v1.9853516h-10.1337891v3.7612305h4.8056641l.6269531-.6269531,1.7763672,1.5673828-.4179688.2089844c-1.7421875,3.2045898-3.6572266,5.7119141-5.7470703,7.5224609,2.2988281,1.4628906,5.4335938,2.543457,9.4033203,3.2387695Zm-14.7314453-9.9257812c.9042969,2.0898438,2.0898438,3.831543,3.5527344,5.2241211,1.6708984-1.3925781,3.0634766-3.1342773,4.1787109-5.2241211h-7.7314453Z"/>
          <path class="cls-1" d="m319.7028955,34.9897056c1.6015625-2.0898438,2.4033203-4.4926758,2.4033203-7.2089844v-11.9111328h8.5673828v-2.925293h2.2978516c.6962891.140625.7314453.4179688.1044922.8359375v2.0893555h9.2988281v1.9853516h-18.1787109v10.0302734c0,3.4135742-.90625,6.3388672-2.7167969,8.7763672l-1.7763672-1.671875Zm13.5820312-15.9853516c.5566406.0698242.5917969.2788086.1044922.6269531v2.1938477h8.3583984v1.9853516h-8.3583984v3.2387695h7.0009766v9.6123047h-2.0898438v-1.1494141h-9.7167969v1.3579102h-2.0898438v-9.8208008h4.8066406v-8.0449219h1.984375Zm5.015625,14.5224609v-4.4926758h-9.7167969v4.4926758h9.7167969Z"/>
        </g>
        <g>
          <path class="cls-1" d="m242.3679346,47.0497641v-2.6206055h.9394531c.2636719.0332031.2802734.1323242.0498047.296875v2.3237305h1.2363281v.9394531h-1.2363281v3.90625l1.4833984-.4453125v.9892578l-3.3623047,1.1865234c-.0332031.2641602-.1162109.3295898-.2470703.1977539l-.3955078-1.2363281,1.5322266-.3955078v-4.2026367h-1.3349609v-.9394531h1.3349609Zm8.6533203,2.8183594v4.746582c0,.4282227-.2148438.6425781-.6435547.6425781h-1.3837891l-.1982422-.9389648h1.0390625c.1308594,0,.1972656-.0668945.1972656-.1982422v-4.2519531h-5.4384766v-.9394531h7.4658203v.9394531h-1.0380859Zm-5.7851562-1.0878906l-.3457031-.9887695c1.5488281-.2299805,2.4716797-.7246094,2.7685547-1.4833984h-2.5214844v-.9394531h2.5703125v-1.2851562h.9394531c.2636719.0332031.2802734.1318359.0498047.2963867v.9887695h2.7685547v.9394531h-2.71875c.4941406.6923828,1.4658203,1.1542969,2.9169922,1.3847656l-.2470703,1.0380859c-1.4511719-.2299805-2.5058594-.7416992-3.1650391-1.5327148-.6259766.8574219-1.6308594,1.3842773-3.015625,1.5820312Zm1.0878906,4.7963867v.4448242h-.8408203v-3.3129883h3.4121094v2.8681641h-2.5712891Zm0-.7915039h1.7304688v-1.2851562h-1.7304688v1.2851562Z"/>
          <path class="cls-1" d="m259.2976221,46.0609946v2.769043h3.7578125v1.0874023h-3.7578125v3.4614258h4.8955078v1.0874023h-10.6308594v-1.0874023h4.5986328v-3.4614258h-3.4121094v-1.0874023h3.4121094v-2.769043h-4.0048828v-1.0878906h9.5917969v1.0878906h-4.4501953Zm1.6318359,4.1533203c.6259766.4287109,1.21875,1.0551758,1.7802734,1.8789062l-1.0878906.7416992c-.4619141-.7578125-.9892578-1.4008789-1.5820312-1.9282227l.8896484-.6923828Z"/>
          <path class="cls-1" d="m266.7146143,55.1586509l-.7412109-.9394531c1.0537109-.6259766,1.8945312-1.3671875,2.5214844-2.2250977l.9394531.5439453c.1640625.1323242.1152344.230957-.1484375.296875-.5615234.7910156-1.4179688,1.5649414-2.5712891,2.3237305Zm.5439453-3.609375v.4946289h-.9892578v-7.1201172h.9394531c.2636719.0332031.2802734.1318359.0498047.296875v5.3891602h9.0976562v.9394531h-4.5986328v3.8071289h-1.1367188v-3.8071289h-3.3623047Zm1.1865234-1.5820312v-5.6860352h6.2792969v5.6860352h-6.2792969Zm.9892578-4.1040039h4.3007812v-.7910156h-4.3007812v.7910156Zm0,1.5820312h4.3007812v-.7910156h-4.3007812v.7910156Zm0,1.7304688h4.3007812v-.9394531h-4.3007812v.9394531Zm4.1533203,2.769043c.6582031.659668,1.6308594,1.3188477,2.9169922,1.9775391l-.59375,1.0385742c-1.1210938-.527832-2.1757812-1.2856445-3.1640625-2.2744141l.8408203-.7416992Z"/>
          <path class="cls-1" d="m288.2321924,54.8617759c-2.5380859-1.3178711-4.1367188-3.3945312-4.7958984-6.2294922-.6923828,3.1972656-2.3574219,5.3730469-4.9941406,6.5263672l-.5927734-1.137207c2.8671875-1.1865234,4.4169922-3.4775391,4.6474609-6.8725586l.6425781.0493164v-1.5820312h-2.5703125v-.9394531h3.7080078v1.7797852c0,3.1645508,1.5488281,5.5546875,4.6474609,7.1694336l-.6923828,1.2358398Z"/>
          <path class="cls-1" d="m294.9265283,48.3847251h-3.5097656v6.8725586h-.9892578v-10.828125h4.4990234v3.9555664Zm-.9882812-2.3730469v-.7910156h-2.5214844v.7910156h2.5214844Zm0,.7910156h-2.5214844v.7910156h2.5214844v-.7910156Zm4.0048828,2.4228516v4.8452148h-.9892578v-.3955078h-2.6201172v.7910156h-.9892578v-5.2407227h4.5986328Zm-.9892578.7910156h-2.6201172v1.0878906h2.6201172v-1.0878906Zm0,1.8789062h-2.6201172v.9887695h2.6201172v-.9887695Zm2.8183594,2.175293v-5.6860352h-3.5595703v-3.9555664h4.5488281v9.987793c0,.5268555-.2646484.7910156-.7910156.7910156h-.9892578l-.0986328-.9394531h.6923828c.1308594,0,.1972656-.0654297.1972656-.1977539Zm0-8.059082v-.7910156h-2.5712891v.7910156h2.5712891Zm0,.7910156h-2.5712891v.7910156h2.5712891v-.7910156Z"/>
          <path class="cls-1" d="m310.9568018,52.8842368c.1308594,0,.1972656-.065918.1972656-.1977539v-3.5107422h-2.7685547v6.1313477h-1.1367188v-6.1313477h-2.5224609v4.7963867h-1.1367188v-5.7358398h3.6591797v-1.5327148h-4.9443359v-.9394531h4.9443359v-1.5820312h1.0869141c.2636719.0332031.2802734.1323242.0498047.296875v1.2851562h5.0927734v.9394531h-5.0927734v1.5327148h3.90625v4.9448242c0,.5273438-.2646484.7910156-.7910156.7910156h-1.2861328l-.0986328-1.0878906h.8408203Z"/>
          <path class="cls-1" d="m322.5261377,53.0326743l-.5439453,1.1865234h3.90625v.7910156h-11.2236328v-.7910156h3.7578125l-.59375-1.1865234h-1.1865234v-2.1259766h7.2685547v2.1259766h-1.3847656Zm-7.6630859-2.8183594v-.7910156h10.7285156v.7910156h-10.7285156Zm4.4492188-5.9331055v.6918945h1.7802734v-.9887695h.7910156c.2636719.0332031.2802734.1323242.0498047.296875v.6918945h2.7685547v3.7578125h-8.9492188v-3.7578125h2.7197266v-.9887695h.7910156c.2626953.0332031.2792969.1323242.0488281.296875Zm-2.5703125,2.2246094h1.7304688v-.9394531h-1.7304688v.9394531Zm0,1.6318359h1.7304688v-1.0385742h-1.7304688v1.0385742Zm.7412109,4.3017578h5.5869141v-.9394531h-5.5869141v.9394531Zm1.9775391,1.7797852h1.5820312l.4453125-1.1865234h-2.5214844l.4941406,1.1865234Zm1.6318359-7.7133789v-.9394531h-1.7802734v.9394531h1.7802734Zm-1.7802734,1.6318359h1.7802734v-1.0385742h-1.7802734v1.0385742Zm4.4003906-2.5712891h-1.7792969v.9394531h1.7792969v-.9394531Zm-1.7792969,2.5712891h1.7792969v-1.0385742h-1.7792969v1.0385742Z"/>
          <path class="cls-1" d="m327.5105127,44.5282798h9.9882812v9.7402344c0,.5268555-.2646484.7910156-.7919922.7910156h-1.1367188l-.2470703-1.0874023h.9882812c.1318359,0,.1982422-.065918.1982422-.1977539v-8.3066406h-8.0097656v9.6416016h-.9892578v-10.5810547Zm7.2685547,1.6313477c.1308594.1655273.0820312.2646484-.1484375.296875l-.6923828,1.434082h2.1259766v.9394531h-3.0654297v3.5595703h1.3349609v-2.6699219h.9394531c.2636719.0332031.2802734.1323242.0498047.296875v3.4609375h-.9892578v-.1484375h-3.6591797v.4453125h-.9882812v-4.0546875h.9394531c.2636719.0332031.2792969.1323242.0488281.296875v2.3730469h1.3359375v-3.5595703h-3.0166016v-.9394531h4.0546875l.7910156-2.0766602.9394531.3457031Zm-3.9560547-.2470703c.3623047.296875.6757812.7255859.9394531,1.2856445l-.8398438.5439453c-.2314453-.4614258-.5283203-.90625-.890625-1.3349609l.7910156-.4946289Z"/>
          <path class="cls-1" d="m341.0778955,54.1200766v-7.6635742h-1.4833984v-.5932617c1.1533203,0,1.8291016-.4614258,2.0273438-1.3842773h.5927734v9.6411133h-1.1367188Z"/>
          <path class="cls-1" d="m350.0671533,49.2748618v.7910156h-5.6367188v-.7910156h5.6367188Z"/>
          <path class="cls-1" d="m354.2985986,45.6161704c-.1318359-.1313477-.2958984-.1977539-.4941406-.1977539-.2636719,0-.4941406.0986328-.6923828.2963867-.5605469.5610352-.90625,1.6650391-1.0380859,3.3129883.4609375-.7583008,1.0214844-1.137207,1.6816406-1.137207.4941406,0,.9384766.1977539,1.3349609.5932617.5263672.5273438.7910156,1.3349609.7910156,2.4228516,0,1.1865234-.28125,2.0600586-.8408203,2.6201172-.3955078.3955078-.9072266.5932617-1.5332031.5932617-.5605469,0-1.0712891-.2299805-1.5322266-.6918945-.6923828-.6923828-1.0380859-2.0273438-1.0380859-4.0048828,0-1.9448242.4765625-3.3950195,1.4335938-4.3510742.3955078-.3955078.8896484-.5932617,1.4833984-.5932617.4941406,0,.8896484.1479492,1.1865234.4448242.4609375.4619141.7080078,1.0551758.7412109,1.7797852h-1.1367188c0-.4941406-.1162109-.8564453-.3466797-1.0874023Zm-1.5322266,3.5102539c-.3955078.3955078-.59375.9233398-.59375,1.5820312,0,1.0224609.2304688,1.7641602.6923828,2.2250977.1982422.1977539.4277344.296875.6923828.296875.2636719,0,.5107422-.1152344.7412109-.3461914.296875-.296875.4453125-.9555664.4453125-1.9775391,0-.8901367-.1650391-1.5-.4941406-1.8295898-.1982422-.1977539-.4287109-.296875-.6923828-.296875-.296875,0-.5605469.1162109-.7910156.3461914Z"/>
          <path class="cls-1" d="m362.3093408,49.2748618v.7910156h-5.6367188v-.7910156h5.6367188Z"/>
          <path class="cls-1" d="m364.4948877,54.1200766l2.421875-8.7016602h-3.6582031v-.9394531h4.6972656v1.0380859l-2.3242188,8.6030273h-1.1367188Z"/>
        </g>
      </g>
    </g>
  </g>
</svg>