<?xml version="1.0" encoding="UTF-8"?>
<svg id="_レイヤー_2" data-name="レイヤー 2" xmlns="http://www.w3.org/2000/svg" viewBox="0 0 401.0301397 42.8383789">
  <defs>
    <style>
      .cls-1 {
        fill: #d21619;
        stroke-width: 0px;
      }
    </style>
  </defs>
  <g id="_レイヤー_1-2" data-name="レイヤー 1">
    <g>
      <g>
        <path class="cls-1" d="m59.1151007,39.6982422c-2.0263672-2.0932617-3.0390625-5.0126953-3.0390625-8.7578125V11.8979492c0-3.7641602,1.0175781-6.6879883,3.0537109-8.7719727,2.0356445-2.0839844,5.0029297-3.1259766,8.9018555-3.1259766,3.9179688,0,6.8896484,1.0371094,8.9165039,3.1113281,2.0258789,2.0742188,3.0390625,5.003418,3.0390625,8.7866211v19.0424805c0,3.7646484-1.0180664,6.6884766-3.0537109,8.7724609-2.0361328,2.0839844-5.003418,3.1254883-8.9018555,3.1254883-3.9179688,0-6.8901367-1.0463867-8.9165039-3.1401367Zm13.5117188-4.0761719c.9887695-1.0849609,1.4833984-2.6455078,1.4833984-4.6816406V11.8979492c0-2.0356445-.4897461-3.5961914-1.4692383-4.6811523s-2.5161133-1.6279297-4.609375-1.6279297c-2.09375,0-3.6298828.5429688-4.609375,1.6279297s-1.4692383,2.6455078-1.4692383,4.6811523v19.0424805c0,2.0361328.4941406,3.5966797,1.4833984,4.6816406s2.5209961,1.6274414,4.5952148,1.6274414,3.6054688-.5424805,4.5952148-1.6274414Z"/>
        <path class="cls-1" d="m98.7415655,42.40625h-5.8769531V6.9140625l-5.9633789,3.6586914v-6.0786133l5.9633789-3.9755859h5.8769531v41.8876953Z"/>
        <path class="cls-1" d="m107.6146124,37.3071289l14.605957-19.4746094c.8447266-1.1137695,1.5024414-2.2709961,1.9731445-3.4711914s.7060547-2.3193359.7060547-3.3564453v-.0576172c0-1.6708984-.4897461-2.9672852-1.4692383-3.8891602s-2.3720703-1.3828125-4.1772461-1.3828125c-1.7094727,0-3.0922852.5043945-4.1484375,1.512207-1.0566406,1.0087891-1.699707,2.4345703-1.9301758,4.2783203v.0288086h-6.0786133v-.0288086c.3457031-2.4003906,1.0517578-4.4511719,2.1171875-6.1503906,1.0664062-1.7001953,2.4438477-2.9960938,4.1342773-3.8896484,1.6899414-.8925781,3.6391602-1.3393555,5.8481445-1.3393555,2.496582,0,4.628418.4277344,6.3955078,1.2817383,1.7666016.8549805,3.1113281,2.0986328,4.0332031,3.730957.921875,1.6328125,1.3828125,3.6010742,1.3828125,5.9057617v.0288086c0,1.4790039-.3076172,3.0249023-.921875,4.6381836-.6147461,1.6132812-1.4692383,3.1689453-2.5639648,4.6669922l-12.128418,16.4785156h15.8447266v5.5888672h-23.6230469v-5.0991211Z"/>
        <path class="cls-1" d="m141.7669561,39.6982422c-2.0263672-2.0932617-3.0390625-5.0126953-3.0390625-8.7578125V11.8979492c0-3.7641602,1.0175781-6.6879883,3.0537109-8.7719727,2.0356445-2.0839844,5.0029297-3.1259766,8.9018555-3.1259766,3.9179688,0,6.8896484,1.0371094,8.9165039,3.1113281,2.0258789,2.0742188,3.0390625,5.003418,3.0390625,8.7866211v19.0424805c0,3.7646484-1.0180664,6.6884766-3.0537109,8.7724609-2.0361328,2.0839844-5.003418,3.1254883-8.9018555,3.1254883-3.9179688,0-6.8901367-1.0463867-8.9165039-3.1401367Zm13.5117188-4.0761719c.9887695-1.0849609,1.4833984-2.6455078,1.4833984-4.6816406V11.8979492c0-2.0356445-.4897461-3.5961914-1.4692383-4.6811523s-2.5161133-1.6279297-4.609375-1.6279297c-2.09375,0-3.6298828.5429688-4.609375,1.6279297s-1.4692383,2.6455078-1.4692383,4.6811523v19.0424805c0,2.0361328.4941406,3.5966797,1.4833984,4.6816406s2.5209961,1.6274414,4.5952148,1.6274414,3.6054688-.5424805,4.5952148-1.6274414Z"/>
        <path class="cls-1" d="m190.9290655,24.6025391v5.5888672h-19.359375v-5.5888672h19.359375Z"/>
        <path class="cls-1" d="m204.2098272,41.5566406c-1.7861328-.8544922-3.222168-2.0932617-4.3071289-3.7167969-1.0849609-1.6225586-1.7714844-3.5766602-2.0595703-5.8623047h5.9921875c.1728516,1.190918.5473633,2.1704102,1.1235352,2.9384766.5761719.7685547,1.3203125,1.3398438,2.2329102,1.7138672.9116211.375,1.9824219.5620117,3.2119141.5620117,1.9394531,0,3.4472656-.5185547,4.5229492-1.5556641,1.0751953-1.0371094,1.6132812-2.496582,1.6132812-4.3789062v-1.2675781c0-2.0932617-.5092773-3.7114258-1.5268555-4.8540039-1.0180664-1.1425781-2.4584961-1.7143555-4.3212891-1.7143555h-2.9672852v-5.5888672h2.9672852c1.6323242,0,2.8999023-.4897461,3.8027344-1.4692383.9023438-.9794922,1.3540039-2.3623047,1.3540039-4.1484375v-1.2963867c0-1.6513672-.4750977-2.9287109-1.4262695-3.831543-.9501953-.9023438-2.2998047-1.3540039-4.0473633-1.3540039-.9990234,0-1.8920898.1870117-2.6791992.5620117-.7875977.3740234-1.4550781.9501953-2.0019531,1.7285156-.5478516.7773438-.9462891,1.7524414-1.1958008,2.9238281h-5.9633789c.3837891-2.2851562,1.109375-4.2441406,2.1748047-5.8769531,1.0664062-1.6323242,2.4150391-2.8710938,4.0478516-3.7163086,1.6323242-.8447266,3.5048828-1.2675781,5.6176758-1.2675781,3.6103516,0,6.4047852.9506836,8.3833008,2.8520508,1.9780273,1.9013672,2.9672852,4.5805664,2.9672852,8.0375977v.6914062c0,2.09375-.5668945,3.9179688-1.699707,5.4736328-1.1333008,1.5556641-2.7368164,2.6889648-4.8110352,3.3994141,2.2851562.4995117,4.0571289,1.6230469,5.3149414,3.3706055,1.2578125,1.7480469,1.887207,3.9755859,1.887207,6.6835938v.6914062c0,2.4394531-.4707031,4.5229492-1.4116211,6.2514648-.9414062,1.7285156-2.3095703,3.0444336-4.1054688,3.9467773-1.7958984.902832-3.9609375,1.3540039-6.4960938,1.3540039-2.3432617,0-4.4077148-.4277344-6.1938477-1.2817383Z"/>
        <path class="cls-1" d="m236.3602179,41.3979492c-1.9208984-.9599609-3.4042969-2.3188477-4.4511719-4.0766602-1.046875-1.7568359-1.5698242-3.7973633-1.5698242-6.121582v-.6914062c0-2.0932617.5229492-4.0620117,1.5698242-5.9057617s2.4438477-3.2358398,4.1918945-4.1772461c-1.4790039-.8066406-2.6645508-1.9731445-3.5581055-3.5004883-.8925781-1.5263672-1.3393555-3.1347656-1.3393555-4.8251953v-1.0083008c0-2.1894531.4897461-4.1147461,1.4692383-5.7758789s2.3623047-2.9482422,4.1484375-3.8603516,3.8603516-1.3686523,6.2226562-1.3686523,4.4365234.456543,6.2226562,1.3686523,3.1689453,2.1992188,4.1484375,3.8603516,1.4692383,3.5864258,1.4692383,5.7758789v1.0083008c0,1.7285156-.456543,3.3515625-1.3686523,4.8686523-.9121094,1.5175781-2.1171875,2.6699219-3.6152344,3.4570312,1.7666016.9604492,3.1835938,2.3579102,4.2490234,4.1918945,1.0664062,1.8339844,1.5991211,3.7978516,1.5991211,5.8911133v.6914062c0,2.3242188-.5234375,4.3647461-1.5698242,6.121582-1.0473633,1.7578125-2.5307617,3.1166992-4.4511719,4.0766602-1.9208984.9604492-4.1484375,1.4404297-6.6835938,1.4404297s-4.7631836-.4799805-6.6835938-1.4404297Zm10.284668-5.0126953c1.0371094-.5375977,1.8388672-1.2915039,2.4057617-2.2612305.565918-.9697266.8496094-2.0888672.8496094-3.3564453v-.4033203c0-1.2866211-.2836914-2.4150391-.8496094-3.3847656-.5668945-.9697266-1.3686523-1.7236328-2.4057617-2.2617188-1.0371094-.5375977-2.237793-.8066406-3.6010742-.8066406-1.3637695,0-2.5639648.269043-3.6010742.8066406-1.0371094.5380859-1.8393555,1.2963867-2.4057617,2.2758789s-.8496094,2.112793-.8496094,3.3994141v.4321289c0,1.2675781.2832031,2.3818359.8496094,3.3417969.5664062.9604492,1.3686523,1.7045898,2.4057617,2.2324219,1.0371094.5288086,2.2373047.7924805,3.6010742.7924805,1.3632812,0,2.5639648-.2685547,3.6010742-.8066406Zm-.4897461-18.8842773c.9023438-.5083008,1.6035156-1.2333984,2.1030273-2.1748047.4990234-.940918.7490234-2.0258789.7490234-3.2553711v-.4033203c0-1.1713867-.25-2.2084961-.7490234-3.1113281-.4995117-.9023438-1.2006836-1.5991211-2.1030273-2.0883789-.902832-.4902344-1.9399414-.7348633-3.1113281-.7348633-1.171875,0-2.2089844.2446289-3.1113281.7348633-.902832.4892578-1.6040039,1.1860352-2.1030273,2.0883789-.4995117.902832-.7490234,1.949707-.7490234,3.1401367v.4321289c0,1.2099609.2495117,2.2807617.7490234,3.2124023.4990234.9316406,1.2001953,1.6518555,2.1030273,2.1601562.9023438.5092773,1.9394531.7636719,3.1113281.7636719,1.1713867,0,2.2084961-.2543945,3.1113281-.7636719Z"/>
        <path class="cls-1" d="m283.6063116,24.6025391v5.5888672h-19.359375v-5.5888672h19.359375Z"/>
        <path class="cls-1" d="m295.2879522,39.6982422c-2.0263672-2.0932617-3.0390625-5.0126953-3.0390625-8.7578125V11.8979492c0-3.7641602,1.0175781-6.6879883,3.0537109-8.7719727,2.0356445-2.0839844,5.0029297-3.1259766,8.9018555-3.1259766,3.9179688,0,6.8896484,1.0371094,8.9165039,3.1113281,2.0258789,2.0742188,3.0390625,5.003418,3.0390625,8.7866211v19.0424805c0,3.7646484-1.0180664,6.6884766-3.0537109,8.7724609-2.0361328,2.0839844-5.003418,3.1254883-8.9018555,3.1254883-3.9179688,0-6.8901367-1.0463867-8.9165039-3.1401367Zm13.5117188-4.0761719c.9887695-1.0849609,1.4833984-2.6455078,1.4833984-4.6816406V11.8979492c0-2.0356445-.4897461-3.5961914-1.4692383-4.6811523s-2.5161133-1.6279297-4.609375-1.6279297c-2.09375,0-3.6298828.5429688-4.609375,1.6279297s-1.4692383,2.6455078-1.4692383,4.6811523v19.0424805c0,2.0361328.4941406,3.5966797,1.4833984,4.6816406s2.5209961,1.6274414,4.5952148,1.6274414,3.6054688-.5424805,4.5952148-1.6274414Z"/>
        <path class="cls-1" d="m327.8416632,39.6982422c-2.0263672-2.0932617-3.0390625-5.0126953-3.0390625-8.7578125V11.8979492c0-3.7641602,1.0175781-6.6879883,3.0537109-8.7719727,2.0356445-2.0839844,5.0029297-3.1259766,8.9018555-3.1259766,3.9179688,0,6.8896484,1.0371094,8.9165039,3.1113281,2.0258789,2.0742188,3.0390625,5.003418,3.0390625,8.7866211v19.0424805c0,3.7646484-1.0180664,6.6884766-3.0537109,8.7724609-2.0361328,2.0839844-5.003418,3.1254883-8.9018555,3.1254883-3.9179688,0-6.8901367-1.0463867-8.9165039-3.1401367Zm13.5117188-4.0761719c.9887695-1.0849609,1.4833984-2.6455078,1.4833984-4.6816406V11.8979492c0-2.0356445-.4897461-3.5961914-1.4692383-4.6811523s-2.5161133-1.6279297-4.609375-1.6279297c-2.09375,0-3.6298828.5429688-4.609375,1.6279297s-1.4692383,2.6455078-1.4692383,4.6811523v19.0424805c0,2.0361328.4941406,3.5966797,1.4833984,4.6816406s2.5209961,1.6274414,4.5952148,1.6274414,3.6054688-.5424805,4.5952148-1.6274414Z"/>
        <path class="cls-1" d="m356.7801397,30.8828125l14.0585938-30.3354492h6.0498047l-13.7128906,29.9897461h20.5405273v5.4448242h-26.9360352v-5.0991211Zm18.0629883-13.1079102h5.7329102v24.6601562h-5.7329102v-24.6601562Z"/>
        <path class="cls-1" d="m401.0301397,42.40625h-5.8769531V6.9140625l-5.9633789,3.6586914v-6.0786133l5.9633789-3.9755859h5.8769531v41.8876953Z"/>
      </g>
      <path class="cls-1" d="m31.5448375,16.930775c3.1344916,1.5883098,5.1288526,3.7721311,5.1288526,6.0907063,0,3.9151153-3.7393493,5.0267648-5.1288526,5.0267648-1.3963623,0-5.1385252-1.1116495-5.1385252-5.0267648,0-2.3185752,1.9643929-4.5350388,5.1385252-6.0907063Zm-26.1665411,6.0907063c0-2.3185752,2.0024755-4.5023965,5.126249-6.0907063,3.1821762,1.5556676,5.1397338,3.7721311,5.1397338,6.0907063,0,3.9151153-3.7447665,5.0267648-5.1397338,5.0267648-1.3855047,0-5.126249-1.1116495-5.126249-5.0267648ZM0,33.814762V14.455545c2.7067945,0,5.4872433.5339935,7.909325,1.3990127-2.7122349,1.7477546-4.6739544,4.1671859-4.6739544,7.1669236,0,5.7079273,5.2774173,7.151858,7.2691747,7.151858,2.0052423,0,7.2758472-1.4439307,7.2758472-7.151858,0-2.9997377-1.991711-5.4191691-4.7066196-7.1669236,2.4561189-.9004514,5.2432636-1.3990127,7.948826-1.3990127,2.7176519,0,5.4954502.4985613,7.9515691,1.3990127-2.7081895,1.7477546-4.7066196,4.1671859-4.7066196,7.1669236,0,5.7079273,5.2760453,7.151858,7.277289,7.151858,1.9915711,0,7.2690114-1.4439307,7.2690114-7.151858,0-2.9997377-1.961603-5.4191691-4.6711875-7.1669236,2.4192918-.8650192,5.2079709-1.3990127,7.9202297-1.3990127v19.3592171H0ZM31.5748056,14.4364339c-3.1741086-1.3963623-6.9490061-2.1197923-10.5522067-2.1197923s-7.37675.7234301-10.5454182,2.1197923c-3.0964089-1.3963623-6.8780257-2.1197923-10.4771808-2.1197923v-3.9859796h42.0628912v3.9859796c-3.6059905,0-7.3835621.7234301-10.4880855,2.1197923Z"/>
    </g>
  </g>
</svg>