<?xml version="1.0" encoding="UTF-8"?>
<svg id="_レイヤー_2" data-name="レイヤー 2" xmlns="http://www.w3.org/2000/svg" viewBox="0 0 357.9179688 42.8378906">
  <defs>
    <style>
      .cls-1 {
        fill: #d21619;
        stroke-width: 0px;
      }
    </style>
  </defs>
  <g id="_レイヤー_1-2" data-name="レイヤー 1">
    <g>
      <path class="cls-1" d="m3.0390625,39.6982422c-2.0263672-2.09375-3.0390625-5.0126953-3.0390625-8.7578125V11.8974609c0-3.7636719,1.0175781-6.6875,3.0537109-8.7714844S8.0566406,0,11.9560547,0c3.9179688,0,6.8896484,1.0371094,8.9160156,3.1113281s3.0390625,5.0029297,3.0390625,8.7861328v19.0429688c0,3.7646484-1.0175781,6.6884766-3.0537109,8.7724609s-5.0029297,3.125-8.9013672,3.125c-3.9179688,0-6.890625-1.0458984-8.9169922-3.1396484Zm13.5117188-4.0761719c.9892578-1.0849609,1.4833984-2.6455078,1.4833984-4.6816406V11.8974609c0-2.0351562-.4892578-3.5957031-1.46875-4.6806641s-2.5166016-1.6279297-4.609375-1.6279297c-2.09375,0-3.6298828.5429688-4.609375,1.6279297s-1.4697266,2.6455078-1.4697266,4.6806641v19.0429688c0,2.0361328.4941406,3.5966797,1.4833984,4.6816406s2.5214844,1.6269531,4.5957031,1.6269531,3.6054688-.5419922,4.5947266-1.6269531Z"/>
      <path class="cls-1" d="m31.9775391,30.8828125L46.0361328.546875h6.0498047l-13.7128906,29.9902344h20.5410156v5.4443359h-26.9365234v-5.0986328Zm18.0634766-13.1083984h5.7324219v24.6601562h-5.7324219v-24.6601562Z"/>
      <path class="cls-1" d="m80.9521484,21.6064453l-.0283203,1.0371094c-.4804688.8837891-1.2060547,1.53125-2.1748047,1.9443359-.9707031.4130859-2.1181641.6191406-3.4433594.6191406-1.9970703,0-3.7548828-.5087891-5.2714844-1.5263672-1.5175781-1.0175781-2.6933594-2.453125-3.5292969-4.3066406-.8349609-1.8535156-1.2529297-4-1.2529297-6.4394531v-.0283203c0-2.7080078.4560547-5.0224609,1.3681641-6.9433594.9121094-1.9199219,2.2470703-3.3798828,4.0048828-4.3789062,1.7568359-.9980469,3.8642578-1.4980469,6.3232422-1.4980469,2.4580078,0,4.5605469.5097656,6.3085938,1.5273438s3.078125,2.4970703,3.9902344,4.4365234,1.3681641,4.2734375,1.3681641,7v.0292969c0,1.4980469-.1923828,3.0966797-.5761719,4.796875-.3837891,1.6992188-.9316406,3.3847656-1.6416016,5.0556641-.1152344.25-.2304688.5039062-.3457031.7636719-.1152344.2587891-.2402344.5136719-.375.7626953l-8.9306641,17.9482422h-6.3378906l10.5439453-20.7998047Zm.2744141-3.6298828c1.0078125-1.2480469,1.5117188-3.0058594,1.5117188-5.2724609v-.0283203c0-2.2089844-.5039062-3.9179688-1.5117188-5.1279297-1.0087891-1.2099609-2.4345703-1.8154297-4.2783203-1.8154297-1.8632812,0-3.2988281.6054688-4.3066406,1.8154297-1.0087891,1.2099609-1.5126953,2.9287109-1.5126953,5.15625v.0292969c0,2.2666016.5039062,4.0185547,1.5126953,5.2578125,1.0078125,1.2382812,2.4433594,1.8574219,4.3066406,1.8574219,1.84375,0,3.2695312-.6240234,4.2783203-1.8720703Z"/>
      <path class="cls-1" d="m116.0410156,24.6025391v5.5888672h-19.359375v-5.5888672h19.359375Z"/>
      <path class="cls-1" d="m124.0498047,37.3066406l14.6064453-19.4746094c.8447266-1.1132812,1.5019531-2.2705078,1.9726562-3.4707031s.7060547-2.3193359.7060547-3.3564453v-.0576172c0-1.6708984-.4892578-2.9677734-1.46875-3.8896484s-2.3720703-1.3828125-4.1777344-1.3828125c-1.7089844,0-3.0917969.5048828-4.1484375,1.5126953-1.0566406,1.0087891-1.6992188,2.4345703-1.9296875,4.2783203v.0283203h-6.0791016v-.0283203c.3457031-2.4003906,1.0517578-4.4511719,2.1171875-6.1503906,1.0664062-1.7001953,2.4443359-2.9960938,4.1347656-3.8896484,1.6894531-.8925781,3.6386719-1.3398438,5.8476562-1.3398438,2.4970703,0,4.6289062.4277344,6.3955078,1.2822266s3.1113281,2.0986328,4.0332031,3.7304688c.921875,1.6328125,1.3828125,3.6015625,1.3828125,5.90625v.0283203c0,1.4794922-.3076172,3.0253906-.921875,4.6386719s-1.46875,3.1689453-2.5634766,4.6669922l-12.1289062,16.4785156h15.8447266v5.5888672h-23.6230469v-5.0996094Z"/>
      <path class="cls-1" d="m154.5869141,30.8828125L168.6455078.546875h6.0498047l-13.7128906,29.9902344h20.5410156v5.4443359h-26.9365234v-5.0986328Zm18.0634766-13.1083984h5.7324219v24.6601562h-5.7324219v-24.6601562Z"/>
      <path class="cls-1" d="m194.7900391,41.5996094c-1.6425781-.8261719-2.9775391-2.0263672-4.0048828-3.6015625-1.0273438-1.5742188-1.7138672-3.4658203-2.0595703-5.6748047v-.0292969h5.8769531v.0292969c.2109375,1.5361328.8251953,2.7324219,1.84375,3.5869141,1.0175781.8544922,2.3427734,1.28125,3.9755859,1.28125,1.8818359,0,3.3369141-.6289062,4.3642578-1.8867188s1.5410156-3.0292969,1.5410156-5.3154297v-3.5146484c0-2.265625-.5136719-4.0283203-1.5410156-5.2861328s-2.4824219-1.8867188-4.3642578-1.8867188c-1.0185547,0-1.9980469.2880859-2.9384766.8642578-.9414062.5761719-1.7675781,1.3828125-2.4775391,2.4199219h-5.3583984V.5185547h21.3466797v5.5888672h-15.4697266v9.4199219c.7294922-.5947266,1.5458984-1.0556641,2.4482422-1.3828125.9023438-.3261719,1.8242188-.4892578,2.765625-.4892578,2.4199219,0,4.4892578.4990234,6.2089844,1.4980469,1.7177734.9990234,3.0244141,2.4580078,3.9179688,4.3789062.8925781,1.9208984,1.3388672,4.234375,1.3388672,6.9423828v3.5146484c0,2.7080078-.4609375,5.0224609-1.3828125,6.9433594s-2.2666016,3.3847656-4.0332031,4.3935547c-1.7666016,1.0078125-3.8886719,1.5117188-6.3662109,1.5117188-2.1132812,0-3.9902344-.4130859-5.6318359-1.2382812Z"/>
      <path class="cls-1" d="m240.4941406,24.6025391v5.5888672h-19.359375v-5.5888672h19.359375Z"/>
      <path class="cls-1" d="m252.1757812,39.6982422c-2.0263672-2.09375-3.0390625-5.0126953-3.0390625-8.7578125V11.8974609c0-3.7636719,1.0175781-6.6875,3.0537109-8.7714844s5.0029297-3.1259766,8.9023438-3.1259766c3.9179688,0,6.8896484,1.0371094,8.9160156,3.1113281s3.0390625,5.0029297,3.0390625,8.7861328v19.0429688c0,3.7646484-1.0175781,6.6884766-3.0537109,8.7724609s-5.0029297,3.125-8.9013672,3.125c-3.9179688,0-6.890625-1.0458984-8.9169922-3.1396484Zm13.5117188-4.0761719c.9892578-1.0849609,1.4833984-2.6455078,1.4833984-4.6816406V11.8974609c0-2.0351562-.4892578-3.5957031-1.46875-4.6806641s-2.5166016-1.6279297-4.609375-1.6279297c-2.09375,0-3.6298828.5429688-4.609375,1.6279297s-1.4697266,2.6455078-1.4697266,4.6806641v19.0429688c0,2.0361328.4941406,3.5966797,1.4833984,4.6816406s2.5214844,1.6269531,4.5957031,1.6269531,3.6054688-.5419922,4.5947266-1.6269531Z"/>
      <path class="cls-1" d="m284.7294922,39.6982422c-2.0263672-2.09375-3.0390625-5.0126953-3.0390625-8.7578125V11.8974609c0-3.7636719,1.0175781-6.6875,3.0537109-8.7714844s5.0029297-3.1259766,8.9023438-3.1259766c3.9179688,0,6.8896484,1.0371094,8.9160156,3.1113281s3.0390625,5.0029297,3.0390625,8.7861328v19.0429688c0,3.7646484-1.0175781,6.6884766-3.0537109,8.7724609s-5.0029297,3.125-8.9013672,3.125c-3.9179688,0-6.890625-1.0458984-8.9169922-3.1396484Zm13.5117188-4.0761719c.9892578-1.0849609,1.4833984-2.6455078,1.4833984-4.6816406V11.8974609c0-2.0351562-.4892578-3.5957031-1.46875-4.6806641s-2.5166016-1.6279297-4.609375-1.6279297c-2.09375,0-3.6298828.5429688-4.609375,1.6279297s-1.4697266,2.6455078-1.4697266,4.6806641v19.0429688c0,2.0361328.4941406,3.5966797,1.4833984,4.6816406s2.5214844,1.6269531,4.5957031,1.6269531,3.6054688-.5419922,4.5947266-1.6269531Z"/>
      <path class="cls-1" d="m313.6679688,30.8828125l14.0585938-30.3359375h6.0498047l-13.7128906,29.9902344h20.5410156v5.4443359h-26.9365234v-5.0986328Zm18.0634766-13.1083984h5.7324219v24.6601562h-5.7324219v-24.6601562Z"/>
      <path class="cls-1" d="m357.9179688,42.40625h-5.8769531V6.9140625l-5.9628906,3.6582031v-6.078125l5.9628906-3.9755859h5.8769531v41.8876953Z"/>
    </g>
  </g>
</svg>