<?xml version="1.0" encoding="UTF-8"?>
<svg id="_レイヤー_2" data-name="レイヤー 2" xmlns="http://www.w3.org/2000/svg" viewBox="0 0 404.0818018 68.3007002">
  <defs>
    <style>
      .cls-1 {
        fill: #231815;
      }

      .cls-1, .cls-2, .cls-3 {
        stroke-width: 0px;
      }

      .cls-2 {
        fill: #e50012;
      }

      .cls-3 {
        fill: #004da0;
      }
    </style>
  </defs>
  <g id="_レイヤー_1-2" data-name="レイヤー 1">
    <g>
      <g>
        <g>
          <polygon class="cls-1" points="77.7220582 0 65.2106229 0 48.814304 23.7714869 48.814304 41.9746262 54.7564315 33.2964618 54.7564315 68.3007002 65.4542408 68.3007002 65.4542408 17.8477316 77.7220582 0"/>
          <polygon class="cls-1" points="105.0939391 42.962947 130.358913 42.962947 133.1679224 32.7450239 105.0939391 32.7450239 105.0939391 20.9526076 130.3789774 20.9526076 133.1004936 10.9430663 105.0939391 10.9430663 105.0939391 .002315 94.2883163 .002315 94.2883163 10.9430663 73.9379528 10.9430663 71.1289434 20.9526076 94.2080589 20.9526076 94.2080589 32.7450239 71.2894583 32.7450239 68.4804489 42.962947 94.2883163 42.962947 94.2883163 57.3037917 71.0454026 57.3037917 68.0431408 68.2819099 130.3990418 68.2819099 133.368566 57.3037917 105.0939391 57.3037917 105.0939391 42.962947"/>
        </g>
        <polygon class="cls-1" points="169.0690832 19.068371 160.6382109 19.068371 160.6382109 .0568356 149.7722691 .0568356 149.7722691 19.068371 144.3548939 19.068371 141.4656271 30.0011283 149.7722691 30.0011283 149.7722691 68.2597499 160.6382109 68.2597499 160.6382109 30.0011283 166.1447811 30.0011283 169.0690832 19.068371"/>
        <path class="cls-1" d="m200.8561115,31.1848748l.0161147,3.9284188h-2.484253l-1.9954767,8.3200839h4.4498557v13.8970086h-3.2237123l-2.9326736,10.9181783h4.7044903c6.6939301-.3480483,10.0446614-3.8077527,10.3964273-8.4949308v-16.3202561h6.307537l-.0149988,13.9097214-3.4314458.0055927-2.9566339,10.9135229h5.3413711c6.6702198-.3480483,9.2666726-3.7531524,9.6197205-8.4403304v-24.7185897l-14.6827891.0099992v-3.9309827l-9.1135334.0025639Z"/>
        <path class="cls-1" d="m171.6328225,31.1848748l.0161147,3.9284188h-2.8855401l-1.9954767,8.3200839h4.8511428v13.8970086h-3.8657716l-2.9326736,10.9181783h5.3465496c6.6939301-.3480483,10.0446614-3.8077527,10.3964273-8.4949308v-16.3202561h6.307537l-.0149988,13.9097214-3.4314458.0055927-2.9566339,10.9135229h5.3413711c6.6702198-.3480483,9.2666726-3.7531524,9.6197205-8.4403304v-24.7185897l-14.6827891.0099992v-3.9309827l-9.1135334.0025639Z"/>
        <path class="cls-1" d="m200.8821089,19.0590952h11.6142461v-4.0509593h-13.8490035v2.8564502c0,7.8863183-7.2625925,11.5024897-13.0553747,11.5024897h-14.0775126l.0075635-10.3541266h16.4126406v-4.0048132h-18.9085064l2.4674891-9.5806975h16.4410173V.0117741h10.6957584v5.4156643l23.0123544.037561v15.9474996c-.3404786,5.0250989-2.7041362,7.9346029-9.1464261,7.9621647h-11.6342444l.0199984-10.3155685Z"/>
      </g>
      <g>
        <polygon class="cls-2" points="13.8658765 15.6261508 13.8658765 31.8197936 27.7497362 31.8197936 27.7497362 48.0313275 37 38.7676247 37 15.6261508 13.8658765 15.6261508"/>
        <polygon class="cls-3" points="23.1341235 52.6745494 23.1341235 36.4809066 9.2502638 36.4809065 9.2502638 20.2693727 0 29.5330754 0 52.6745494 23.1341235 52.6745494"/>
      </g>
      <g>
        <g>
          <path class="cls-1" d="m244.8327783,14.6960044h2.2983398c.6958008.1401367.7314453.4179688.1044922.8359375v11.3881836c0,4.0405273-1.1850586,7.140625-3.5522461,9.2988281l-1.9848633-1.5673828c2.0893555-1.7402344,3.1342773-4.3520508,3.1342773-7.8359375v-12.1196289Zm10.2387695,2.0893555v16.8212891h-2.402832V15.9494223h2.2983398c.6958008.140625.7314453.4179688.1044922.8359375Zm5.5375977-2.2983398h2.2988281c.6953125.1401367.730957.4179688.1044922.8359375v20.8959961h-2.4033203V14.48702Z"/>
          <path class="cls-1" d="m291.5202783,34.5470786l-.6269531,1.9853516h-10.8657227c-3.9702148,0-7.2094727-1.4287109-9.7167969-4.2836914-.0703125,1.5327148-.5581055,3.168457-1.4628906,4.9101562l-1.9848633-1.1489258c1.0449219-1.7402344,1.5668945-4.074707,1.5668945-7.0004883v-3.6567383h1.9853516c.5566406.0703125.5908203.2792969.1044922.6269531v3.9702148c.4863281.6269531,1.0791016,1.2539062,1.7758789,1.8808594v-7.9404297h-4.9101562v-1.9853516h4.7016602v-3.4477539h-4.074707v-1.9853516h4.074707v-3.4477539h1.9848633c.5566406.0703125.5908203.2792969.1044922.6269531v2.8208008h3.3432617v1.9853516h-3.3432617v3.4477539h3.7612305v1.9853516h-3.5522461v3.3432617h2.8208008v1.9848633h-2.8208008v3.9702148c1.53125.90625,3.5522461,1.3583984,6.0600586,1.3583984h11.074707Zm-12.3286133-2.925293c2.2983398-.9746094,4.1791992-2.3330078,5.6420898-4.074707-.90625-2.3671875-1.4287109-5.0839844-1.5673828-8.1494141h-2.0898438v6.7910156c.6269531-.4179688,1.1835938-.8359375,1.671875-1.2539062l.8359375,1.671875c-1.2539062.9760742-2.6479492,1.9165039-4.1791992,2.8208008-.0703125.4179688-.2451172.5585938-.5224609.4179688l-1.0449219-1.8803711,1.1494141-.6269531v-9.9257812h4.074707l-.2089844-4.2836914,2.0893555.1044922c.4868164.2089844.4526367.4541016-.1040039.7314453l.1040039,3.4477539h5.5375977v1.9853516h-5.4331055c.2089844,2.5073242.5571289,4.5625,1.0449219,6.1640625.6953125-1.3925781,1.3222656-3.0986328,1.8808594-5.1196289l2.0893555.9404297c.277832.3496094.1386719.5585938-.4179688.6269531-.6264648,2.2299805-1.4985352,4.1791992-2.6118164,5.8510742.6953125,1.6713867,1.2880859,2.5073242,1.7763672,2.5073242.2089844,0,.3818359-.7998047.5219727-2.402832l1.8808594.8354492c-.0703125,2.7871094-.8017578,4.1791992-2.1938477,4.1791992-1.0449219,0-2.1601562-1.1835938-3.34375-3.5522461-1.0444336,1.4628906-2.925293,2.8212891-5.6416016,4.074707l-.9404297-1.8803711Zm9.1943359-14.418457c-.90625-.9042969-1.6376953-1.5673828-2.1943359-1.9848633l1.1494141-1.3583984c1.1132812.6972656,1.8803711,1.3583984,2.2983398,1.9848633l-1.253418,1.3583984Z"/>
          <path class="cls-1" d="m317.0969385,34.233602l-.8359375,2.6118164c-4.597168-1.0444336-8.0805664-2.5073242-10.4477539-4.3876953-3.065918,1.9506836-6.7915039,3.4477539-11.1796875,4.4921875l-.9399414-2.402832c4.1088867-.765625,7.5566406-1.9492188,10.3432617-3.5522461-1.8120117-2.0195312-3.2045898-4.2480469-4.1791992-6.6870117h-3.2387695v-1.9848633h7.6269531v-3.7612305h-10.0297852v-1.9853516h10.0297852v-3.3432617h2.2988281c.6953125.140625.730957.4179688.1044922.8359375v2.5073242h10.1342773v1.9853516h-10.1342773v3.7612305h4.8056641l.6269531-.6269531,1.7763672,1.5673828-.4179688.2089844c-1.7416992,3.2045898-3.6567383,5.7119141-5.746582,7.5224609,2.2988281,1.4628906,5.4331055,2.543457,9.4033203,3.2387695Zm-14.7314453-9.9257812c.9042969,2.0898438,2.0893555,3.831543,3.5522461,5.2241211,1.6713867-1.3925781,3.0639648-3.1342773,4.1791992-5.2241211h-7.7314453Z"/>
          <path class="cls-1" d="m319.9387353,34.9650473c1.6010742-2.0898438,2.402832-4.4926758,2.402832-7.2089844v-11.9111328h8.5673828v-2.925293h2.2983398c.6958008.140625.7314453.4179688.1044922.8359375v2.0893555h9.2988281v1.9853516h-18.1791992v10.0302734c0,3.4135742-.90625,6.3388672-2.7167969,8.7763672l-1.7758789-1.671875Zm13.5820312-15.9853516c.5566406.0698242.5913086.2788086.1044922.6269531v2.1938477h8.3583984v1.9853516h-8.3583984v3.2387695h7.0004883v9.6123047h-2.0898438v-1.1494141h-9.7167969v1.3579102h-2.0893555v-9.8208008h4.8061523v-8.0449219h1.9848633Zm5.0151367,14.5224609v-4.4926758h-9.7167969v4.4926758h9.7167969Z"/>
        </g>
        <g>
          <path class="cls-1" d="m242.3684228,47.0251059v-2.6206055h.9394531c.2636719.0332031.2797852.1323242.0493164.296875v2.3237305h1.2363281v.9394531h-1.2363281v3.90625l1.4833984-.4453125v.9892578l-3.3618164,1.1865234c-.0336914.2641602-.1162109.3295898-.2475586.1977539l-.3955078-1.2363281,1.5327148-.3955078v-4.2026367h-1.3349609v-.9394531h1.3349609Zm8.652832,2.8183594v4.746582c0,.4282227-.2148438.6425781-.6430664.6425781h-1.3842773l-.1977539-.9389648h1.0385742c.1313477,0,.1977539-.0668945.1977539-.1982422v-4.2519531h-5.4389648v-.9394531h7.4658203v.9394531h-1.0380859Zm-5.7851562-1.0878906l-.3457031-.9887695c1.5488281-.2299805,2.472168-.7246094,2.7685547-1.4833984h-2.5214844v-.9394531h2.5708008v-1.2851562h.9394531c.2636719.0332031.2797852.1318359.0498047.2963867v.9887695h2.7685547v.9394531h-2.7192383c.4941406.6923828,1.4663086,1.1542969,2.9169922,1.3847656l-.2470703,1.0380859c-1.4506836-.2299805-2.5053711-.7416992-3.1645508-1.5327148-.6264648.8574219-1.6313477,1.3842773-3.0161133,1.5820312Zm1.0878906,4.7963867v.4448242h-.840332v-3.3129883h3.4116211v2.8681641h-2.5712891Zm0-.7915039h1.7304688v-1.2851562h-1.7304688v1.2851562Z"/>
          <path class="cls-1" d="m259.2981103,46.0363364v2.769043h3.7578125v1.0874023h-3.7578125v3.4614258h4.8950195v1.0874023h-10.6308594v-1.0874023h4.5986328v-3.4614258h-3.4116211v-1.0874023h3.4116211v-2.769043h-4.0048828v-1.0878906h9.5917969v1.0878906h-4.449707Zm1.6313477,4.1533203c.6259766.4287109,1.2192383,1.0551758,1.7802734,1.8789062l-1.0878906.7416992c-.4619141-.7578125-.9887695-1.4008789-1.5820312-1.9282227l.8896484-.6923828Z"/>
          <path class="cls-1" d="m266.7146143,55.1339927l-.7412109-.9394531c1.0541992-.6259766,1.8950195-1.3671875,2.5214844-2.2250977l.9394531.5439453c.1645508.1323242.1152344.230957-.1484375.296875-.5610352.7910156-1.4174805,1.5649414-2.5712891,2.3237305Zm.5439453-3.609375v.4946289h-.9887695v-7.1201172h.9394531c.2636719.0332031.2797852.1318359.0493164.296875v5.3891602h9.0976562v.9394531h-4.5981445v3.8071289h-1.137207v-3.8071289h-3.3623047Zm1.1870117-1.5820312v-5.6860352h6.2792969v5.6860352h-6.2792969Zm.9887695-4.1040039h4.3012695v-.7910156h-4.3012695v.7910156Zm0,1.5820312h4.3012695v-.7910156h-4.3012695v.7910156Zm0,1.7304688h4.3012695v-.9394531h-4.3012695v.9394531Zm4.1533203,2.769043c.6586914.659668,1.6313477,1.3188477,2.9169922,1.9775391l-.5932617,1.0385742c-1.1210938-.527832-2.1757812-1.2856445-3.1645508-2.2744141l.8408203-.7416992Z"/>
          <path class="cls-1" d="m279.3327783,44.7506919h1.0878906c.3291016.0664062.3461914.1977539.0493164.3955078v5.3896484c0,1.9121094-.5610352,3.3789062-1.6811523,4.4003906l-.9394531-.7416992c.9887695-.8237305,1.4833984-2.0595703,1.4833984-3.7084961v-5.7353516Zm4.8457031.9887695v7.9604492h-1.137207v-8.355957h1.0874023c.3291016.0664062.3461914.1977539.0498047.3955078Zm2.6201172-1.0874023h1.0878906c.3291016.0664062.3461914.1977539.0493164.3955078v9.8886719h-1.137207v-10.2841797Z"/>
          <path class="cls-1" d="m301.4270166,54.1452231l-.296875.9394531h-5.1420898c-1.8789062,0-3.4116211-.6762695-4.5981445-2.0273438-.0332031.7255859-.2641602,1.4995117-.6923828,2.3237305l-.9394531-.5439453c.4946289-.8232422.7416992-1.9282227.7416992-3.3125v-1.7304688h.9394531c.2636719.0332031.2797852.1318359.0493164.2963867v1.8789062c.2304688.296875.5107422.5932617.8408203.8901367v-3.7578125h-2.3237305v-.9394531h2.2246094v-1.6313477h-1.9282227v-.9394531h1.9282227v-1.6318359h.9394531c.2636719.0332031.2797852.1323242.0498047.296875v1.3349609h1.5820312v.9394531h-1.5820312v1.6313477h1.7797852v.9394531h-1.6811523v1.5820312h1.3349609v.9394531h-1.3349609v1.8789062c.7246094.4287109,1.6811523.6430664,2.8676758.6430664h5.2412109Zm-5.8344727-1.3847656c1.0878906-.4609375,1.9780273-1.1040039,2.6699219-1.9282227-.4287109-1.1201172-.6757812-2.4057617-.7416992-3.8564453h-.9887695v3.2138672c.296875-.1977539.5600586-.3955078.7910156-.5932617l.3955078.7910156c-.5932617.4619141-1.2529297.9067383-1.9775391,1.3349609-.0332031.1977539-.1157227.2641602-.2470703.1977539l-.4946289-.8901367.5439453-.2963867v-4.6972656h1.9282227l-.0986328-2.0273438.9887695.0498047c.2299805.0986328.2138672.2143555-.0498047.3457031l.0498047,1.6318359h2.6206055v.9394531h-2.5712891c.0991211,1.1865234.2636719,2.1591797.4946289,2.9169922.3291016-.6586914.6254883-1.4663086.8896484-2.4223633l.9892578.4448242c.1313477.1650391.0654297.2641602-.1977539.2963867-.296875,1.0556641-.7094727,1.9780273-1.2363281,2.769043.3291016.7910156.609375,1.1865234.840332,1.1865234.0991211,0,.1811523-.378418.2475586-1.137207l.8896484.3955078c-.0332031,1.3188477-.3789062,1.9780273-1.0380859,1.9780273-.4946289,0-1.0219727-.5600586-1.5820312-1.6811523-.4946289.6923828-1.3847656,1.3349609-2.6704102,1.9282227l-.4448242-.8901367Zm4.3510742-6.8232422c-.4287109-.4277344-.7749023-.7412109-1.0380859-.9394531l.543457-.6425781c.5273438.3300781.8901367.6425781,1.0878906.9394531l-.5932617.6425781Z"/>
          <path class="cls-1" d="m311.0681299,52.8595786c.1313477,0,.1977539-.065918.1977539-.1977539v-3.5107422h-2.7685547v6.1313477h-1.137207v-6.1313477h-2.5219727v4.7963867h-1.137207v-5.7358398h3.6591797v-1.5327148h-4.9443359v-.9394531h4.9443359v-1.5820312h1.0874023c.2636719.0332031.2797852.1323242.0498047.296875v1.2851562h5.0927734v.9394531h-5.0927734v1.5327148h3.9057617v4.9448242c0,.5273438-.2641602.7910156-.7910156.7910156h-1.2856445l-.0986328-1.0878906h.840332Z"/>
          <path class="cls-1" d="m318.2868799,55.3317466h-.9887695v-2.9667969c-.527832.8579102-1.1049805,1.5327148-1.7304688,2.0273438l-.7416992-.8901367c.9223633-.6586914,1.6972656-1.4829102,2.3237305-2.472168h-2.0766602v-.9394531h2.2250977v-1.0874023h-2.5214844v-.9394531h3.4609375l.5439453-1.7802734h-3.6591797v-.9394531h2.1757812v-1.3842773h.9394531c.2631836.0332031.2797852.1323242.0493164.296875v1.0874023h2.1757812v.9394531h-.6430664l-.6918945,1.7802734h1.5820312v.9394531h-2.4228516v1.0874023h2.1757812v.9394531h-2.1757812v.4453125c.4614258.1318359,1.1040039.4780273,1.9282227,1.0380859l-.5932617.9887695c-.4619141-.4609375-.9067383-.8232422-1.3349609-1.0874023v2.9169922Zm-2.5214844-8.7021484l.9394531-.2963867c.2631836.4287109.4609375.8735352.5932617,1.3349609l-.9887695.2963867c-.1323242-.4609375-.3139648-.90625-.5439453-1.3349609Zm3.4609375,7.7626953c1.3510742-.7246094,2.0273438-1.9609375,2.0273438-3.7084961v-5.6860352l1.0380859.1982422,2.6699219-.8408203.7416992.9887695c.065918.1977539-.0493164.230957-.3457031.0991211l-3.1152344.5932617v2.1259766h3.90625v.9394531h-1.4833984v6.1806641h-.9887695v-6.1806641h-1.434082v1.8789062c0,1.9453125-.8242188,3.3945312-2.472168,4.3510742l-.5439453-.9394531Z"/>
          <path class="cls-1" d="m330.6677393,46.8766684c.1313477.1323242.0820312.2148438-.1484375.2475586-.1977539.6918945-.4780273,1.3681641-.840332,2.0268555v6.0322266h-.9892578v-4.6474609c-.3295898.4619141-.6757812.8735352-1.0380859,1.2358398l-.5932617-.9887695c1.1201172-1.0214844,2.0102539-2.4882812,2.6699219-4.4003906l.9394531.4941406Zm2.6699219-1.9282227h4.8950195v2.0766602h-.9887695v-1.137207h-8.7021484v1.4833984h-.9892578v-2.4228516h4.7963867v-1.0878906h.9394531c.2631836.0332031.2797852.1323242.0493164.296875v.7910156Zm-2.472168,3.2631836v-.9394531h6.3286133v.9394531h-2.472168c-.0986328.3632812-.1977539.7094727-.2963867,1.0385742h2.9169922v5.9331055h-.9887695v-.3955078h-4.1040039v.3955078h-.9887695v-5.9331055h2.1757812c.0654297-.4282227.1313477-.7739258.1977539-1.0385742h-2.769043Zm1.3842773,1.9780273v1.2856445h4.1040039v-1.2856445h-4.1040039Zm0,2.2250977v1.4335938h4.1040039v-1.4335938h-4.1040039Z"/>
          <path class="cls-1" d="m345.3527978,46.0363364h5.4384766v.9394531h-2.0766602v7.3671875c0,.4609375-.230957.6918945-.6918945.6918945h-1.2856445l-.1484375-1.0874023h.9394531c.1313477,0,.1977539-.065918.1977539-.1977539v-6.7739258h-2.3730469v6.4277344h-.9892578v-.5932617h-3.5595703v.9887695h-.9892578v-9.1469727h5.5380859v1.3842773Zm-3.2138672,2.0766602v-2.5214844h-1.3349609v2.5214844h1.3349609Zm0,.9394531h-1.3349609v2.8183594h1.3349609v-2.8183594Zm2.2246094-3.4609375h-1.2358398v2.5214844h1.2358398v-2.5214844Zm0,3.4609375h-1.2358398v2.8183594h1.2358398v-2.8183594Z"/>
          <path class="cls-1" d="m353.7776025,54.0954184v-7.6635742h-1.4829102v-.5932617c1.1533203,0,1.8291016-.4614258,2.0268555-1.3842773h.5932617v9.6411133h-1.137207Z"/>
          <path class="cls-1" d="m368.3239893,46.2340903h-4.449707v7.8120117c0,.5268555-.2641602.7910156-.7910156.7910156h-1.3847656l-.0986328-1.0874023h.9394531c.1313477,0,.1977539-.065918.1977539-.1977539v-7.3178711h-5.0927734v-1.0878906h10.6796875v1.0878906Z"/>
          <path class="cls-1" d="m378.6975244,55.0348716h-.9887695v-.5932617h-5.5874023v.7910156h-.9887695v-10.6303711h7.5649414v10.4326172Zm-.9887695-7.5644531v-1.9287109h-5.5874023v1.9287109h5.5874023Zm0,2.9169922v-1.9780273h-5.5874023v1.9780273h5.5874023Zm0,3.1147461v-2.175293h-5.5874023v2.175293h5.5874023Z"/>
          <path class="cls-1" d="m383.2658838,54.0954184v-7.6635742h-1.4829102v-.5932617c1.1533203,0,1.8291016-.4614258,2.0268555-1.3842773h.5932617v9.6411133h-1.137207Z"/>
          <path class="cls-1" d="m390.2971338,45.5915122c-.1318359-.1313477-.2963867-.1977539-.4941406-.1977539-.2641602,0-.4946289.0986328-.6923828.2963867-.5610352.5610352-.9067383,1.6650391-1.0380859,3.3129883.4609375-.7583008,1.0209961-1.137207,1.6811523-1.137207.4941406,0,.9389648.1977539,1.3349609.5932617.5268555.5273438.7910156,1.3349609.7910156,2.4228516,0,1.1865234-.2807617,2.0600586-.8408203,2.6201172-.3955078.3955078-.9067383.5932617-1.5327148.5932617-.5605469,0-1.0712891-.2299805-1.5327148-.6918945-.6923828-.6923828-1.0380859-2.0273438-1.0380859-4.0048828,0-1.9448242.4770508-3.3950195,1.4335938-4.3510742.3955078-.3955078.8901367-.5932617,1.4833984-.5932617.4946289,0,.8901367.1479492,1.1865234.4448242.4614258.4619141.7084961,1.0551758.7416992,1.7797852h-1.137207c0-.4941406-.1157227-.8564453-.3461914-1.0874023Zm-1.5327148,3.5102539c-.3955078.3955078-.5932617.9233398-.5932617,1.5820312,0,1.0224609.2304688,1.7641602.6923828,2.2250977.1977539.1977539.4277344.296875.6918945.296875.2636719,0,.5107422-.1152344.7416992-.3461914.296875-.296875.4453125-.9555664.4453125-1.9775391,0-.8901367-.1655273-1.5-.4946289-1.8295898-.1977539-.1977539-.4287109-.296875-.6923828-.296875-.2963867,0-.5605469.1162109-.7910156.3461914Z"/>
          <path class="cls-1" d="m398.3068994,49.2502036v.7910156h-5.6362305v-.7910156h5.6362305Z"/>
          <path class="cls-1" d="m404.0818018,49.1510825c0,2.0112305-.4448242,3.4614258-1.3349609,4.3510742-.3955078.3955078-.8896484.5932617-1.4829102.5932617-.4946289,0-.8901367-.1479492-1.1870117-.4448242-.5273438-.5268555-.8081055-1.1201172-.840332-1.7797852h1.137207c0,.4287109.1484375.7910156.4448242,1.0874023.1313477.1323242.3129883.1982422.5439453.1982422.2304688,0,.4448242-.0991211.6430664-.296875.4941406-.4946289.8071289-1.5327148.9389648-3.1147461-.362793.7583008-.9228516,1.137207-1.6806641,1.137207-.4946289,0-.9394531-.1982422-1.3349609-.59375-.527832-.5268555-.7915039-1.4003906-.7915039-2.6201172,0-1.1206055.296875-1.9780273.8901367-2.5712891.4282227-.4282227.9223633-.6425781,1.4833984-.6425781.5600586,0,1.0380859.1977539,1.4335938.5932617.7583008.7583008,1.137207,2.1259766,1.137207,4.1035156Zm-2.6201172-3.8071289c-.1977539,0-.4125977.1162109-.6430664.3461914-.362793.3632812-.5439453,1.0219727-.5439453,1.9780273,0,1.0219727.1645508,1.6977539.4946289,2.0268555.1977539.1977539.4282227.296875.6923828.296875.2963867,0,.5600586-.1152344.7910156-.3461914.3955078-.3955078.5932617-.9887695.5932617-1.7797852,0-1.0546875-.2148438-1.7963867-.6425781-2.2250977-.1977539-.1977539-.4453125-.296875-.7416992-.296875Z"/>
        </g>
      </g>
    </g>
  </g>
</svg>