<?xml version="1.0" encoding="UTF-8"?>
<svg id="_レイヤー_2" data-name="レイヤー 2" xmlns="http://www.w3.org/2000/svg" viewBox="0 0 393.073501 68.3007002">
  <defs>
    <style>
      .cls-1 {
        fill: #231815;
      }

      .cls-1, .cls-2, .cls-3 {
        stroke-width: 0px;
      }

      .cls-2 {
        fill: #e50012;
      }

      .cls-3 {
        fill: #004da0;
      }
    </style>
  </defs>
  <g id="_レイヤー_1-2" data-name="レイヤー 1">
    <g>
      <g>
        <g>
          <polygon class="cls-1" points="77.7220582 0 65.2106229 0 48.814304 23.7714869 48.814304 41.9746262 54.7564315 33.2964618 54.7564315 68.3007002 65.4542408 68.3007002 65.4542408 17.8477316 77.7220582 0"/>
          <polygon class="cls-1" points="105.0939391 42.962947 130.358913 42.962947 133.1679224 32.7450239 105.0939391 32.7450239 105.0939391 20.9526076 130.3789774 20.9526076 133.1004936 10.9430663 105.0939391 10.9430663 105.0939391 .002315 94.2883163 .002315 94.2883163 10.9430663 73.9379528 10.9430663 71.1289434 20.9526076 94.2080589 20.9526076 94.2080589 32.7450239 71.2894583 32.7450239 68.4804489 42.962947 94.2883163 42.962947 94.2883163 57.3037917 71.0454026 57.3037917 68.0431408 68.2819099 130.3990418 68.2819099 133.368566 57.3037917 105.0939391 57.3037917 105.0939391 42.962947"/>
        </g>
        <polygon class="cls-1" points="169.0690832 19.068371 160.6382109 19.068371 160.6382109 .0568356 149.7722691 .0568356 149.7722691 19.068371 144.3548939 19.068371 141.4656271 30.0011283 149.7722691 30.0011283 149.7722691 68.2597499 160.6382109 68.2597499 160.6382109 30.0011283 166.1447811 30.0011283 169.0690832 19.068371"/>
        <path class="cls-1" d="m200.8561115,31.1848748l.0161147,3.9284188h-2.484253l-1.9954767,8.3200839h4.4498557v13.8970086h-3.2237123l-2.9326736,10.9181783h4.7044903c6.6939301-.3480483,10.0446614-3.8077527,10.3964273-8.4949308v-16.3202561h6.307537l-.0149988,13.9097214-3.4314458.0055927-2.9566339,10.9135229h5.3413711c6.6702198-.3480483,9.2666726-3.7531524,9.6197205-8.4403304v-24.7185897l-14.6827891.0099992v-3.9309827l-9.1135334.0025639Z"/>
        <path class="cls-1" d="m171.6328225,31.1848748l.0161147,3.9284188h-2.8855401l-1.9954767,8.3200839h4.8511428v13.8970086h-3.8657716l-2.9326736,10.9181783h5.3465496c6.6939301-.3480483,10.0446614-3.8077527,10.3964273-8.4949308v-16.3202561h6.307537l-.0149988,13.9097214-3.4314458.0055927-2.9566339,10.9135229h5.3413711c6.6702198-.3480483,9.2666726-3.7531524,9.6197205-8.4403304v-24.7185897l-14.6827891.0099992v-3.9309827l-9.1135334.0025639Z"/>
        <path class="cls-1" d="m200.8821089,19.0590952h11.6142461v-4.0509593h-13.8490035v2.8564502c0,7.8863183-7.2625925,11.5024897-13.0553747,11.5024897h-14.0775126l.0075635-10.3541266h16.4126406v-4.0048132h-18.9085064l2.4674891-9.5806975h16.4410173V.0117741h10.6957584v5.4156643l23.0123544.037561v15.9474996c-.3404786,5.0250989-2.7041362,7.9346029-9.1464261,7.9621647h-11.6342444l.0199984-10.3155685Z"/>
      </g>
      <g>
        <polygon class="cls-2" points="13.8658765 15.6261508 13.8658765 31.8197936 27.7497362 31.8197936 27.7497362 48.0313275 37 38.7676247 37 15.6261508 13.8658765 15.6261508"/>
        <polygon class="cls-3" points="23.1341235 52.6745494 23.1341235 36.4809066 9.2502638 36.4809065 9.2502638 20.2693727 0 29.5330754 0 52.6745494 23.1341235 52.6745494"/>
      </g>
      <g>
        <g>
          <path class="cls-1" d="m241.698501,30.3925376c2.4370117-3.6210938,3.9702148-7.5566406,4.597168-11.8061523l2.5073242.6269531c.5566406.2089844.5224609.4179688-.1044922.6269531-.8359375,4.1791992-2.402832,8.1850586-4.7016602,12.0151367l-2.2983398-1.4628906Zm10.5522461,2.925293V14.3026938h2.2988281c.6953125.1401367.730957.4179688.1044922.8359375v19.5375977c0,.9042969-.4541016,1.3583984-1.3583984,1.3583984h-2.925293l-.8359375-2.2988281h2.2983398c.277832,0,.4179688-.1386719.4179688-.4179688Zm13.0600586-4.074707l-2.6118164,1.1494141c-1.2539062-3.8999023-2.9614258-7.4868164-5.1196289-10.7612305l1.9848633-1.0449219c2.5078125,3.3432617,4.4228516,6.8955078,5.746582,10.6567383Z"/>
          <path class="cls-1" d="m269.4690088,15.8695884c5.9897461-.0683594,11.6660156-.765625,17.0302734-2.0893555l1.3583984,1.671875c.4863281.6264648.3134766.8354492-.5224609.6264648-2.2299805.4882812-4.4584961.8359375-6.6865234,1.0449219v3.7612305h8.2539062v1.9853516h-8.2539062v3.5522461h10.4477539v1.9848633h-10.4477539v6.269043c0,1.2539062-.5927734,1.8808594-1.7763672,1.8808594h-2.7163086l-.5224609-2.2988281h2.6118164c.2089844,0,.3134766-.1044922.3134766-.3134766v-5.5375977h-10.6567383v-1.9848633h10.6567383v-3.5522461h-8.4628906v-1.9853516h8.4628906v-3.4477539c-2.925293.2792969-5.7822266.4179688-8.5673828.4179688l-.5224609-1.9853516Z"/>
          <path class="cls-1" d="m295.7566064,36.8700766l-.3134766-1.9848633h1.671875c.2773438,0,.4179688-.140625.4179688-.4179688v-6.3730469l-2.1943359.730957c-.2788086.6972656-.5224609.6972656-.7314453,0l-.8354492-2.0893555,3.7612305-.9404297v-6.0595703h-3.2387695v-1.9853516h3.2387695v-4.8061523h1.9848633c.5566406.0703125.5913086.2792969.1044922.6269531v4.1791992h3.1347656v1.9853516h-3.1347656v5.4326172l3.1347656-1.1489258.5219727,1.9848633-3.6567383,1.4628906v7.7314453c0,1.1132812-.5581055,1.6713867-1.6713867,1.6713867h-2.1943359Zm10.5527344-20.269043c2.0893555-.2773438,4.7358398-.9404297,7.9404297-1.9848633l1.253418,1.7758789c.3481445.4179688.1733398.5585938-.5219727.4179688-3.5527344.7675781-6.4438477,1.2895508-8.671875,1.5673828v1.5668945c0,.5585938.2431641.8359375.730957.8359375h7.2094727c.5566406,0,.8701172-.2431641.9404297-.7314453l.3129883-1.5668945,2.0898438.5224609-.5224609,2.0893555c-.2792969,1.1152344-1.0805664,1.671875-2.402832,1.671875h-8.671875c-1.1855469,0-1.7763672-.6269531-1.7763672-1.8808594v-7.7314453h1.9853516c.5566406.0703125.5908203.2792969.1044922.6269531v2.8208008Zm9.5073242,19.9560547h-2.0893555v-1.0449219h-6.8955078v1.2539062h-2.0898438v-12.2246094h11.074707v12.015625Zm-2.0893555-7.418457v-2.925293h-6.8955078v2.925293h6.8955078Zm0,1.671875h-6.8955078v3.0297852h6.8955078v-3.0297852Z"/>
          <path class="cls-1" d="m343.3366846,34.2582602l-.8359375,2.6118164c-4.597168-1.0444336-8.0805664-2.5073242-10.4477539-4.3876953-3.065918,1.9506836-6.7915039,3.4477539-11.1796875,4.4921875l-.9399414-2.402832c4.1088867-.765625,7.5566406-1.9492188,10.3432617-3.5522461-1.8120117-2.0195312-3.2045898-4.2480469-4.1791992-6.6870117h-3.2387695v-1.9848633h7.6269531v-3.7612305h-10.0297852v-1.9853516h10.0297852v-3.3432617h2.2988281c.6953125.140625.730957.4179688.1044922.8359375v2.5073242h10.1342773v1.9853516h-10.1342773v3.7612305h4.8056641l.6269531-.6269531,1.7763672,1.5673828-.4179688.2089844c-1.7416992,3.2045898-3.6567383,5.7119141-5.746582,7.5224609,2.2988281,1.4628906,5.4331055,2.543457,9.4033203,3.2387695Zm-14.7314453-9.9257812c.9042969,2.0898438,2.0893555,3.831543,3.5522461,5.2241211,1.6713867-1.3925781,3.0639648-3.1342773,4.1791992-5.2241211h-7.7314453Z"/>
          <path class="cls-1" d="m346.1789697,34.9897056c1.6010742-2.0898438,2.402832-4.4926758,2.402832-7.2089844v-11.9111328h8.5673828v-2.925293h2.2983398c.6958008.140625.7314453.4179688.1044922.8359375v2.0893555h9.2988281v1.9853516h-18.1791992v10.0302734c0,3.4135742-.90625,6.3388672-2.7167969,8.7763672l-1.7758789-1.671875Zm13.5820312-15.9853516c.5566406.0698242.5913086.2788086.1044922.6269531v2.1938477h8.3583984v1.9853516h-8.3583984v3.2387695h7.0004883v9.6123047h-2.0898438v-1.1494141h-9.7167969v1.3579102h-2.0893555v-9.8208008h4.8061523v-8.0449219h1.9848633Zm5.0151367,14.5224609v-4.4926758h-9.7167969v4.4926758h9.7167969Z"/>
        </g>
        <g>
          <path class="cls-1" d="m242.3684228,47.0497641v-2.6206055h.9394531c.2636719.0332031.2797852.1323242.0493164.296875v2.3237305h1.2363281v.9394531h-1.2363281v3.90625l1.4833984-.4453125v.9892578l-3.3618164,1.1865234c-.0336914.2641602-.1162109.3295898-.2475586.1977539l-.3955078-1.2363281,1.5327148-.3955078v-4.2026367h-1.3349609v-.9394531h1.3349609Zm8.652832,2.8183594v4.746582c0,.4282227-.2148438.6425781-.6430664.6425781h-1.3842773l-.1977539-.9389648h1.0385742c.1313477,0,.1977539-.0668945.1977539-.1982422v-4.2519531h-5.4389648v-.9394531h7.4658203v.9394531h-1.0380859Zm-5.7851562-1.0878906l-.3457031-.9887695c1.5488281-.2299805,2.472168-.7246094,2.7685547-1.4833984h-2.5214844v-.9394531h2.5708008v-1.2851562h.9394531c.2636719.0332031.2797852.1318359.0498047.2963867v.9887695h2.7685547v.9394531h-2.7192383c.4941406.6923828,1.4663086,1.1542969,2.9169922,1.3847656l-.2470703,1.0380859c-1.4506836-.2299805-2.5053711-.7416992-3.1645508-1.5327148-.6264648.8574219-1.6313477,1.3842773-3.0161133,1.5820312Zm1.0878906,4.7963867v.4448242h-.840332v-3.3129883h3.4116211v2.8681641h-2.5712891Zm0-.7915039h1.7304688v-1.2851562h-1.7304688v1.2851562Z"/>
          <path class="cls-1" d="m259.2981103,46.0609946v2.769043h3.7578125v1.0874023h-3.7578125v3.4614258h4.8950195v1.0874023h-10.6308594v-1.0874023h4.5986328v-3.4614258h-3.4116211v-1.0874023h3.4116211v-2.769043h-4.0048828v-1.0878906h9.5917969v1.0878906h-4.449707Zm1.6313477,4.1533203c.6259766.4287109,1.2192383,1.0551758,1.7802734,1.8789062l-1.0878906.7416992c-.4619141-.7578125-.9887695-1.4008789-1.5820312-1.9282227l.8896484-.6923828Z"/>
          <path class="cls-1" d="m266.7146143,55.1586509l-.7412109-.9394531c1.0541992-.6259766,1.8950195-1.3671875,2.5214844-2.2250977l.9394531.5439453c.1645508.1323242.1152344.230957-.1484375.296875-.5610352.7910156-1.4174805,1.5649414-2.5712891,2.3237305Zm.5439453-3.609375v.4946289h-.9887695v-7.1201172h.9394531c.2636719.0332031.2797852.1318359.0493164.296875v5.3891602h9.0976562v.9394531h-4.5981445v3.8071289h-1.137207v-3.8071289h-3.3623047Zm1.1870117-1.5820312v-5.6860352h6.2792969v5.6860352h-6.2792969Zm.9887695-4.1040039h4.3012695v-.7910156h-4.3012695v.7910156Zm0,1.5820312h4.3012695v-.7910156h-4.3012695v.7910156Zm0,1.7304688h4.3012695v-.9394531h-4.3012695v.9394531Zm4.1533203,2.769043c.6586914.659668,1.6313477,1.3188477,2.9169922,1.9775391l-.5932617,1.0385742c-1.1210938-.527832-2.1757812-1.2856445-3.1645508-2.2744141l.8408203-.7416992Z"/>
          <path class="cls-1" d="m282.7443994,46.8520102v4.3017578h-.9887695v-.4946289h-2.2250977v1.3847656c0,1.2529297-.2641602,2.3066406-.7910156,3.1640625l-.8901367-.6918945c.4614258-.6591797.6923828-1.4995117.6923828-2.5219727v-5.1420898h4.2026367Zm-4.5981445-1.3349609v-.9394531h4.9443359v.9394531h-4.9443359Zm3.609375,4.2026367v-1.9282227h-2.2250977v1.9282227h2.2250977Zm2.8676758-4.6474609c1.4501953-.2304688,2.5375977-.5107422,3.2631836-.8408203l.5439453.9394531c.1313477.296875.0322266.3632812-.296875.1977539-1.2197266.2641602-2.3730469.4453125-3.4609375.5439453v2.0766602h4.3510742v.9394531h-1.6313477v6.2299805h-.9892578v-6.2299805h-1.7304688v1.5327148c0,2.1757812-.7910156,3.7900391-2.3730469,4.8457031l-.7416992-.8901367c1.4169922-.8569336,2.1259766-2.2080078,2.1259766-4.0541992v-5.6367188l.9394531.3461914Z"/>
          <path class="cls-1" d="m291.0212549,54.7631431l-.8896484-.7416992c.6254883-.8901367,1.2685547-2.0927734,1.9282227-3.609375l.8901367.6425781c-.4624023,1.253418-1.0224609,2.4067383-1.6811523,3.4614258.0986328.3955078.0161133.4770508-.2475586.2470703Zm.1484375-7.6142578c.7246094.362793,1.3349609.7749023,1.8295898,1.2358398l-.6430664,1.0385742c-.4941406-.4946289-1.1044922-.9223633-1.8291016-1.2856445l.6425781-.9887695Zm.4946289-2.769043c.6586914.3632812,1.2685547.7749023,1.8291016,1.2363281l-.6918945.9887695c-.7255859-.6259766-1.3349609-1.0708008-1.8295898-1.3349609l.6923828-.8901367Zm9.2460938,10.8774414c-2.3413086-1.0874023-3.6923828-3.1308594-4.0546875-6.1308594h-1.5327148v1.0878906c0,2.2744141-.7089844,3.9726562-2.1259766,5.0927734l-.7910156-.7910156c1.2851562-.9892578,1.9282227-2.5048828,1.9282227-4.5488281v-5.340332h5.9824219v4.9941406h-.9887695v-.4946289h-1.5327148c.3291016,2.5053711,1.5488281,4.1704102,3.6586914,4.9936523l-.543457,1.137207Zm-5.5874023-7.0703125h4.0048828v-2.6206055h-4.0048828v2.6206055Z"/>
          <path class="cls-1" d="m311.1745752,52.8842368c.1313477,0,.1977539-.065918.1977539-.1977539v-3.5107422h-2.7685547v6.1313477h-1.137207v-6.1313477h-2.5219727v4.7963867h-1.137207v-5.7358398h3.6591797v-1.5327148h-4.9443359v-.9394531h4.9443359v-1.5820312h1.0874023c.2636719.0332031.2797852.1323242.0498047.296875v1.2851562h5.0927734v.9394531h-5.0927734v1.5327148h3.9057617v4.9448242c0,.5273438-.2641602.7910156-.7910156.7910156h-1.2856445l-.0986328-1.0878906h.840332Z"/>
          <path class="cls-1" d="m314.9616846,52.191854c1.1533203-1.7133789,1.8789062-3.5761719,2.1757812-5.5869141l1.1865234.2963867c.2631836.0991211.2470703.1977539-.0493164.296875-.3955078,1.9775391-1.137207,3.8735352-2.2250977,5.6860352l-1.0878906-.6923828Zm4.9941406,1.3847656v-8.9990234h1.0874023c.3291016.0664062.3461914.1977539.0498047.3955078v9.2460938c0,.4282227-.2148438.6425781-.6430664.6425781h-1.3842773l-.3955078-1.0874023h1.0874023c.1313477,0,.1982422-.065918.1982422-.1977539Zm6.1801758-1.9287109l-1.2358398.5439453c-.59375-1.8457031-1.4013672-3.5429688-2.4228516-5.0927734l.9394531-.4941406c1.1865234,1.5820312,2.0927734,3.2631836,2.7192383,5.0429688Z"/>
          <path class="cls-1" d="m328.1037744,45.3192954c2.8344727-.0322266,5.5209961-.3623047,8.0595703-.9887695l.6425781.7910156c.2304688.296875.1484375.3955078-.2470703.296875-1.0551758.230957-2.1098633.3955078-3.1645508.4941406v1.7802734h3.90625v.9394531h-3.90625v1.6806641h4.9443359v.9394531h-4.9443359v2.9667969c0,.5932617-.2802734.8901367-.840332.8901367h-1.2856445l-.2470703-1.0878906h1.2358398c.0991211,0,.1484375-.0493164.1484375-.1484375v-2.6206055h-5.043457v-.9394531h5.043457v-1.6806641h-4.0048828v-.9394531h4.0048828v-1.6318359c-1.3842773.1318359-2.7363281.1977539-4.0541992.1977539l-.2475586-.9394531Z"/>
          <path class="cls-1" d="m340.5442041,55.2572837l-.1484375-.9389648h.7910156c.1313477,0,.1977539-.0668945.1977539-.1982422v-3.015625l-1.0380859.3457031c-.1323242.3300781-.2470703.3300781-.3461914,0l-.3955078-.9887695,1.7797852-.4448242v-2.8676758h-1.5327148v-.9394531h1.5327148v-2.2744141h.9394531c.2636719.0332031.2797852.1318359.0498047.2963867v1.9780273h1.4829102v.9394531h-1.4829102v2.5708008l1.4829102-.5439453.2475586.9394531-1.7304688.6923828v3.6586914c0,.5268555-.2646484.7910156-.7915039.7910156h-1.0380859Zm4.9936523-9.5917969c.9887695-.1313477,2.2412109-.4448242,3.7578125-.9394531l.5932617.840332c.1645508.1977539.0820312.2641602-.2470703.1977539-1.6811523.3632812-3.0493164.6103516-4.1040039.7416992v.7416992c0,.2641602.1152344.3955078.3461914.3955078h3.4116211c.2636719,0,.4116211-.1147461.4448242-.3461914l.1484375-.7412109.9887695.2470703-.2470703.9887695c-.1318359.527832-.5112305.7910156-1.137207.7910156h-4.1040039c-.5605469,0-.840332-.2963867-.840332-.8896484v-3.6591797h.9394531c.2631836.0332031.2797852.1323242.0493164.296875v1.3349609Zm4.4995117,9.4438477h-.9887695v-.4946289h-3.2631836v.5932617h-.9892578v-5.784668h5.2412109v5.6860352Zm-.9887695-3.5107422v-1.3842773h-3.2631836v1.3842773h3.2631836Zm0,.7910156h-3.2631836v1.434082h3.2631836v-1.434082Z"/>
          <path class="cls-1" d="m357.7605127,46.0609946h5.4384766v.9394531h-2.0766602v7.3671875c0,.4609375-.230957.6918945-.6918945.6918945h-1.2856445l-.1484375-1.0874023h.9394531c.1313477,0,.1977539-.065918.1977539-.1977539v-6.7739258h-2.3730469v6.4277344h-.9892578v-.5932617h-3.5595703v.9887695h-.9892578v-9.1469727h5.5380859v1.3842773Zm-3.2138672,2.0766602v-2.5214844h-1.3349609v2.5214844h1.3349609Zm0,.9394531h-1.3349609v2.8183594h1.3349609v-2.8183594Zm2.2246094-3.4609375h-1.2358398v2.5214844h1.2358398v-2.5214844Zm0,3.4609375h-1.2358398v2.8183594h1.2358398v-2.8183594Z"/>
          <path class="cls-1" d="m366.1858057,54.1200766v-7.6635742h-1.4829102v-.5932617c1.1533203,0,1.8291016-.4614258,2.0268555-1.3842773h.5932617v9.6411133h-1.137207Z"/>
          <path class="cls-1" d="m375.1745752,49.2748618v.7910156h-5.6362305v-.7910156h5.6362305Z"/>
          <path class="cls-1" d="m377.9631494,54.1200766v-7.6635742h-1.4829102v-.5932617c1.1533203,0,1.8291016-.4614258,2.0268555-1.3842773h.5932617v9.6411133h-1.137207Z"/>
          <path class="cls-1" d="m386.9519189,49.2748618v.7910156h-5.6362305v-.7910156h5.6362305Z"/>
          <path class="cls-1" d="m390.898208,54.1200766v-2.2744141h-3.3129883v-.9389648l3.3129883-6.4277344h1.137207v6.4277344h1.0380859v.9389648h-1.0380859v2.2744141h-1.137207Zm0-3.2133789v-4.3510742l-2.2250977,4.3510742h2.2250977Z"/>
        </g>
      </g>
    </g>
  </g>
</svg>