<?xml version="1.0" encoding="UTF-8"?>
<svg id="_レイヤー_2" data-name="レイヤー 2" xmlns="http://www.w3.org/2000/svg" viewBox="0 0 400.6962299 43.5644531">
  <defs>
    <style>
      .cls-1 {
        fill: #d21619;
        stroke-width: 0px;
      }
    </style>
  </defs>
  <g id="_レイヤー_1-2" data-name="レイヤー 1">
    <g>
      <g>
        <path class="cls-1" d="m55.9745502,40.3710938c-2.0605469-2.1279297-3.0908203-5.0976562-3.0908203-8.90625V12.0996094c0-3.8271484,1.0351562-6.8007812,3.1054688-8.9208984,2.0693359-2.1191406,5.0869141-3.1787109,9.0527344-3.1787109,3.984375,0,7.0068359,1.0546875,9.0673828,3.1640625s3.0908203,5.0878906,3.0908203,8.9355469v19.3652344c0,3.828125-1.0361328,6.8017578-3.1054688,8.9208984-2.0703125,2.1201172-5.0878906,3.1787109-9.0527344,3.1787109-3.984375,0-7.0068359-1.0644531-9.0673828-3.1933594Zm13.7402344-4.1455078c1.0058594-1.1025391,1.5087891-2.6904297,1.5087891-4.7607422V12.0996094c0-2.0693359-.4980469-3.6572266-1.4941406-4.7607422-.9960938-1.1025391-2.5595703-1.6552734-4.6875-1.6552734-2.1289062,0-3.6914062.5527344-4.6875,1.6552734-.9960938,1.1035156-1.4941406,2.6914062-1.4941406,4.7607422v19.3652344c0,2.0703125.5029297,3.6582031,1.5087891,4.7607422,1.0058594,1.1035156,2.5634766,1.6552734,4.6728516,1.6552734s3.6669922-.5517578,4.6728516-1.6552734Z"/>
        <path class="cls-1" d="m96.2724018,43.125h-5.9765625V7.03125l-6.0644531,3.7207031v-6.1816406l6.0644531-4.0429688h5.9765625v42.5976562Z"/>
        <path class="cls-1" d="m105.2958393,37.9394531l14.8535156-19.8046875c.859375-1.1318359,1.5283203-2.3095703,2.0068359-3.5302734.4785156-1.2197266.7177734-2.3583984.7177734-3.4130859v-.0585938c0-1.6992188-.4980469-3.0175781-1.4941406-3.9550781s-2.4130859-1.40625-4.2480469-1.40625c-1.7392578,0-3.1455078.5126953-4.21875,1.5380859-1.0742188,1.0253906-1.7285156,2.4755859-1.9628906,4.3505859v.0292969h-6.1816406v-.0292969c.3515625-2.4414062,1.0693359-4.5263672,2.1533203-6.2548828s2.4853516-3.046875,4.2041016-3.9550781c1.7177734-.9082031,3.7011719-1.3623047,5.9472656-1.3623047,2.5380859,0,4.7060547.4355469,6.5039062,1.3037109,1.796875.8691406,3.1640625,2.1347656,4.1015625,3.7939453.9375,1.6601562,1.40625,3.6621094,1.40625,6.0058594v.0292969c0,1.5048828-.3125,3.0761719-.9375,4.7167969-.6259766,1.640625-1.4941406,3.2226562-2.6074219,4.7460938l-12.3339844,16.7578125h16.1132812v5.6835938h-24.0234375v-5.1855469Z"/>
        <path class="cls-1" d="m140.0272846,40.3710938c-2.0605469-2.1279297-3.0908203-5.0976562-3.0908203-8.90625V12.0996094c0-3.8271484,1.0351562-6.8007812,3.1054688-8.9208984,2.0693359-2.1191406,5.0869141-3.1787109,9.0527344-3.1787109,3.984375,0,7.0068359,1.0546875,9.0673828,3.1640625s3.0908203,5.0878906,3.0908203,8.9355469v19.3652344c0,3.828125-1.0361328,6.8017578-3.1054688,8.9208984-2.0703125,2.1201172-5.0878906,3.1787109-9.0527344,3.1787109-3.984375,0-7.0068359-1.0644531-9.0673828-3.1933594Zm13.7402344-4.1455078c1.0058594-1.1025391,1.5087891-2.6904297,1.5087891-4.7607422V12.0996094c0-2.0693359-.4980469-3.6572266-1.4941406-4.7607422-.9960938-1.1025391-2.5595703-1.6552734-4.6875-1.6552734-2.1289062,0-3.6914062.5527344-4.6875,1.6552734-.9960938,1.1035156-1.4941406,2.6914062-1.4941406,4.7607422v19.3652344c0,2.0703125.5029297,3.6582031,1.5087891,4.7607422,1.0058594,1.1035156,2.5634766,1.6552734,4.6728516,1.6552734s3.6669922-.5517578,4.6728516-1.6552734Z"/>
        <path class="cls-1" d="m190.0224018,25.0195312v5.6835938h-19.6875v-5.6835938h19.6875Z"/>
        <path class="cls-1" d="m198.166933,37.9394531l14.8535156-19.8046875c.859375-1.1318359,1.5283203-2.3095703,2.0068359-3.5302734.4785156-1.2197266.7177734-2.3583984.7177734-3.4130859v-.0585938c0-1.6992188-.4980469-3.0175781-1.4941406-3.9550781s-2.4130859-1.40625-4.2480469-1.40625c-1.7392578,0-3.1455078.5126953-4.21875,1.5380859-1.0742188,1.0253906-1.7285156,2.4755859-1.9628906,4.3505859v.0292969h-6.1816406v-.0292969c.3515625-2.4414062,1.0693359-4.5263672,2.1533203-6.2548828s2.4853516-3.046875,4.2041016-3.9550781c1.7177734-.9082031,3.7011719-1.3623047,5.9472656-1.3623047,2.5380859,0,4.7060547.4355469,6.5039062,1.3037109,1.796875.8691406,3.1640625,2.1347656,4.1015625,3.7939453.9375,1.6601562,1.40625,3.6621094,1.40625,6.0058594v.0292969c0,1.5048828-.3125,3.0761719-.9375,4.7167969-.6259766,1.640625-1.4941406,3.2226562-2.6074219,4.7460938l-12.3339844,16.7578125h16.1132812v5.6835938h-24.0234375v-5.1855469Z"/>
        <path class="cls-1" d="m244.8954486,21.9726562l-.0292969,1.0546875c-.4882812.8984375-1.2255859,1.5576172-2.2119141,1.9775391-.9863281.4208984-2.1533203.6298828-3.5009766.6298828-2.0322266,0-3.8193359-.5166016-5.3613281-1.5527344-1.5429688-1.0351562-2.7392578-2.4941406-3.5888672-4.3798828-.8496094-1.8847656-1.2744141-4.0673828-1.2744141-6.5478516v-.0292969c0-2.7539062.4638672-5.1074219,1.3916016-7.0605469.9277344-1.9521484,2.2851562-3.4375,4.0722656-4.453125,1.7871094-1.0146484,3.9296875-1.5234375,6.4306641-1.5234375,2.5,0,4.6386719.5175781,6.4160156,1.5527344,1.7763672,1.0361328,3.1298828,2.5390625,4.0576172,4.5117188.9277344,1.9736328,1.3916016,4.3466797,1.3916016,7.1191406v.0292969c0,1.5234375-.1953125,3.1494141-.5859375,4.8779297-.3916016,1.7285156-.9482422,3.4423828-1.6699219,5.1416016-.1171875.2539062-.234375.5126953-.3515625.7763672s-.2451172.5234375-.3808594.7763672l-9.0820312,18.2519531h-6.4453125l10.7226562-21.1523438Zm.2783203-3.6914062c1.0253906-1.2695312,1.5380859-3.0566406,1.5380859-5.3613281v-.0292969c0-2.2451172-.5126953-3.984375-1.5380859-5.2148438s-2.4755859-1.8457031-4.3505859-1.8457031c-1.8945312,0-3.3544922.6152344-4.3798828,1.8457031s-1.5380859,2.9785156-1.5380859,5.2441406v.0292969c0,2.3046875.5126953,4.0869141,1.5380859,5.3466797s2.4853516,1.8896484,4.3798828,1.8896484c1.875,0,3.3251953-.6337891,4.3505859-1.9042969Z"/>
        <path class="cls-1" d="m280.5790424,25.0195312v5.6835938h-19.6875v-5.6835938h19.6875Z"/>
        <path class="cls-1" d="m295.0516986,42.0996094c-1.953125-.9765625-3.4619141-2.3583984-4.5263672-4.1455078s-1.5966797-3.8623047-1.5966797-6.2255859v-.703125c0-2.1279297.5322266-4.1308594,1.5966797-6.0058594s2.4853516-3.2910156,4.2626953-4.2480469c-1.5048828-.8203125-2.7099609-2.0068359-3.6181641-3.5595703s-1.3623047-3.1884766-1.3623047-4.9072266v-1.0253906c0-2.2265625.4980469-4.1845703,1.4941406-5.8740234.9960938-1.6884766,2.4023438-2.9980469,4.21875-3.9257812,1.8164062-.9267578,3.9257812-1.3916016,6.328125-1.3916016s4.5117188.4648438,6.328125,1.3916016c1.8164062.9277344,3.2226562,2.2373047,4.21875,3.9257812.9960938,1.6894531,1.4941406,3.6474609,1.4941406,5.8740234v1.0253906c0,1.7578125-.4638672,3.4091797-1.3916016,4.9511719-.9277344,1.5429688-2.1533203,2.7148438-3.6767578,3.515625,1.796875.9775391,3.2373047,2.3984375,4.3212891,4.2626953,1.0839844,1.8652344,1.6259766,3.8632812,1.6259766,5.9912109v.703125c0,2.3632812-.5322266,4.4384766-1.5966797,6.2255859s-2.5742188,3.1689453-4.5263672,4.1455078c-1.953125.9775391-4.21875,1.4648438-6.796875,1.4648438s-4.8447266-.4873047-6.796875-1.4648438Zm10.4589844-5.0976562c1.0546875-.5458984,1.8701172-1.3134766,2.4462891-2.2998047.5761719-.9853516.8642578-2.1240234.8642578-3.4130859v-.4101562c0-1.3076172-.2880859-2.4560547-.8642578-3.4423828-.5761719-.9853516-1.3916016-1.7529297-2.4462891-2.2998047-1.0546875-.5458984-2.2753906-.8203125-3.6621094-.8203125-1.3876953,0-2.6074219.2744141-3.6621094.8203125-1.0546875.546875-1.8701172,1.3183594-2.4462891,2.3144531s-.8642578,2.1494141-.8642578,3.4570312v.4394531c0,1.2890625.2880859,2.421875.8642578,3.3984375.5761719.9775391,1.3916016,1.7333984,2.4462891,2.2705078,1.0546875.5380859,2.2744141.8056641,3.6621094.8056641,1.3867188,0,2.6074219-.2734375,3.6621094-.8203125Zm-.4980469-19.2041016c.9179688-.5166016,1.6298828-1.2548828,2.1386719-2.2119141.5078125-.9560547.7617188-2.0605469.7617188-3.3105469v-.4101562c0-1.1904297-.2539062-2.2451172-.7617188-3.1640625-.5087891-.9179688-1.2207031-1.6259766-2.1386719-2.1240234-.9189453-.4980469-1.9736328-.7470703-3.1640625-.7470703-1.1914062,0-2.2460938.2490234-3.1640625.7470703-.9189453.4980469-1.6308594,1.2060547-2.1386719,2.1240234-.5087891.9189453-.7617188,1.9824219-.7617188,3.1933594v.4394531c0,1.2304688.2529297,2.3193359.7617188,3.2666016.5078125.9482422,1.2197266,1.6806641,2.1386719,2.1972656.9179688.5175781,1.9726562.7763672,3.1640625.7763672,1.1904297,0,2.2451172-.2587891,3.1640625-.7763672Z"/>
        <path class="cls-1" d="m328.8016986,42.0996094c-1.953125-.9765625-3.4619141-2.3583984-4.5263672-4.1455078s-1.5966797-3.8623047-1.5966797-6.2255859v-.703125c0-2.1279297.5322266-4.1308594,1.5966797-6.0058594s2.4853516-3.2910156,4.2626953-4.2480469c-1.5048828-.8203125-2.7099609-2.0068359-3.6181641-3.5595703s-1.3623047-3.1884766-1.3623047-4.9072266v-1.0253906c0-2.2265625.4980469-4.1845703,1.4941406-5.8740234.9960938-1.6884766,2.4023438-2.9980469,4.21875-3.9257812,1.8164062-.9267578,3.9257812-1.3916016,6.328125-1.3916016s4.5117188.4648438,6.328125,1.3916016c1.8164062.9277344,3.2226562,2.2373047,4.21875,3.9257812.9960938,1.6894531,1.4941406,3.6474609,1.4941406,5.8740234v1.0253906c0,1.7578125-.4638672,3.4091797-1.3916016,4.9511719-.9277344,1.5429688-2.1533203,2.7148438-3.6767578,3.515625,1.796875.9775391,3.2373047,2.3984375,4.3212891,4.2626953,1.0839844,1.8652344,1.6259766,3.8632812,1.6259766,5.9912109v.703125c0,2.3632812-.5322266,4.4384766-1.5966797,6.2255859s-2.5742188,3.1689453-4.5263672,4.1455078c-1.953125.9775391-4.21875,1.4648438-6.796875,1.4648438s-4.8447266-.4873047-6.796875-1.4648438Zm10.4589844-5.0976562c1.0546875-.5458984,1.8701172-1.3134766,2.4462891-2.2998047.5761719-.9853516.8642578-2.1240234.8642578-3.4130859v-.4101562c0-1.3076172-.2880859-2.4560547-.8642578-3.4423828-.5761719-.9853516-1.3916016-1.7529297-2.4462891-2.2998047-1.0546875-.5458984-2.2753906-.8203125-3.6621094-.8203125-1.3876953,0-2.6074219.2744141-3.6621094.8203125-1.0546875.546875-1.8701172,1.3183594-2.4462891,2.3144531s-.8642578,2.1494141-.8642578,3.4570312v.4394531c0,1.2890625.2880859,2.421875.8642578,3.3984375.5761719.9775391,1.3916016,1.7333984,2.4462891,2.2705078,1.0546875.5380859,2.2744141.8056641,3.6621094.8056641,1.3867188,0,2.6074219-.2734375,3.6621094-.8203125Zm-.4980469-19.2041016c.9179688-.5166016,1.6298828-1.2548828,2.1386719-2.2119141.5078125-.9560547.7617188-2.0605469.7617188-3.3105469v-.4101562c0-1.1904297-.2539062-2.2451172-.7617188-3.1640625-.5087891-.9179688-1.2207031-1.6259766-2.1386719-2.1240234-.9189453-.4980469-1.9736328-.7470703-3.1640625-.7470703-1.1914062,0-2.2460938.2490234-3.1640625.7470703-.9189453.4980469-1.6308594,1.2060547-2.1386719,2.1240234-.5087891.9189453-.7617188,1.9824219-.7617188,3.1933594v.4394531c0,1.2304688.2529297,2.3193359.7617188,3.2666016.5078125.9482422,1.2197266,1.6806641,2.1386719,2.1972656.9179688.5175781,1.9726562.7763672,3.1640625.7763672,1.1904297,0,2.2451172-.2587891,3.1640625-.7763672Z"/>
        <path class="cls-1" d="m367.151308,43.125h-5.9765625V7.03125l-6.0644531,3.7207031v-6.1816406l6.0644531-4.0429688h5.9765625v42.5976562Z"/>
        <path class="cls-1" d="m382.986269,42.3046875c-1.6699219-.8388672-3.0273438-2.0605469-4.0722656-3.6621094-1.0449219-1.6005859-1.7431641-3.5253906-2.0947266-5.7714844v-.0292969h5.9765625v.0292969c.2148438,1.5634766.8388672,2.7792969,1.875,3.6474609,1.0351562.8691406,2.3828125,1.3037109,4.0429688,1.3037109,1.9140625,0,3.3935547-.6396484,4.4384766-1.9189453,1.0449219-1.2783203,1.5673828-3.0800781,1.5673828-5.4052734v-3.5742188c0-2.3037109-.5224609-4.0966797-1.5673828-5.3759766-1.0449219-1.2783203-2.5244141-1.9189453-4.4384766-1.9189453-1.0361328,0-2.0322266.2929688-2.9882812.8789062-.9570312.5859375-1.7978516,1.40625-2.5195312,2.4609375h-5.4492188V.5273438h21.7089844v5.6835938h-15.7324219v9.5800781c.7421875-.6044922,1.5712891-1.0732422,2.4902344-1.40625.9179688-.3320312,1.8554688-.4980469,2.8125-.4980469,2.4609375,0,4.5654297.5087891,6.3134766,1.5234375,1.7480469,1.015625,3.0761719,2.5009766,3.984375,4.453125.9082031,1.953125,1.3623047,4.3066406,1.3623047,7.0605469v3.5742188c0,2.7539062-.46875,5.1083984-1.40625,7.0605469-.9375,1.953125-2.3046875,3.4423828-4.1015625,4.4677734-1.7978516,1.0253906-3.9550781,1.5380859-6.4746094,1.5380859-2.1494141,0-4.0576172-.4199219-5.7275391-1.2597656Z"/>
      </g>
      <path class="cls-1" d="m31.5448375,17.6402896c3.1344916,1.5883098,5.1288526,3.7721311,5.1288526,6.0907063,0,3.9151153-3.7393493,5.0267648-5.1288526,5.0267648-1.3963623,0-5.1385252-1.1116495-5.1385252-5.0267648,0-2.3185752,1.9643929-4.5350388,5.1385252-6.0907063Zm-26.1665411,6.0907063c0-2.3185752,2.0024755-4.5023965,5.126249-6.0907063,3.1821762,1.5556676,5.1397338,3.7721311,5.1397338,6.0907063,0,3.9151153-3.7447665,5.0267648-5.1397338,5.0267648-1.3855047,0-5.126249-1.1116495-5.126249-5.0267648ZM0,34.5242766V15.1650596c2.7067945,0,5.4872433.5339935,7.909325,1.3990127-2.7122349,1.7477546-4.6739544,4.1671859-4.6739544,7.1669236,0,5.7079273,5.2774173,7.151858,7.2691747,7.151858,2.0052423,0,7.2758472-1.4439307,7.2758472-7.151858,0-2.9997377-1.991711-5.4191691-4.7066196-7.1669236,2.4561189-.9004514,5.2432636-1.3990127,7.948826-1.3990127,2.7176519,0,5.4954502.4985613,7.9515691,1.3990127-2.7081895,1.7477546-4.7066196,4.1671859-4.7066196,7.1669236,0,5.7079273,5.2760453,7.151858,7.277289,7.151858,1.9915711,0,7.2690114-1.4439307,7.2690114-7.151858,0-2.9997377-1.961603-5.4191691-4.6711875-7.1669236,2.4192918-.8650192,5.2079709-1.3990127,7.9202297-1.3990127v19.3592171H0ZM31.5748056,15.1459485c-3.1741086-1.3963623-6.9490061-2.1197923-10.5522067-2.1197923s-7.37675.7234301-10.5454182,2.1197923c-3.0964089-1.3963623-6.8780257-2.1197923-10.4771808-2.1197923v-3.9859796h42.0628912v3.9859796c-3.6059905,0-7.3835621.7234301-10.4880855,2.1197923Z"/>
    </g>
  </g>
</svg>