<?xml version="1.0" encoding="UTF-8"?>
<svg id="_レイヤー_2" data-name="レイヤー 2" xmlns="http://www.w3.org/2000/svg" viewBox="0 0 177.5286768 22.3684283">
  <defs>
    <style>
      .cls-1 {
        fill: #231815;
      }

      .cls-1, .cls-2 {
        stroke-width: 0px;
      }

      .cls-2 {
        fill: #005fa8;
      }
    </style>
  </defs>
  <g id="equipment">
    <g>
      <g>
        <g>
          <path class="cls-1" d="m155.6976221,15.078125h.3515625c.546875,0,1.0498047-.0097656,1.5087891-.0292969h.0244141c.0683594,0,.1074219.0537109.1171875.1611328.0097656.1269531.0146484.2573242.0146484.390625,0,.1367188-.0048828.2685547-.0146484.3955078-.0097656.1074219-.0537109.1611328-.1318359.1611328h-.0390625l-1.4404297-.0097656h-.4101562c-.0322266.7519531-.1152344,1.3754883-.2490234,1.8701172-.1171875.4233398-.2910156.8266602-.5224609,1.2109375-.4755859.7910156-1.2617188,1.4111328-2.3583984,1.8603516-.1396484.0585938-.234375.0878906-.2832031.0878906-.0517578,0-.1142578-.0375977-.1855469-.1123047-.2636719-.2700195-.5400391-.46875-.8300781-.5957031.7519531-.234375,1.3427734-.5014648,1.7724609-.8007812.3779297-.2636719.6865234-.5874023.9277344-.9716797.2050781-.3383789.3535156-.7177734.4443359-1.1376953.078125-.3710938.125-.8413086.1416016-1.4111328h-2.1289062v.3613281c0,.7519531.0097656,1.3037109.0292969,1.6552734.0068359.0844727-.0507812.1318359-.1708984.1416016-.1269531.0097656-.2685547.0146484-.4248047.0146484s-.3007812-.0048828-.4345703-.0146484c-.1201172-.0097656-.1806641-.0488281-.1806641-.1171875v-.0244141c.0361328-.5664062.0537109-1.1118164.0537109-1.6357422v-.3808594h-.3027344c-.5791016,0-1.1298828.0161133-1.6503906.0488281-.0683594,0-.1074219-.0634766-.1171875-.1904297-.0195312-.1040039-.0419922-.4262695-.0683594-.9667969.4658203.0327148,1.0771484.0488281,1.8359375.0488281h.3027344v-.7275391c0-.5175781-.0410156-1.0073242-.1220703-1.4697266.6640625.0620117,1.0712891.1137695,1.2207031.15625.1005859.0195312.1513672.0668945.1513672.1416016,0,.0356445-.0195312.105957-.0585938.2099609-.0488281.1206055-.0732422.440918-.0732422.9619141v.7275391h2.1484375l.0097656-.9814453c.0029297-.0454102.0048828-.1137695.0048828-.2050781,0-.472168-.03125-.859375-.0927734-1.1621094.6123047.0649414,1.0029297.1220703,1.171875.1708984.1201172.0258789.1806641.078125.1806641.15625,0,.0488281-.0146484.1088867-.0439453.1806641-.0517578.1464844-.078125.4394531-.078125.8789062v.9521484Z"/>
          <path class="cls-1" d="m165.6292628,15.078125h.3515625c.5400391,0,1.0429688-.0097656,1.5087891-.0292969h.0244141c.0683594,0,.1074219.0537109.1171875.1611328.0097656.1269531.0146484.2573242.0146484.390625,0,.1367188-.0048828.2685547-.0146484.3955078-.0097656.1074219-.0537109.1611328-.1318359.1611328h-.0390625l-1.4404297-.0097656h-.4101562c-.0322266.7519531-.1152344,1.3754883-.2490234,1.8701172-.1171875.4233398-.2910156.8266602-.5224609,1.2109375-.4755859.7910156-1.2617188,1.4111328-2.3583984,1.8603516-.1396484.0585938-.234375.0878906-.2832031.0878906-.0517578,0-.1142578-.0356445-.1855469-.1074219-.2636719-.2734375-.5400391-.4736328-.8300781-.6005859.7519531-.234375,1.3427734-.5014648,1.7724609-.8007812.3779297-.2636719.6865234-.5874023.9277344-.9716797.2050781-.3383789.3535156-.7177734.4443359-1.1376953.078125-.3710938.125-.8413086.1416016-1.4111328h-2.1289062v.3613281c0,.7519531.0097656,1.3037109.0292969,1.6552734.0068359.0844727-.0507812.1318359-.1708984.1416016-.1269531.0097656-.2685547.0146484-.4248047.0146484s-.3007812-.0048828-.4345703-.0146484c-.1201172-.0097656-.1806641-.0488281-.1806641-.1171875v-.0244141c.0361328-.5664062.0537109-1.1118164.0537109-1.6357422v-.3808594h-.3027344c-.5791016,0-1.1298828.0161133-1.6503906.0488281-.0683594,0-.1074219-.0634766-.1171875-.1904297-.0195312-.1040039-.0419922-.4262695-.0683594-.9667969.4658203.0327148,1.0771484.0488281,1.8359375.0488281h.3027344v-.7324219c0-.5141602-.0410156-1.0043945-.1220703-1.4697266.6640625.0649414,1.0712891.1186523,1.2207031.1611328.1005859.0161133.1513672.0634766.1513672.1416016,0,.0327148-.0195312.1025391-.0585938.2099609-.0488281.1206055-.0732422.4394531-.0732422.9570312v.7324219h2.1484375l.0097656-.9814453c.0029297-.0454102.0048828-.1137695.0048828-.2050781,0-.4750977-.03125-.8642578-.0927734-1.1669922.6123047.0649414,1.0029297.1220703,1.171875.1708984.1201172.0258789.1806641.0795898.1806641.1611328,0,.0488281-.0146484.1088867-.0439453.1806641-.0517578.1464844-.078125.4394531-.078125.8789062v.9521484Zm.3125-2.1728516l.5419922-.2490234c.0195312-.0097656.0361328-.0146484.0488281-.0146484.0292969,0,.0585938.0180664.0878906.0537109.2958984.315918.5537109.7192383.7714844,1.2109375.0097656.0229492.0146484.0424805.0146484.0585938,0,.0356445-.0244141.0668945-.0732422.0927734l-.4101562.2099609c-.0292969.0131836-.0537109.0195312-.0732422.0195312-.0390625,0-.0712891-.0258789-.0976562-.078125-.2275391-.5175781-.4980469-.9521484-.8105469-1.3037109Zm.9619141-.4492188l.5175781-.2294922c.0224609-.0131836.0410156-.0195312.0537109-.0195312.0263672,0,.0556641.0195312.0878906.0585938.3320312.3549805.5878906.7456055.7666016,1.171875.0126953.0229492.0195312.0454102.0195312.0683594,0,.0424805-.0263672.074707-.078125.0976562l-.4003906.2001953c-.0263672.0131836-.0488281.0195312-.0683594.0195312-.0361328,0-.0664062-.0229492-.0927734-.0683594-.2050781-.4848633-.4736328-.9179688-.8056641-1.2988281Z"/>
          <path class="cls-1" d="m174.242544,15.2978516h1.3427734c.4658203,0,1.0449219-.0063477,1.7382812-.0195312h.0488281c.0878906,0,.1347656.0600586.1416016.1806641.0097656.1269531.0146484.2573242.0146484.390625,0,.1303711-.0048828.2587891-.0146484.3857422,0,.0844727-.0146484.1381836-.0439453.1611328-.0263672.0195312-.0751953.0292969-.1464844.0292969l-1.6796875-.0390625h-1.4208984c-.0517578.7617188-.1298828,1.3364258-.234375,1.7236328-.0908203.3354492-.2392578.6704102-.4443359,1.0058594-.4912109.8266602-1.2011719,1.484375-2.1289062,1.9726562-.0751953.0454102-.1513672.0683594-.2294922.0683594-.0810547,0-.1542969-.0341797-.2197266-.1025391-.2607422-.234375-.5400391-.4165039-.8398438-.546875,1.0576172-.5078125,1.8134766-1.1118164,2.265625-1.8115234.3613281-.5532227.5644531-1.3232422.6103516-2.3095703h-1.9287109c-.1953125,0-.4658203.0083008-.8105469.0244141-.3388672.0161133-.5488281.0258789-.6298828.0292969h-.0292969c-.0810547,0-.1318359-.0634766-.1513672-.1904297-.0166016-.1137695-.0390625-.4443359-.0683594-.9912109.4326172.0327148.9990234.0488281,1.6992188.0488281h1.9726562c0-.6933594-.0029297-1.1865234-.0097656-1.4794922-.0126953-.4038086-.0537109-.7407227-.1220703-1.0107422.6123047.0258789,1.0546875.0732422,1.328125.1416016.1005859.0258789.1513672.0732422.1513672.1416016,0,.0390625-.0224609.1123047-.0683594.2197266-.0556641.1171875-.0830078.3188477-.0830078.6054688,0,.5336914-.0029297.9912109-.0097656,1.3720703Z"/>
        </g>
        <g>
          <path class="cls-1" d="m68.3431299,3.5942383l.6435547-.0561523c.03125.2583008.1015625.4697266.2128906.6352539.1123047.1655273.2851562.2993164.5195312.4013672s.4990234.1533203.7919922.1533203c.2607422,0,.4912109-.0390625.6904297-.1162109.1992188-.0776367.3476562-.1835938.4453125-.3188477.0976562-.1347656.1464844-.2822266.1464844-.4418945,0-.1616211-.0478516-.3032227-.1416016-.4238281-.09375-.1210938-.2480469-.2226562-.4648438-.3046875-.1376953-.0541992-.4443359-.1376953-.9179688-.2519531-.4746094-.1137695-.8066406-.2211914-.9970703-.3217773-.2460938-.1293945-.4296875-.2895508-.5507812-.4804688-.1210938-.1914062-.1806641-.4057617-.1806641-.6425781,0-.2607422.0732422-.5039062.2216797-.7304688.1474609-.2265625.3632812-.3984375.6474609-.5161133.2841797-.1171875.5996094-.1757812.9472656-.1757812.3818359,0,.7197266.0615234,1.0117188.1845703.2919922.1235352.5166016.3046875.6738281.5439453.1572266.2397461.2421875.5107422.2539062.8134766l-.6542969.0493164c-.0361328-.3261719-.1552734-.5727539-.3574219-.7392578-.203125-.1669922-.5029297-.25-.8994141-.25-.4130859,0-.7148438.0756836-.9033203.2270508-.1894531.1513672-.2832031.3339844-.2832031.5473633,0,.1855469.0664062.3378906.2001953.4575195.1318359.1196289.4746094.2426758,1.0302734.3681641.5546875.1254883.9355469.2353516,1.1416016.3291016.3007812.1386719.5224609.3139648.6660156.5263672.1425781.2124023.2148438.4570312.2148438.7338867,0,.2744141-.0791016.5332031-.2363281.7763672-.1572266.2426758-.3828125.4316406-.6777344.5668945-.2939453.1347656-.6259766.2021484-.9941406.2021484-.4677734,0-.8583984-.0678711-1.1738281-.2041016-.3164062-.1362305-.5634766-.3408203-.7431641-.6142578s-.2744141-.5825195-.2832031-.9277344Z"/>
          <path class="cls-1" d="m75.5579737,5.2524414v-2.1860352l-1.9882812-2.9750977h.8300781l1.0175781,1.5561523c.1875.2910156.3632812.5820312.5244141.8730469.1552734-.2700195.3427734-.5737305.5634766-.9116211l1-1.5175781h.7958984l-2.0595703,2.9750977v2.1860352h-.6835938Z"/>
          <path class="cls-1" d="m79.4027003,3.5942383l.6435547-.0561523c.03125.2583008.1015625.4697266.2128906.6352539.1123047.1655273.2851562.2993164.5195312.4013672s.4990234.1533203.7919922.1533203c.2607422,0,.4912109-.0390625.6904297-.1162109.1992188-.0776367.3476562-.1835938.4453125-.3188477.0976562-.1347656.1464844-.2822266.1464844-.4418945,0-.1616211-.0478516-.3032227-.1416016-.4238281-.09375-.1210938-.2480469-.2226562-.4648438-.3046875-.1376953-.0541992-.4443359-.1376953-.9179688-.2519531-.4746094-.1137695-.8066406-.2211914-.9970703-.3217773-.2460938-.1293945-.4296875-.2895508-.5507812-.4804688-.1210938-.1914062-.1806641-.4057617-.1806641-.6425781,0-.2607422.0732422-.5039062.2216797-.7304688.1474609-.2265625.3632812-.3984375.6474609-.5161133.2841797-.1171875.5996094-.1757812.9472656-.1757812.3818359,0,.7197266.0615234,1.0117188.1845703.2919922.1235352.5166016.3046875.6738281.5439453.1572266.2397461.2421875.5107422.2539062.8134766l-.6542969.0493164c-.0361328-.3261719-.1552734-.5727539-.3574219-.7392578-.203125-.1669922-.5029297-.25-.8994141-.25-.4130859,0-.7148438.0756836-.9033203.2270508-.1894531.1513672-.2832031.3339844-.2832031.5473633,0,.1855469.0664062.3378906.2001953.4575195.1318359.1196289.4746094.2426758,1.0302734.3681641.5546875.1254883.9355469.2353516,1.1416016.3291016.3007812.1386719.5224609.3139648.6660156.5263672.1425781.2124023.2148438.4570312.2148438.7338867,0,.2744141-.0791016.5332031-.2363281.7763672-.1572266.2426758-.3828125.4316406-.6777344.5668945-.2939453.1347656-.6259766.2021484-.9941406.2021484-.4677734,0-.8583984-.0678711-1.1738281-.2041016-.3164062-.1362305-.5634766-.3408203-.7431641-.6142578s-.2744141-.5825195-.2832031-.9277344Z"/>
          <path class="cls-1" d="m86.476919,5.2524414V.7001953h-1.7001953V.0913086h4.0908203v.6088867h-1.7070312v4.5522461h-.6835938Z"/>
          <path class="cls-1" d="m90.3030909,5.2524414V.0913086h3.7314453v.6088867h-3.0488281v1.5810547h2.8554688v.6054688h-2.8554688v1.7568359h3.1689453v.6088867h-3.8515625Z"/>
          <path class="cls-1" d="m95.7972315,5.2524414V.0913086h1.0283203l1.2216797,3.6542969c.1123047.340332.1943359.5952148.2460938.7641602.0585938-.1879883.1503906-.4638672.2744141-.8276367l1.2353516-3.5908203h.9189453v5.1611328h-.6582031V.9326172l-1.5,4.3198242h-.6152344l-1.4931641-4.3935547v4.3935547h-.6582031Z"/>
          <path class="cls-1" d="m105.2415674,5.2524414V.0913086h1.9355469c.3945312,0,.7109375.0522461.9492188.1567383s.4248047.2651367.5595703.4824219c.1347656.2167969.203125.4438477.203125.6811523,0,.2207031-.0605469.4282227-.1796875.6230469-.1201172.1948242-.3007812.3520508-.5429688.4716797.3125.0917969.5527344.2475586.7207031.4682617s.2509766.4814453.2509766.7817383c0,.2416992-.0507812.4663086-.1523438.6738281-.1025391.2080078-.2285156.3681641-.3789062.480957-.1503906.1123047-.3388672.1977539-.5644531.2548828-.2265625.0576172-.5048828.0864258-.8330078.0864258h-1.9677734Zm.6826172-2.9926758h1.1162109c.3027344,0,.5195312-.0195312.6513672-.0595703.1738281-.0517578.3046875-.137207.3925781-.2568359.0878906-.1201172.1318359-.2700195.1318359-.4506836,0-.1713867-.0410156-.3222656-.1230469-.4526367s-.2001953-.2192383-.3525391-.2675781c-.1523438-.0478516-.4140625-.0722656-.7851562-.0722656h-1.03125v1.5595703Zm0,2.3837891h1.2851562c.2207031,0,.375-.0083008.4648438-.0249023.1572266-.027832.2880859-.0751953.3945312-.140625.1054688-.065918.1923828-.1616211.2597656-.2871094.0683594-.1254883.1025391-.2705078.1025391-.4345703,0-.1923828-.0498047-.3598633-.1484375-.5019531-.0976562-.1416016-.2353516-.2416992-.4101562-.2993164-.1748047-.0571289-.4257812-.0859375-.7548828-.0859375h-1.1933594v1.7744141Z"/>
          <path class="cls-1" d="m110.2318018,5.2524414l1.9824219-5.1611328h.7353516l2.1123047,5.1611328h-.7773438l-.6025391-1.5629883h-2.1582031l-.5664062,1.5629883h-.7255859Zm1.4892578-2.1191406h1.75l-.5390625-1.4296875c-.1640625-.434082-.2861328-.7905273-.3662109-1.0703125-.0654297.3310547-.1582031.659668-.2783203.9858398l-.5664062,1.5141602Z"/>
          <path class="cls-1" d="m117.6419581,5.2524414V.7001953h-1.7001953V.0913086h4.0908203v.6088867h-1.7070312v4.5522461h-.6835938Z"/>
          <path class="cls-1" d="m121.4749659,5.2524414V.0913086h.6835938v2.1196289h2.6826172V.0913086h.6826172v5.1611328h-.6826172v-2.4326172h-2.6826172v2.4326172h-.6835938Z"/>
          <path class="cls-1" d="m127.3919581,5.2524414V.0913086h2.2890625c.4599609,0,.8095703.0463867,1.0488281.1391602s.4306641.2563477.5742188.4912109c.1425781.234375.2138672.4941406.2138672.777832,0,.3662109-.1181641.6748047-.3554688.9257812-.2363281.2514648-.6025391.4111328-1.0976562.4790039.1806641.0869141.3173828.1723633.4111328.2568359.2001953.1831055.3886719.4121094.5673828.6865234l.8974609,1.4047852h-.859375l-.6826172-1.0737305c-.1992188-.3100586-.3632812-.546875-.4931641-.7109375-.1289062-.1645508-.2441406-.2792969-.3466797-.3452148-.1015625-.065918-.2060547-.1113281-.3115234-.137207-.0771484-.0166016-.2041016-.0249023-.3798828-.0249023h-.7919922v2.2919922h-.6835938Zm.6835938-2.8833008h1.4677734c.3125,0,.5566406-.0322266.7324219-.0966797s.3095703-.1679688.4013672-.3100586.1367188-.2963867.1367188-.4628906c0-.2441406-.0878906-.4448242-.265625-.6020508-.1767578-.1572266-.4570312-.2358398-.8398438-.2358398h-1.6328125v1.7075195Z"/>
          <path class="cls-1" d="m133.1028956,2.7387695c0-.8564453.2294922-1.5273438.6894531-2.0117188.4599609-.4848633,1.0546875-.7270508,1.7822266-.7270508.4755859,0,.9052734.1137695,1.2880859.3413086s.6738281.5449219.875.9521484c.2001953.4072266.3007812.8691406.3007812,1.3852539,0,.5234375-.1054688.9916992-.3164062,1.4047852-.2119141.4130859-.5107422.7260742-.8984375.9384766-.3867188.2124023-.8046875.3183594-1.2529297.3183594-.4863281,0-.9199219-.1171875-1.3027344-.3520508-.3828125-.234375-.671875-.5546875-.8691406-.9609375s-.2958984-.8354492-.2958984-1.2885742Zm.7041016.0107422c0,.621582.1669922,1.1118164.5019531,1.4697266.3339844.3579102.7539062.5366211,1.2578125.5366211.5146484,0,.9375-.1806641,1.2695312-.5419922s.4980469-.8740234.4980469-1.5385742c0-.4199219-.0712891-.7866211-.2128906-1.1000977s-.3496094-.5561523-.6230469-.7285156c-.2734375-.1728516-.5800781-.2587891-.9208984-.2587891-.4833984,0-.8994141.1660156-1.2480469.4980469s-.5224609.8867188-.5224609,1.6635742Z"/>
          <path class="cls-1" d="m139.4319971,2.7387695c0-.8564453.2294922-1.5273438.6894531-2.0117188.4599609-.4848633,1.0546875-.7270508,1.7822266-.7270508.4755859,0,.9052734.1137695,1.2880859.3413086s.6738281.5449219.875.9521484c.2001953.4072266.3007812.8691406.3007812,1.3852539,0,.5234375-.1054688.9916992-.3164062,1.4047852-.2119141.4130859-.5107422.7260742-.8984375.9384766-.3867188.2124023-.8046875.3183594-1.2529297.3183594-.4863281,0-.9199219-.1171875-1.3027344-.3520508-.3828125-.234375-.671875-.5546875-.8691406-.9609375s-.2958984-.8354492-.2958984-1.2885742Zm.7041016.0107422c0,.621582.1669922,1.1118164.5019531,1.4697266.3339844.3579102.7539062.5366211,1.2578125.5366211.5146484,0,.9375-.1806641,1.2695312-.5419922s.4980469-.8740234.4980469-1.5385742c0-.4199219-.0712891-.7866211-.2128906-1.1000977s-.3496094-.5561523-.6230469-.7285156c-.2734375-.1728516-.5800781-.2587891-.9208984-.2587891-.4833984,0-.8994141.1660156-1.2480469.4980469s-.5224609.8867188-.5224609,1.6635742Z"/>
          <path class="cls-1" d="m145.9476221,5.2524414V.0913086h1.0283203l1.2216797,3.6542969c.1123047.340332.1943359.5952148.2460938.7641602.0585938-.1879883.1503906-.4638672.2744141-.8276367l1.2353516-3.5908203h.9189453v5.1611328h-.6582031V.9326172l-1.5,4.3198242h-.6152344l-1.4931641-4.3935547v4.3935547h-.6582031Z"/>
        </g>
        <g>
          <path class="cls-1" d="m73.6914166,8.7553669c-2.0249035.1877974-3.0730827,1.6221919-3.2134708,2.9605731-.1801929,1.7136917.9748657,2.7302971,1.9030429,3.5471755l.3875986.3464111.2902011.2640694c.9070706.8185676,2.1489638,1.9397199,2.0171094,3.1953246-.152961,1.4567147-1.5541302,1.7856209-2.3578677,1.750064-1.443003-.063718-2.7741773-1.2420837-2.7873191-1.253936l-1.0365166,1.1480048c.0703742.0640783,1.7487734,1.5630239,3.7556993,1.6511684,1.7982117.0796285,3.7371717-.9715098,3.9645841-3.1336358.2140809-2.0380466-1.4967271-3.5825442-2.5189831-4.5052604l-.2770404-.2519516c-.0003793-.0003793-.4153993-.3714987-.4153993-.3714987-.9228104-.812082-1.4767205-1.3670923-1.3865292-2.2243474.0724223-.6900302.5877993-1.4677501,1.817858-1.5818166,1.4241152-.132139,2.7165846.9148463,2.7293471.9254834l.9885575-1.189951c-.0718534-.0600011-1.787477-1.4681119-3.8608718-1.275877Z"/>
          <path class="cls-1" d="m131.1369063,15.3442246c.3137161-1.9671982.568531-4.1706082-.3848273-5.4196515-.4100163-.5372413-.9892997-.8503887-1.7222811-.9306809-1.04968-.1148062-1.9960054.1696492-2.812714.8456857-.2059241.1703698-.3959401.3627943-.5733478.5701054l.1455652-1.3835528h-1.5556283l-.7722388,7.346021c-.0240839.2018495-.0359362.3333423-.0396341.3785152l-.547422,5.2090964h1.5552277l.577444-5.4931725c.1800032-1.4287637.7974226-4.2792322,2.1978522-5.4365103.4885422-.4038886,1.0304103-.5669574,1.6563634-.4983468.3948237.0431424.5607559.1997256.6611307.3312198.6307698.8265134.2496404,3.2169812.086664,4.2376638-.5374116,3.3723507-.2470398,5.6783542.8830057,7.0454465l1.1707795-.8200278.0896413-.081487c-.8792888-.9629951-1.0863342-2.9482657-.6155799-5.9003242Z"/>
          <path class="cls-1" d="m104.1321757,10.1388438c0-.5542707-.4388953-1.0050376-.987797-1.0266009h-5.3968728l-.1626153,1.5468128h4.5579576c-.9155853,1.4230162-4.5001753,6.9957237-6.2580133,9.7280486-.0829661.1485249-.1314941.319274-.1314941.5018753,0,.5470645.4278016.9933749.9670924,1.0255942h6.3528318l.1625926-1.5467164h-5.4991059c.9207813-1.4311706,4.5409092-7.0593469,6.2876535-9.774454.0681574-.1372213.1077706-.2907513.1077706-.4545596Z"/>
          <path class="cls-1" d="m90.7035223,21.3260358l.0896413-.081487c-.8792888-.9629951-1.0863342-2.9482657-.6155783-5.9003242l.8355949-5.1907409h0c.0036979-.0228702.0070355-.0442612.0103542-.0651023.0229666-.173897-.0440716-.3674215-.132594-.4957487l-.0388945-.0491728c-.1855596-.2301054-.9596569-.9542907-3.1315842-.6043728-1.5133977.2437972-4.3649847,2.0823837-5.4527981,7.4267669-.4426122,2.1747003-.2492775,3.7890222.5750166,4.7975871.5957629.7292866,1.4946791,1.1148563,2.5991615,1.1148563.5559596,0,1.9634232-.2137208,3.1593864-2.1367526.1862992.8122527.4959381,1.4785786.9304149,2.0052584l1.1718794-.8207674Zm-2.0537662-6.2241291c-.8652177,5.4715172-2.9704893,5.6296554-3.2079145,5.6296554-.6333489,0-1.1048428-.1840805-1.4011502-.5466852-.5089092-.6228055-.5978109-1.8367281-.2570526-3.5105011.9552194-4.6938748,3.3434669-6.0728179,4.1831216-6.2081048.7237298-.1166646,1.171519-.0746411,1.4311697-.0125919l-.7481739,4.6469381v.0012895Z"/>
          <path class="cls-1" d="m117.3219438,21.3260358l.0896223-.081487c-.8792888-.9629951-1.0863342-2.9482657-.6155799-5.9003242l.8355965-5.1907409h0c.0037002-.0228702.0070355-.0442612.0103731-.0651023.022965-.173897-.0440716-.3674215-.1325917-.4957487l-.0388968-.0491728c-.1855596-.2301054-.9600361-.9542907-3.1316047-.6043728-1.5133962.2437972-4.3649832,2.0823837-5.4527966,7.4267669-.4426122,2.1747003-.2492775,3.7890222.574827,4.7975871.5959525.7292866,1.4945084,1.1148563,2.5993701,1.1148563.5559391,0,1.9634043-.2137208,3.1593675-2.1367526.1863181.8122527.4959593,1.4785786.9304171,2.0052584l1.1718961-.8207674Zm-2.0537851-6.2241291c-.8652177,5.4715172-2.9704893,5.6296554-3.2078955,5.6296554-.6337281,0-1.105222-.1840805-1.4015274-.5466852-.508551-.6228055-.5974338-1.8367281-.2570547-3.5105011.9555797-4.6938748,3.3438272-6.0728179,4.1834841-6.2081048.7237275-.1166646,1.1715358-.0746411,1.4311675-.0125919l-.7481739,4.6469381v.0012895Z"/>
          <path class="cls-1" d="m144.9018616,21.3260358l.0896413-.081487c-.8792888-.9629951-1.0863342-2.9482657-.6155799-5.9003242l.8355805-5.1907409h0c.0037139-.0228702.0070325-.0442612.0103701-.0651023.022965-.173897-.0440716-.3674215-.1322148-.4957487l-.0392738-.0491728c-.1855596-.2301054-.9596569-.9542907-3.1312254-.6043728-1.5137565.2437972-4.3653435,2.0823837-5.4531759,7.4267669-.4425932,2.1747003-.2492586,3.7890222.5748459,4.7975871.5959525.7292866,1.4948687,1.1148563,2.5993511,1.1148563.5559581,0,1.9637835-.2137208,3.1593864-2.1367526.1862992.8122527.4959381,1.4785786.9303959,2.0052584l1.1718983-.8207674Zm-2.0537851-6.2241291c-.8652177,5.4715172-2.9704703,5.6296554-3.2078955,5.6296554-.6333489,0-1.1048399-.1840805-1.4011502-.5466852-.5089092-.6228055-.5978109-1.8367281-.2570498-3.5105011.9552166-4.6938748,3.3434451-6.0728179,4.1831188-6.2081048.7237327-.1166646,1.171519-.0746411,1.4311697-.0125919l-.7481929,4.6469381v.0012895Z"/>
        </g>
      </g>
      <g>
        <path class="cls-2" d="m0,6.212238h13.822021v4.6305714h-1.6834237c0-2.0755237-.4827774-3.2910736-3.6025687-3.2910736v9.1382444s.1182805.4888647.7148341.4888647h1.9263779v1.4543149H2.7672589v-1.4543149h1.9196697c.3658699,0,.7225918,0,.7225918-.3720536V7.5517358c-.96503,0-3.7266215-.3628178-3.7266215,3.2910736H0v-4.6305714Z"/>
        <path class="cls-2" d="m22.3416772,5.6156929c-5.041665,0-7.4388646,3.0696256-7.4388646,6.8597442,0,4.4543576,3.3288549,6.8628928,7.4388646,6.8628928,4.1108493,0,7.4398184-2.4085352,7.4398184-6.8628928,0-3.7901186-2.1451151-6.8597442-7.4398184-6.8597442Zm0,12.0448801c-2.5162147,0-3.9751469-2.3215303-3.9751469-5.1851358s.8623873-5.1839814,3.9751469-5.1839814c3.0106416,0,3.9755667,2.3203758,3.9755667,5.1839814s-1.4409855,5.1851358-3.9755667,5.1851358Z"/>
        <path class="cls-2" d="m31.0037527,6.212238h13.819922v4.6305714h-1.6818398c0-2.0755237-.4812127-3.2910736-3.6082362-3.2910736v9.1382444s.122469.4888647.7241661.4888647h1.92008v1.4543149h-8.409457v-1.4543149h1.9166356c.3649073,0,.7236319,0,.7236319-.3720536V7.5517358c-.9609369,0-3.7214788-.3628178-3.7214788,3.2910736h-1.6834237v-4.6305714Z"/>
        <path class="cls-2" d="m53.340812,5.6156929c-5.0313798,0-7.4327774,3.0696256-7.4327774,6.8597442,0,4.4543576,3.3259163,6.8628928,7.4327774,6.8628928,4.1072809,0,7.4424329-2.4085352,7.4424329-6.8628928,0-3.7901186-2.1395434-6.8597442-7.4424329-6.8597442Zm0,12.0448801c-2.5121215,0-3.9756716-2.3215303-3.9756716-5.1851358s.8619773-5.1839814,3.9756716-5.1839814c3.0178833,0,3.9771409,2.3203758,3.9771409,5.1839814s-1.4404607,5.1851358-3.9771409,5.1851358Z"/>
      </g>
    </g>
  </g>
</svg>