<?xml version="1.0" encoding="UTF-8"?>
<svg id="_レイヤー_2" data-name="レイヤー 2" xmlns="http://www.w3.org/2000/svg" viewBox="0 0 400.3183594 42.8378906">
  <defs>
    <style>
      .cls-1 {
        fill: #d21619;
        stroke-width: 0px;
      }
    </style>
  </defs>
  <g id="_レイヤー_1-2" data-name="レイヤー 1">
    <g>
      <g>
        <path class="cls-1" d="m54.1386719,39.6972656c-2.0253906-2.0927734-3.0390625-5.0117188-3.0390625-8.7578125V11.8974609c0-3.7646484,1.0175781-6.6884766,3.0546875-8.7724609,2.0351562-2.0839844,5.0019531-3.125,8.9013672-3.125,3.9179688,0,6.8896484,1.0371094,8.9169922,3.1113281,2.0253906,2.0742188,3.0390625,5.0029297,3.0390625,8.7861328v19.0419922c0,3.765625-1.0185547,6.6894531-3.0546875,8.7734375-2.0351562,2.0839844-5.0029297,3.125-8.9013672,3.125-3.9179688,0-6.8896484-1.046875-8.9169922-3.140625Zm13.5117188-4.0761719c.9892578-1.0839844,1.484375-2.6445312,1.484375-4.6816406V11.8974609c0-2.0361328-.4902344-3.5966797-1.4697266-4.6806641-.9794922-1.0859375-2.5166016-1.6289062-4.609375-1.6289062-2.09375,0-3.6298828.5429688-4.609375,1.6289062-.9794922,1.0839844-1.4697266,2.6445312-1.4697266,4.6806641v19.0419922c0,2.0371094.4941406,3.5976562,1.484375,4.6816406.9882812,1.0859375,2.5205078,1.6279297,4.5947266,1.6279297s3.6054688-.5419922,4.5947266-1.6279297Z"/>
        <path class="cls-1" d="m93.765625,42.40625h-5.8769531V6.9140625l-5.9628906,3.6582031v-6.078125l5.9628906-3.9765625h5.8769531v41.8886719Z"/>
        <path class="cls-1" d="m102.6386719,37.3066406l14.6054688-19.4746094c.8457031-1.1132812,1.5029297-2.2714844,1.9736328-3.4707031.4707031-1.2011719.7060547-2.3203125.7060547-3.3574219v-.0566406c0-1.671875-.4902344-2.9677734-1.46875-3.8896484-.9804688-.921875-2.3730469-1.3828125-4.1777344-1.3828125-1.7089844,0-3.0917969.5048828-4.1484375,1.5126953s-1.6992188,2.4335938-1.9296875,4.2773438v.0292969h-6.0791016v-.0292969c.3457031-2.4003906,1.0517578-4.4511719,2.1171875-6.1503906,1.0664062-1.6992188,2.4443359-2.9960938,4.1337891-3.8886719,1.6904297-.8925781,3.6396484-1.3398438,5.8486328-1.3398438,2.4970703,0,4.6279297.4277344,6.3955078,1.28125,1.7666016.8554688,3.1113281,2.0996094,4.0332031,3.7314453.921875,1.6328125,1.3828125,3.6005859,1.3828125,5.9052734v.0292969c0,1.4785156-.3076172,3.0253906-.921875,4.6386719-.6152344,1.6132812-1.46875,3.1679688-2.5644531,4.6660156l-12.1279297,16.4785156h15.8447266v5.5898438h-23.6230469v-5.0996094Z"/>
        <path class="cls-1" d="m136.7910156,39.6972656c-2.0263672-2.0927734-3.0390625-5.0117188-3.0390625-8.7578125V11.8974609c0-3.7646484,1.0175781-6.6884766,3.0537109-8.7724609s5.0029297-3.125,8.9013672-3.125c3.9179688,0,6.890625,1.0371094,8.9169922,3.1113281s3.0390625,5.0029297,3.0390625,8.7861328v19.0419922c0,3.765625-1.0185547,6.6894531-3.0537109,8.7734375-2.0361328,2.0839844-5.0039062,3.125-8.9023438,3.125-3.9179688,0-6.8896484-1.046875-8.9160156-3.140625Zm13.5117188-4.0761719c.9882812-1.0839844,1.4833984-2.6445312,1.4833984-4.6816406V11.8974609c0-2.0361328-.4892578-3.5966797-1.4697266-4.6806641-.9785156-1.0859375-2.515625-1.6289062-4.609375-1.6289062s-3.6289062.5429688-4.609375,1.6289062c-.9785156,1.0839844-1.46875,2.6445312-1.46875,4.6806641v19.0419922c0,2.0371094.4941406,3.5976562,1.4833984,4.6816406.9892578,1.0859375,2.5205078,1.6279297,4.5947266,1.6279297s3.6054688-.5419922,4.5957031-1.6279297Z"/>
        <path class="cls-1" d="m185.953125,24.6015625v5.5898438h-19.359375v-5.5898438h19.359375Z"/>
        <path class="cls-1" d="m197.6347656,39.6972656c-2.0263672-2.0927734-3.0390625-5.0117188-3.0390625-8.7578125V11.8974609c0-3.7646484,1.0175781-6.6884766,3.0537109-8.7724609s5.0029297-3.125,8.9013672-3.125c3.9179688,0,6.890625,1.0371094,8.9169922,3.1113281s3.0390625,5.0029297,3.0390625,8.7861328v19.0419922c0,3.765625-1.0185547,6.6894531-3.0537109,8.7734375-2.0361328,2.0839844-5.0039062,3.125-8.9023438,3.125-3.9179688,0-6.8896484-1.046875-8.9160156-3.140625Zm13.5117188-4.0761719c.9882812-1.0839844,1.4833984-2.6445312,1.4833984-4.6816406V11.8974609c0-2.0361328-.4892578-3.5966797-1.4697266-4.6806641-.9785156-1.0859375-2.515625-1.6289062-4.609375-1.6289062s-3.6289062.5429688-4.609375,1.6289062c-.9785156,1.0839844-1.46875,2.6445312-1.46875,4.6806641v19.0419922c0,2.0371094.4941406,3.5976562,1.4833984,4.6816406.9892578,1.0859375,2.5205078,1.6279297,4.5947266,1.6279297s3.6054688-.5419922,4.5957031-1.6279297Z"/>
        <path class="cls-1" d="m248.7851562,5.7617188l-10.8320312,36.6445312h-6.2519531l10.8320312-36.2988281h-10.6591797v6.0205078h-5.8769531V.5175781h22.7880859v5.2441406Z"/>
        <path class="cls-1" d="m276.4980469,24.6015625v5.5898438h-19.359375v-5.5898438h19.359375Z"/>
        <path class="cls-1" d="m289.6347656,41.3535156c-1.7480469-.9882812-3.078125-2.4287109-3.9902344-4.3203125s-1.3671875-4.171875-1.3671875-6.8417969v-.0292969c0-1.5556641.1816406-3.1875.546875-4.8974609.3652344-1.7089844.8925781-3.3896484,1.5839844-5.0419922.1152344-.2871094.2402344-.5703125.375-.8496094.1347656-.2773438.2685547-.5517578.4033203-.8203125l9.1035156-18.0351562h6.3378906l-10.6884766,20.8867188.0292969-1.0371094c.4804688-.9023438,1.1816406-1.6035156,2.1035156-2.1035156.921875-.4980469,1.9960938-.7480469,3.2265625-.7480469,2.1699219,0,4.0332031.4892578,5.5878906,1.46875,1.5566406.9794922,2.7373047,2.40625,3.5439453,4.2773438.8066406,1.8730469,1.2099609,4.125,1.2099609,6.7558594v.0292969c0,2.6894531-.4570312,4.9941406-1.3691406,6.9140625-.9121094,1.9208984-2.2460938,3.3808594-4.0039062,4.3789062-1.7578125.9990234-3.8652344,1.4980469-6.3232422,1.4980469s-4.5615234-.4941406-6.3095703-1.484375Zm10.6171875-5.890625c1.0078125-1.1523438,1.5117188-2.7949219,1.5117188-4.9257812v-.0292969c0-2.3427734-.5283203-4.1523438-1.5839844-5.4296875-1.0566406-1.2773438-2.5644531-1.9160156-4.5234375-1.9160156-1.7480469,0-3.1015625.6425781-4.0625,1.9296875-.9599609,1.2871094-1.4394531,3.1015625-1.4394531,5.4453125v.0283203c0,2.1318359.5039062,3.7695312,1.5117188,4.9111328,1.0078125,1.1435547,2.4345703,1.7148438,4.2783203,1.7148438,1.8623047,0,3.2978516-.5761719,4.3076172-1.7285156Z"/>
        <path class="cls-1" d="m321.4833984,41.5996094c-1.6425781-.8261719-2.9775391-2.0263672-4.0048828-3.6015625-1.0273438-1.5742188-1.7138672-3.4667969-2.0595703-5.6757812v-.0283203h5.8769531v.0283203c.2109375,1.5371094.8251953,2.7324219,1.84375,3.5878906,1.0175781.8535156,2.3427734,1.28125,3.9755859,1.28125,1.8818359,0,3.3369141-.6289062,4.3642578-1.8867188s1.5419922-3.0292969,1.5419922-5.3154297v-3.5146484c0-2.265625-.5146484-4.0283203-1.5419922-5.2871094-1.0273438-1.2568359-2.4824219-1.8867188-4.3642578-1.8867188-1.0175781,0-1.9980469.2890625-2.9384766.8652344-.9414062.5761719-1.7666016,1.3828125-2.4775391,2.4199219h-5.3583984V.5175781h21.3466797v5.5898438h-15.4697266v9.4199219c.7294922-.5957031,1.5458984-1.0566406,2.4482422-1.3828125s1.8242188-.4902344,2.765625-.4902344c2.4199219,0,4.4902344.5,6.2089844,1.4980469,1.71875,1,3.0244141,2.4589844,3.9179688,4.3789062.8925781,1.921875,1.3398438,4.2353516,1.3398438,6.9433594v3.5146484c0,2.7080078-.4609375,5.0224609-1.3828125,6.9423828-.921875,1.921875-2.2675781,3.3847656-4.0332031,4.3945312-1.7675781,1.0078125-3.8896484,1.5117188-6.3671875,1.5117188-2.1132812,0-3.9902344-.4130859-5.6318359-1.2382812Z"/>
        <path class="cls-1" d="m352.0351562,41.3535156c-1.7480469-.9882812-3.078125-2.4287109-3.9902344-4.3203125s-1.3691406-4.171875-1.3691406-6.8417969v-.0292969c0-1.5556641.1826172-3.1875.5478516-4.8974609.3642578-1.7089844.8935547-3.3896484,1.5849609-5.0419922.1152344-.2871094.2392578-.5703125.3740234-.8496094.1337891-.2773438.2685547-.5517578.4033203-.8203125l9.1035156-18.0351562h6.3378906l-10.6875,20.8867188.0283203-1.0371094c.4794922-.9023438,1.1806641-1.6035156,2.1025391-2.1035156.921875-.4980469,1.9980469-.7480469,3.2265625-.7480469,2.1699219,0,4.0332031.4892578,5.5898438,1.46875,1.5546875.9794922,2.7363281,2.40625,3.5429688,4.2773438.8066406,1.8730469,1.2099609,4.125,1.2099609,6.7558594v.0292969c0,2.6894531-.4560547,4.9941406-1.3681641,6.9140625-.9121094,1.9208984-2.2480469,3.3808594-4.0039062,4.3789062-1.7578125.9990234-3.8662109,1.4980469-6.3242188,1.4980469-2.4589844,0-4.5615234-.4941406-6.3085938-1.484375Zm10.6152344-5.890625c1.0078125-1.1523438,1.5126953-2.7949219,1.5126953-4.9257812v-.0292969c0-2.3427734-.5283203-4.1523438-1.5849609-5.4296875s-2.5634766-1.9160156-4.5224609-1.9160156c-1.7480469,0-3.1025391.6425781-4.0615234,1.9296875-.9609375,1.2871094-1.4414062,3.1015625-1.4414062,5.4453125v.0283203c0,2.1318359.5039062,3.7695312,1.5136719,4.9111328,1.0078125,1.1435547,2.4335938,1.7148438,4.2773438,1.7148438,1.8632812,0,3.2988281-.5761719,4.3066406-1.7285156Z"/>
        <path class="cls-1" d="m382.3125,41.3535156c-1.7480469-.9882812-3.078125-2.4287109-3.9902344-4.3203125s-1.3681641-4.171875-1.3681641-6.8417969v-.0292969c0-1.5556641.1826172-3.1875.5478516-4.8974609.3642578-1.7089844.8925781-3.3896484,1.5839844-5.0419922.1152344-.2871094.2402344-.5703125.375-.8496094.1337891-.2773438.2675781-.5517578.4023438-.8203125l9.1035156-18.0351562h6.3378906l-10.6875,20.8867188.0292969-1.0371094c.4794922-.9023438,1.1806641-1.6035156,2.1025391-2.1035156.921875-.4980469,1.9970703-.7480469,3.2265625-.7480469,2.1699219,0,4.0332031.4892578,5.5888672,1.46875s2.7363281,2.40625,3.5429688,4.2773438c.8066406,1.8730469,1.2109375,4.125,1.2109375,6.7558594v.0292969c0,2.6894531-.4570312,4.9941406-1.3691406,6.9140625-.9121094,1.9208984-2.2470703,3.3808594-4.0039062,4.3789062-1.7578125.9990234-3.8652344,1.4980469-6.3242188,1.4980469-2.4580078,0-4.5605469-.4941406-6.3085938-1.484375Zm10.6162109-5.890625c1.0078125-1.1523438,1.5126953-2.7949219,1.5126953-4.9257812v-.0292969c0-2.3427734-.5292969-4.1523438-1.5849609-5.4296875-1.0566406-1.2773438-2.5634766-1.9160156-4.5224609-1.9160156-1.7480469,0-3.1025391.6425781-4.0625,1.9296875-.9609375,1.2871094-1.4404297,3.1015625-1.4404297,5.4453125v.0283203c0,2.1318359.5039062,3.7695312,1.5126953,4.9111328,1.0078125,1.1435547,2.4335938,1.7148438,4.2773438,1.7148438,1.8632812,0,3.2988281-.5761719,4.3076172-1.7285156Z"/>
      </g>
      <path class="cls-1" d="m31.5448375,16.9301912c3.1344916,1.5883098,5.1288526,3.7721311,5.1288526,6.0907063,0,3.9151153-3.7393493,5.0267648-5.1288526,5.0267648-1.3963623,0-5.1385252-1.1116495-5.1385252-5.0267648,0-2.3185752,1.9643929-4.5350388,5.1385252-6.0907063Zm-26.1665411,6.0907063c0-2.3185752,2.0024755-4.5023965,5.126249-6.0907063,3.1821762,1.5556676,5.1397338,3.7721311,5.1397338,6.0907063,0,3.9151153-3.7447665,5.0267648-5.1397338,5.0267648-1.3855047,0-5.126249-1.1116495-5.126249-5.0267648ZM0,33.8141782V14.4549612c2.7067945,0,5.4872433.5339935,7.909325,1.3990127-2.7122349,1.7477546-4.6739544,4.1671859-4.6739544,7.1669236,0,5.7079273,5.2774173,7.151858,7.2691747,7.151858,2.0052423,0,7.2758472-1.4439307,7.2758472-7.151858,0-2.9997377-1.991711-5.4191691-4.7066196-7.1669236,2.4561189-.9004514,5.2432636-1.3990127,7.948826-1.3990127,2.7176519,0,5.4954502.4985613,7.9515691,1.3990127-2.7081895,1.7477546-4.7066196,4.1671859-4.7066196,7.1669236,0,5.7079273,5.2760453,7.151858,7.277289,7.151858,1.9915711,0,7.2690114-1.4439307,7.2690114-7.151858,0-2.9997377-1.961603-5.4191691-4.6711875-7.1669236,2.4192918-.8650192,5.2079709-1.3990127,7.9202297-1.3990127v19.3592171H0ZM31.5748056,14.4358501c-3.1741086-1.3963623-6.9490061-2.1197923-10.5522067-2.1197923s-7.37675.7234301-10.5454182,2.1197923c-3.0964089-1.3963623-6.8780257-2.1197923-10.4771808-2.1197923v-3.9859796h42.0628912v3.9859796c-3.6059905,0-7.3835621.7234301-10.4880855,2.1197923Z"/>
    </g>
  </g>
</svg>