<?xml version="1.0" encoding="UTF-8"?>
<svg id="_レイヤー_2" data-name="レイヤー 2" xmlns="http://www.w3.org/2000/svg" viewBox="0 0 386.7165674 68.3007002">
  <defs>
    <style>
      .cls-1 {
        fill: #231815;
      }

      .cls-1, .cls-2, .cls-3 {
        stroke-width: 0px;
      }

      .cls-2 {
        fill: #e50012;
      }

      .cls-3 {
        fill: #004da0;
      }
    </style>
  </defs>
  <g id="_レイヤー_1-2" data-name="レイヤー 1">
    <g>
      <g>
        <g>
          <polygon class="cls-1" points="77.7220582 0 65.2106229 0 48.814304 23.7714869 48.814304 41.9746262 54.7564315 33.2964618 54.7564315 68.3007002 65.4542408 68.3007002 65.4542408 17.8477316 77.7220582 0"/>
          <polygon class="cls-1" points="105.0939391 42.962947 130.358913 42.962947 133.1679224 32.7450239 105.0939391 32.7450239 105.0939391 20.9526076 130.3789774 20.9526076 133.1004936 10.9430663 105.0939391 10.9430663 105.0939391 .002315 94.2883163 .002315 94.2883163 10.9430663 73.9379528 10.9430663 71.1289434 20.9526076 94.2080589 20.9526076 94.2080589 32.7450239 71.2894583 32.7450239 68.4804489 42.962947 94.2883163 42.962947 94.2883163 57.3037917 71.0454026 57.3037917 68.0431408 68.2819099 130.3990418 68.2819099 133.368566 57.3037917 105.0939391 57.3037917 105.0939391 42.962947"/>
        </g>
        <polygon class="cls-1" points="169.0690832 19.068371 160.6382109 19.068371 160.6382109 .0568356 149.7722691 .0568356 149.7722691 19.068371 144.3548939 19.068371 141.4656271 30.0011283 149.7722691 30.0011283 149.7722691 68.2597499 160.6382109 68.2597499 160.6382109 30.0011283 166.1447811 30.0011283 169.0690832 19.068371"/>
        <path class="cls-1" d="m200.8561115,31.1848748l.0161147,3.9284188h-2.484253l-1.9954767,8.3200839h4.4498557v13.8970086h-3.2237123l-2.9326736,10.9181783h4.7044903c6.6939301-.3480483,10.0446614-3.8077527,10.3964273-8.4949308v-16.3202561h6.307537l-.0149988,13.9097214-3.4314458.0055927-2.9566339,10.9135229h5.3413711c6.6702198-.3480483,9.2666726-3.7531524,9.6197205-8.4403304v-24.7185897l-14.6827891.0099992v-3.9309827l-9.1135334.0025639Z"/>
        <path class="cls-1" d="m171.6328225,31.1848748l.0161147,3.9284188h-2.8855401l-1.9954767,8.3200839h4.8511428v13.8970086h-3.8657716l-2.9326736,10.9181783h5.3465496c6.6939301-.3480483,10.0446614-3.8077527,10.3964273-8.4949308v-16.3202561h6.307537l-.0149988,13.9097214-3.4314458.0055927-2.9566339,10.9135229h5.3413711c6.6702198-.3480483,9.2666726-3.7531524,9.6197205-8.4403304v-24.7185897l-14.6827891.0099992v-3.9309827l-9.1135334.0025639Z"/>
        <path class="cls-1" d="m200.8821089,19.0590952h11.6142461v-4.0509593h-13.8490035v2.8564502c0,7.8863183-7.2625925,11.5024897-13.0553747,11.5024897h-14.0775126l.0075635-10.3541266h16.4126406v-4.0048132h-18.9085064l2.4674891-9.5806975h16.4410173V.0117741h10.6957584v5.4156643l23.0123544.037561v15.9474996c-.3404786,5.0250989-2.7041362,7.9346029-9.1464261,7.9621647h-11.6342444l.0199984-10.3155685Z"/>
      </g>
      <g>
        <polygon class="cls-2" points="13.8658765 15.6261508 13.8658765 31.8197936 27.7497362 31.8197936 27.7497362 48.0313275 37 38.7676247 37 15.6261508 13.8658765 15.6261508"/>
        <polygon class="cls-3" points="23.1341235 52.6745494 23.1341235 36.4809066 9.2502638 36.4809065 9.2502638 20.2693727 0 29.5330754 0 52.6745494 23.1341235 52.6745494"/>
      </g>
      <g>
        <g>
          <path class="cls-1" d="m241.4616846,34.1559653c6.4072266-2.2285156,9.7851562-6.512207,10.1337891-12.8510742h-9.4033203v-2.2983398h9.6123047v-5.5375977h2.2988281c.6953125.140625.7314453.4179688.1044922.8359375v4.7016602h10.0302734v2.2983398h-9.8212891c1.4628906,5.7822266,5.0146484,9.8916016,10.6572266,12.3286133l-1.3583984,2.5078125c-4.8759766-2.2285156-8.3242188-5.9897461-10.34375-11.2841797-1.1845703,5.7124023-4.8417969,9.6484375-10.9707031,11.8066406l-.9394531-2.5078125Z"/>
          <path class="cls-1" d="m274.7068018,28.096395h-5.8505859v-1.9853516h6.4775391l.6269531-.6269531,1.671875,1.3583984c.3476562.2792969.2773438.4179688-.2089844.4179688-1.8125,4.6669922-4.8066406,7.7314453-8.9853516,9.1943359l-.9404297-1.9853516c3.4824219-1.2539062,5.8847656-3.3774414,7.2089844-6.3730469Zm16.4033203,5.328125l-1.0449219,2.5078125c-3.8310547-1.2539062-7-3.7612305-9.5068359-7.5229492v6.6870117c0,1.1132812-.5585938,1.671875-1.671875,1.671875h-2.1943359l-.5224609-1.9853516h1.8808594c.2773438,0,.4179688-.1386719.4179688-.4179688v-10.0302734h-7.1044922v-9.0893555h6.1640625l.7314453-2.4033203,2.0898438.2089844c.5566406.0703125.5566406.2792969,0,.6269531l-.6269531,1.5673828h7.5224609v9.0893555h-6.7910156c.2773438.9765625,1.0439453,2.2646484,2.2978516,3.8662109,1.671875-1.1835938,3.1347656-2.3671875,4.3886719-3.5527344l1.8808594,1.5673828c.0683594.3491211-.1044922.4536133-.5224609.3134766-1.8808594,1.394043-3.3798828,2.3686523-4.4931641,2.925293,1.6015625,1.671875,3.9707031,2.9956055,7.1044922,3.9702148Zm-5.9550781-16.5078125h-11.7021484v1.9853516h11.7021484v-1.9853516Zm0,5.746582v-2.0898438h-11.7021484v2.0898438h11.7021484Z"/>
          <path class="cls-1" d="m317.0212549,34.2604575l-.8359375,2.6118164c-4.5966797-1.0444336-8.0800781-2.5073242-10.4472656-4.3876953-3.0664062,1.9506836-6.7919922,3.4477539-11.1796875,4.4921875l-.9404297-2.402832c4.109375-.765625,7.5566406-1.9492188,10.34375-3.5522461-1.8125-2.0195312-3.2050781-4.2480469-4.1796875-6.6870117h-3.2382812v-1.9848633h7.6269531v-3.7612305h-10.0302734v-1.9853516h10.0302734v-3.3432617h2.2988281c.6953125.140625.7304688.4179688.1044922.8359375v2.5073242h10.1337891v1.9853516h-10.1337891v3.7612305h4.8056641l.6269531-.6269531,1.7763672,1.5673828-.4179688.2089844c-1.7421875,3.2045898-3.6572266,5.7119141-5.7470703,7.5224609,2.2988281,1.4628906,5.4335938,2.543457,9.4033203,3.2387695Zm-14.7314453-9.9257812c.9042969,2.0898438,2.0898438,3.831543,3.5527344,5.2241211,1.6708984-1.3925781,3.0634766-3.1342773,4.1787109-5.2241211h-7.7314453Z"/>
          <path class="cls-1" d="m319.8630518,34.9919028c1.6015625-2.0898438,2.4033203-4.4926758,2.4033203-7.2089844v-11.9111328h8.5673828v-2.925293h2.2978516c.6962891.140625.7314453.4179688.1044922.8359375v2.0893555h9.2988281v1.9853516h-18.1787109v10.0302734c0,3.4135742-.90625,6.3388672-2.7167969,8.7763672l-1.7763672-1.671875Zm13.5820312-15.9853516c.5566406.0698242.5917969.2788086.1044922.6269531v2.1938477h8.3583984v1.9853516h-8.3583984v3.2387695h7.0009766v9.6123047h-2.0898438v-1.1494141h-9.7167969v1.3579102h-2.0898438v-9.8208008h4.8066406v-8.0449219h1.984375Zm5.015625,14.5224609v-4.4926758h-9.7167969v4.4926758h9.7167969Z"/>
        </g>
        <g>
          <path class="cls-1" d="m246.7693018,46.2126059v.8408203h3.3623047v4.6474609h-.9892578v-.2963867h-2.0273438c1.3847656,1.1538086,2.9833984,1.9614258,4.7958984,2.4223633l-.4941406,1.1870117c-1.5166016-.3955078-3.0654297-1.3349609-4.6474609-2.8183594v3.2631836h-.9892578v-3.0654297c-1.1542969,1.2529297-2.6376953,2.175293-4.4501953,2.7685547l-.4941406-1.0380859c1.9775391-.6259766,3.5429688-1.5327148,4.6972656-2.7192383h-2.1259766v.4448242h-.9892578v-4.7958984h3.3623047v-.8408203h-4.8945312v-.9394531h4.8945312v-1.137207h.9394531c.2636719.0332031.2802734.1323242.0498047.296875v.840332h4.7958984v.9394531h-4.7958984Zm-3.3623047,2.6206055h2.3730469v-.9887695h-2.3730469v.9887695Zm0,1.7797852h2.3730469v-.9887695h-2.3730469v.9887695Zm3.3623047-1.7797852h2.3730469v-.9887695h-2.3730469v.9887695Zm0,1.7797852h2.3730469v-.9887695h-2.3730469v.9887695Z"/>
          <path class="cls-1" d="m253.6911768,55.0138755l-.5927734-1.137207c1.2519531-.5932617,2.2412109-1.3183594,2.9667969-2.1757812l.8896484.8408203c.0986328.1650391,0,.230957-.296875.1977539-.7587891.8896484-1.7470703,1.6474609-2.9667969,2.2744141Zm5.4394531-10.4824219v.9892578h4.9443359v.9394531h-10.9277344v-.9394531h4.8457031v-1.3847656h1.0878906c.3291016.0664062.3466797.1977539.0498047.3955078Zm2.2246094,6.4277344h-2.1259766v3.6591797c0,.5268555-.2646484.7910156-.7910156.7910156h-1.2851562l-.1982422-1.0878906h1.0878906c.1308594,0,.1972656-.0654297.1972656-.1977539v-3.1645508h-2.4716797v.4453125h-.9892578v-4.0053711h7.5654297v3.8569336h-.9892578v-.296875Zm-5.5869141-2.6206055v1.6811523h5.5869141v-1.6811523h-5.5869141Zm7.5644531,6.5268555c-1.3515625-.4946289-2.4228516-1.3178711-3.2138672-2.472168l.890625-.6923828c.6923828.9233398,1.6806641,1.6157227,2.9667969,2.0766602l-.6435547,1.0878906Z"/>
          <path class="cls-1" d="m270.4431299,46.4103598c.296875-.4277344.609375-1.0048828.9394531-1.7304688l.8896484.6430664c.2304688.1650391.1806641.2641602-.1484375.2963867-.4941406.8242188-1.0380859,1.5498047-1.6308594,2.1757812h1.6308594v.9394531h-2.3232422c-.3632812.362793-.7421875.6918945-1.1376953.9887695h2.7685547v5.5375977h-.9882812v-.5932617h-2.5214844v.7910156h-.9892578v-4.3017578c-.4619141.3300781-.9228516.5932617-1.3847656.7910156l-.4443359-1.0380859c1.1201172-.4282227,2.2412109-1.1533203,3.3623047-2.175293h-2.8183594v-.9394531h2.3232422v-1.2856445h-1.7792969v-.9394531h1.7792969v-1.5825195h.9394531c.2636719.0332031.2802734.1323242.0498047.296875v1.2856445h1.4833984v.840332Zm-2.5214844,4.1040039v1.2856445h2.5214844v-1.2856445h-2.5214844Zm2.5214844,2.0766602h-2.5214844v1.2856445h2.5214844v-1.2856445Zm-.0498047-6.081543h-1.4335938v1.2856445h.296875c.296875-.2636719.6748047-.6923828,1.1367188-1.2856445Zm3.8076172,2.472168l.8896484-3.0654297h-1.4833984v9.4931641h-.9882812v-10.4326172h2.71875l.0996094-.2475586,1.0380859.6923828-.1982422.1484375-1.0878906,3.2138672c.7246094.7583008,1.1699219,1.4506836,1.3349609,2.0766602.4951172,2.0107422.0996094,3.0161133-1.1865234,3.0161133h-.8398438l-.1982422-1.0878906h.7421875c.5263672,0,.6748047-.5107422.4443359-1.5327148-.1650391-.6923828-.5927734-1.4501953-1.2851562-2.2744141Z"/>
          <path class="cls-1" d="m281.6589502,49.4264731l-.5439453-.840332.6923828-.4453125c.4609375.6269531.8730469,1.3027344,1.2353516,2.0273438l-.7910156.4946289-.2958984-.5439453-1.1376953.0986328v5.2412109h-.9892578v-5.1420898l-1.6806641.0986328c-.0332031.230957-.1162109.2807617-.2470703.1484375l-.1484375-1.0380859h.7412109l1.0390625-1.2363281-1.6816406-1.3842773.59375-.7416992.3457031.2470703,1.3349609-2.2246094.7910156.4941406c.1318359.1655273.0664062.2470703-.1972656.2470703l-1.2861328,1.9780273.6923828.5932617,1.3349609-1.8295898.6923828.4946289c.2304688.1977539.1806641.296875-.1484375.296875l-2.4716797,3.0654297,2.1259766-.0991211Zm-3.2636719,1.7304688l.9394531.0991211c.0986328.0986328.0654297.1977539-.0986328.2963867,0,.9892578-.1650391,1.9619141-.4941406,2.9174805l-.7919922-.3461914c.2636719-1.0214844.4121094-2.0102539.4453125-2.9667969Zm3.3125,2.3242188c-.0986328-.7583008-.2470703-1.4833984-.4443359-2.1757812l.7910156-.2963867c.2304688.4941406.4111328,1.2036133.5439453,2.1259766l-.890625.3461914Zm4.5-1.0878906v3.0161133h-.8408203v-2.8676758c-.4941406.9560547-1.4511719,1.8291016-2.8681641,2.6201172l-.5429688-.9887695c1.3505859-.5932617,2.4384766-1.515625,3.2626953-2.7685547h-2.0761719v-4.1533203h2.2246094v-.8901367h-2.6699219v-.7910156h2.6699219v-1.5327148h.7910156c.2636719.0332031.2802734.1318359.0498047.2963867v1.2363281h2.71875v.7910156h-2.71875v.8901367h2.2744141v4.1533203h-2.0771484c.5273438.8896484,1.4501953,1.6977539,2.7695312,2.4223633l-.4453125.9394531c-1.0556641-.5932617-1.8955078-1.3842773-2.5214844-2.3730469Zm-2.2255859-4.3510742v.9394531h1.3847656v-.9394531h-1.3847656Zm1.3847656,1.7304688h-1.3847656v.840332h1.3847656v-.840332Zm2.2744141-1.7304688h-1.4335938v.9394531h1.4335938v-.9394531Zm0,1.7304688h-1.4335938v.840332h1.4335938v-.840332Z"/>
          <path class="cls-1" d="m292.398208,52.3439536c-.1328125.9887695-.4287109,1.8461914-.890625,2.5708008l-.9882812-.4941406c.4277344-.6591797.7246094-1.434082.8896484-2.3242188l.9892578.2475586Zm8.4052734-1.9780273l-.296875,3.8071289c-.0664062.7910156-.3789062,1.1865234-.9394531,1.1865234h-1.3847656l-.2470703-.9389648h1.2363281c.1972656,0,.3125-.1313477.3457031-.3959961l.2480469-2.7192383h-7.1699219v.3461914h-.9892578v-7.0703125h8.5048828v.9394531h-3.7080078v.9394531h3.0654297v.9389648h-3.0654297v.9394531h3.1142578v.9394531h-3.1142578v1.0878906h4.4003906Zm-5.3896484-3.9057617v-.9394531h-2.8183594v.9394531h2.8183594Zm0,1.878418v-.9394531h-2.8183594v.9394531h2.8183594Zm0,2.0273438v-1.0878906h-2.8183594v1.0878906h2.8183594Zm-1.3349609,1.9282227c.1982422.6601562.2792969,1.3847656.2470703,2.1757812l-1.0878906.1977539c.0332031-.8901367-.0166016-1.6479492-.1484375-2.2744141l.9892578-.0991211Zm1.5332031,1.9780273c-.1328125-.7246094-.3300781-1.3847656-.59375-1.9780273l.9394531-.2470703c.3291016.527832.5605469,1.1704102.6923828,1.9282227l-1.0380859.296875Zm2.1748047-.3461914c-.1650391-.6591797-.4287109-1.2685547-.7910156-1.8295898l.9394531-.3461914c.3955078.527832.7089844,1.137207.9394531,1.8295898l-1.0878906.3461914Z"/>
          <path class="cls-1" d="m312.6696924,46.014852h-8.5537109v7.3178711h8.9492188v1.0878906h-8.9492188v.6918945h-1.1367188v-10.1855469h9.6904297v1.0878906Zm-2.4716797.3461914l.9882812.5439453c.296875.0986328.2802734.2148438-.0488281.3461914-.296875.659668-.7919922,1.4174805-1.4833984,2.2744141.7910156.4941406,1.7128906,1.2036133,2.7685547,2.1259766l-.8408203,1.0380859c-.9228516-.8232422-1.8291016-1.5820312-2.71875-2.2744141-.7919922.824707-1.9951172,1.6811523-3.609375,2.5712891l-.6923828-.9887695c1.4501953-.7910156,2.5371094-1.5493164,3.2626953-2.2744141-.6923828-.5268555-1.5986328-1.1040039-2.71875-1.7304688l.6425781-.8408203c1.0214844.527832,1.9775391,1.0878906,2.8671875,1.6811523.6259766-.7578125,1.1542969-1.5820312,1.5830078-2.472168Z"/>
          <path class="cls-1" d="m320.6198877,46.2126059v.8408203h3.3623047v4.6474609h-.9882812v-.2963867h-2.0273438c1.3837891,1.1538086,2.9824219,1.9614258,4.7958984,2.4223633l-.4941406,1.1870117c-1.5166016-.3955078-3.0664062-1.3349609-4.6484375-2.8183594v3.2631836h-.9882812v-3.0654297c-1.1542969,1.2529297-2.6376953,2.175293-4.4501953,2.7685547l-.4941406-1.0380859c1.9775391-.6259766,3.5429688-1.5327148,4.6962891-2.7192383h-2.1259766v.4448242h-.9882812v-4.7958984h3.3623047v-.8408203h-4.8955078v-.9394531h4.8955078v-1.137207h.9394531c.2626953.0332031.2792969.1323242.0488281.296875v.840332h4.7958984v.9394531h-4.7958984Zm-3.3623047,2.6206055h2.3740234v-.9887695h-2.3740234v.9887695Zm0,1.7797852h2.3740234v-.9887695h-2.3740234v.9887695Zm3.3623047-1.7797852h2.3740234v-.9887695h-2.3740234v.9887695Zm0,1.7797852h2.3740234v-.9887695h-2.3740234v.9887695Z"/>
          <path class="cls-1" d="m326.9489893,54.0744223c3.0322266-1.0546875,4.6308594-3.0820312,4.7958984-6.081543h-4.4501953v-1.0878906h4.5488281v-2.6206055h1.0878906c.3291016.0664062.3466797.1977539.0498047.3955078v2.2250977h4.7460938v1.0878906h-4.6474609c.6923828,2.7363281,2.3730469,4.6806641,5.0429688,5.8339844l-.6425781,1.1870117c-2.3076172-1.0546875-3.9394531-2.8344727-4.8945312-5.340332-.5615234,2.7036133-2.2919922,4.565918-5.1914062,5.5874023l-.4453125-1.1865234Z"/>
          <path class="cls-1" d="m342.6823877,51.2067466h-2.7695312v-.9394531h3.0654297l.296875-.296875.7910156.6425781c.1650391.1323242.1318359.1977539-.0986328.1977539-.8574219,2.2089844-2.2744141,3.6591797-4.2519531,4.3510742l-.4453125-.9394531c1.6484375-.5932617,2.7851562-1.5981445,3.4121094-3.015625Zm7.7626953,2.5214844l-.4951172,1.1865234c-1.8125-.5932617-3.3125-1.7797852-4.4990234-3.5600586v3.1645508c0,.5268555-.2646484.7910156-.7910156.7910156h-1.0380859l-.2470703-.9394531h.8896484c.1308594,0,.1972656-.0654297.1972656-.1977539v-4.746582h-3.3613281v-4.3017578h2.9169922l.3457031-1.137207.9892578.0991211c.2636719.0332031.2636719.1323242,0,.296875l-.296875.7412109h3.5595703v4.3017578h-3.2138672c.1318359.4619141.4951172,1.0717773,1.0878906,1.8295898.7910156-.5600586,1.4833984-1.1201172,2.0771484-1.6811523l.8896484.7416992c.0322266.1650391-.0498047.2148438-.2470703.1484375-.8896484.659668-1.5996094,1.1206055-2.1259766,1.3842773.7578125.7910156,1.8789062,1.4174805,3.3623047,1.8789062Zm-2.8183594-7.8120117h-5.5380859v.9394531h5.5380859v-.9394531Zm0,2.7192383v-.9887695h-5.5380859v.9887695h5.5380859Z"/>
          <path class="cls-1" d="m353.5105127,54.2223716v-7.6635742h-1.4833984v-.5932617c1.1533203,0,1.8291016-.4614258,2.0273438-1.3842773h.5927734v9.6411133h-1.1367188Z"/>
          <path class="cls-1" d="m362.4987939,49.3771567v.7910156h-5.6357422v-.7910156h5.6357422Z"/>
          <path class="cls-1" d="m364.8327783,52.9372153c.2304688.230957.5439453.3461914.9394531.3461914.3291016,0,.6435547-.1484375.9394531-.4453125.296875-.2963867.4453125-.7910156.4453125-1.4833984,0-.5268555-.1816406-.9716797-.5439453-1.3349609-.2636719-.2631836-.6601562-.378418-1.1865234-.3461914v-.840332c.5263672-.0322266.9228516-.1806641,1.1865234-.4448242.2636719-.2636719.3955078-.6591797.3955078-1.1870117,0-.6586914-.1484375-1.137207-.4453125-1.4335938-.1972656-.1977539-.4443359-.296875-.7412109-.296875s-.5439453.0991211-.7412109.296875c-.3300781.3295898-.5117188.8242188-.5439453,1.4833984h-1.0878906c.0322266-.8569336.3125-1.5493164.8398438-2.0766602.3955078-.3955078.90625-.5932617,1.5332031-.5932617.6591797,0,1.1865234.1977539,1.5820312.5932617.4609375.4619141.6923828,1.0712891.6923828,1.8291016,0,.6923828-.1816406,1.2202148-.5439453,1.5825195-.3300781.3295898-.6425781.5439453-.9394531.6425781.4277344.1323242.7578125.3134766.9892578.5439453.4609375.4619141.6914062,1.0219727.6914062,1.6811523,0,.8574219-.2636719,1.5498047-.7910156,2.0766602-.4619141.4619141-1.0380859.6918945-1.7304688.6918945-.7587891,0-1.3515625-.2138672-1.7792969-.6425781-.4951172-.4946289-.7421875-1.2358398-.7421875-2.2250977h1.1376953c-.0332031.7255859.1152344,1.253418.4443359,1.5825195Z"/>
          <path class="cls-1" d="m372.5163721,54.2223716v-2.2744141h-3.3125v-.9389648l3.3125-6.4277344h1.1376953v6.4277344h1.0380859v.9389648h-1.0380859v2.2744141h-1.1376953Zm0-3.2133789v-4.3510742l-2.2246094,4.3510742h2.2246094Z"/>
          <path class="cls-1" d="m380.9216455,49.3771567v.7910156h-5.6357422v-.7910156h5.6357422Z"/>
          <path class="cls-1" d="m383.304458,52.9865317c.1982422.1977539.4775391.296875.8408203.296875.296875,0,.5761719-.1313477.8408203-.3959961.3955078-.3955078.5927734-1.0541992.5927734-1.9775391,0-.8569336-.1650391-1.4501953-.4941406-1.7797852-.1972656-.1977539-.4287109-.296875-.6923828-.296875-.5927734,0-1.0712891.3461914-1.4335938,1.0385742h-.9892578l.296875-5.2905273h4.2519531v.9394531h-3.3125l-.1972656,3.2138672c.4277344-.4946289.9716797-.7416992,1.6318359-.7416992.4941406,0,.921875.1811523,1.2851562.543457.5263672.527832.7910156,1.3188477.7910156,2.3735352,0,1.1210938-.3134766,1.9946289-.9394531,2.6206055-.4619141.4619141-1.0224609.6918945-1.6806641.6918945-.6923828,0-1.2363281-.1977539-1.6318359-.5932617-.4951172-.4941406-.7587891-1.2026367-.7910156-2.1259766h1.1367188c0,.659668.1650391,1.1542969.4941406,1.4833984Z"/>
        </g>
      </g>
    </g>
  </g>
</svg>