<?xml version="1.0" encoding="UTF-8"?>
<svg id="_レイヤー_2" data-name="レイヤー 2" xmlns="http://www.w3.org/2000/svg" viewBox="0 0 400.2935486 42.8314961">
  <defs>
    <style>
      .cls-1 {
        fill: #df0000;
      }

      .cls-1, .cls-2 {
        stroke-width: 0px;
      }

      .cls-2 {
        fill: #d21619;
      }
    </style>
  </defs>
  <g id="_レイヤー_2-2" data-name=" レイヤー 2">
    <g id="_レイヤー_1-2" data-name=" レイヤー 1-2">
      <path class="cls-2" d="m31.544838,16.924157c3.134491,1.5883102,5.1288528,3.772131,5.1288528,6.0907059,0,3.9151154-3.7393494,5.0267658-5.1288528,5.0267658-1.3963623,0-5.138525-1.1116486-5.138525-5.0267639,0-2.3185749,1.9643936-4.535038,5.138525-6.0907078Zm-26.1665421,6.0907059c0-2.3185749,2.0024757-4.5023975,5.1262493-6.0907059,3.1821766,1.5556679,5.1397343,3.772131,5.1397343,6.0907059,0,3.9151154-3.7447662,5.0267658-5.1397343,5.0267658-1.3855047,0-5.1262488-1.1116486-5.1262493-5.0267658ZM0,33.8081463V14.4489277c2.7067945,0,5.4872432.5339937,7.9093251,1.3990126-2.712235,1.7477541-4.6739545,4.1671858-4.6739545,7.1669245,0,5.7079277,5.2774172,7.1518574,7.2691746,7.1518574,2.0052423,0,7.2758465-1.4439316,7.2758465-7.1518574,0-2.9997368-1.9917107-5.4191685-4.7066193-7.1669235,2.4561186-.9004517,5.2432632-1.3990126,7.9488258-1.3990126,2.7176514,0,5.4954491.4985609,7.9515686,1.3990126-2.708189,1.7477551-4.7066193,4.1671867-4.7066193,7.1669235,0,5.7079277,5.2760448,7.1518574,7.2772884,7.1518574,1.9915714,0,7.2690105-1.4439316,7.2690105-7.1518574,0-2.9997368-1.9616013-5.4191685-4.6711884-7.1669235,2.4192924-.8650188,5.2079697-1.3990126,7.9202309-1.3990126v19.3592176H0ZM31.5748062,14.4298161c-3.1741085-1.3963623-6.9490051-2.119792-10.5522079-2.119792s-7.37675.7234297-10.5454178,2.119792c-3.0964088-1.3963623-6.8780255-2.119792-10.4771805-2.119792v-3.98598h42.0628929v3.9859791c-3.6059914,0-7.383564.7234297-10.4880867,2.1197929Z"/>
    </g>
    <g>
      <path class="cls-1" d="m71.8990627,42.8314961c-3.9941498,0-6.9849615-1.0695872-8.9724351-3.2116421-1.9874736-2.1410947-2.9812104-5.0358932-2.9812104-8.6843955V11.8960376c0-3.7056301,1.0081388-6.6148306,3.0244163-8.7276014,2.0162776-2.1122908,4.9926873-3.1684362,8.9292292-3.1684362,3.9557445,0,6.9369549,1.0513447,8.9436312,3.1540342,2.0061962,2.1026895,3.0100144,5.0166906,3.0100144,8.7420034v19.0394209c0,3.7061102-1.0038182,6.6153106-3.0100144,8.7276014-2.0066762,2.1122908-4.9878866,3.1684362-8.9436312,3.1684362Zm0-5.5879692c2.150216,0,3.7013095-.5616773,4.6518404-1.685032s1.4257963-2.6643668,1.4257963-4.6230364V11.8960376c0-1.9773922-.4752654-3.5236851-1.4257963-4.6374384-.9505308-1.1132733-2.5016244-1.67063-4.6518404-1.67063-2.1506961,0-3.7013095.5573567-4.6518404,1.67063-.9505308,1.1137533-1.4257963,2.6600462-1.4257963,4.6374384v19.0394209c0,1.9586696.4752654,3.4996818,1.4257963,4.6230364s2.5011443,1.685032,4.6518404,1.685032Z"/>
      <path class="cls-1" d="m102.6040895.5184714v41.8809652h-5.8760089V6.9129516l-5.9624208,3.6581036v-6.0776366l5.9624208-3.9749472h5.8760089Z"/>
      <path class="cls-1" d="m111.4757107,42.3994366v-5.0983018l14.6036103-19.4714804c.8449163-1.1132733,1.5021268-2.2654319,1.9730716-3.4564758.4704648-1.1905639.7056971-2.3139185.7056971-3.3700639v-.0576079c0-1.67063-.4896674-2.9668084-1.4690022-3.8885353s-2.3720065-1.3825903-4.1765749-1.3825903c-1.6898326,0-3.0676223.5040694-4.133369,1.5122082s-1.7138359,2.433935-1.9442676,4.2773888v.028804h-6.0776366v-.028804c.5184714-3.610097,1.8333724-6.4088822,3.9461432-8.3963558,2.1122908-1.9874736,4.8289847-2.9812104,8.1515221-2.9812104,3.763238,0,6.6724385.9505308,8.7276014,2.8515925,2.0546828,1.9010617,3.0820243,4.5899118,3.0820243,8.0651102v.028804c0,1.4790836-.3072423,3.029217-.9217269,4.6518404-.6149647,1.6231034-1.4690022,3.1732368-2.5635529,4.6518404l-12.1264693,16.475868h15.8421808v5.5879692h-23.6192514Z"/>
      <path class="cls-1" d="m154.5376385,42.8314961c-3.9941498,0-6.9849615-1.0695872-8.9724351-3.2116421-1.9874736-2.1410947-2.9812104-5.0358932-2.9812104-8.6843955V11.8960376c0-3.7056301,1.0081388-6.6148306,3.0244163-8.7276014,2.0162776-2.1122908,4.9926873-3.1684362,8.9292292-3.1684362,3.9557445,0,6.9369549,1.0513447,8.9436312,3.1540342,2.0061962,2.1026895,3.0100144,5.0166906,3.0100144,8.7420034v19.0394209c0,3.7061102-1.0038182,6.6153106-3.0100144,8.7276014-2.0066762,2.1122908-4.9878866,3.1684362-8.9436312,3.1684362Zm0-5.5879692c2.150216,0,3.7013095-.5616773,4.6518404-1.685032s1.4257963-2.6643668,1.4257963-4.6230364V11.8960376c0-1.9773922-.4752654-3.5236851-1.4257963-4.6374384-.9505308-1.1132733-2.5016244-1.67063-4.6518404-1.67063-2.1506961,0-3.7013095.5573567-4.6518404,1.67063-.9505308,1.1137533-1.4257963,2.6600462-1.4257963,4.6374384v19.0394209c0,1.9586696.4752654,3.4996818,1.4257963,4.6230364s2.5011443,1.685032,4.6518404,1.685032Z"/>
      <path class="cls-1" d="m175.4205132,24.5985862h19.3567446v5.5879692h-19.3567446v-5.5879692Z"/>
      <path class="cls-1" d="m212.6645201.5184714v41.8809652h-5.8760089V6.9129516l-5.9624208,3.6581036v-6.0776366l5.9624208-3.9749472h5.8760089Z"/>
      <path class="cls-1" d="m221.5361413,42.3994366v-5.0983018l14.6036103-19.4714804c.8449163-1.1132733,1.5026068-2.2654319,1.9730716-3.4564758.4704648-1.1905639.7056971-2.3139185.7056971-3.3700639v-.0576079c0-1.67063-.4896674-2.9668084-1.4690022-3.8885353s-2.3715265-1.3825903-4.1765749-1.3825903c-1.6898326,0-3.0676223.5040694-4.133369,1.5122082s-1.7138359,2.433935-1.9442676,4.2773888v.028804h-6.0776366v-.028804c.5184714-3.610097,1.8338524-6.4088822,3.9461432-8.3963558S229.793278.0864119,233.1153353.0864119c3.7637181,0,6.6729186.9505308,8.7276014,2.8515925s3.0820243,4.5899118,3.0820243,8.0651102v.028804c0,1.4790836-.3072423,3.029217-.9217269,4.6518404-.6144846,1.6231034-1.4690022,3.1732368-2.5635529,4.6518404l-12.1264693,16.475868h15.8421808v5.5879692h-23.6192514Z"/>
      <path class="cls-1" d="m252.9324633,24.5985862h19.3562645v5.5879692h-19.3562645v-5.5879692Z"/>
      <path class="cls-1" d="m291.7602082,42.8314961c-2.3619251,0-4.43101-.4282189-6.2072545-1.2817764s-3.2020408-2.0882875-4.2773888-3.7013095-1.7666432-3.5716917-2.0738855-5.8760089h5.9912247c.268837,1.8050485.9793348,3.1252302,2.1314934,3.9605452s2.6307621,1.2529725,4.4358106,1.2529725c1.939467,0,3.4468745-.5184714,4.5222225-1.5554141s1.613022-2.4963436,1.613022-4.3782027v-1.2673745c0-2.0930881-.50887-3.7109108-1.5266101-4.8534681-1.0177401-1.1415971-2.4579384-1.7138359-4.3205948-1.7138359h-2.9668084v-5.5879692h2.9668084c1.6514273,0,2.9236025-.4896674,3.8165254-1.4690022s1.3393844-2.3619251,1.3393844-4.147771v-1.2961784c0-1.6514273-.4752654-2.927923-1.4257963-3.8309274-.9505308-.9025242-2.2995165-1.3537864-4.0469571-1.3537864-1.4786035,0-2.731576.4176575-3.7589174,1.2529725s-1.7330386,2.1559768-2.1170914,3.9605452h-5.9624208c.5952819-3.4564758,1.925065-6.1304439,3.9893492-8.0219043,2.0642842-1.8909803,4.6806443-2.8371906,7.8490805-2.8371906,3.610097,0,6.4040816.9505308,8.3819538,2.8515925s2.9668084,4.5798304,2.9668084,8.0363063v.6912952c0,2.0930881-.566478,3.9130187-1.6994339,5.4583514-1.132956,1.5458128-2.7363767,2.6835694-4.8102622,3.4132699,2.2851146.4800661,4.0565584,1.5986201,5.3143316,3.3556619s1.8866597,3.9893492,1.8866597,6.6969219v.6912952c0,3.6677049-1.0465441,6.5096961-3.1396322,8.5259737s-5.0502952,3.0244163-8.8716212,3.0244163Z"/>
      <path class="cls-1" d="m311.5485322,35.9761524v-5.0983018l14.056335-30.3305752h6.0488327l-13.7106874,29.9849276h20.5372271v5.4439494h-26.9317073Zm18.0600861,6.4520882v-24.6561941h5.731989v24.6561941h-5.731989Z"/>
      <path class="cls-1" d="m357.3756406,42.8314961c-3.1876388,0-5.803999-.9169262-7.8490805-2.7507787-2.0450815-1.8328923-3.326858-4.4214086-3.8453293-7.7626686v-.028804h5.8760089v.028804c.2112291,1.5362115.8257137,2.7325362,1.8434538,3.5860937,1.0177401.8545176,2.3427225,1.2817764,3.9749472,1.2817764,1.8818591,0,3.3364593-.6288866,4.3638007-1.8866597,1.0273414-1.256813,1.5410121-3.029217,1.5410121-5.3143316v-3.5140837c0-2.2851146-.5136707-4.0517578-1.5410121-5.2999296s-2.4819417-1.8722577-4.3638007-1.8722577c-1.0177401,0-1.9970749.2880397-2.9380044.864119s-1.7666432,1.3825903-2.477141,2.4195331h-5.3575375V.5184714h21.3437381v5.5879692h-15.4677292v9.4188966c.7297004-.5948019,1.5458128-1.0556653,2.448337-1.3825903.9025242-.3264449,1.8242511-.4896674,2.7651806-.4896674,3.6485022,0,6.4712908,1.119034,8.4683657,3.3556619,1.9970749,2.237108,2.9956124,5.3911421,2.9956124,9.4621025v3.5140837c0,4.090163-1.0273414,7.2547587-3.0820243,9.4909065-2.0546828,2.237108-4.954282,3.3556619-8.6987975,3.3556619Z"/>
      <path class="cls-1" d="m388.5991388,42.8314961c-3.7061102,0-6.5769054-1.104152-8.6123856-3.312456s-3.0532203-5.3191322-3.0532203-9.3324847v-.028804c0-1.8050485.2496344-3.719552.7489031-5.746391.4992687-2.0258789,1.2193679-3.9792678,2.1602974-5.8616069l9.102053-18.0312821h6.3368723l-10.686271,20.8828747.028804-1.0369427c.9985375-1.9010617,2.774782-2.8515925,5.3287335-2.8515925,3.283652,0,5.8280023,1.0902301,7.6330507,3.26925,1.8050485,2.1795,2.7075727,5.2567236,2.7075727,9.2316708v.028804c0,4.0517578-1.0177401,7.1971507-3.0532203,9.4332986-2.0354802,2.237108-4.9158767,3.3556619-8.6411895,3.3556619Zm0-5.6455772c1.8818591,0,3.3220573-.5760793,4.3205948-1.7282379s1.4978062-2.7939846,1.4978062-4.925478v-.028804c0-2.3427225-.5280727-4.1516115-1.5842181-5.4295474-1.0561454-1.2769758-2.5635529-1.9154637-4.5222225-1.9154637-1.7474405,0-3.1012269.6432886-4.0613591,1.9298657s-1.4401983,3.1012269-1.4401983,5.4439494v.028804c0,2.1314934.5040694,3.7694789,1.5122082,4.911076,1.0081388,1.1425573,2.433935,1.7138359,4.2773888,1.7138359Z"/>
    </g>
  </g>
</svg>