<?xml version="1.0" encoding="UTF-8"?>
<svg id="_レイヤー_2" data-name="レイヤー 2" xmlns="http://www.w3.org/2000/svg" viewBox="0 0 360.0349121 68.3006973">
  <defs>
    <style>
      .cls-1 {
        fill: #231815;
      }

      .cls-1, .cls-2, .cls-3, .cls-4, .cls-5 {
        stroke-width: 0px;
      }

      .cls-2 {
        fill: #e50012;
      }

      .cls-4 {
        fill: none;
      }

      .cls-5 {
        fill: #004da0;
      }
    </style>
  </defs>
  <g id="_レイヤー_2-2" data-name=" レイヤー 2">
    <g>
      <g id="_レイヤー_1-2" data-name=" レイヤー 1-2">
        <g>
          <g>
            <g>
              <polygon class="cls-1" points="77.7220612 0 65.2106247 0 48.8143044 23.7714863 48.8143044 41.9746246 54.7564316 33.296463 54.7564316 68.3006973 65.4542389 68.3006973 65.4542389 17.8477325 77.7220612 0"/>
              <polygon class="cls-1" points="105.0939407 42.9629478 130.3589172 42.9629478 133.167923 32.7450256 105.0939407 32.7450256 105.0939407 20.9526081 130.3789825 20.9526081 133.1004944 10.9430666 105.0939407 10.9430666 105.0939407 .002315 94.2883148 .002315 94.2883148 10.9430666 73.9379501 10.9430666 71.1289444 20.9526081 94.2080612 20.9526081 94.2080612 32.7450256 71.2894592 32.7450256 68.4804459 42.9629478 94.2883148 42.9629478 94.2883148 57.303791 71.0454025 57.303791 68.0431442 68.2819061 130.3990479 68.2819061 133.3685608 57.303791 105.0939407 57.303791 105.0939407 42.9629478"/>
            </g>
            <polygon class="cls-1" points="169.0690765 19.0683708 160.6382141 19.0683708 160.6382141 .0568356 149.7722626 .0568356 149.7722626 19.0683708 144.3548889 19.0683708 141.4656219 30.0011292 149.7722626 30.0011292 149.7722626 68.2597504 160.6382141 68.2597504 160.6382141 30.0011292 166.1447754 30.0011292 169.0690765 19.0683708"/>
            <path class="cls-1" d="m200.8561096,31.1848755l.0161133,3.9284172h-2.4842529l-1.9954834,8.3200836h4.4498596v13.897007h-3.2237091l-2.9326782,10.9181824h4.704483c6.693924-.3480453,10.0446625-3.8077545,10.3964233-8.4949303v-16.3202553h6.3075409l-.0149994,13.9097214-3.4314423.0055923-2.9566345,10.9135208h5.3413696c6.6702271-.3480453,9.2666779-3.7531509,9.6197205-8.4403305v-24.7185898l-14.682785.0099983v-3.9309826s-9.1135254.0025635-9.1135254.0025654Z"/>
            <path class="cls-1" d="m171.6328278,31.1848755l.0161133,3.9284172h-2.8855438l-1.9954834,8.3200836h4.8511353v13.897007h-3.8657684l-2.9326782,10.9181824h5.3465424c6.693924-.3480453,10.0446625-3.8077545,10.3964233-8.4949303v-16.3202553h6.3075409l-.0149994,13.9097214-3.4314423.0055923-2.9566345,10.9135208h5.3413696c6.6702271-.3480453,9.2666779-3.7531509,9.6197205-8.4403305v-24.7185898l-14.682785.0099983v-3.9309826l-9.1135254.0025635.0000153.0000019Z"/>
            <path class="cls-1" d="m200.8821106,19.0590954h11.6142426v-4.0509586h-13.848999v2.8564491c0,7.8863182-7.2625885,11.502491-13.0553741,11.502491h-14.0775146l.0075684-10.354126h16.4126434v-4.0048132h-18.9085083l2.4674835-9.5806971h16.4410095V.0117741h10.695755v5.4156642l23.0123596.0375609v15.9474993c-.3404846,5.0250988-2.7041321,7.9346027-9.1464233,7.9621658h-11.6342468l.0200043-10.3155689Z"/>
          </g>
          <g>
            <polygon class="cls-2" points="13.8658762 15.6261511 13.8658762 31.8197937 27.7497368 31.8197937 27.7497368 48.0313263 37 38.7676239 37 15.6261511 13.8658762 15.6261511"/>
            <polygon class="cls-5" points="23.1341228 52.6745491 23.1341228 36.4809074 9.2502642 36.4809074 9.2502642 20.2693729 0 29.5330753 0 52.6745491 23.1341228 52.6745491"/>
          </g>
          <g>
            <g>
              <path class="cls-3" d="m243.1865234,52.1640625c-.6933594.4189453-1.8300781.9794922-2.3330078,1.2089844-.1308594.0595703-.2607422.1201172-.3417969.2197266-.0703125.0898438-.1308594.1503906-.1904297.1503906-.1308594,0-.3623047-.859375-.3623047-.8994141,0-.0507812.0498047-.0507812.1806641-.0605469.2109375-.0195312.6035156-.1601562,1.0458984-.3398438.0097656-.9091797.0302734-2.0087891.0302734-2.9980469-.3623047,0-.7236328.0195312-1.1162109.0400391v-.7695312c.3925781.0292969.7539062.0498047,1.1162109.0693359v-.5097656c0-.8193359-.0205078-1.4287109-.0605469-1.5986328-.0302734-.1201172-.0703125-.2001953-.0703125-.25,0-.0400391.0302734-.0595703.0908203-.0595703h.0195312c.8955078.0693359.9150391.1396484.9150391.1894531s-.0302734.1103516-.0800781.1904297c-.0800781.1494141-.1005859.1992188-.1210938,2.0380859.3828125-.0097656.7646484-.0292969,1.1767578-.0693359v.7695312c-.4121094-.0205078-.7939453-.0400391-1.1767578-.0400391v2.6679688c.453125-.2089844.9052734-.4492188,1.2773438-.6689453v.7197266Zm2.9267578,2.7587891s-.0605469-.4003906-.2919922-.7998047c.3115234.0195312.5634766.0292969.7744141.0292969.6738281,0,.8642578-.1298828.8642578-.5791016v-3.2587891c-.5126953-.0097656-1.0253906-.0097656-1.5283203-.0097656-1.0253906,0-2.03125.0097656-2.9462891.0400391v-.75c.9355469.0400391,1.9404297.0605469,2.9667969.0605469,1.0253906,0,2.0615234-.0205078,3.0566406-.0605469v.75c-.2714844-.0097656-.5429688-.0195312-.8242188-.0195312v3.3681641c0,1.0996094-.5732422,1.2294922-1.6992188,1.2294922h-.3720703Zm2.4628906-7.1367188c-.7138672-.0302734-1.4980469-.0498047-2.2119141-.0498047.4023438.6191406,1.1064453.9892578,2.2324219,1.1396484-.28125.3291016-.3720703.6787109-.3720703.6787109-1.0458984-.2197266-1.75-.5996094-2.2724609-1.3691406-.3320312.6699219-.9960938,1.0800781-2.1523438,1.3896484,0,0-.0800781-.3203125-.3720703-.6298828,1.1865234-.2392578,1.7802734-.6191406,2.0214844-1.2089844-.6738281.0097656-1.3574219.0195312-1.9912109.0498047v-.7294922c.6640625.0400391,1.3681641.0703125,2.0917969.0703125.0097656-.1005859.0097656-.2099609.0097656-.3203125s0-.2197266-.0097656-.3398438c-.0097656-.0898438-.0507812-.1894531-.0507812-.25,0-.0302734.0205078-.0498047.0605469-.0498047.7441406.0800781.8847656.1103516.8847656.1796875,0,.0498047-.0498047.1298828-.1005859.2099609-.1103516.1904297-.0898438.4199219-.1103516.5703125.7841797,0,1.5791016-.0205078,2.3427734-.0703125v.7294922Zm-2.7949219,6.0166016c0-.1298828.0097656-.2597656.0097656-.3896484h-1.4580078c.0097656.25.0097656.5.0205078.7197266h-.734375c.0195312-.5800781.0195312-1.5996094.0195312-2.3193359v-.8388672h2.8564453v.7089844c0,.6201172,0,1.5195312.0195312,2.1191406h-.7333984Zm.0195312-2.1982422h-1.4677734v1.1787109h1.4677734v-1.1787109Z"/>
              <path class="cls-3" d="m259.0654297,54.4921875c-1.4277344-.0400391-2.9960938-.0595703-4.5546875-.0595703s-3.1074219.0195312-4.4951172.0595703v-.8496094c1.2470703.0400391,2.6142578.0703125,3.9921875.0703125v-3.078125c-1.0458984,0-2.0615234.0195312-2.9365234.0400391v-.8300781c.875.0400391,1.9003906.0703125,2.9365234.0800781v-2.3583984c-1.2978516.0097656-2.5644531.0195312-3.5898438.0400391v-.8398438c1.2265625.0498047,2.7851562.0800781,4.3339844.0800781,1.4072266,0,2.8046875-.0205078,3.9111328-.0800781v.8398438c-1.0957031-.0400391-2.453125-.0498047-3.8408203-.0498047v2.3681641c1.1162109,0,2.2216797-.0195312,3.1669922-.0800781v.8300781c-.9550781-.0302734-2.0615234-.0400391-3.1669922-.0400391v3.078125c1.4472656,0,2.8955078-.0302734,4.2431641-.0703125v.8496094Zm-1.8300781-1.1787109c-.3417969-.5898438-.875-1.3398438-1.3974609-1.8994141l.5927734-.3496094c.5126953.5693359,1.0058594,1.1894531,1.4277344,1.8291016l-.6230469.4199219Z"/>
              <path class="cls-3" d="m260.2128906,54.0029297c1.015625-.3603516,1.9101562-1.0097656,2.1816406-1.3691406.0908203-.1201172.1113281-.1904297.1611328-.1904297.0205078,0,.0302734.0097656.0605469.0205078.6835938.2998047.7041016.3691406.7041016.4199219,0,.0498047-.0400391.0996094-.1005859.1298828-.1816406.0898438-.2617188.1396484-.3222656.1992188-.4023438.4199219-1.3066406,1.0498047-2.2724609,1.4296875,0,0-.1503906-.3496094-.4121094-.6396484Zm8.7080078-1.9189453c-.7539062-.0205078-2.3027344-.0302734-3.8212891-.0400391,0,.6191406,0,1.8183594.0605469,2.8583984h-.875c.0605469-1.0400391.0605469-2.2490234.0605469-2.8583984h-3.2578125c0-.4003906.0097656-1.1494141.0097656-1.9287109,0-1.1396484-.0097656-2.3193359-.0605469-2.5292969-.0302734-.1298828-.0595703-.2099609-.0595703-.2597656,0-.0400391.0195312-.0498047.0800781-.0498047h.0302734c.8945312.0703125.9052734.1201172.9052734.1796875,0,.0400391-.0302734.1005859-.0712891.1904297-.0703125.1396484-.0800781.2900391-.0800781.4492188-.0097656.3798828-.0097656,2.7089844-.0097656,3.3085938h1.1357422c1.7099609,0,4.8574219,0,5.953125-.0400391v.7197266Zm-6.2246094-1.2792969v-4.2480469h5.0078125v4.2480469h-5.0078125Zm4.2744141-3.6181641h-3.5400391v.5693359h3.5400391v-.5693359Zm0,1.1191406h-3.5400391v.6396484h3.5400391v-.6396484Zm0,1.1894531h-3.5400391v.6894531h3.5400391v-.6894531Zm-.3623047,2.9189453c.6337891.5996094,1.4375,1.1484375,2.3525391,1.6083984-.3017578.2802734-.5126953.6005859-.5126953.6005859-.8447266-.4804688-1.6894531-1.1201172-2.4130859-1.8095703l.5732422-.3994141Z"/>
              <path class="cls-3" d="m274.6533203,50.9345703l-2.6035156,2.578125-.5429688-.5498047,2.5839844-2.578125-2.5947266-2.6083984.5537109-.5595703,2.6035156,2.5986328,2.6152344-2.5986328.5527344.5595703-2.6142578,2.5986328,2.6044922,2.5878906-.5429688.5498047-2.6152344-2.578125Z"/>
              <path class="cls-3" d="m284.7099609,50.9345703l-2.6035156,2.578125-.5429688-.5498047,2.5839844-2.578125-2.5947266-2.6083984.5537109-.5595703,2.6035156,2.5986328,2.6152344-2.5986328.5527344.5595703-2.6142578,2.5986328,2.6044922,2.5878906-.5429688.5498047-2.6152344-2.578125Z"/>
              <path class="cls-3" d="m299.0302734,48.1054688c-1.4277344-.0390625-2.8652344-.0498047-4.3037109-.0498047-1.4277344,0-2.8457031.0107422-4.2333984.0498047v-.8193359c1.2675781.0400391,2.5439453.0605469,3.8212891.0703125v-.2294922c0-.25-.0097656-.4697266-.0400391-.6396484-.0302734-.1308594-.0605469-.2207031-.0605469-.2705078,0-.0302734.0205078-.0498047.0800781-.0498047h.0302734c.9560547.0703125.9560547.1601562.9560547.1894531,0,.0507812-.0410156.1103516-.0712891.2001953-.0898438.2001953-.0898438.4003906-.0898438.7998047,1.296875-.0097656,2.6044922-.0302734,3.9111328-.0703125v.8193359Zm-2.9462891,5.8476562s-.0595703-.4003906-.2910156-.7998047c.2714844.0097656.4921875.0097656.6738281.0097656.703125,0,.8339844-.0898438.8339844-.5595703v-2.6386719h-2.1816406v1.2392578c0,1.1396484.0097656,2.5390625.0498047,3.71875h-.8847656c.0507812-1.0996094.0703125-2.5488281.0703125-3.7988281,0-.4199219,0-.8095703-.0097656-1.1591797h-2.171875v.7294922c0,.8701172.0097656,2.3388672.0605469,3.2880859h-.875c.0498047-1.2089844.0605469-3.3876953.0605469-4.296875v-.4199219h2.9052734c0-.3398438-.0195312-.6396484-.0498047-.7294922-.0302734-.1298828-.0605469-.2207031-.0605469-.2705078s.0302734-.0693359.1005859-.0693359h.0302734c.28125.0195312.5927734.0693359.8447266.1298828.0908203.0195312.1201172.0498047.1201172.109375,0,.0498047-.0292969.1103516-.0800781.2001953-.1005859.1699219-.0908203.3398438-.1005859.6298828h2.9365234v3.4580078c0,1.1289062-.5126953,1.2294922-1.6992188,1.2294922h-.2822266Z"/>
              <path class="cls-3" d="m299.9970703,53.9130859l4.8261719-6.5166016,4.8271484,6.5166016h-9.6533203Zm4.8261719-5.8076172l-4.0214844,5.4072266h8.0439453l-4.0224609-5.4072266Z"/>
              <path class="cls-3" d="m310.0537109,53.9130859l4.8261719-6.5166016,4.8271484,6.5166016h-9.6533203Zm4.8261719-5.8076172l-4.0214844,5.4072266h8.0439453l-4.0224609-5.4072266Z"/>
              <path class="cls-3" d="m323.8916016,53.5732422c0-.1298828.0097656-.3505859.0097656-.5302734h-2.3935547c.0097656.2802734.0097656.5898438.0205078.7597656h-.7539062c.0400391-.8994141.0400391-4.1279297.0400391-5.8964844v-1.1796875h3.7910156v1.1298828c0,1.6787109,0,4.7666016.0400391,5.7167969h-.7539062Zm-1.5185547-6.1972656h-.8847656v1.9794922h.8847656v-1.9794922Zm0,2.6289062h-.8847656c0,.7597656,0,1.6992188.0097656,2.3886719h.875v-2.3886719Zm1.5585938-2.6289062h-.9257812v1.9794922h.9257812v-1.9794922Zm-.0205078,5.0175781c.0097656-.6796875.0205078-1.6191406.0205078-2.3886719h-.9257812v2.3886719h.9052734Zm3.046875-5.0068359c-.7939453,0-1.4785156.0195312-2.1318359.0498047v-.7998047c.7539062.0302734,1.609375.0498047,2.4541016.0498047.7441406,0,1.4882812-.0097656,2.1816406-.0498047v.7998047c-.5527344-.0302734-1.1464844-.0400391-1.7597656-.0498047v6.2861328c0,1.0693359-.4628906,1.2392578-1.5986328,1.2392578-.1708984,0-.3525391,0-.5429688-.0097656,0,0-.0507812-.3896484-.2412109-.7792969.3515625.0292969.6328125.0400391.8447266.0400391.7744141,0,.7939453-.1699219.7939453-.5703125v-6.2060547Z"/>
              <path class="cls-3" d="m332.9023438,54.1728516v-5.6367188h-1.328125v-.5996094c.7949219,0,1.3583984-.3701172,1.6396484-.8798828h.5634766v7.1162109h-.875Z"/>
              <path class="cls-3" d="m336.8447266,54.1728516v-.4697266c0-1.3691406.9453125-2.4892578,2.3232422-3.0683594,1.1054688-.4501953,1.6689453-1.0693359,1.6689453-1.6992188,0-.7597656-.5732422-1.2490234-1.4980469-1.2490234-.8251953,0-1.5488281.6494141-1.5888672,1.6386719h-.8349609c.0507812-1.5488281,1.1367188-2.4189453,2.4541016-2.4189453,1.5175781,0,2.3525391.8603516,2.3525391,2.0195312,0,.9990234-.6835938,1.7587891-2.1416016,2.4082031-1.0361328.4404297-1.7402344,1.1992188-1.8203125,2.0488281h4.0527344v.7900391h-4.9677734Z"/>
              <path class="cls-3" d="m344.6279297,50.7744141v-.7998047h.6230469c1.0664062,0,1.7099609-.4990234,1.7099609-1.1494141,0-.7695312-.6035156-1.1591797-1.4384766-1.1591797-.8447266,0-1.3369141.4794922-1.4677734,1.0400391h-.8544922c.2001953-1.0302734,1.0351562-1.7998047,2.3320312-1.7998047,1.3876953,0,2.3134766.6904297,2.3134766,1.8193359,0,.8291016-.453125,1.3896484-1.1269531,1.609375.7744141.2197266,1.3779297.8994141,1.3779297,1.8291016,0,1.2792969-.8642578,2.1582031-2.5341797,2.1582031-1.4472656,0-2.4130859-.7597656-2.6240234-2.0683594h.8447266c.2011719.8496094.9150391,1.2890625,1.7695312,1.2890625.9550781,0,1.6796875-.5,1.6796875-1.4091797,0-.7695312-.6738281-1.359375-1.8203125-1.359375h-.7841797Z"/>
              <path class="cls-3" d="m349.2841797,52.09375v-.7998047h3.1982422v.7998047h-3.1982422Z"/>
              <path class="cls-3" d="m355.9716797,54.1728516v-5.6367188h-1.3271484v-.5996094c.7939453,0,1.3574219-.3701172,1.6386719-.8798828h.5634766v7.1162109h-.875Z"/>
            </g>
            <g>
              <path class="cls-3" d="m252.7392578,35.6416016c-6.8808594,0-11.2910156-5.1508789-11.2910156-10.8823242s4.4101562-10.9350586,11.2910156-10.9350586c6.8798828,0,11.2900391,5.2036133,11.2900391,10.9350586s-4.4101562,10.8823242-11.2900391,10.8823242Zm0-19.862793c-5.6591797,0-9.2714844,4.3051758-9.2714844,8.9804688s3.6123047,8.9541016,9.2714844,8.9541016c5.6582031,0,9.2705078-4.2788086,9.2705078-8.9541016s-3.6123047-8.9804688-9.2705078-8.9804688Z"/>
              <path class="cls-3" d="m279.2978516,35.6416016c-6.8808594,0-11.2910156-5.1508789-11.2910156-10.8823242s4.4101562-10.9350586,11.2910156-10.9350586c6.8798828,0,11.2900391,5.2036133,11.2900391,10.9350586s-4.4101562,10.8823242-11.2900391,10.8823242Zm0-19.862793c-5.6591797,0-9.2714844,4.3051758-9.2714844,8.9804688s3.6123047,8.9541016,9.2714844,8.9541016c5.6582031,0,9.2705078-4.2788086,9.2705078-8.9541016s-3.6123047-8.9804688-9.2705078-8.9804688Z"/>
              <path class="cls-3" d="m317.0654297,19.3974609c-3.3740234-.1054688-6.8007812-.1586914-10.1748047-.1586914v3.434082h4.3310547c.2919922,0,.5039062-.0795898.7167969-.237793.0800781-.0532227.1328125-.0795898.2128906-.0795898.1591797,0,1.9394531,1.0566406,1.9394531,1.3208008,0,.2905273-.4785156.6601562-.6376953.9243164-1.5947266,2.6679688-3.1347656,4.9130859-5.5263672,6.65625,2.6035156,1.6113281,5.7919922,2.5620117,9.8828125,3.328125-.8505859.8974609-1.1953125,2.0341797-1.1953125,2.0341797-4.4101562-1.109375-7.7041016-2.2983398-10.4140625-4.1474609-2.8154297,1.8227539-6.3759766,3.1962891-11.2636719,4.1738281,0,0-.2128906-1.1630859-1.0361328-2.0605469,4.3037109-.5810547,7.8369141-1.6640625,10.6259766-3.3808594-1.9384766-1.6904297-3.5859375-3.7773438-5.1533203-6.6826172-1.0097656,0-2.0458984.0263672-3.0019531.0527344v-2.0073242c2.6035156.0791016,5.7119141.105957,8.4746094.105957v-3.434082c-3.4267578.0263672-6.8808594.0795898-10.2275391.1586914v-2.1923828c3.4003906.1323242,6.8007812.1850586,10.2275391.1850586-.0263672-1.4790039-.0537109-2.7207031-.1064453-3.090332-.0527344-.3432617-.1328125-.5546875-.1328125-.6870117,0-.1054688.0527344-.1318359.2128906-.1318359h.0791016c2.3642578.1850586,2.4443359.3432617,2.4443359.5283203,0,.1054688-.0527344.2641602-.1591797.4750977-.1865234.3701172-.2392578.5546875-.265625.9775391,0,.237793-.0273438.9770508-.0273438,1.9282227,3.3476562-.0263672,6.7744141-.0795898,10.1748047-.1850586v2.1923828Zm-8.8994141,5.0712891c-1.7265625,0-4.0908203,0-6.5615234.0263672,1.2753906,2.3242188,2.7890625,4.1206055,4.6220703,5.5996094,2.2314453-1.6376953,3.7197266-3.5395508,4.8349609-5.6259766h-2.8955078Z"/>
              <path class="cls-3" d="m343.7041016,17.8920898c-4.4365234-.1323242-11.2636719-.1586914-15.3554688-.1586914h-3.3730469v4.5693359c0,7.3427734-1.0625,10.987793-2.8691406,14.3164062,0,0-.6914062-.9511719-1.6474609-1.6113281,1.7265625-2.9584961,2.4707031-6.1015625,2.4707031-12.7050781v-6.3652344h9.0585938c0-.6870117-.0263672-1.1889648-.1054688-1.6113281-.0800781-.3432617-.1601562-.5810547-.1601562-.7133789,0-.0791016.0537109-.1318359.2128906-.1318359h.0800781c2.1777344.1582031,2.4697266.2641602,2.4697266.4487305,0,.1586914-.1054688.34375-.2119141.5546875-.1591797.3701172-.2128906.7397461-.2128906,1.453125,3.5332031-.0263672,7.1464844-.0795898,9.6435547-.1586914v2.1132812Zm-4.4892578,18.7270508c.0263672-.5019531.0263672-1.0039062.0527344-1.5058594h-10.28125c0,.5283203.0273438,1.0302734.0537109,1.5058594h-2.1523438c.1064453-2.3774414.1064453-6.3393555.1064453-8.3999023v-1.347168h5.1806641c.0263672-.9506836.0263672-2.0600586.0263672-3.1958008,0-2.0600586-.0263672-4.0673828-.1591797-4.5693359-.0800781-.3432617-.1591797-.5546875-.1591797-.6870117,0-.1054688.0527344-.1318359.2119141-.1318359h.0800781c2.3642578.1850586,2.4433594.4223633,2.4433594.5283203,0,.1318359-.0791016.2905273-.1855469.5019531-.2919922.5810547-.2392578,1.1884766-.265625,2.0600586h2.2314453c2.2050781,0,5.1005859,0,6.7744141-.1054688v1.9277344c-2.3115234-.1054688-7.0664062-.1054688-9.0058594-.1054688v3.7768555h7.0927734v1.3208008c0,2.0073242,0,5.9165039.1064453,8.4262695h-2.1513672Zm.1054688-7.9506836h-10.3867188s0,2.3505859.0263672,4.6484375h10.3339844c.0263672-1.1621094.0263672-2.3242188.0263672-3.1958008v-1.4526367Z"/>
            </g>
          </g>
        </g>
      </g>
      <rect class="cls-4" y=".0568356" width="360.0349121" height="68.2029148"/>
    </g>
  </g>
</svg>