<?xml version="1.0" encoding="UTF-8"?>
<svg id="_レイヤー_2" data-name="レイヤー 2" xmlns="http://www.w3.org/2000/svg" viewBox="0 0 392.6306299 68.3007002">
  <defs>
    <style>
      .cls-1 {
        fill: #231815;
      }

      .cls-1, .cls-2, .cls-3 {
        stroke-width: 0px;
      }

      .cls-2 {
        fill: #e50012;
      }

      .cls-3 {
        fill: #004da0;
      }
    </style>
  </defs>
  <g id="_レイヤー_1-2" data-name="レイヤー 1">
    <g>
      <g>
        <g>
          <polygon class="cls-1" points="77.7220582 0 65.2106229 0 48.814304 23.7714869 48.814304 41.9746262 54.7564315 33.2964618 54.7564315 68.3007002 65.4542408 68.3007002 65.4542408 17.8477316 77.7220582 0"/>
          <polygon class="cls-1" points="105.0939391 42.962947 130.358913 42.962947 133.1679224 32.7450239 105.0939391 32.7450239 105.0939391 20.9526076 130.3789774 20.9526076 133.1004936 10.9430663 105.0939391 10.9430663 105.0939391 .002315 94.2883163 .002315 94.2883163 10.9430663 73.9379528 10.9430663 71.1289434 20.9526076 94.2080589 20.9526076 94.2080589 32.7450239 71.2894583 32.7450239 68.4804489 42.962947 94.2883163 42.962947 94.2883163 57.3037917 71.0454026 57.3037917 68.0431408 68.2819099 130.3990418 68.2819099 133.368566 57.3037917 105.0939391 57.3037917 105.0939391 42.962947"/>
        </g>
        <polygon class="cls-1" points="169.0690832 19.068371 160.6382109 19.068371 160.6382109 .0568356 149.7722691 .0568356 149.7722691 19.068371 144.3548939 19.068371 141.4656271 30.0011283 149.7722691 30.0011283 149.7722691 68.2597499 160.6382109 68.2597499 160.6382109 30.0011283 166.1447811 30.0011283 169.0690832 19.068371"/>
        <path class="cls-1" d="m200.8561115,31.1848748l.0161147,3.9284188h-2.484253l-1.9954767,8.3200839h4.4498557v13.8970086h-3.2237123l-2.9326736,10.9181783h4.7044903c6.6939301-.3480483,10.0446614-3.8077527,10.3964273-8.4949308v-16.3202561h6.307537l-.0149988,13.9097214-3.4314458.0055927-2.9566339,10.9135229h5.3413711c6.6702198-.3480483,9.2666726-3.7531524,9.6197205-8.4403304v-24.7185897l-14.6827891.0099992v-3.9309827l-9.1135334.0025639Z"/>
        <path class="cls-1" d="m171.6328225,31.1848748l.0161147,3.9284188h-2.8855401l-1.9954767,8.3200839h4.8511428v13.8970086h-3.8657716l-2.9326736,10.9181783h5.3465496c6.6939301-.3480483,10.0446614-3.8077527,10.3964273-8.4949308v-16.3202561h6.307537l-.0149988,13.9097214-3.4314458.0055927-2.9566339,10.9135229h5.3413711c6.6702198-.3480483,9.2666726-3.7531524,9.6197205-8.4403304v-24.7185897l-14.6827891.0099992v-3.9309827l-9.1135334.0025639Z"/>
        <path class="cls-1" d="m200.8821089,19.0590952h11.6142461v-4.0509593h-13.8490035v2.8564502c0,7.8863183-7.2625925,11.5024897-13.0553747,11.5024897h-14.0775126l.0075635-10.3541266h16.4126406v-4.0048132h-18.9085064l2.4674891-9.5806975h16.4410173V.0117741h10.6957584v5.4156643l23.0123544.037561v15.9474996c-.3404786,5.0250989-2.7041362,7.9346029-9.1464261,7.9621647h-11.6342444l.0199984-10.3155685Z"/>
      </g>
      <g>
        <polygon class="cls-2" points="13.8658765 15.6261508 13.8658765 31.8197936 27.7497362 31.8197936 27.7497362 48.0313275 37 38.7676247 37 15.6261508 13.8658765 15.6261508"/>
        <polygon class="cls-3" points="23.1341235 52.6745494 23.1341235 36.4809066 9.2502638 36.4809065 9.2502638 20.2693727 0 29.5330754 0 52.6745494 23.1341235 52.6745494"/>
      </g>
      <g>
        <g>
          <path class="cls-1" d="m247.7165674,19.3979087c.9746094,2.5068359,1.4267578,5.5371094,1.3583984,9.0888672-.140625,5.5742188-1.2539062,8.3583984-3.3432617,8.3583984h-2.2988281l-.3134766-1.984375h2.0898438c.9746094,0,1.6015625-2.1240234,1.8803711-6.3740234.0688477-1.0439453.0688477-1.6357422,0-1.7753906-1.1850586,1.7412109-2.7524414,3.3085938-4.7016602,4.7011719l-.9399414-2.1943359c1.9492188-1.0439453,3.690918-2.7841797,5.2236328-5.2236328-.0698242-1.1132812-.2446289-2.0898438-.5219727-2.9257812-.4882812.6972656-1.671875,1.6376953-3.5527344,2.8212891l-1.1489258-1.9853516c1.3222656-.6953125,2.5761719-1.671875,3.7612305-2.9248047-1.1850586-1.8808594-2.2641602-3.2392578-3.2387695-4.0751953l1.4624023-1.2539062c1.3925781,1.1855469,2.4375,2.4033203,3.1342773,3.6572266.6958008-.8359375,1.5317383-2.0898438,2.5078125-3.7617188l1.5673828,1.2539062c.3476562.2792969.2773438.4179688-.2089844.4179688-.5585938,1.1855469-1.4628906,2.578125-2.7167969,4.1796875Zm1.0449219,15.4628906c4.5268555-1.4628906,6.8955078-4.0048828,7.1044922-7.6269531h-5.8505859v-1.9853516h6.1640625v-6.2685547h-5.8505859v-1.9853516h5.8505859v-4.0751953h1.9853516c.5566406.0703125.5908203.2792969.1044922.6269531v3.4482422h5.8505859v1.9853516h-5.8505859v6.2685547h6.8955078v1.9853516h-6.4775391c1.0444336,3.0654297,3.4116211,5.46875,7.1044922,7.2089844l-1.2539062,2.2988281c-3.2749023-1.5332031-5.5732422-3.9345703-6.8955078-7.2099609-.7675781,3.4140625-3.4135742,5.9560547-7.9404297,7.6269531l-.9404297-2.2978516Zm4.1791992-15.3583984c.9042969,1.3935547,1.4628906,2.7519531,1.671875,4.0742188l-2.0898438.8359375c-.3491211-1.4628906-.8359375-2.8212891-1.4628906-4.0751953l1.8808594-.8349609Zm6.4775391,4.4921875c.765625-1.6015625,1.3227539-3.0986328,1.671875-4.4921875l1.8808594.5214844c.5566406.140625.5566406.3837891,0,.7314453-.2792969,1.1855469-.8359375,2.5078125-1.671875,3.9707031l-1.8808594-.7314453Z"/>
          <path class="cls-1" d="m289.8425439,19.0844321v16.7167969h-2.402832v-1.671875h-15.9853516v2.0898438h-2.4033203v-17.9707031h2.2988281c.6953125.1396484.7314453.4179688.1044922.8359375v12.7460938h6.6865234V13.8598227h2.2988281c.6953125.140625.730957.4179688.1044922.8359375v17.1347656h6.8955078v-13.5820312h2.2983398c.6958008.1396484.7314453.4179688.1044922.8359375Z"/>
          <path class="cls-1" d="m316.929458,34.2338462l-.8359375,2.6113281c-4.597168-1.0439453-8.0805664-2.5068359-10.4477539-4.3876953-3.065918,1.9511719-6.7915039,3.4482422-11.1796875,4.4921875l-.9399414-2.4023438c4.1088867-.765625,7.5566406-1.9492188,10.3432617-3.5527344-1.8120117-2.0195312-3.2045898-4.2480469-4.1791992-6.6865234h-3.2387695v-1.9853516h7.6269531v-3.7607422h-10.0297852v-1.9853516h10.0297852v-3.34375h2.2988281c.6953125.140625.730957.4179688.1044922.8359375v2.5078125h10.1342773v1.9853516h-10.1342773v3.7607422h4.8056641l.6269531-.6269531,1.7763672,1.5673828-.4179688.2089844c-1.7416992,3.2050781-3.6567383,5.7119141-5.746582,7.5224609,2.2988281,1.4628906,5.4331055,2.5439453,9.4033203,3.2392578Zm-14.7314453-9.9257812c.9042969,2.0898438,2.0893555,3.8310547,3.5522461,5.2236328,1.6713867-1.3925781,3.0639648-3.1337891,4.1791992-5.2236328h-7.7314453Z"/>
          <path class="cls-1" d="m319.7717432,34.9652915c1.6010742-2.0898438,2.402832-4.4931641,2.402832-7.2089844v-11.9111328h8.5673828v-2.9257812h2.2983398c.6958008.140625.7314453.4179688.1044922.8359375v2.0898438h9.2988281v1.9853516h-18.1791992v10.0302734c0,3.4130859-.90625,6.3388672-2.7167969,8.7763672l-1.7758789-1.671875Zm13.5820312-15.9853516c.5566406.0693359.5913086.2783203.1044922.6269531v2.1933594h8.3583984v1.9853516h-8.3583984v3.2392578h7.0004883v9.6123047h-2.0898438v-1.1494141h-9.7167969v1.3574219h-2.0893555v-9.8203125h4.8061523v-8.0449219h1.9848633Zm5.0151367,14.5224609v-4.4931641h-9.7167969v4.4931641h9.7167969Z"/>
        </g>
        <g>
          <path class="cls-1" d="m242.3684228,47.0248618v-2.6201172h.9394531c.2636719.0332031.2797852.1318359.0493164.296875v2.3232422h1.2363281v.9394531h-1.2363281v3.90625l1.4833984-.4453125v.9892578l-3.3618164,1.1865234c-.0336914.2646484-.1162109.3300781-.2475586.1982422l-.3955078-1.2363281,1.5327148-.3955078v-4.203125h-1.3349609v-.9394531h1.3349609Zm8.652832,2.8183594v4.7470703c0,.4277344-.2148438.6425781-.6430664.6425781h-1.3842773l-.1977539-.9394531h1.0385742c.1313477,0,.1977539-.0664062.1977539-.1982422v-4.2519531h-5.4389648v-.9394531h7.4658203v.9394531h-1.0380859Zm-5.7851562-1.0878906l-.3457031-.9882812c1.5488281-.2304688,2.472168-.7246094,2.7685547-1.4833984h-2.5214844v-.9394531h2.5708008v-1.2851562h.9394531c.2636719.0332031.2797852.1318359.0498047.2958984v.9892578h2.7685547v.9394531h-2.7192383c.4941406.6923828,1.4663086,1.1542969,2.9169922,1.3847656l-.2470703,1.0380859c-1.4506836-.2304688-2.5053711-.7421875-3.1645508-1.5332031-.6264648.8574219-1.6313477,1.3847656-3.0161133,1.5820312Zm1.0878906,4.796875v.4443359h-.840332v-3.3125h3.4116211v2.8681641h-2.5712891Zm0-.7919922h1.7304688v-1.2851562h-1.7304688v1.2851562Z"/>
          <path class="cls-1" d="m259.2981103,46.0365806v2.7685547h3.7578125v1.0878906h-3.7578125v3.4609375h4.8950195v1.0878906h-10.6308594v-1.0878906h4.5986328v-3.4609375h-3.4116211v-1.0878906h3.4116211v-2.7685547h-4.0048828v-1.0878906h9.5917969v1.0878906h-4.449707Zm1.6313477,4.1533203c.6259766.4287109,1.2192383,1.0546875,1.7802734,1.8789062l-1.0878906.7412109c-.4619141-.7578125-.9887695-1.4003906-1.5820312-1.9277344l.8896484-.6923828Z"/>
          <path class="cls-1" d="m266.7146143,55.1342368l-.7412109-.9394531c1.0541992-.6259766,1.8950195-1.3671875,2.5214844-2.2255859l.9394531.5439453c.1645508.1328125.1152344.2314453-.1484375.296875-.5610352.7910156-1.4174805,1.5654297-2.5712891,2.3242188Zm.5439453-3.609375v.4941406h-.9887695v-7.1201172h.9394531c.2636719.0332031.2797852.1318359.0493164.296875v5.3896484h9.0976562v.9394531h-4.5981445v3.8066406h-1.137207v-3.8066406h-3.3623047Zm1.1870117-1.5820312v-5.6865234h6.2792969v5.6865234h-6.2792969Zm.9887695-4.1044922h4.3012695v-.7910156h-4.3012695v.7910156Zm0,1.5820312h4.3012695v-.7910156h-4.3012695v.7910156Zm0,1.7304688h4.3012695v-.9394531h-4.3012695v.9394531Zm4.1533203,2.7695312c.6586914.6591797,1.6313477,1.3183594,2.9169922,1.9775391l-.5932617,1.0380859c-1.1210938-.5273438-2.1757812-1.2851562-3.1645508-2.2744141l.8408203-.7412109Z"/>
          <path class="cls-1" d="m280.6975244,46.9760337c.4614258,1.1865234.675293,2.6201172.6425781,4.3017578-.0664062,2.6367188-.5932617,3.9550781-1.5820312,3.9550781h-1.0878906l-.1479492-.9394531h.9887695c.4609375,0,.7578125-1.0048828.8896484-3.015625.0327148-.4951172.0327148-.7744141,0-.8408203-.5605469.8242188-1.3022461,1.5654297-2.2246094,2.2246094l-.4453125-1.0380859c.9228516-.4941406,1.7470703-1.3183594,2.472168-2.4726562-.0332031-.5263672-.1157227-.9882812-.2470703-1.3837891-.230957.3300781-.7910156.7744141-1.6811523,1.3349609l-.5439453-.9394531c.6259766-.3291016,1.2192383-.7910156,1.7802734-1.3847656-.5610352-.8896484-1.0717773-1.5322266-1.5327148-1.9277344l.6918945-.59375c.6591797.5605469,1.1538086,1.1376953,1.4833984,1.7304688.3291016-.3955078.7246094-.9892578,1.1865234-1.7802734l.7416992.59375c.1645508.1318359.1313477.1972656-.0986328.1972656-.2641602.5615234-.6923828,1.2207031-1.2856445,1.9785156Zm.4946289,7.3173828c2.1420898-.6923828,3.2631836-1.8955078,3.3618164-3.609375h-2.7685547v-.9394531h2.9169922v-2.9667969h-2.7685547v-.9394531h2.7685547v-1.9277344h.9394531c.2636719.0332031.2797852.1318359.0493164.2958984v1.6318359h2.769043v.9394531h-2.769043v2.9667969h3.2636719v.9394531h-3.065918c.4946289,1.4511719,1.6147461,2.5878906,3.3623047,3.4111328l-.5932617,1.0878906c-1.5498047-.7246094-2.6376953-1.8613281-3.2631836-3.4111328-.3632812,1.6152344-1.6157227,2.8183594-3.7578125,3.609375l-.4448242-1.0878906Zm1.9775391-7.2685547c.4282227.6601562.6923828,1.3027344.7910156,1.9287109l-.9887695.3955078c-.1655273-.6923828-.3955078-1.3349609-.6923828-1.9287109l.8901367-.3955078Zm3.0654297,2.1259766c.3623047-.7578125.6259766-1.4658203.7910156-2.1259766l.8901367.2470703c.2636719.0673828.2636719.1816406,0,.3466797-.1318359.5605469-.3955078,1.1865234-.7910156,1.8789062l-.8901367-.3466797Z"/>
          <path class="cls-1" d="m300.6335596,46.8275962v7.9111328h-1.1376953v-.7910156h-7.5644531v.9882812h-1.137207v-8.5039062h1.0874023c.3291016.0664062.3461914.1972656.0498047.3955078v6.0322266h3.1640625v-8.5048828h1.0878906c.3291016.0664062.3461914.1982422.0493164.3955078v8.109375h3.2631836v-6.4277344h1.0878906c.3291016.0664062.3461914.1972656.0498047.3955078Z"/>
          <path class="cls-1" d="m310.9890283,52.8598227c.1313477,0,.1977539-.0664062.1977539-.1982422v-3.5107422h-2.7685547v6.1318359h-1.137207v-6.1318359h-2.5219727v4.796875h-1.137207v-5.7363281h3.6591797v-1.5322266h-4.9443359v-.9394531h4.9443359v-1.5820312h1.0874023c.2636719.0332031.2797852.1318359.0498047.296875v1.2851562h5.0927734v.9394531h-5.0927734v1.5322266h3.9057617v4.9453125c0,.5273438-.2641602.7910156-.7910156.7910156h-1.2856445l-.0986328-1.0878906h.840332Z"/>
          <path class="cls-1" d="m320.729751,43.8607993c.2631836.0332031.2797852.1318359.0493164.296875v.7412109h4.8457031v2.0771484h-.9892578v-1.2861328h-8.7514648v1.4345703h-.9887695v-2.2255859h4.8950195v-1.0380859h.9394531Zm4.0541992,11.1738281h-.9887695v-.2470703h-6.9716797v.4951172h-.9887695v-4.4501953h8.9492188v4.2021484Zm-.7416992-7.7626953h-7.5151367v-.7910156h7.5151367v.7910156Zm-4.2519531,5.2412109v-.8896484h-2.9667969v.8896484h2.9667969Zm0,1.4833984v-.8896484h-2.9667969v.8896484h2.9667969Zm3.8071289-5.9824219v2.1757812h-6.6254883v-2.1757812h6.6254883Zm-.9887695,1.5820312v-.9882812h-4.6479492v.9882812h4.6479492Zm1.1865234,2.9169922v-.8896484h-3.0161133v.8896484h3.0161133Zm0,1.4833984v-.8896484h-3.0161133v.8896484h3.0161133Z"/>
          <path class="cls-1" d="m337.8469385,47.5688071v1.0878906h-4.7958984v4.6972656h4.0541992v1.0878906h-9.3447266v-1.0878906h4.1533203v-4.6972656h-4.746582v-1.0878906h4.746582v-3.1142578h1.0878906c.3291016.0664062.3461914.1972656.0493164.3955078v2.71875h4.7958984Z"/>
          <path class="cls-1" d="m345.5012353,51.1781821h-1.1865234c.0986328,2.4404297-1.4672852,3.8398438-4.6972656,4.203125l-.3461914-1.0878906c2.7353516-.2304688,4.0708008-1.2685547,4.0048828-3.1152344h-1.1865234v.4951172h-.9887695v-7.2685547h7.5644531v7.2685547h-.9887695v-.4951172h-1.1865234v2.5214844c0,.2646484.1152344.3955078.3461914.3955078h1.7797852c.296875,0,.4946289-.1308594.5932617-.3955078l.1484375-.7412109,1.0878906.296875-.1977539.8398438c-.1323242.6259766-.527832.9394531-1.1865234.9394531h-2.6704102c-.5932617,0-.8896484-.2802734-.8896484-.8398438v-3.0166016Zm-3.4116211-4.8447266h5.5869141v-.9892578h-5.5869141v.9892578Zm0,1.8779297h5.5869141v-.9394531h-5.5869141v.9394531Zm0,2.0273438h5.5869141v-1.0878906h-5.5869141v1.0878906Z"/>
          <path class="cls-1" d="m353.511001,54.0951743v-7.6630859h-1.4829102v-.59375c1.1533203,0,1.8291016-.4609375,2.0268555-1.3837891h.5932617v9.640625h-1.137207Z"/>
          <path class="cls-1" d="m362.4997705,49.2504477v.7910156h-5.6362305v-.7910156h5.6362305Z"/>
          <path class="cls-1" d="m368.3342432,53.1566977v.9384766h-5.043457v-.7910156c.7578125-1.4160156,1.6972656-2.7685547,2.8183594-4.0537109.6259766-.7246094.9394531-1.4833984.9394531-2.2744141,0-.5605469-.1484375-.9892578-.4448242-1.2861328-.1977539-.1972656-.4624023-.2958984-.7915039-.2958984-.2641602,0-.5273438.1318359-.7910156.3955078-.2963867.2958984-.4448242.90625-.4448242,1.8291016h-1.0878906c.0327148-1.1865234.3129883-2.0439453.8408203-2.5712891.3955078-.3955078.9223633-.5927734,1.5820312-.5927734.6259766,0,1.1533203.2138672,1.5820312.6425781.4614258.4619141.6923828,1.1044922.6923828,1.9277344,0,.9570312-.4448242,1.9453125-1.3349609,2.9667969-.956543,1.0878906-1.7475586,2.1435547-2.3735352,3.1650391h3.8569336Z"/>
          <path class="cls-1" d="m370.7570947,54.0951743l2.4223633-8.7011719h-3.6586914v-.9394531h4.6972656v1.0380859l-2.3237305,8.6025391h-1.137207Z"/>
          <path class="cls-1" d="m380.7644189,49.2504477v.7910156h-5.6362305v-.7910156h5.6362305Z"/>
          <path class="cls-1" d="m386.5988916,53.1566977v.9384766h-5.043457v-.7910156c.7578125-1.4160156,1.6972656-2.7685547,2.8183594-4.0537109.6259766-.7246094.9394531-1.4833984.9394531-2.2744141,0-.5605469-.1484375-.9892578-.4448242-1.2861328-.1977539-.1972656-.4624023-.2958984-.7915039-.2958984-.2641602,0-.5273438.1318359-.7910156.3955078-.2963867.2958984-.4448242.90625-.4448242,1.8291016h-1.0878906c.0327148-1.1865234.3129883-2.0439453.8408203-2.5712891.3955078-.3955078.9223633-.5927734,1.5820312-.5927734.6259766,0,1.1533203.2138672,1.5820312.6425781.4614258.4619141.6923828,1.1044922.6923828,1.9277344,0,.9570312-.4448242,1.9453125-1.3349609,2.9667969-.956543,1.0878906-1.7475586,2.1435547-2.3735352,3.1650391h3.8569336Z"/>
          <path class="cls-1" d="m389.1696924,52.8100181c.2304688.2314453.5439453.3466797.9394531.3466797.3291016,0,.6430664-.1484375.9394531-.4453125.296875-.296875.4448242-.7910156.4448242-1.4833984,0-.5273438-.1811523-.9716797-.543457-1.3349609-.2641602-.2636719-.6601562-.3789062-1.1870117-.3466797v-.8398438c.5268555-.0322266.9228516-.1806641,1.1870117-.4453125.2631836-.2636719.3955078-.6591797.3955078-1.1865234,0-.6591797-.1484375-1.1376953-.4453125-1.4335938-.1977539-.1982422-.4448242-.296875-.7416992-.296875-.2963867,0-.543457.0986328-.7412109.296875-.3300781.3291016-.5117188.8242188-.5439453,1.4833984h-1.0878906c.0322266-.8574219.3129883-1.5498047.840332-2.0771484.3955078-.3955078.90625-.5927734,1.5327148-.5927734.6591797,0,1.1870117.1972656,1.5825195.5927734.4609375.4619141.6918945,1.0712891.6918945,1.8291016,0,.6923828-.1811523,1.2207031-.543457,1.5830078-.3300781.3291016-.6430664.5439453-.9394531.6425781.4277344.1318359.7578125.3134766.9887695.5439453.4609375.4619141.6918945,1.0214844.6918945,1.6806641,0,.8574219-.2641602,1.5498047-.7910156,2.0771484-.4619141.4619141-1.0380859.6914062-1.7304688.6914062-.7587891,0-1.3520508-.2138672-1.7797852-.6425781-.4946289-.4941406-.7416992-1.2353516-.7416992-2.2246094h1.137207c-.0332031.7255859.1152344,1.2529297.4448242,1.5820312Z"/>
        </g>
      </g>
    </g>
  </g>
</svg>