<?xml version="1.0" encoding="UTF-8"?>
<svg id="_レイヤー_2" data-name="レイヤー 2" xmlns="http://www.w3.org/2000/svg" viewBox="0 0 378.4820655 42.8378906">
  <defs>
    <style>
      .cls-1 {
        fill: #d21619;
        stroke-width: 0px;
      }
    </style>
  </defs>
  <g id="_レイヤー_1-2" data-name="レイヤー 1">
    <g>
      <g>
        <path class="cls-1" d="m56.1285499,39.6982422c-2.0263672-2.09375-3.0390625-5.0126953-3.0390625-8.7578125V11.8974609c0-3.7636719,1.0175781-6.6875,3.0537109-8.7714844,2.0351562-2.0839844,5.0029297-3.1259766,8.9013672-3.1259766,3.9179688,0,6.8896484,1.0371094,8.9169922,3.1113281,2.0253906,2.0742188,3.0390625,5.0029297,3.0390625,8.7861328v19.0429688c0,3.7646484-1.0185547,6.6884766-3.0537109,8.7724609-2.0361328,2.0839844-5.0039062,3.125-8.9023438,3.125-3.9179688,0-6.8896484-1.0458984-8.9160156-3.1396484Zm13.5117188-4.0761719c.9882812-1.0849609,1.4833984-2.6455078,1.4833984-4.6816406V11.8974609c0-2.0351562-.4902344-3.5957031-1.4697266-4.6806641s-2.515625-1.6279297-4.609375-1.6279297-3.6298828.5429688-4.609375,1.6279297-1.46875,2.6455078-1.46875,4.6806641v19.0429688c0,2.0361328.4941406,3.5966797,1.4833984,4.6816406s2.5205078,1.6269531,4.5947266,1.6269531,3.6054688-.5419922,4.5957031-1.6269531Z"/>
        <path class="cls-1" d="m95.7545264,42.40625h-5.8769531V6.9140625l-5.9628906,3.6582031v-6.078125l5.9628906-3.9755859h5.8769531v41.8876953Z"/>
        <path class="cls-1" d="m104.6275733,37.3066406l14.6064453-19.4746094c.8447266-1.1132812,1.5019531-2.2705078,1.9726562-3.4707031s.7060547-2.3193359.7060547-3.3564453v-.0576172c0-1.6708984-.4892578-2.9677734-1.46875-3.8896484s-2.3720703-1.3828125-4.1777344-1.3828125c-1.7089844,0-3.0917969.5048828-4.1484375,1.5126953-1.0566406,1.0087891-1.6992188,2.4345703-1.9296875,4.2783203v.0283203h-6.0791016v-.0283203c.3457031-2.4003906,1.0517578-4.4511719,2.1171875-6.1503906,1.0664062-1.7001953,2.4443359-2.9960938,4.1347656-3.8896484,1.6894531-.8925781,3.6386719-1.3398438,5.8476562-1.3398438,2.4970703,0,4.6289062.4277344,6.3955078,1.2822266s3.1113281,2.0986328,4.0332031,3.7304688c.921875,1.6328125,1.3828125,3.6015625,1.3828125,5.90625v.0283203c0,1.4794922-.3076172,3.0253906-.921875,4.6386719s-1.46875,3.1689453-2.5634766,4.6669922l-12.1289062,16.4785156h15.8447266v5.5888672h-23.6230469v-5.0996094Z"/>
        <path class="cls-1" d="m138.7799171,39.6982422c-2.0263672-2.09375-3.0390625-5.0126953-3.0390625-8.7578125V11.8974609c0-3.7636719,1.0175781-6.6875,3.0537109-8.7714844s5.0029297-3.1259766,8.9023438-3.1259766c3.9179688,0,6.8896484,1.0371094,8.9160156,3.1113281s3.0390625,5.0029297,3.0390625,8.7861328v19.0429688c0,3.7646484-1.0175781,6.6884766-3.0537109,8.7724609s-5.0029297,3.125-8.9013672,3.125c-3.9179688,0-6.890625-1.0458984-8.9169922-3.1396484Zm13.5117188-4.0761719c.9892578-1.0849609,1.4833984-2.6455078,1.4833984-4.6816406V11.8974609c0-2.0351562-.4892578-3.5957031-1.46875-4.6806641s-2.5166016-1.6279297-4.609375-1.6279297c-2.09375,0-3.6298828.5429688-4.609375,1.6279297s-1.4697266,2.6455078-1.4697266,4.6806641v19.0429688c0,2.0361328.4941406,3.5966797,1.4833984,4.6816406s2.5214844,1.6269531,4.5957031,1.6269531,3.6054688-.5419922,4.5947266-1.6269531Z"/>
        <path class="cls-1" d="m187.9420264,24.6025391v5.5888672h-19.359375v-5.5888672h19.359375Z"/>
        <path class="cls-1" d="m202.6490577,41.5996094c-1.6425781-.8261719-2.9775391-2.0263672-4.0048828-3.6015625-1.0273438-1.5742188-1.7138672-3.4658203-2.0595703-5.6748047v-.0292969h5.8769531v.0292969c.2109375,1.5361328.8261719,2.7324219,1.84375,3.5869141s2.3427734,1.28125,3.9755859,1.28125c1.8818359,0,3.3369141-.6289062,4.3642578-1.8867188s1.5419922-3.0292969,1.5419922-5.3154297v-3.5146484c0-2.265625-.5146484-4.0283203-1.5419922-5.2861328s-2.4824219-1.8867188-4.3642578-1.8867188c-1.0175781,0-1.9970703.2880859-2.9384766.8642578s-1.7666016,1.3828125-2.4775391,2.4199219h-5.3583984V.5185547h21.3476562v5.5888672h-15.4707031v9.4199219c.7294922-.5947266,1.5458984-1.0556641,2.4492188-1.3828125.9023438-.3261719,1.8242188-.4892578,2.765625-.4892578,2.4199219,0,4.4892578.4990234,6.2080078,1.4980469s3.0244141,2.4580078,3.9179688,4.3789062c.8925781,1.9208984,1.3398438,4.234375,1.3398438,6.9423828v3.5146484c0,2.7080078-.4609375,5.0224609-1.3828125,6.9433594s-2.2666016,3.3847656-4.0332031,4.3935547c-1.7675781,1.0078125-3.8896484,1.5117188-6.3671875,1.5117188-2.1123047,0-3.9902344-.4130859-5.6318359-1.2382812Z"/>
        <path class="cls-1" d="m243.5426124,21.6064453l-.0283203,1.0371094c-.4804688.8837891-1.2060547,1.53125-2.1748047,1.9443359-.9707031.4130859-2.1181641.6191406-3.4433594.6191406-1.9970703,0-3.7548828-.5087891-5.2714844-1.5263672-1.5175781-1.0175781-2.6933594-2.453125-3.5292969-4.3066406-.8349609-1.8535156-1.2529297-4-1.2529297-6.4394531v-.0283203c0-2.7080078.4560547-5.0224609,1.3681641-6.9433594.9121094-1.9199219,2.2470703-3.3798828,4.0048828-4.3789062,1.7568359-.9980469,3.8642578-1.4980469,6.3232422-1.4980469,2.4580078,0,4.5605469.5097656,6.3085938,1.5273438s3.078125,2.4970703,3.9902344,4.4365234,1.3681641,4.2734375,1.3681641,7v.0292969c0,1.4980469-.1923828,3.0966797-.5761719,4.796875-.3837891,1.6992188-.9316406,3.3847656-1.6416016,5.0556641-.1152344.25-.2304688.5039062-.3457031.7636719-.1152344.2587891-.2402344.5136719-.375.7626953l-8.9306641,17.9482422h-6.3378906l10.5439453-20.7998047Zm.2744141-3.6298828c1.0078125-1.2480469,1.5117188-3.0058594,1.5117188-5.2724609v-.0283203c0-2.2089844-.5039062-3.9179688-1.5117188-5.1279297-1.0087891-1.2099609-2.4345703-1.8154297-4.2783203-1.8154297-1.8632812,0-3.2988281.6054688-4.3066406,1.8154297-1.0087891,1.2099609-1.5126953,2.9287109-1.5126953,5.15625v.0292969c0,2.2666016.5039062,4.0185547,1.5126953,5.2578125,1.0078125,1.2382812,2.4433594,1.8574219,4.3066406,1.8574219,1.84375,0,3.2695312-.6240234,4.2783203-1.8720703Z"/>
        <path class="cls-1" d="m278.6314796,24.6025391v5.5888672h-19.359375v-5.5888672h19.359375Z"/>
        <path class="cls-1" d="m291.9127296,41.5566406c-1.7861328-.8544922-3.2226562-2.09375-4.3076172-3.7167969s-1.7714844-3.5771484-2.0595703-5.8623047h5.9921875c.1728516,1.1904297.5478516,2.1699219,1.1240234,2.9384766s1.3203125,1.3398438,2.2324219,1.7138672c.9121094.375,1.9824219.5615234,3.2119141.5615234,1.9394531,0,3.4472656-.5185547,4.5234375-1.5556641,1.0751953-1.0371094,1.6132812-2.4960938,1.6132812-4.3789062v-1.2675781c0-2.0927734-.5097656-3.7109375-1.5273438-4.8535156s-2.4580078-1.7148438-4.3212891-1.7148438h-2.9667969v-5.5888672h2.9667969c1.6328125,0,2.9003906-.4892578,3.8027344-1.46875s1.3544922-2.3623047,1.3544922-4.1484375v-1.296875c0-1.6513672-.4755859-2.9287109-1.4267578-3.8310547-.9501953-.9023438-2.2998047-1.3544922-4.046875-1.3544922-.9990234,0-1.8925781.1875-2.6796875.5625-.7871094.3740234-1.4550781.9501953-2.0019531,1.7285156-.5478516.7773438-.9462891,1.7519531-1.1953125,2.9238281h-5.9638672c.3837891-2.2851562,1.109375-4.2441406,2.1748047-5.8769531,1.0664062-1.6328125,2.4150391-2.8710938,4.0478516-3.7167969,1.6328125-.8447266,3.5048828-1.2675781,5.6181641-1.2675781,3.6103516,0,6.4042969.9511719,8.3828125,2.8525391s2.9677734,4.5800781,2.9677734,8.0371094v.6914062c0,2.09375-.5673828,3.9179688-1.7001953,5.4736328s-2.7363281,2.6894531-4.8105469,3.3994141c2.2851562.5,4.0566406,1.6230469,5.3144531,3.3710938s1.8876953,3.9755859,1.8876953,6.6835938v.6914062c0,2.4394531-.4707031,4.5224609-1.4121094,6.2509766s-2.3095703,3.0449219-4.1054688,3.9472656-3.9609375,1.3535156-6.4960938,1.3535156c-2.3427734,0-4.4072266-.4277344-6.1933594-1.28125Z"/>
        <path class="cls-1" d="m322.9683936,41.3544922c-1.7480469-.9892578-3.078125-2.4296875-3.9902344-4.3212891s-1.3681641-4.171875-1.3681641-6.8417969v-.0292969c0-1.5556641.1816406-3.1875.546875-4.8974609.3652344-1.7089844.8935547-3.3896484,1.5849609-5.0410156.1152344-.2880859.2392578-.5712891.3740234-.8496094s.2685547-.5527344.4033203-.8212891l9.1035156-18.0341797h6.3378906l-10.6875,20.8857422.0283203-1.0371094c.4804688-.9023438,1.1816406-1.6035156,2.1035156-2.1025391s1.9970703-.7490234,3.2265625-.7490234c2.1699219,0,4.0332031.4892578,5.5888672,1.46875s2.7363281,2.40625,3.5429688,4.2783203c.8066406,1.8730469,1.2099609,4.125,1.2099609,6.7558594v.0283203c0,2.6894531-.4560547,4.9941406-1.3681641,6.9140625-.9121094,1.9208984-2.2470703,3.3808594-4.0039062,4.3789062-1.7578125.9990234-3.8662109,1.4980469-6.3242188,1.4980469s-4.5615234-.4941406-6.3085938-1.4833984Zm10.6162109-5.8916016c1.0078125-1.1523438,1.5117188-2.7939453,1.5117188-4.9257812v-.0292969c0-2.3427734-.5283203-4.1523438-1.5839844-5.4296875-1.0566406-1.2773438-2.5644531-1.9160156-4.5234375-1.9160156-1.7480469,0-3.1015625.6435547-4.0615234,1.9296875-.9609375,1.2871094-1.4404297,3.1025391-1.4404297,5.4453125v.0283203c0,2.1318359.5039062,3.7695312,1.5126953,4.9121094,1.0078125,1.1425781,2.4335938,1.7138672,4.2773438,1.7138672,1.8632812,0,3.2988281-.5761719,4.3076172-1.7285156Z"/>
        <path class="cls-1" d="m358.8639014,42.40625h-5.8769531V6.9140625l-5.9638672,3.6582031v-6.078125l5.9638672-3.9755859h5.8769531v41.8876953Z"/>
        <path class="cls-1" d="m378.4820655,42.40625h-5.8769531V6.9140625l-5.9628906,3.6582031v-6.078125l5.9628906-3.9755859h5.8769531v41.8876953Z"/>
      </g>
      <path class="cls-1" d="m31.5448375,17.2770083c3.1344916,1.5883098,5.1288526,3.7721311,5.1288526,6.0907063,0,3.9151153-3.7393493,5.0267648-5.1288526,5.0267648-1.3963623,0-5.1385252-1.1116495-5.1385252-5.0267648,0-2.3185752,1.9643929-4.5350388,5.1385252-6.0907063Zm-26.1665411,6.0907063c0-2.3185752,2.0024755-4.5023965,5.126249-6.0907063,3.1821762,1.5556676,5.1397338,3.7721311,5.1397338,6.0907063,0,3.9151153-3.7447665,5.0267648-5.1397338,5.0267648-1.3855047,0-5.126249-1.1116495-5.126249-5.0267648ZM0,34.1609954V14.8017783c2.7067945,0,5.4872433.5339935,7.909325,1.3990127-2.7122349,1.7477546-4.6739544,4.1671859-4.6739544,7.1669236,0,5.7079273,5.2774173,7.151858,7.2691747,7.151858,2.0052423,0,7.2758472-1.4439307,7.2758472-7.151858,0-2.9997377-1.991711-5.4191691-4.7066196-7.1669236,2.4561189-.9004514,5.2432636-1.3990127,7.948826-1.3990127,2.7176519,0,5.4954502.4985613,7.9515691,1.3990127-2.7081895,1.7477546-4.7066196,4.1671859-4.7066196,7.1669236,0,5.7079273,5.2760453,7.151858,7.277289,7.151858,1.9915711,0,7.2690114-1.4439307,7.2690114-7.151858,0-2.9997377-1.961603-5.4191691-4.6711875-7.1669236,2.4192918-.8650192,5.2079709-1.3990127,7.9202297-1.3990127v19.3592171H0ZM31.5748056,14.7826672c-3.1741086-1.3963623-6.9490061-2.1197923-10.5522067-2.1197923s-7.37675.7234301-10.5454182,2.1197923c-3.0964089-1.3963623-6.8780257-2.1197923-10.4771808-2.1197923v-3.9859796h42.0628912v3.9859796c-3.6059905,0-7.3835621.7234301-10.4880855,2.1197923Z"/>
    </g>
  </g>
</svg>