<?xml version="1.0" encoding="UTF-8"?>
<svg id="_レイヤー_2" data-name="レイヤー 2" xmlns="http://www.w3.org/2000/svg" viewBox="0 0 389.2645147 46.4619141">
  <defs>
    <style>
      .cls-1 {
        fill: #d21619;
        stroke-width: 0px;
      }
    </style>
  </defs>
  <g id="_レイヤー_1-2" data-name="レイヤー 1">
    <g>
      <path class="cls-1" d="m31.5448375,19.2659711c3.1344916,1.5883098,5.1288526,3.7721311,5.1288526,6.0907063,0,3.9151153-3.7393493,5.0267648-5.1288526,5.0267648-1.3963623,0-5.1385252-1.1116495-5.1385252-5.0267648,0-2.3185752,1.9643929-4.5350388,5.1385252-6.0907063Zm-26.1665411,6.0907063c0-2.3185752,2.0024755-4.5023965,5.126249-6.0907063,3.1821762,1.5556676,5.1397338,3.7721311,5.1397338,6.0907063,0,3.9151153-3.7447665,5.0267648-5.1397338,5.0267648-1.3855047,0-5.126249-1.1116495-5.126249-5.0267648ZM0,36.1499581v-19.3592171c2.7067945,0,5.4872433.5339935,7.909325,1.3990127-2.7122349,1.7477546-4.6739544,4.1671859-4.6739544,7.1669236,0,5.7079273,5.2774173,7.151858,7.2691747,7.151858,2.0052423,0,7.2758472-1.4439307,7.2758472-7.151858,0-2.9997377-1.991711-5.4191691-4.7066196-7.1669236,2.4561189-.9004514,5.2432636-1.3990127,7.948826-1.3990127,2.7176519,0,5.4954502.4985613,7.9515691,1.3990127-2.7081895,1.7477546-4.7066196,4.1671859-4.7066196,7.1669236,0,5.7079273,5.2760453,7.151858,7.277289,7.151858,1.9915711,0,7.2690114-1.4439307,7.2690114-7.151858,0-2.9997377-1.961603-5.4191691-4.6711875-7.1669236,2.4192918-.8650192,5.2079709-1.3990127,7.9202297-1.3990127v19.3592171H0Zm31.5748056-19.3783281c-3.1741086-1.3963623-6.9490061-2.1197923-10.5522067-2.1197923s-7.37675.7234301-10.5454182,2.1197923c-3.0964089-1.3963623-6.8780257-2.1197923-10.4771808-2.1197923v-3.9859796h42.0628912v3.9859796c-3.6059905,0-7.3835621.7234301-10.4880855,2.1197923Z"/>
      <path class="cls-1" d="m59.3729132,43.0566406c-2.1982422-2.2705078-3.296875-5.4375-3.296875-9.4990234V12.9042969c0-4.0820312,1.1044922-7.2539062,3.3125-9.5136719,2.2070312-2.2597656,5.4257812-3.390625,9.6542969-3.390625,4.25,0,7.4726562,1.125,9.6708984,3.375,2.1972656,2.25,3.2958984,5.4257812,3.2958984,9.5292969v20.6533203c0,4.0830078-1.1044922,7.2548828-3.3115234,9.5146484-2.2080078,2.2597656-5.4267578,3.3896484-9.6552734,3.3896484-4.2490234,0-7.4726562-1.1357422-9.6699219-3.4052734Zm14.6533203-4.421875c1.0732422-1.1757812,1.609375-2.8691406,1.609375-5.0771484V12.9042969c0-2.2070312-.53125-3.9003906-1.59375-5.0771484-1.0615234-1.1767578-2.7285156-1.765625-4.9990234-1.765625s-3.9365234.5888672-4.9990234,1.765625-1.59375,2.8701172-1.59375,5.0771484v20.6533203c0,2.2080078.5361328,3.9013672,1.609375,5.0771484,1.0722656,1.1777344,2.734375,1.765625,4.9833984,1.765625,2.25,0,3.9111328-.5878906,4.9833984-1.765625Z"/>
      <path class="cls-1" d="m99.7908819,45.9931641h-6.3740234V7.4990234l-6.4677734,3.9677734v-6.5917969l6.4677734-4.3125h6.3740234v45.4306641Z"/>
      <path class="cls-1" d="m106.8543585,40.4628906l15.8417969-21.1220703c.9160156-1.2080078,1.6298828-2.4628906,2.140625-3.7646484.5097656-1.3017578.7646484-2.515625.7646484-3.640625v-.0625c0-1.8125-.5302734-3.2177734-1.5927734-4.2177734s-2.5732422-1.5-4.53125-1.5c-1.8535156,0-3.3535156.546875-4.4990234,1.640625s-1.84375,2.6396484-2.09375,4.6396484v.03125h-6.5927734v-.03125c.375-2.6035156,1.140625-4.8271484,2.296875-6.6699219,1.15625-1.84375,2.6503906-3.25,4.4833984-4.21875s3.9472656-1.453125,6.3427734-1.453125c2.7080078,0,5.0205078.4638672,6.9365234,1.390625,1.9169922.9277344,3.375,2.2753906,4.375,4.046875.9990234,1.7695312,1.4990234,3.9042969,1.4990234,6.4042969v.03125c0,1.6044922-.3330078,3.28125-.9990234,5.03125-.6669922,1.75-1.59375,3.4365234-2.78125,5.0605469l-13.1542969,17.8730469h17.1845703v6.0615234h-25.6210938v-5.5302734Z"/>
      <path class="cls-1" d="m141.3367804,43.0566406c-2.1982422-2.2705078-3.296875-5.4375-3.296875-9.4990234V12.9042969c0-4.0820312,1.1044922-7.2539062,3.3125-9.5136719,2.2070312-2.2597656,5.4257812-3.390625,9.6542969-3.390625,4.25,0,7.4726562,1.125,9.6708984,3.375,2.1972656,2.25,3.2958984,5.4257812,3.2958984,9.5292969v20.6533203c0,4.0830078-1.1044922,7.2548828-3.3115234,9.5146484-2.2080078,2.2597656-5.4267578,3.3896484-9.6552734,3.3896484-4.2490234,0-7.4726562-1.1357422-9.6699219-3.4052734Zm14.6533203-4.421875c1.0732422-1.1757812,1.609375-2.8691406,1.609375-5.0771484V12.9042969c0-2.2070312-.53125-3.9003906-1.59375-5.0771484-1.0615234-1.1767578-2.7285156-1.765625-4.9990234-1.765625s-3.9365234.5888672-4.9990234,1.765625-1.59375,2.8701172-1.59375,5.0771484v20.6533203c0,2.2080078.5361328,3.9013672,1.609375,5.0771484,1.0722656,1.1777344,2.734375,1.765625,4.9833984,1.765625,2.25,0,3.9111328-.5878906,4.9833984-1.765625Z"/>
      <path class="cls-1" d="m192.096546,26.6835938v6.0615234h-20.9970703v-6.0615234h20.9970703Z"/>
      <path class="cls-1" d="m198.2225225,40.4628906l15.8417969-21.1220703c.9160156-1.2080078,1.6298828-2.4628906,2.140625-3.7646484.5097656-1.3017578.7646484-2.515625.7646484-3.640625v-.0625c0-1.8125-.5302734-3.2177734-1.5927734-4.2177734s-2.5732422-1.5-4.53125-1.5c-1.8535156,0-3.3535156.546875-4.4990234,1.640625s-1.84375,2.6396484-2.09375,4.6396484v.03125h-6.5927734v-.03125c.375-2.6035156,1.140625-4.8271484,2.296875-6.6699219,1.15625-1.84375,2.6503906-3.25,4.4833984-4.21875s3.9472656-1.453125,6.3427734-1.453125c2.7080078,0,5.0205078.4638672,6.9365234,1.390625,1.9169922.9277344,3.375,2.2753906,4.375,4.046875.9990234,1.7695312,1.4990234,3.9042969,1.4990234,6.4042969v.03125c0,1.6044922-.3330078,3.28125-.9990234,5.03125-.6669922,1.75-1.59375,3.4365234-2.78125,5.0605469l-13.1542969,17.8730469h17.1845703v6.0615234h-25.6210938v-5.5302734Z"/>
      <path class="cls-1" d="m235.4695929,44.8994141c-2.0830078-1.0410156-3.6923828-2.5146484-4.8271484-4.4208984-1.1357422-1.90625-1.703125-4.1191406-1.703125-6.6396484v-.75c0-2.2705078.5673828-4.4052734,1.703125-6.4052734,1.1347656-2,2.6503906-3.5097656,4.5458984-4.53125-1.6035156-.8740234-2.8896484-2.1396484-3.8583984-3.7949219-.96875-1.65625-1.453125-3.4003906-1.453125-5.234375v-1.09375c0-2.375.53125-4.4628906,1.59375-6.2636719,1.0625-1.8027344,2.5625-3.1972656,4.4990234-4.1875,1.9375-.9892578,4.1875-1.484375,6.7490234-1.484375,2.5625,0,4.8115234.4951172,6.7490234,1.484375,1.9375.9902344,3.4375,2.3847656,4.4990234,4.1875,1.0625,1.8007812,1.59375,3.8886719,1.59375,6.2636719v1.09375c0,1.875-.4951172,3.6347656-1.484375,5.28125-.9892578,1.6445312-2.2958984,2.8945312-3.9208984,3.7480469,1.9160156,1.0429688,3.4521484,2.5585938,4.6083984,4.546875,1.15625,1.9892578,1.734375,4.1191406,1.734375,6.3896484v.75c0,2.5205078-.5673828,4.7333984-1.703125,6.6396484s-2.7441406,3.3798828-4.8271484,4.4208984c-2.0830078,1.0419922-4.4990234,1.5625-7.2490234,1.5625-2.7490234,0-5.1660156-.5205078-7.2490234-1.5625Zm11.1552734-5.4365234c1.1240234-.5830078,1.9941406-1.4003906,2.6083984-2.453125.6142578-1.0507812.921875-2.2646484.921875-3.6396484v-.4375c0-1.3955078-.3076172-2.6191406-.921875-3.6708984s-1.484375-1.8691406-2.6083984-2.453125c-1.125-.5830078-2.4277344-.875-3.90625-.875-1.4794922,0-2.7802734.2919922-3.9052734.875-1.125.5839844-1.9951172,1.40625-2.609375,2.46875s-.921875,2.2910156-.921875,3.6865234v.46875c0,1.3740234.3076172,2.5830078.921875,3.6240234.6142578,1.0419922,1.484375,1.8496094,2.609375,2.421875,1.125.5732422,2.4257812.859375,3.9052734.859375,1.4785156,0,2.78125-.2910156,3.90625-.875Zm-.53125-20.4814453c.9785156-.5517578,1.7382812-1.3378906,2.2802734-2.3583984s.8125-2.1972656.8125-3.53125v-.4375c0-1.2695312-.2705078-2.3945312-.8125-3.375-.5419922-.9785156-1.3017578-1.7333984-2.2802734-2.2646484-.9794922-.53125-2.1044922-.796875-3.375-.796875s-2.3955078.265625-3.3740234.796875c-.9794922.53125-1.7402344,1.2861328-2.28125,2.2646484-.5419922.9804688-.8125,2.1152344-.8125,3.40625v.46875c0,1.3125.2705078,2.4736328.8125,3.484375.5410156,1.0097656,1.3017578,1.7910156,2.28125,2.3427734.9785156.5517578,2.1035156.828125,3.3740234.828125s2.3955078-.2763672,3.375-.828125Z"/>
      <path class="cls-1" d="m284.15221,26.6835938v6.0615234h-20.9970703v-6.0615234h20.9970703Z"/>
      <path class="cls-1" d="m314.4315069,6.2490234l-11.7490234,39.7441406h-6.7802734l11.7490234-39.3691406h-11.5615234v6.5302734h-6.3740234V.5625h24.7158203v5.6865234Z"/>
      <path class="cls-1" d="m328.2098272,45.0712891c-1.9365234-.9267578-3.4941406-2.2705078-4.6708984-4.0302734s-1.9208984-3.8789062-2.2333984-6.3583984h6.4990234c.1875,1.2919922.5927734,2.3544922,1.2177734,3.1865234.625.8339844,1.4326172,1.453125,2.421875,1.859375s2.1503906.609375,3.4833984.609375c2.1044922,0,3.7392578-.5625,4.90625-1.6875,1.1660156-1.125,1.7490234-2.7070312,1.7490234-4.7490234v-1.375c0-2.2705078-.5517578-4.0253906-1.6552734-5.2646484-1.1044922-1.2392578-2.6669922-1.859375-4.6875-1.859375h-3.2177734v-6.0615234h3.2177734c1.7705078,0,3.1455078-.53125,4.125-1.5927734.9785156-1.0625,1.46875-2.5625,1.46875-4.5v-1.40625c0-1.7910156-.515625-3.1757812-1.546875-4.1552734s-2.4951172-1.46875-4.390625-1.46875c-1.0830078,0-2.0517578.203125-2.9052734.609375-.8544922.40625-1.578125,1.03125-2.171875,1.875-.59375.8427734-1.0263672,1.9013672-1.296875,3.1708984h-6.4677734c.4169922-2.4785156,1.203125-4.6035156,2.359375-6.3730469,1.15625-1.7714844,2.6191406-3.1142578,4.3896484-4.03125,1.7705078-.9160156,3.8017578-1.375,6.0927734-1.375,3.9160156,0,6.9472656,1.03125,9.0927734,3.09375s3.21875,4.9677734,3.21875,8.7167969v.75c0,2.2714844-.6152344,4.25-1.84375,5.9375-1.2294922,1.6865234-2.96875,2.9160156-5.2177734,3.6855469,2.4785156.5429688,4.3994141,1.7617188,5.7646484,3.65625,1.3632812,1.8964844,2.0458984,4.3125,2.0458984,7.2490234v.75c0,2.6455078-.5107422,4.9052734-1.5302734,6.7802734-1.0214844,1.875-2.5048828,3.3017578-4.453125,4.2802734-1.9472656.9794922-4.2958984,1.46875-7.0458984,1.46875-2.5410156,0-4.7802734-.4638672-6.7177734-1.390625Z"/>
      <path class="cls-1" d="m367.9861944,45.9931641h-6.3740234V7.4990234l-6.4677734,3.9677734v-6.5917969l6.4677734-4.3125h6.3740234v45.4306641Z"/>
      <path class="cls-1" d="m389.2645147,45.9931641h-6.3740234V7.4990234l-6.4677734,3.9677734v-6.5917969l6.4677734-4.3125h6.3740234v45.4306641Z"/>
    </g>
  </g>
</svg>