<?xml version="1.0" encoding="UTF-8"?>
<svg id="_レイヤー_2" data-name="レイヤー 2" xmlns="http://www.w3.org/2000/svg" viewBox="0 0 411.8610986 69.709651">
  <defs>
    <style>
      .cls-1, .cls-2, .cls-3 {
        stroke-width: 0px;
      }

      .cls-2 {
        fill: #054991;
      }

      .cls-3 {
        fill: #d21619;
      }
    </style>
  </defs>
  <g id="_レイヤー_1-2" data-name="レイヤー 1">
    <g>
      <g>
        <polygon class="cls-2" points="23.6682256 53.8452004 23.6682256 37.4649852 8.946305 37.4649852 8.946305 21.4311035 0 30.3297877 0 53.8174809 23.6682256 53.8452004"/>
        <polygon class="cls-3" points="14.4575188 15.8644505 14.4575188 32.2175597 29.2007622 32.2175597 29.2007622 48.2785475 38.1406703 39.3528545 38.1406703 15.8779549 14.4575188 15.8644505"/>
      </g>
      <g>
        <g>
          <polygon class="cls-1" points="78.3183859 0 65.5488567 0 48.814304 24.2618604 48.814304 42.8405058 54.8790095 33.9833226 54.8790095 69.709651 65.7975001 69.709651 65.7975001 18.2159061 78.3183859 0"/>
          <polygon class="cls-1" points="106.2549116 43.8492143 132.0410677 43.8492143 134.9080232 33.4205093 106.2549116 33.4205093 106.2549116 21.3848315 132.061546 21.3848315 134.8392033 11.1688069 106.2549116 11.1688069 106.2549116 .0023627 95.2263835 .0023627 95.2263835 11.1688069 74.4562196 11.1688069 71.5892642 21.3848315 95.1444705 21.3848315 95.1444705 33.4205093 71.7530902 33.4205093 68.8861347 43.8492143 95.2263835 43.8492143 95.2263835 58.4858912 71.504 58.4858912 68.4398056 69.6904731 132.0820242 69.6904731 135.1128057 58.4858912 106.2549116 58.4858912 106.2549116 43.8492143"/>
        </g>
        <g>
          <polygon class="cls-1" points="167.9224441 19.4617256 159.3176543 19.4617256 159.3176543 .0580081 148.2275629 .0580081 148.2275629 19.4617256 142.6984346 19.4617256 139.7495661 30.6200109 148.2275629 30.6200109 148.2275629 69.667856 159.3176543 69.667856 159.3176543 30.6200109 164.9378176 30.6200109 167.9224441 19.4617256"/>
          <path class="cls-1" d="m200.3651957,31.8281765l.0164471,4.0094567h-2.5354998l-2.0366406,8.491716h4.5416502v14.183685h-3.2902131l-2.9931707,11.1434055h4.8015376c6.8320168-.355228,10.2518692-3.8863015,10.6108915-8.6701697v-16.6569209h6.4376529l-.0153082,14.1966601-3.5022319.0057081-3.0176253,11.138654h5.4515564c6.8078174-.355228,9.4578315-3.8305748,9.8181623-8.614443v-25.2285006l-14.9856751.0102054v-4.0120735l-9.3015332.0026168Z"/>
          <path class="cls-1" d="m170.5390699,31.8281765l.0164471,4.0094567h-2.9450649l-2.0366406,8.491716h4.9512153v14.183685h-3.9455172l-2.9931707,11.1434055h5.4568417c6.8320168-.355228,10.2518692-3.8863015,10.6108915-8.6701697v-16.6569209h6.4376529l-.0153082,14.1966601-3.5022319.0057081-3.0176253,11.138654h5.4515564c6.8078174-.355228,9.4578315-3.8305748,9.8181623-8.614443v-25.2285006l-14.9856751.0102054v-4.0120735l-9.3015332.0026168Z"/>
          <path class="cls-1" d="m200.3917293,19.4522585h11.8538322v-4.1345251h-14.1346896v2.9153749c0,8.0490023-7.41241,11.7397704-13.3246893,11.7397704h-14.3679126l.0077195-10.5677182h16.7512111v-4.0874271h-19.2985632l2.51839-9.7783343h16.7801732V.012017h10.9163973v5.5273821l23.4870681.0383358v16.2764749c-.3475022,5.1287599-2.7599189,8.098283-9.3351045,8.1264134h-11.8742431l.0204109-10.5283647Z"/>
        </g>
      </g>
      <g>
        <g>
          <path class="cls-1" d="m251.8171533,38.1487708h-2.2646484v-6.7949219c-1.2080078,1.9648438-2.5302734,3.5117188-3.9628906,4.6435547l-1.6992188-2.0380859c2.1132812-1.5097656,3.8876953-3.3974609,5.3222656-5.6621094h-4.7558594v-2.1513672h5.0957031v-2.4912109h-5.7753906v-2.1513672h7.9267578l1.2460938-4.0771484h-8.3798828v-2.1503906h4.9824219v-3.171875h2.1513672c.6035156.0761719.640625.3027344.1132812.6796875v2.4921875h4.9824219v2.1503906h-1.4716797l-1.5859375,4.0771484h3.6240234v2.1513672h-5.5488281v2.4912109h4.9824219v2.1513672h-4.9824219v1.0195312c1.0566406.3027344,2.5283203,1.0947266,4.4160156,2.3769531l-1.3583984,2.265625c-1.0585938-1.0566406-2.0771484-1.8867188-3.0576172-2.4921875v6.6816406Zm-5.7753906-19.9296875l2.1523438-.6796875c.6025391.9824219,1.0556641,2.0019531,1.3583984,3.0576172l-2.2646484.6796875c-.3027344-1.0556641-.71875-2.0751953-1.2460938-3.0576172Zm7.9267578,17.7783203c3.0947266-1.6591797,4.6425781-4.4912109,4.6425781-8.4931641v-13.0214844l2.3779297.453125,6.1152344-1.9257812,1.6982422,2.265625c.1503906.4521484-.1132812.5283203-.7929688.2265625l-7.1337891,1.3574219v4.8691406h8.9462891v2.1523438h-3.3974609v14.1542969h-2.2646484v-14.1542969h-3.2841797v4.3027344c0,4.4550781-1.8876953,7.7744141-5.6611328,9.9648438l-1.2460938-2.1513672Z"/>
          <path class="cls-1" d="m283.5691064,18.6722083v9.8515625h-2.2646484v-1.1328125h-5.0957031v3.1708984c0,2.8701172-.6054688,5.2832031-1.8125,7.2470703l-2.0380859-1.5859375c1.0566406-1.5078125,1.5859375-3.4335938,1.5859375-5.7744141v-11.7763672h9.625Zm-10.53125-3.0576172v-2.1513672h11.3232422v2.1513672h-11.3232422Zm8.2666016,9.6259766v-4.4169922h-5.0957031v4.4169922h5.0957031Zm6.5673828-10.6445312c3.3212891-.5273438,5.8125-1.1699219,7.4736328-1.9257812l1.2451172,2.1523438c.3007812.6796875.0742188.8310547-.6787109.453125-2.7939453.6044922-5.4355469,1.0185547-7.9267578,1.2451172v4.7558594h9.9648438v2.1513672h-3.7373047v14.2675781h-2.2646484v-14.2675781h-3.9628906v3.5097656c0,4.9824219-1.8115234,8.6806641-5.4355469,11.0976562l-1.6982422-2.0380859c3.2451172-1.9619141,4.8691406-5.0566406,4.8691406-9.2861328v-12.9082031l2.1513672.7929688Z"/>
          <path class="cls-1" d="m302.5241846,36.7893958l-2.0390625-1.6982422c1.4335938-2.0380859,2.9052734-4.7929688,4.4169922-8.2666016l2.0380859,1.4726562c-1.0585938,2.8691406-2.3408203,5.5117188-3.8505859,7.9257812.2265625.90625.0371094,1.09375-.5654297.5664062Zm.3388672-17.4375c1.6601562.8310547,3.0576172,1.7744141,4.1904297,2.8300781l-1.4726562,2.3789062c-1.1318359-1.1328125-2.5302734-2.1132812-4.1894531-2.9453125l1.4716797-2.2636719Zm1.1328125-6.3417969c1.5087891.8320312,2.9052734,1.7753906,4.1894531,2.8310547l-1.5849609,2.2646484c-1.6611328-1.4335938-3.0576172-2.4521484-4.1894531-3.0566406l1.5849609-2.0390625Zm21.1748047,24.9121094c-5.3613281-2.4912109-8.4550781-7.1708984-9.2851562-14.0410156h-3.5107422v2.4912109c0,5.2080078-1.6240234,9.0976562-4.8691406,11.6630859l-1.8115234-1.8125c2.9443359-2.2636719,4.4160156-5.7353516,4.4160156-10.4169922v-12.2294922h13.7021484v11.4375h-2.2646484v-1.1328125h-3.5107422c.7539062,5.7382812,3.5478516,9.5507812,8.3798828,11.4365234l-1.2460938,2.6044922Zm-12.7958984-16.1933594h9.1728516v-6.0009766h-9.1728516v6.0009766Z"/>
          <path class="cls-1" d="m354.3181299,35.0911536l-.90625,2.8310547c-4.9824219-1.1328125-8.7578125-2.7177734-11.3232422-4.7558594-3.3232422,2.1142578-7.3603516,3.7363281-12.1162109,4.8691406l-1.0195312-2.6044922c4.4541016-.8291016,8.1904297-2.1123047,11.2109375-3.8505859-1.9638672-2.1875-3.4736328-4.6035156-4.5292969-7.2460938h-3.5107422v-2.1523438h8.2666016v-4.0761719h-10.8710938v-2.1513672h10.8710938v-3.6240234h2.4912109c.7529297.1523438.7919922.453125.1132812.90625v2.7177734h10.9833984v2.1513672h-10.9833984v4.0761719h5.2080078l.6796875-.6787109,1.9248047,1.6982422-.453125.2265625c-1.8876953,3.4726562-3.9628906,6.1914062-6.2275391,8.1523438,2.4912109,1.5859375,5.8886719,2.7578125,10.1914062,3.5107422Zm-15.9667969-10.7568359c.9804688,2.2636719,2.2646484,4.1523438,3.8505859,5.6621094,1.8115234-1.5097656,3.3212891-3.3984375,4.5292969-5.6621094h-8.3798828Z"/>
          <path class="cls-1" d="m357.398208,35.8841224c1.7363281-2.2646484,2.6044922-4.8691406,2.6044922-7.8134766v-12.9082031h9.2851562v-3.171875h2.4912109c.7539062.1523438.7929688.453125.1132812.90625v2.265625h10.078125v2.1503906h-19.703125v10.8710938c0,3.6992188-.9814453,6.8701172-2.9443359,9.5117188l-1.9248047-1.8115234Zm14.7207031-17.3251953c.6035156.0761719.640625.3027344.1132812.6796875v2.3769531h9.0585938v2.1523438h-9.0585938v3.5097656h7.5869141v10.4179688h-2.2646484v-1.2460938h-10.53125v1.4726562h-2.2646484v-10.6445312h5.2089844v-8.71875h2.1513672Zm5.4355469,15.7402344v-4.8691406h-10.53125v4.8691406h10.53125Z"/>
        </g>
        <g>
          <path class="cls-1" d="m242.5056299,48.6155677v-2.8554688h1.0234375c.2871094.0371094.3046875.1445312.0537109.3242188v2.53125h1.3466797v1.0234375h-1.3466797v4.2558594l1.6162109-.4853516v1.0771484l-3.6630859,1.2929688c-.0361328.2880859-.1259766.359375-.2695312.2148438l-.4306641-1.3457031,1.6699219-.4316406v-4.578125h-1.4541016v-1.0234375h1.4541016Zm9.4267578,3.0703125v5.171875c0,.4648438-.234375.6992188-.7011719.6992188h-1.5078125l-.2158203-1.0234375h1.1318359c.1425781,0,.2148438-.0722656.2148438-.2148438v-4.6328125h-5.9248047v-1.0234375h8.1337891v1.0234375h-1.1308594Zm-6.3027344-1.1855469l-.3769531-1.0761719c1.6875-.2519531,2.6933594-.7900391,3.0166016-1.6171875h-2.7470703v-1.0234375h2.8007812v-1.4003906h1.0234375c.2871094.0371094.3046875.1445312.0537109.3242188v1.0761719h3.0166016v1.0234375h-2.9628906c.5390625.7548828,1.5976562,1.2578125,3.1787109,1.5087891l-.2695312,1.1318359c-1.5810547-.2519531-2.7294922-.8085938-3.4472656-1.6699219-.6826172.9335938-1.7783203,1.5078125-3.2861328,1.7226562Zm1.1845703,5.2255859v.4853516h-.9150391v-3.609375h3.7167969v3.1240234h-2.8017578Zm0-.8623047h1.8857422v-1.4003906h-1.8857422v1.4003906Z"/>
          <path class="cls-1" d="m261.3591455,47.5384192v3.0166016h4.09375v1.1845703h-4.09375v3.7705078h5.3320312v1.1855469h-11.5810547v-1.1855469h5.0097656v-3.7705078h-3.7167969v-1.1845703h3.7167969v-3.0166016h-4.3632812v-1.1845703h10.4501953v1.1845703h-4.8476562Zm1.7773438,4.5244141c.6816406.4667969,1.328125,1.1503906,1.9394531,2.046875l-1.1855469.8085938c-.5029297-.8261719-1.0771484-1.5263672-1.7236328-2.1015625l.9697266-.7539062Z"/>
          <path class="cls-1" d="m269.9235986,57.449552l-.8076172-1.0234375c1.1484375-.6816406,2.0644531-1.4902344,2.7470703-2.4238281l1.0234375.5917969c.1796875.1445312.125.2519531-.1611328.3242188-.6113281.8613281-1.5449219,1.7050781-2.8017578,2.53125Zm.5927734-3.9316406v.5380859h-1.0771484v-7.7568359h1.0234375c.2871094.0371094.3046875.1445312.0537109.3232422v5.8720703h9.9111328v1.0234375h-5.0087891v4.1464844h-1.2392578v-4.1464844h-3.6630859Zm1.2929688-1.7246094v-6.1943359h6.8408203v6.1943359h-6.8408203Zm1.0771484-4.4707031h4.6865234v-.8613281h-4.6865234v.8613281Zm0,1.7246094h4.6865234v-.8632812h-4.6865234v.8632812Zm0,1.8847656h4.6865234v-1.0234375h-4.6865234v1.0234375Zm4.5244141,3.015625c.71875.71875,1.7783203,1.4375,3.1787109,2.1552734l-.6464844,1.1318359c-1.2216797-.5761719-2.3701172-1.4003906-3.4472656-2.4785156l.9150391-.8085938Z"/>
          <path class="cls-1" d="m287.7536768,48.4007239v4.6855469h-1.0771484v-.5390625h-2.4238281v1.5087891c0,1.3652344-.2880859,2.5126953-.8623047,3.4472656l-.96875-.7539062c.5019531-.7177734.7539062-1.6337891.7539062-2.7470703v-5.6015625h4.578125Zm-5.0097656-1.4550781v-1.0234375h5.3867188v1.0234375h-5.3867188Zm3.9326172,4.578125v-2.0996094h-2.4238281v2.0996094h2.4238281Zm3.1240234-5.0625c1.5800781-.2509766,2.7646484-.5566406,3.5556641-.9160156l.5917969,1.0234375c.1435547.3232422.0361328.3955078-.3222656.2148438-1.3291016.2890625-2.5859375.4853516-3.7714844.59375v2.2617188h4.7402344v1.0234375h-1.7773438v6.7871094h-1.0771484v-6.7871094h-1.8857422v1.6699219c0,2.3701172-.8613281,4.1289062-2.5849609,5.2792969l-.8085938-.9707031c1.5439453-.9326172,2.3164062-2.4042969,2.3164062-4.4160156v-6.140625l1.0234375.3769531Z"/>
          <path class="cls-1" d="m297.0730127,57.0179114l-.9697266-.8066406c.6816406-.9707031,1.3818359-2.28125,2.1005859-3.9326172l.9697266.7001953c-.5029297,1.3652344-1.1132812,2.6210938-1.8310547,3.7705078.1074219.4306641.0175781.5205078-.2695312.2685547Zm.1621094-8.2949219c.7890625.3964844,1.4541016.8447266,1.9921875,1.3476562l-.7001953,1.1308594c-.5380859-.5390625-1.203125-1.0058594-1.9931641-1.4003906l.7011719-1.078125Zm.5380859-3.015625c.7177734.3945312,1.3818359.84375,1.9931641,1.3457031l-.7539062,1.078125c-.7900391-.6816406-1.4550781-1.1669922-1.9931641-1.4550781l.7539062-.96875Zm10.0732422,11.8496094c-2.5507812-1.1845703-4.0224609-3.4111328-4.4169922-6.6796875h-1.6699219v1.1855469c0,2.4785156-.7724609,4.328125-2.3164062,5.5488281l-.8613281-.8623047c1.4003906-1.0771484,2.1005859-2.7285156,2.1005859-4.9560547v-5.8173828h6.5175781v5.4404297h-1.0771484v-.5390625h-1.6699219c.3583984,2.7304688,1.6875,4.5439453,3.9863281,5.4414062l-.5927734,1.2382812Zm-6.0869141-7.703125h4.3632812v-2.8535156h-4.3632812v2.8535156Z"/>
          <path class="cls-1" d="m319.320083,54.9710364c.1425781,0,.2158203-.0703125.2158203-.2148438v-3.8242188h-3.0166016v6.6796875h-1.2392578v-6.6796875h-2.7470703v5.2246094h-1.2392578v-6.2480469h3.9863281v-1.6699219h-5.3867188v-1.0234375h5.3867188v-1.7236328h1.1855469c.2861328.0361328.3046875.1435547.0537109.3232422v1.4003906h5.5478516v1.0234375h-5.5478516v1.6699219h4.2548828v5.3867188c0,.5742188-.2880859.8613281-.8613281.8613281h-1.4003906l-.1083984-1.1855469h.9160156Z"/>
          <path class="cls-1" d="m325.6228174,48.2386145v9.0488281h-1.0771484v-10.0722656h3.8242188l.8076172-1.9931641,1.2929688.4853516c.1435547.1435547.0898438.2333984-.1611328.2685547l-.8085938,1.2392578h5.5488281v9.2646484c0,.5742188-.2880859.8623047-.8623047.8623047h-1.5615234l-.1083984-1.1855469h1.2392578c.1425781,0,.2148438-.0712891.2148438-.2148438v-7.703125h-8.3486328Zm5.6015625,6.6796875v-.6464844h-2.8544922v.96875h-1.0771484v-5.2783203h5.0097656v4.9560547h-1.078125Zm-2.8544922-3.9326172v2.2626953h2.8544922v-2.2626953h-2.8544922Z"/>
          <path class="cls-1" d="m340.5974268,50.1780677c.6826172.9335938,1.0234375,1.9033203,1.0234375,2.9082031,0,1.4003906-.4130859,2.1015625-1.2382812,2.1015625h-.6464844l-.2158203-1.078125h.5390625c.3583984,0,.5195312-.3769531.484375-1.1308594-.0361328-1.0410156-.359375-1.9570312-.9697266-2.7470703l1.078125-3.5009766h-1.6699219v10.7724609h-1.078125v-11.6347656h3.0166016l.2158203-.2695312.9160156.8076172-.2158203.2158203-1.2392578,3.5556641Zm7.8105469,3.015625h-.5380859c-.5751953,2.6220703-2.4960938,4.1289062-5.7636719,4.5253906l-.3232422-1.0234375c2.8007812-.2158203,4.4882812-1.3828125,5.0634766-3.5019531h-.7539062c-.6113281,1.5087891-1.9042969,2.4238281-3.8789062,2.7480469l-.3232422-.9160156c1.6513672-.359375,2.6748047-.9697266,3.0703125-1.8320312h-.8613281c-.5039062.5039062-1.1503906.8984375-1.9394531,1.1855469l-.4306641-.9160156c1.1484375-.3583984,1.9384766-1.0410156,2.3701172-2.046875h-2.4238281v-.8613281h8.0791016v.8613281h-4.5244141c-.1435547.3232422-.3232422.6289062-.5390625.9160156h4.7402344l-.1074219,3.3935547c-.0361328,1.1494141-.4492188,1.7236328-1.2392578,1.7236328h-1.0771484l-.1611328-1.0234375h.9150391c.3232422,0,.5029297-.2148438.5390625-.6464844l.1074219-2.5859375Zm0-7.7021484v4.3623047h-5.4941406v-4.3623047h5.4941406Zm-4.578125,1.7236328h3.6630859v-.8613281h-3.6630859v.8613281Zm0,1.7773438h3.6630859v-.9160156h-3.6630859v.9160156Z"/>
          <path class="cls-1" d="m357.6735986,47.5384192h5.9257812v1.0234375h-2.2626953v8.0263672c0,.5019531-.2519531.7539062-.7539062.7539062h-1.4003906l-.1621094-1.1855469h1.0234375c.1435547,0,.2158203-.0712891.2158203-.2148438v-7.3798828h-2.5859375v7.0029297h-1.0771484v-.6464844h-3.8789062v1.0761719h-1.0771484v-9.9648438h6.0332031v1.5087891Zm-3.5009766,2.2626953v-2.7480469h-1.4550781v2.7480469h1.4550781Zm0,1.0234375h-1.4550781v3.0703125h1.4550781v-3.0703125Zm2.4238281-3.7714844h-1.3466797v2.7480469h1.3466797v-2.7480469Zm0,3.7714844h-1.3466797v3.0703125h1.3466797v-3.0703125Z"/>
          <path class="cls-1" d="m365.2155908,50.1780677c0-1.1132812.2871094-1.9570312.8613281-2.5322266.4667969-.4658203,1.0234375-.7001953,1.6699219-.7001953.7900391,0,1.4179688.234375,1.8857422.7001953.4658203.4677734.7001953,1.0419922.7001953,1.7236328,0,.8623047-.2695312,1.6162109-.8085938,2.2626953-.5029297.6103516-1.0234375,1.2041016-1.5615234,1.7773438-.2880859.3232422-.5751953.6464844-.8623047.9697266-.2509766.2871094-.4667969.5742188-.6464844.8613281h4.0400391v1.0234375h-5.4941406v-.9150391c.0712891-.3583984.3769531-.8623047.9160156-1.5087891.8964844-.96875,1.6337891-1.7773438,2.2080078-2.4238281.6103516-.6464844.9160156-1.328125.9160156-2.046875,0-.4306641-.1435547-.7890625-.4306641-1.0771484-.2158203-.2158203-.4853516-.3232422-.8085938-.3232422-.2871094,0-.5380859.1074219-.7539062.3232422-.3955078.3955078-.5927734,1.0234375-.5927734,1.8857422h-1.2382812Z"/>
          <path class="cls-1" d="m371.6784814,51.0940833c0-1.5800781.359375-2.7294922,1.078125-3.4482422.5019531-.5029297,1.1308594-.7539062,1.8847656-.7539062s1.3818359.2509766,1.8857422.7539062c.7177734.71875,1.0771484,1.8681641,1.0771484,3.4482422v1.0761719c0,1.5449219-.359375,2.6757812-1.0771484,3.3945312-.5039062.5029297-1.1318359.7539062-1.8857422.7539062s-1.3828125-.2509766-1.8847656-.7539062c-.71875-.71875-1.078125-1.8496094-1.078125-3.3945312v-1.0761719Zm1.9931641-2.7480469c-.4667969.4667969-.7001953,1.3466797-.7001953,2.6396484v1.2392578c0,1.2568359.2509766,2.1367188.7539062,2.6386719.2871094.2880859.5927734.4316406.9160156.4316406.3583984,0,.6816406-.1435547.9697266-.4316406.4658203-.4658203.7001953-1.3457031.7001953-2.6386719v-1.2392578c0-1.2929688-.234375-2.1728516-.7001953-2.6396484-.2880859-.2871094-.6113281-.4306641-.9697266-.4306641-.359375,0-.6826172.1435547-.9697266.4306641Z"/>
          <path class="cls-1" d="m379.7585596,47.5921302c.4306641-.4316406,1.0234375-.6464844,1.7773438-.6464844s1.3642578.234375,1.8320312.7001953c.4658203.4677734.7001953,1.0966797.7001953,1.8857422,0,.6113281-.2158203,1.1308594-.6464844,1.5625-.1806641.1796875-.3955078.3046875-.6464844.3769531v.1074219c.3232422.0722656.6279297.2519531.9150391.5390625.4316406.4296875.6464844,1.0048828.6464844,1.7226562,0,.71875-.2509766,1.3300781-.7539062,1.8320312-.4667969.4667969-1.1494141.7001953-2.046875.7001953s-1.5800781-.2333984-2.046875-.7001953c-.5029297-.5019531-.7539062-1.1132812-.7539062-1.8320312,0-.7177734.2158203-1.2929688.6464844-1.7226562.2871094-.2871094.5927734-.4667969.9150391-.5390625v-.1074219c-.2148438-.0722656-.4492188-.234375-.7001953-.4853516-.3955078-.3945312-.5917969-.8798828-.5917969-1.4541016,0-.7890625.2509766-1.4355469.7539062-1.9394531Zm.6464844,4.8476562c-.2880859.2880859-.4306641.7011719-.4306641,1.2392578s.1611328.9697266.484375,1.2919922c.2871094.2890625.6464844.4316406,1.0771484.4316406s.7900391-.1425781,1.0771484-.4316406c.3232422-.3222656.4853516-.7539062.4853516-1.2919922s-.1621094-.9697266-.4853516-1.2929688c-.2509766-.2509766-.6103516-.3769531-1.0771484-.3769531s-.84375.1435547-1.1308594.4306641Zm.2148438-4.1474609c-.2871094.2880859-.4306641.7001953-.4306641,1.2392578,0,.5029297.1435547.8984375.4306641,1.1845703.2509766.2519531.5390625.3779297.8623047.3779297.4306641,0,.7539062-.1083984.9697266-.3242188.2871094-.2871094.4306641-.6992188.4306641-1.2382812s-.1435547-.9511719-.4306641-1.2392578c-.2519531-.2509766-.5576172-.3769531-.9160156-.3769531-.359375,0-.6650391.1259766-.9160156.3769531Z"/>
          <path class="cls-1" d="m385.8991846,47.0530677h5.1171875v1.1855469l-2.5859375,8.0253906h-1.1845703l2.5849609-8.1875h-3.9316406v-1.0234375Z"/>
          <path class="cls-1" d="m392.2546533,51.0940833h6.140625v.8613281h-6.140625v-.8613281Z"/>
          <path class="cls-1" d="m400.4958643,47.5384192c.3945312-.3955078.9335938-.5927734,1.6162109-.5927734.6464844,0,1.2021484.234375,1.6699219.7001953.7539062.7548828,1.1308594,2.0654297,1.1308594,3.9326172,0,1.9033203-.3955078,3.25-1.1845703,4.0390625-.5039062.5039062-1.0966797.7548828-1.7783203.7548828-.6826172,0-1.2207031-.1972656-1.6152344-.5927734-.4677734-.4667969-.7001953-1.0771484-.7001953-1.8320312h1.2382812c-.0361328.4677734.1074219.8623047.4306641,1.1855469.1435547.1445312.359375.2158203.6464844.2158203.3232422,0,.6103516-.1259766.8623047-.3779297.5742188-.5732422.8613281-1.6328125.8613281-3.1777344-.1435547.2158203-.3046875.4140625-.484375.5927734-.3955078.3955078-.8798828.5927734-1.4541016.5927734-.5390625,0-.9882812-.1796875-1.3466797-.5390625-.5751953-.5742188-.8623047-1.3457031-.8623047-2.3164062,0-1.0761719.3232422-1.9394531.9697266-2.5849609Zm.8623047.7001953c-.359375.359375-.5390625.9882812-.5390625,1.8847656,0,.71875.1435547,1.2216797.4306641,1.5087891.2509766.2509766.5029297.3769531.7548828.3769531.4306641,0,.7539062-.1083984.96875-.3232422.3955078-.3945312.5927734-.8789062.5927734-1.4541016,0-.8974609-.1972656-1.5439453-.5927734-1.9394531-.2509766-.2509766-.5380859-.3769531-.8613281-.3769531-.2880859,0-.5390625.1083984-.7539062.3232422Z"/>
          <path class="cls-1" d="m406.5827783,50.1780677c0-1.1132812.2871094-1.9570312.8613281-2.5322266.4667969-.4658203,1.0234375-.7001953,1.6699219-.7001953.7900391,0,1.4179688.234375,1.8857422.7001953.4658203.4677734.7001953,1.0419922.7001953,1.7236328,0,.8623047-.2695312,1.6162109-.8085938,2.2626953-.5029297.6103516-1.0234375,1.2041016-1.5615234,1.7773438-.2880859.3232422-.5751953.6464844-.8623047.9697266-.2509766.2871094-.4667969.5742188-.6464844.8613281h4.0400391v1.0234375h-5.4941406v-.9150391c.0712891-.3583984.3769531-.8623047.9160156-1.5087891.8964844-.96875,1.6337891-1.7773438,2.2080078-2.4238281.6103516-.6464844.9160156-1.328125.9160156-2.046875,0-.4306641-.1435547-.7890625-.4306641-1.0771484-.2158203-.2158203-.4853516-.3232422-.8085938-.3232422-.2871094,0-.5380859.1074219-.7539062.3232422-.3955078.3955078-.5927734,1.0234375-.5927734,1.8857422h-1.2382812Z"/>
        </g>
      </g>
    </g>
  </g>
</svg>