<?xml version="1.0" encoding="UTF-8"?>
<svg id="_レイヤー_2" data-name="レイヤー 2" xmlns="http://www.w3.org/2000/svg" viewBox="0 0 325 110">
  <defs>
    <style>
      .cls-1 {
        font-size: 20.8071461px;
      }

      .cls-1, .cls-2, .cls-3 {
        fill: #5a8190;
      }

      .cls-1, .cls-2, .cls-4 {
        font-family: KozGoPr6N-Regular-90ms-RKSJ-H, 'Kozuka Gothic Pr6N';
      }

      .cls-5 {
        fill: #96bbc7;
      }

      .cls-5, .cls-3 {
        stroke-width: 0px;
      }

      .cls-2 {
        font-size: 15.9348145px;
      }

      .cls-4 {
        fill: #fff;
        font-size: 15.1024647px;
      }
    </style>
  </defs>
  <g id="top">
    <rect class="cls-5" width="325" height="110"/>
    <g>
      <g>
        <g>
          <path class="cls-3" d="m36.8210963,40.6097932h3.5012452c1.1454228,0,2.5952366.1875248,2.5952366,1.4566701v11.4274432s-3.9317576,1.3576097-11.0540383,1.3576097c-7.114117,0-16.6525319-3.6772964-16.6525319-13.8688964,0-10.1581181,9.929608-14.1432765,17.2813065-14.1432765,3.2939861,0,7.4298372.1868897,7.4298372,1.9266943v3.4035514c-2.7959979-2.140599-3.9227608-2.5205493-8.1667398-2.5205493-4.2424795,0-11.8325926,2.6213777-11.8325926,11.0947465,0,8.4835737,10.1875155,13.5222906,18.6439848,10.3342101v-6.4963823c0-1.3613993-.0829703-3.9718208-1.7457077-3.9718208Z"/>
          <path class="cls-3" d="m90.0580166,54.1715999h8.9991031c-2.4926066-.8707756-3.513574-3.6734855-4.3296149-5.7164103-.844364-2.0353031-7.3516984-16.8592899-8.0821032-18.9145999-.7184092-2.0259348-1.7580366-2.0259348-2.5805751-2.0259348h-5.1746453c2.4941061.7767751,1.1347645,2.4305184.7255733,3.5818667-.4131852,1.1738958-9.1089019,21.3328918-9.1089019,21.3328918-3.0059226-.7699473-10.5373858-11.156874-10.5373858-11.156874,10.0435628-2.7136317,8.4841217-13.7578846-1.3235257-13.7578846h-11.2727933c2.264855.4690502,2.0597618,2.7158546,2.0597618,4.4472437v18.3431335c0,2.5213433-.8305357,3.1888744-2.1565604,3.8665678h8.2513761c-2.264855-.9630296-1.6652365-3.1974488-1.6652365-4.2495566v-19.7868046h4.458902c2.3713168,0,4.1276873,2.7182364,4.1276873,4.5680789,0,2.9857887-2.4796113,4.1572813-4.9615552,5.0341122-2.4747797.8614073-1.1324275,2.8036626,0,4.366581,1.1584182,1.5452933,4.4564029,5.9048667,6.4176999,8.0370496,1.9719557,2.1250165,3.7015025,2.0305396,4.6581596,2.0305396h7.4461645c-2.8871274-.8707756-1.350516-2.99738-.9478225-4.0548865.4133474-1.0902162,2.2891796-5.6351337,2.2891796-5.6351337h11.1499991s1.3480168,3.289724,2.5870727,6.2048535c1.2445539,2.919893.3130545,3.2974832-1.0299593,3.4851668Zm-11.5803543-12.7888425l4.2571408-10.3846824,4.5263777,10.3846824h-8.7835185Z"/>
          <path class="cls-3" d="m180.5772419,54.1715999h9.0129291c-2.4836025-.8707756-3.5192386-3.6734855-4.3286152-5.7164103-.829029-2.0353031-7.3493659-16.8592899-8.0692745-18.9145999-.7297384-2.0259348-1.7580366-2.0259348-2.5885722-2.0259348h-5.1641422c2.4861021.7767751,1.1340867,2.4305184.7280724,3.5818667-.4263541,1.1738958-9.101578,21.3328918-9.101578,21.3328918-.5824579,1.2575753-1.4318201,1.2877444-1.9483017,1.7421864h7.4248388c-2.8952956-.8707756-1.3341885-2.99738-.934665-4.0548865.3985238-1.0902162,2.2713526-5.6351337,2.2713526-5.6351337h11.1799929s1.3488499,3.289724,2.5812415,6.2048535c1.2227284,2.919893.2977266,3.2974832-1.0632784,3.4851668Zm-11.5525263-12.7888425l4.223646-10.3846824,4.5638642,10.3846824h-8.7875102Z"/>
          <path class="cls-3" d="m148.7714679,54.6762179c1.0364618-.8899886,1.9711268-1.5629184,1.9711268-4.6673405v-18.3245346c0-1.4538333-.0796317-3.1005901-1.9711268-3.7006377h7.9756414c-.8223719.6884907-1.8043533,1.5568846-1.8043533,3.5005689v18.5246034c0,1.6505887-.3773647,4.079678,1.9304748,4.6673405h-8.1017629Z"/>
          <path class="cls-3" d="m105.9669764,33.7194871s-.1016302,14.637891-.1016302,16.2893903c0,1.6505887.2277517,4.079678,2.4942727,4.6673405h-7.5584576c1.0421265-.8899886,1.8711627-1.5629184,1.8711627-4.6673405,0-3.0942176.1935973-16.8818162.1935973-18.3245346,0-1.4538333-.1935973-3.1005901-2.06476-3.7006377h5.799588l17.3577787,20.4714845v-16.6817685c0-1.065287.2172612-3.1012252-2.1588929-3.8773652h7.7518883c-.9339928.6876968-2.2956772.9652526-2.2956772,3.7882869v24.0619256s-2.1412325.3736205-5.6638033-3.6052081c-3.5215711-3.9696191-15.6250664-18.4215732-15.6250664-18.4215732Z"/>
          <path class="cls-3" d="m155.3691032,75.3066459c-22.7385168-17.9711008-31.4275692-39.1286943-.3335471-68.012278.9671599-.8877878,1.8994859-.3574467,1.1324275.470638-13.6417772,14.6039111-28.8226695,37.993542-.3173862,66.643077.4491723.4582528.2700699,1.3831741-.4814941.898563Z"/>
        </g>
        <path class="cls-3" d="m195.8175268,54.4029637c-2.1073131,0-3.8217413-1.6339359-3.8217413-3.6423107s1.7144282-3.6423107,3.8217413-3.6423107,3.8217413,1.6339359,3.8217413,3.6423107-1.7144282,3.6423107-3.8217413,3.6423107Zm0-6.8221058c-1.8397817,0-3.3364408,1.426391-3.3364408,3.1797951s1.4966591,3.1797951,3.3364408,3.1797951,3.3364408-1.426391,3.3364408-3.1797951-1.4966591-3.1797951-3.3364408-3.1797951Z"/>
        <path class="cls-3" d="m196.7393133,52.736733c-.0843589-.0749781-.135069-.1339218-.135069-.4180256v-.471775c0-.2786837-.089809-.6431858-.5286647-.6431858h-1.0516423v1.5329864h-.7592298v-3.9128643h1.9345669c.764917,0,1.26562.4503204,1.26562,1.0612114,0,.257455-.090046.4932296-.2530766.6700605-.1575805.1716367-.2926495.2411947-.6412222.3161728.3992829.0537494.7874285.1662166.7874285.9006408v.396571c0,.3913768.1518934.4932296.2642139.5682077h-.8829246Zm-.6412222-3.3017474h-1.0741538v1.1576441h.9504591c.4217944,0,.6805581-.2088999.6805581-.610891,0-.3538877-.2194279-.5467531-.5568633-.5467531Z"/>
      </g>
      <text class="cls-2" transform="translate(210.3916016 54.5068359)"><tspan x="0" y="0">〇〇〇▼▼▼</tspan></text>
      <text class="cls-1" transform="translate(12.6083984 101.9453125)"><tspan x="0" y="0">キャッチコピーキャッチコピー</tspan></text>
    </g>
    <text class="cls-4" transform="translate(186.7881012 21.6936493)"><tspan x="0" y="0">*w325px × h110px</tspan></text>
  </g>
</svg>